<svg width="14" height="18" viewBox="0 0 14 18" fill="none" xmlns="http://www.w3.org/2000/svg">
<path d="M9.76293 10.7985H4.7019C4.31357 10.7985 3.99878 11.1133 3.99878 11.5016C3.99878 11.89 4.31357 12.2048 4.7019 12.2048H9.76289C10.1512 12.2048 10.466 11.89 10.466 11.5016C10.466 11.1133 10.1512 10.7985 9.76293 10.7985Z" fill="url(#paint0_linear_6463_848)"/>
<path d="M8.76 4.972H7.4C7.53333 5.05733 7.63733 5.156 7.712 5.268C7.78667 5.37733 7.84 5.49733 7.872 5.628H8.76V6.388H7.868C7.80667 6.636 7.684 6.856 7.5 7.048C7.316 7.24 7.07467 7.38933 6.776 7.496C6.85867 7.53333 6.93467 7.58267 7.004 7.644C7.076 7.70533 7.14 7.77867 7.196 7.864L8.644 10H7.672C7.49067 10 7.35733 9.928 7.272 9.784L6.056 7.932C6.01067 7.86267 5.96 7.81333 5.904 7.784C5.85067 7.75467 5.77067 7.74 5.664 7.74H4.912V7.012H5.704C6.008 7.012 6.25067 6.95467 6.432 6.84C6.616 6.72533 6.74533 6.57467 6.82 6.388H4.908V5.628H6.844C6.78 5.43333 6.65467 5.28133 6.468 5.172C6.284 5.06 6.03467 5.004 5.72 5.004H4.912V4.216H8.76V4.972Z" fill="url(#paint1_linear_6463_848)"/>
<path d="M9.3557 13.5549H4.29468C3.90634 13.5549 3.59155 13.8697 3.59155 14.2581C3.59155 14.6464 3.90634 14.9612 4.29468 14.9612H9.35567C9.744 14.9612 10.0588 14.6464 10.0588 14.2581C10.0588 13.8697 9.744 13.5549 9.3557 13.5549Z" fill="url(#paint2_linear_6463_848)"/>
<path d="M12.9474 12.3877C13.3357 12.3877 13.6505 12.0729 13.6505 11.6846V4.09732C13.6505 3.34603 13.358 2.63978 12.8268 2.1086L11.5419 0.823781C11.0108 0.29257 10.3044 0 9.55318 0H2.8125C1.26169 0 0 1.26169 0 2.8125V15.1875C0 16.7383 1.26169 18 2.8125 18H10.838C12.3797 18 13.6413 16.7459 13.6504 15.2043C13.6527 14.816 13.3398 14.4994 12.9515 14.4971C12.95 14.4971 12.9486 14.4971 12.9472 14.4971C12.5609 14.4971 12.2465 14.8092 12.2442 15.1961C12.2397 15.9668 11.6088 16.5938 10.838 16.5938H2.8125C2.03709 16.5938 1.40625 15.9629 1.40625 15.1875V2.8125C1.40625 2.03709 2.03709 1.40625 2.8125 1.40625H9.55315C9.92879 1.40625 10.2819 1.55254 10.5475 1.81814L11.8324 3.103C12.098 3.3686 12.2443 3.72171 12.2443 4.09736V11.6846C12.2443 12.0729 12.5591 12.3877 12.9474 12.3877Z" fill="url(#paint3_linear_6463_848)"/>
<defs>
<linearGradient id="paint0_linear_6463_848" x1="4.01143" y1="11.5096" x2="10.5075" y2="11.5096" gradientUnits="userSpaceOnUse">
<stop stop-color="#8A2BE2"/>
<stop offset="0.23" stop-color="#8427E1"/>
<stop offset="0.52" stop-color="#741CDD"/>
<stop offset="0.86" stop-color="#5909D7"/>
<stop offset="1" stop-color="#4B00D4"/>
</linearGradient>
<linearGradient id="paint1_linear_6463_848" x1="4.50978" y1="7.05659" x2="9.5321" y2="7.05659" gradientUnits="userSpaceOnUse">
<stop stop-color="#8A2BE2"/>
<stop offset="0.23" stop-color="#8427E1"/>
<stop offset="0.52" stop-color="#741CDD"/>
<stop offset="0.86" stop-color="#5909D7"/>
<stop offset="1" stop-color="#4B00D4"/>
</linearGradient>
<linearGradient id="paint2_linear_6463_848" x1="3.60421" y1="14.266" x2="10.1003" y2="14.266" gradientUnits="userSpaceOnUse">
<stop stop-color="#8A2BE2"/>
<stop offset="0.23" stop-color="#8427E1"/>
<stop offset="0.52" stop-color="#741CDD"/>
<stop offset="0.86" stop-color="#5909D7"/>
<stop offset="1" stop-color="#4B00D4"/>
</linearGradient>
<linearGradient id="paint3_linear_6463_848" x1="0.0267064" y1="9.10185" x2="13.7382" y2="9.10185" gradientUnits="userSpaceOnUse">
<stop stop-color="#8A2BE2"/>
<stop offset="0.23" stop-color="#8427E1"/>
<stop offset="0.52" stop-color="#741CDD"/>
<stop offset="0.86" stop-color="#5909D7"/>
<stop offset="1" stop-color="#4B00D4"/>
</linearGradient>
</defs>
</svg>
