<svg width="358" height="310" viewBox="0 0 358 310" fill="none" xmlns="http://www.w3.org/2000/svg">
<path d="M179 310C277.859 310 358 302.389 358 293C358 283.611 277.859 276 179 276C80.141 276 0 283.611 0 293C0 302.389 80.141 310 179 310Z" fill="#F1F3FA"/>
<path opacity="0.4" d="M255.811 174C253.015 79.6748 163.653 84.5899 119 124.734C163.461 80.3854 257.471 74.0097 267 173.795L255.811 174Z" fill="#8A2BE2"/>
<path d="M28 256H83V260H28V256Z" fill="#5650A3"/>
<path d="M26 213H31V295H26V213Z" fill="#6563AD"/>
<path d="M83.4558 213H26.5441C26.5441 213 25.3199 208.666 26.5441 207.736C36.6049 200.088 73.395 200.088 83.4558 207.736C84.6803 208.666 83.4558 213 83.4558 213Z" fill="#5650A3"/>
<path d="M76.5147 294.697C76.7964 294.691 76.9323 294.384 76.9824 293.949C77.1671 292.348 75.7342 290.954 73.8462 290.643C71.0041 290.175 68.4392 289.311 66.1724 288.02L62 288.117L62.1935 293.885C62.2037 294.189 62.358 294.478 62.6224 294.686C62.8867 294.895 63.2396 295.008 63.6033 295L76.5147 294.697ZM85.768 264.232C85.9729 264.394 86.3283 264.257 86.7315 263.98C88.2166 262.957 88.382 261.124 87.31 259.788C85.696 257.778 84.6139 255.65 84.1028 253.397L81.0698 251L76.3277 255.193C76.0777 255.414 75.943 255.709 75.9532 256.013C75.9634 256.317 76.1177 256.605 76.3821 256.814L85.768 264.232Z" fill="#F66531"/>
<path d="M61.0598 288.429C61.1911 289.454 66.6758 288.979 66.5445 287.954C68.3985 273.136 78.7911 243.486 75.4834 229.629C74.0174 223.488 62.8757 206.837 62.8757 206.837L93.4654 203.809L80.3405 251.684C79.6829 252.306 83.9749 255.354 84.6325 254.732C84.6325 254.732 143.398 200.203 131.379 182.091C123.518 170.243 69.2454 182.788 69.2454 182.788L16 192.523C17.6788 203.143 32.3656 219.255 46.1106 234.969L61.0598 288.429Z" fill="#3C3C3C"/>
<path d="M115.457 169.934L115 167.662C115 167.662 116.729 164.004 118.813 165.044C118.914 165.082 119.016 165.121 119.067 165.235C121.914 163.427 126.286 161.308 126.947 165.158C127.912 170.934 115.457 169.934 115.457 169.934Z" fill="#FFCCBE"/>
<path d="M90.343 139.138C95.2946 140.506 88.7149 172.05 88.7149 172.05L115.308 167.785C115.763 167.733 116.278 170.524 115.824 170.576C115.824 170.576 83.4816 188.039 74.2047 183.13C69.2441 180.505 74.2047 164.171 74.2047 164.171C74.2047 164.171 81.9919 136.831 90.343 139.138Z" fill="#8427E1"/>
<path d="M89.8452 138.471C86.3183 133.559 44.7868 117.163 31.6912 123.394C24.6884 126.726 14 191.718 14 191.718C16.0906 200.978 65.9611 188.397 69.4117 181.621C69.412 181.621 92.0781 141.581 89.8452 138.471Z" fill="#D9CCF9"/>
<path d="M72.6475 131.625L75.8808 127.862C75.8808 127.862 81.7203 136.479 90.2894 128.843C98.8584 121.208 106.22 102.227 86.2003 98.3548C65.5806 94.3663 59.0636 125.318 59.0636 125.318C57.9612 127.259 71.5455 133.566 72.6475 131.625Z" fill="#D7A28E"/>
<path d="M59.052 125C59.3516 124.836 66.2622 121.645 66.2622 121.271C66.2622 120.896 62.9782 111.759 68.5884 111.813C74.1987 111.868 70.4359 117.558 70.4359 117.558L71.6711 118.106L75.7726 112.962C75.7726 112.962 83.5038 111.157 81.2462 106.998C81.2462 106.998 113.098 126.127 118.809 105.576C122.024 94.003 83.8078 82.724 73.1727 88.6134C57.3676 97.3653 59.052 125 59.052 125Z" fill="#B499E9"/>
<path d="M76.5531 166.785L76 163.889C76 163.889 81.0323 157.681 83.1485 158.013C86.526 158.543 84.4063 160.636 82.5765 161.609C87.0375 159.748 96.5304 156.491 97.903 161.735C99.6762 168.59 76.5531 166.785 76.5531 166.785Z" fill="#FFCCBE"/>
<path d="M33.2501 123.015C38.7353 122.566 40.2054 132.111 38.2386 138.209C36.569 143.387 29.4674 160.955 29.4674 160.955L77.568 161.948C78.7179 161.84 79.616 167.774 78.4661 167.882C78.4661 167.882 22.9578 180.818 13.7208 174.031C5.57122 168.042 16.7943 124.364 33.2501 123.015Z" fill="#8A2BE2"/>
<path d="M79 213H83V295H79V213Z" fill="#6563AD"/>
<path d="M116 163.94L145.129 157L146 160.06L116.871 167L116 163.94Z" fill="#B6D7FF"/>
<path d="M83 169L92.8433 164.586L145 157L115.94 164.069L83 169Z" fill="#D0D4DD"/>
<path d="M118.625 131.525L121 166.161L117.523 166.694L81.1167 172C80.6146 170.312 81.7796 168.736 83.7005 168.435L117.276 163.538L114.304 129.049C116.225 128.748 118.133 129.869 118.625 131.525Z" fill="#F1F3FA"/>
<path d="M142.247 122.046L113 129.086C114.943 128.793 116.886 129.938 117.363 131.633L119.753 167L149 159.96L146.61 124.592C146.133 122.897 144.19 121.752 142.247 122.046Z" fill="#D0D4DD"/>
<path d="M185 220.019V285.982C185 288.756 187.748 291 191.128 291H193.185V225.097C193.185 223.252 195.007 221.744 197.27 221.744H315.459C316.972 221.744 318.31 222.419 319 223.432C317.281 218.559 311.814 215 305.319 215H191.128C187.748 215 185 217.244 185 220.019Z" fill="#D5AAFF"/>
<path d="M261 216C261 225.924 251.139 234 239.019 234C226.862 234 217 225.924 217 216C217 206.044 226.861 198 239.019 198C251.139 198 261 206.044 261 216Z" fill="#0019DC" fill-opacity="0.36"/>
<path d="M258 216.5C258 224.495 249.484 231 239.016 231C228.516 231 220 224.495 220 216.5C220 208.48 228.517 202 239.016 202C249.483 202 258 208.48 258 216.5Z" fill="#8A2BE2"/>
<path d="M234.684 213.434H239.796V214.514H234.684V216.386H239.706C239.418 217.538 238.428 217.646 235.026 217.646V219.968C235.026 222.83 236.538 224.18 239.184 224.18C241.74 224.18 243.036 222.722 243.126 220.346H240.282C240.282 221.318 239.994 221.858 239.112 221.858C238.176 221.858 237.906 221.228 237.906 220.382V219.662C240.84 219.662 242.19 218.456 242.568 216.386H244.206V214.514H242.676V213.434H244.206V211.364H234.684V213.434Z" fill="white"/>
<path d="M192 225.354V294.646C192 296.492 193.831 298 196.105 298H314.88C317.154 298 319 296.492 319 294.646V225.354C319 224.75 318.808 224.184 318.439 223.689C317.745 222.676 316.401 222 314.88 222H196.105C193.831 222 192 223.508 192 225.354Z" fill="#EDDAFF"/>
<path d="M207.081 291H201.551C201.243 291 201 290.8 201 290.546V285.988C201 285.734 201.243 285.534 201.551 285.534C201.859 285.534 202.102 285.734 202.102 285.988V290.092H207.081C207.389 290.092 207.632 290.292 207.632 290.546C207.632 290.8 207.389 291 207.081 291ZM201.551 275.844C201.243 275.844 201 275.644 201 275.39V264.797C201 264.543 201.243 264.343 201.551 264.343C201.859 264.343 202.102 264.543 202.102 264.797V275.39C202.102 275.644 201.859 275.844 201.551 275.844ZM201.551 254.653C201.243 254.653 201 254.453 201 254.199V243.605C201 243.352 201.243 243.151 201.551 243.151C201.859 243.151 202.102 243.352 202.102 243.605V254.199C202.102 254.453 201.859 254.653 201.551 254.653ZM201.551 233.466C201.243 233.466 201 233.266 201 233.012V228.454C201 228.2 201.243 228 201.551 228H207.081C207.389 228 207.632 228.2 207.632 228.454C207.632 228.708 207.389 228.908 207.081 228.908H202.102V233.012C202.102 233.266 201.859 233.466 201.551 233.466ZM294.047 228.908H283.176C282.868 228.908 282.625 228.708 282.625 228.454C282.625 228.2 282.868 228 283.176 228H294.047C294.355 228 294.598 228.2 294.598 228.454C294.598 228.708 294.355 228.908 294.047 228.908ZM272.304 228.908H261.439C261.131 228.908 260.888 228.708 260.888 228.454C260.888 228.2 261.131 228 261.439 228H272.304C272.612 228 272.855 228.2 272.855 228.454C272.855 228.708 272.612 228.908 272.304 228.908ZM250.567 228.908H239.696C239.388 228.908 239.145 228.708 239.145 228.454C239.145 228.2 239.388 228 239.696 228H250.567C250.875 228 251.118 228.2 251.118 228.454C251.118 228.708 250.875 228.908 250.567 228.908ZM228.824 228.908H217.953C217.645 228.908 217.402 228.708 217.402 228.454C217.402 228.2 217.645 228 217.953 228H228.824C229.132 228 229.375 228.2 229.375 228.454C229.375 228.708 229.132 228.908 228.824 228.908ZM310.449 233.466C310.141 233.466 309.898 233.266 309.898 233.012V228.908H304.919C304.611 228.908 304.368 228.708 304.368 228.454C304.368 228.2 304.611 228 304.919 228H310.449C310.757 228 311 228.2 311 228.454V233.012C311 233.266 310.757 233.466 310.449 233.466ZM310.449 275.849C310.141 275.849 309.898 275.648 309.898 275.395V264.801C309.898 264.547 310.141 264.347 310.449 264.347C310.757 264.347 311 264.547 311 264.801V275.395C311 275.648 310.757 275.849 310.449 275.849ZM310.449 254.657C310.141 254.657 309.898 254.457 309.898 254.203V243.61C309.898 243.356 310.141 243.156 310.449 243.156C310.757 243.156 311 243.356 311 243.61V254.203C311 254.457 310.757 254.657 310.449 254.657ZM310.449 291H304.919C304.611 291 304.368 290.8 304.368 290.546C304.368 290.292 304.611 290.092 304.919 290.092H309.898V285.988C309.898 285.734 310.141 285.534 310.449 285.534C310.757 285.534 311 285.734 311 285.988V290.546C311 290.8 310.757 291 310.449 291ZM294.047 291H283.176C282.868 291 282.625 290.8 282.625 290.546C282.625 290.292 282.868 290.092 283.176 290.092H294.047C294.355 290.092 294.598 290.292 294.598 290.546C294.598 290.8 294.355 291 294.047 291ZM272.304 291H261.433C261.125 291 260.882 290.8 260.882 290.546C260.882 290.292 261.125 290.092 261.433 290.092H272.304C272.612 290.092 272.855 290.292 272.855 290.546C272.855 290.8 272.612 291 272.304 291ZM250.562 291H239.696C239.388 291 239.145 290.8 239.145 290.546C239.145 290.292 239.388 290.092 239.696 290.092H250.562C250.869 290.092 251.112 290.292 251.112 290.546C251.112 290.8 250.869 291 250.562 291ZM228.824 291H217.953C217.645 291 217.402 290.8 217.402 290.546C217.402 290.292 217.645 290.092 217.953 290.092H228.824C229.132 290.092 229.375 290.292 229.375 290.546C229.375 290.8 229.132 291 228.824 291Z" fill="#B2C1F9"/>
<path d="M179 252.437V266.587C179 267.929 180.393 269 182.12 269H205.895C206.304 269.001 206.708 268.94 207.086 268.819C207.463 268.699 207.806 268.521 208.095 268.297C208.384 268.072 208.612 267.806 208.768 267.512C208.923 267.219 209.002 266.904 209 266.587V252.437C209 251.095 207.622 250 205.895 250H182.12C180.393 250 179 251.095 179 252.437Z" fill="#B2C1F9"/>
<path d="M203.398 262.245C205.319 260.682 205.319 258.149 203.398 256.587C201.476 255.025 198.361 255.025 196.44 256.587C194.518 258.149 194.519 260.682 196.44 262.245C198.361 263.807 201.477 263.807 203.398 262.245Z" fill="white"/>
<path d="M279 176.5C279 185.046 270.707 192 260.516 192C250.293 192 242 185.046 242 176.5C242 167.927 250.293 161 260.516 161C270.707 161 279 167.927 279 176.5Z" fill="#0019DC" fill-opacity="0.36"/>
<path d="M277 175.5C277 182.392 270.052 188 261.513 188C252.948 188 246 182.392 246 175.5C246 168.586 252.948 163 261.513 163C270.052 163 277 168.586 277 175.5Z" fill="#8A2BE2"/>
<path d="M304 194.5C304 199.738 298.845 204 292.51 204C286.155 204 281 199.738 281 194.5C281 189.246 286.155 185 292.51 185C298.845 185 304 189.246 304 194.5Z" fill="#0019DC" fill-opacity="0.36"/>
<path d="M301 195C301 199.411 296.742 203 291.508 203C286.258 203 282 199.411 282 195C282 190.575 286.258 187 291.508 187C296.742 187 301 190.575 301 195Z" fill="#8A2BE2"/>
<path d="M225 177.5C225 182.738 219.621 187 213.01 187C206.379 187 201 182.738 201 177.5C201 172.246 206.379 168 213.01 168C219.621 168 225 172.246 225 177.5Z" fill="#0019DC" fill-opacity="0.36"/>
<path d="M222 177C222 181.411 217.742 185 212.508 185C207.258 185 203 181.411 203 177C203 172.575 207.258 169 212.508 169C217.742 169 222 172.575 222 177Z" fill="#8A2BE2"/>
<path d="M37.4474 33H32V31.5865H36.0179C36.5919 25.5967 41.8876 21 48.3798 21C53.7891 21 58.3483 23.995 60 28.622L58.5705 29.0696C57.114 24.9609 53.2043 22.4135 48.3798 22.4135C42.4561 22.4135 37.6693 26.761 37.4743 32.3187L37.4474 33Z" fill="#B2C1F9"/>
<path d="M41.522 32.0639H40C40 28.1703 43.9366 25 48.7769 25V26.2257C44.7743 26.226 41.522 28.8452 41.522 32.0639ZM79 39H71.9862V38.387C71.9862 33.488 67.0421 29.5063 60.9589 29.5063C57.0332 29.5063 53.3758 31.2083 51.4047 33.9465L50.0907 33.338C52.3302 30.2162 56.4911 28.2803 60.9589 28.2803C67.6222 28.2803 73.092 32.4869 73.4862 37.7737H78.9997V39H79Z" fill="#B2C1F9"/>
<path d="M54.925 36.1645L53.6135 35.5404C55.1654 33.3599 58.0455 32 61.1384 32V33.2395C58.5862 33.2392 56.2038 34.3586 54.925 36.1645ZM22 32.0757H28.0494V33.3152H22V32.0757ZM80.9206 38.4699H83.3033V39.7094H80.9206V38.4699ZM38.5689 39.0895H37.0498C37.0498 37.2256 38.9132 35.7052 41.1975 35.7052V36.9447C39.7493 36.9447 38.5689 37.9081 38.5689 39.0895ZM252.239 77H246.742V75.7605H250.797C251.376 70.5121 256.721 66.4814 263.273 66.4814C268.732 66.4814 273.339 69.1033 275 73.1611L273.557 73.5536C272.087 69.9551 268.147 67.7212 263.273 67.7212C257.294 67.7212 252.463 71.5336 252.267 76.4029L252.239 77Z" fill="#B2C1F9"/>
<path d="M254.522 75.5614H253C253 71.9431 256.937 69 261.777 69V70.1378C257.774 70.1381 254.522 72.5694 254.522 75.5614ZM292 82H284.986V81.431C284.986 76.8834 280.042 73.1873 273.959 73.1873C270.033 73.1873 266.37 74.7672 264.405 77.3051L263.091 76.7402C265.325 73.8465 269.491 72.0495 273.959 72.0495C280.622 72.0495 286.092 75.9543 286.486 80.8619H292V82H292Z" fill="#B2C1F9"/>
<path d="M269.566 78.4944L268.252 77.8867C269.801 75.7245 272.692 74.3811 275.791 74.3811V75.6053C273.234 75.6056 270.847 76.7109 269.566 78.4944ZM236.576 74.4604H242.637V75.6846H236.576V74.4604ZM295.613 80.7758H298V82H295.613V80.7758ZM253.178 81.3878H251.656C251.656 79.5426 253.523 78.0407 255.811 78.0407V79.2649C254.36 79.2652 253.178 80.2164 253.178 81.3878ZM203.476 0H210.441V1.22418H203.476V0ZM215.692 0H251.414V1.22418H215.692V0ZM119 45.4742H125.965V46.6984H119V45.4742ZM131.216 45.4742H166.938V46.6984H131.216V45.4742Z" fill="#B2C1F9"/>
<path d="M110.262 285.084C112.801 287.741 114.003 290.111 114.593 289.996C115.77 290.064 114.722 278.987 107.013 271.799C99.4474 264.701 92.9074 265.193 91.5084 267.628C88.1911 272.698 101.877 275.832 110.262 285.084Z" fill="#0019DC" fill-opacity="0.36"/>
<path d="M112.967 290L113 289.997C112.616 288.123 112.058 286.285 111.333 284.507C111.367 284.584 111.401 284.662 111.435 284.74C111.13 282.892 110.755 280.968 110.27 278.964C110.479 280.41 110.66 281.859 110.814 283.311C110.47 282.567 110.096 281.836 109.693 281.12L109.693 281.118C109.214 279.227 108.645 277.259 107.942 275.213C108.287 276.716 108.596 278.227 108.868 279.743C108.293 278.838 107.82 278.187 107.286 277.491L107.29 277.49C106.598 275.598 105.82 273.736 104.957 271.91C105.468 273.377 105.936 274.857 106.361 276.35C105.725 275.603 105.048 274.884 104.313 274.224C103.455 272.443 102.514 270.699 101.492 269C102.096 270.409 102.655 271.836 103.17 273.277C101.359 271.946 99.2888 270.756 97.0345 270.488L97 270.581C98.7099 271.233 100.254 272.176 101.694 273.222C100.234 273.13 98.7674 273.204 97.3253 273.443C99.2124 273.406 101.094 273.644 102.907 274.15C103.588 274.7 104.248 275.273 104.886 275.867C103.535 275.526 102.144 275.346 100.747 275.333C102.584 275.611 104.364 276.168 106.02 276.982L106.021 276.978C106.624 277.607 107.288 278.369 107.864 279.13C106.601 278.463 105.248 277.966 103.845 277.652C105.555 278.233 107.156 279.075 108.587 280.146L108.59 280.125C108.75 280.356 108.906 280.586 109.059 280.821L109.062 280.843L109.077 280.849C109.304 281.198 109.522 281.552 109.734 281.909C108.624 281.106 107.402 280.458 106.104 279.983C107.71 280.788 109.163 281.847 110.404 283.116C110.613 283.608 112.024 285.974 112.967 290Z" fill="#0019DC" fill-opacity="0.36"/>
<path d="M121.598 282.951C114.787 287.352 113.935 291.142 113.237 290.996C112.55 291.039 113.162 284.116 117.662 279.624C122.078 275.188 125.895 275.496 126.712 277.018C127.739 278.699 126.016 280.239 121.598 282.951Z" fill="#0019DC" fill-opacity="0.36"/>
<path d="M115.016 290L115 289.998C115.192 288.927 115.471 287.877 115.834 286.861L115.782 286.994C115.935 285.938 116.123 284.839 116.365 283.694C116.255 284.561 116.167 285.389 116.093 286.178C116.265 285.753 116.452 285.335 116.654 284.926V284.925C116.904 283.787 117.196 282.662 117.529 281.55C117.357 282.409 117.202 283.272 117.066 284.139C117.312 283.697 117.575 283.267 117.857 282.852L117.855 282.852C118.201 281.77 118.59 280.706 119.021 279.663C118.766 280.501 118.532 281.347 118.32 282.2C118.638 281.773 118.976 281.362 119.343 280.985C119.772 279.967 120.243 278.971 120.754 278C120.452 278.805 120.173 279.62 119.915 280.444C120.14 280.255 120.369 280.074 120.604 279.901C120.843 279.729 121.09 279.573 121.345 279.432C121.852 279.146 122.402 278.929 122.983 278.85L123 278.904C122.145 279.276 121.373 279.815 120.653 280.412C121.383 280.36 122.116 280.403 122.838 280.539C121.894 280.517 120.953 280.654 120.047 280.943C119.707 281.257 119.376 281.584 119.057 281.924C119.733 281.729 120.428 281.626 121.127 281.618C120.208 281.778 119.318 282.096 118.49 282.561L118.489 282.559C118.162 282.949 117.854 283.36 117.568 283.788C118.2 283.407 118.876 283.123 119.578 282.944C118.723 283.276 117.922 283.757 117.207 284.369L117.205 284.357C117.126 284.489 117.047 284.621 116.971 284.755L116.969 284.768L116.962 284.771C116.849 284.97 116.739 285.172 116.634 285.377C117.189 284.918 117.799 284.547 118.449 284.276C117.646 284.736 116.919 285.341 116.299 286.066C116.119 286.549 115.507 287.607 115.016 290Z" fill="#0019DC" fill-opacity="0.36"/>
<path d="M112.892 300.975L111 287L125 287.025L123.108 301L112.892 300.975Z" fill="#8427E1"/>
<path d="M108.892 300.975L107 287L121 287.025L119.108 301L108.892 300.975Z" fill="url(#paint0_linear_1_2)"/>
<path d="M133.488 264.121C144.192 271.163 145.531 277.227 146.627 276.993C147.707 277.062 146.745 265.985 139.674 258.799C132.735 251.701 126.736 252.193 125.453 254.628C123.838 257.318 126.547 259.783 133.488 264.121Z" fill="#0019DC" fill-opacity="0.36"/>
<path d="M146.963 276L147 275.997C146.568 274.301 145.94 272.639 145.124 271.03L145.24 271.241C144.896 269.569 144.474 267.828 143.928 266.015C144.163 267.323 144.367 268.634 144.541 269.948C144.153 269.275 143.733 268.614 143.279 267.966L143.28 267.964C142.741 266.253 142.101 264.472 141.309 262.621C141.698 263.981 142.045 265.348 142.351 266.72C141.705 265.901 141.172 265.312 140.571 264.682L140.576 264.682C139.798 262.969 138.922 261.285 137.952 259.632C138.526 260.96 139.053 262.299 139.531 263.65C138.815 262.974 138.054 262.324 137.227 261.726C136.262 260.115 135.203 258.538 134.053 257C134.732 258.275 135.362 259.566 135.942 260.87C133.904 259.665 131.575 258.589 129.039 258.347L129 258.431C130.924 259.02 132.661 259.873 134.281 260.82C132.638 260.737 130.988 260.804 129.366 261.02C131.489 260.986 133.606 261.202 135.645 261.66C136.411 262.157 137.154 262.675 137.872 263.213C136.351 262.904 134.787 262.742 133.215 262.73C135.282 262.982 137.284 263.485 139.147 264.222L139.148 264.22C139.886 264.837 140.578 265.487 141.221 266.165C139.8 265.562 138.279 265.112 136.7 264.828C138.624 265.353 140.425 266.115 142.035 267.084L142.038 267.066C142.218 267.274 142.393 267.483 142.565 267.695L142.569 267.715L142.586 267.72C142.841 268.036 143.087 268.356 143.324 268.68C142.076 267.953 140.702 267.366 139.241 266.936C141.047 267.666 142.683 268.624 144.079 269.771C144.589 270.689 145.938 272.481 146.963 276Z" fill="#0019DC" fill-opacity="0.36"/>
<path d="M149.567 274.337C148.191 275.776 147.54 277.06 147.22 276.998C146.583 277.035 147.15 271.035 151.328 267.141C155.427 263.296 158.97 263.563 159.728 264.882C161.512 267.606 154.098 269.339 149.567 274.337Z" fill="#0019DC" fill-opacity="0.36"/>
<path d="M147.021 277L147 276.998C147.24 276.017 147.589 275.054 148.042 274.123L147.978 274.245C148.169 273.277 148.403 272.269 148.706 271.219C148.568 272.014 148.459 272.773 148.366 273.496C148.582 273.107 148.815 272.724 149.067 272.349V272.347C149.38 271.305 149.745 270.273 150.162 269.254C149.946 270.042 149.753 270.833 149.583 271.627C149.889 271.222 150.219 270.828 150.572 270.447L150.569 270.447C151.001 269.456 151.488 268.481 152.027 267.524C151.707 268.293 151.415 269.068 151.15 269.85C151.547 269.459 151.97 269.082 152.429 268.736C152.965 267.803 153.554 266.89 154.193 266C153.815 266.738 153.466 267.485 153.144 268.24C154.278 267.542 155.568 266.92 156.978 266.78L157 266.828C155.931 267.17 154.966 267.663 154.066 268.211C154.979 268.163 155.896 268.202 156.797 268.327C155.618 268.308 154.441 268.432 153.309 268.698C152.883 268.986 152.471 269.285 152.071 269.597C152.916 269.418 153.785 269.324 154.659 269.317C153.51 269.463 152.398 269.755 151.363 270.181L151.362 270.179C150.952 270.537 150.568 270.913 150.21 271.306C151 270.957 151.845 270.696 152.722 270.532C151.653 270.836 150.652 271.277 149.758 271.838L149.756 271.827C149.657 271.948 149.559 272.069 149.464 272.192L149.462 272.2C149.458 272.205 149.455 272.205 149.455 272.205C149.311 272.389 149.174 272.574 149.042 272.762C149.735 272.341 150.499 272.002 151.31 271.753C150.307 272.175 149.398 272.73 148.623 273.394C147.947 274.498 147.417 275.581 147.021 277Z" fill="#0019DC" fill-opacity="0.36"/>
<path d="M146.757 288.975L145 275L158 275.025L156.243 289L146.757 288.975Z" fill="#8427E1"/>
<path d="M142.027 288.975L140 275L155 275.025L152.973 289L142.027 288.975Z" fill="url(#paint1_linear_1_2)"/>
<path d="M209.456 173.956H212.864V174.676H209.456V175.924H212.804C212.612 176.692 211.952 176.764 209.684 176.764V178.312C209.684 180.22 210.692 181.12 212.456 181.12C214.16 181.12 215.024 180.148 215.084 178.564H213.188C213.188 179.212 212.996 179.572 212.408 179.572C211.784 179.572 211.604 179.152 211.604 178.588V178.108C213.56 178.108 214.46 177.304 214.712 175.924H215.804V174.676H214.784V173.956H215.804V172.576H209.456V173.956Z" fill="white"/>
<path d="M256.646 173.021H261.474V174.041H256.646V175.809H261.389C261.117 176.897 260.182 176.999 256.969 176.999V179.192C256.969 181.895 258.397 183.17 260.896 183.17C263.31 183.17 264.534 181.793 264.619 179.549H261.933C261.933 180.467 261.661 180.977 260.828 180.977C259.944 180.977 259.689 180.382 259.689 179.583V178.903C262.46 178.903 263.735 177.764 264.092 175.809H265.639V174.041H264.194V173.021H265.639V171.066H256.646V173.021Z" fill="white"/>
<path d="M288.494 192.369H292.186V193.149H288.494V194.501H292.121C291.913 195.333 291.198 195.411 288.741 195.411V197.088C288.741 199.155 289.833 200.13 291.744 200.13C293.59 200.13 294.526 199.077 294.591 197.361H292.537C292.537 198.063 292.329 198.453 291.692 198.453C291.016 198.453 290.821 197.998 290.821 197.387V196.867C292.94 196.867 293.915 195.996 294.188 194.501H295.371V193.149H294.266V192.369H295.371V190.874H288.494V192.369Z" fill="white"/>
<defs>
<linearGradient id="paint0_linear_1_2" x1="107.027" y1="294.079" x2="121.09" y2="294.079" gradientUnits="userSpaceOnUse">
<stop stop-color="#8A2BE2"/>
<stop offset="0.23" stop-color="#8427E1"/>
<stop offset="0.52" stop-color="#741CDD"/>
<stop offset="0.86" stop-color="#5909D7"/>
<stop offset="1" stop-color="#4B00D4"/>
</linearGradient>
<linearGradient id="paint1_linear_1_2" x1="140.029" y1="282.079" x2="155.096" y2="282.079" gradientUnits="userSpaceOnUse">
<stop stop-color="#8A2BE2"/>
<stop offset="0.23" stop-color="#8427E1"/>
<stop offset="0.52" stop-color="#741CDD"/>
<stop offset="0.86" stop-color="#5909D7"/>
<stop offset="1" stop-color="#4B00D4"/>
</linearGradient>
</defs>
</svg>
