<svg width="22" height="22" viewBox="0 0 22 22" fill="none" xmlns="http://www.w3.org/2000/svg">
<path d="M21.3555 16.7578H20.4647L19.3538 14.536C19.2447 14.3176 19.0215 14.1797 18.7773 14.1797H15.4688V7.39174L15.7007 7.58502C15.9736 7.81245 16.38 7.77653 16.6084 7.50252C16.8363 7.22906 16.7993 6.82262 16.5259 6.59476C16.2247 6.34378 14.5544 4.95189 14.1796 4.63959V0.644531C14.1796 0.288578 13.8911 0 13.5351 0H10.957C10.601 0 10.3125 0.288578 10.3125 0.644531V1.41689L8.79154 0.149402C8.67995 0.056418 8.53106 8.59375e-05 8.37908 0.000171875C8.2256 4.29688e-05 8.07727 0.0565039 7.96632 0.149402C7.6117 0.444898 0.666318 6.23275 0.231947 6.59472C-0.0415059 6.82258 -0.0785019 7.22902 0.149404 7.50247C0.377869 7.77661 0.784397 7.81232 1.05716 7.58497L1.28906 7.39174V14.1797H0.644533C0.28858 14.1797 1.9768e-06 14.4683 1.9768e-06 14.8242C1.9768e-06 15.1802 0.28858 15.4688 0.644533 15.4688H12.4923L11.8478 16.7578H10.957C10.6011 16.7578 10.3125 17.0464 10.3125 17.4023V20.0664C10.3125 20.4224 10.6011 20.7109 10.957 20.7109V21.3555C10.957 21.7114 11.2456 22 11.6016 22C11.9575 22 12.2461 21.7114 12.2461 21.3555V20.7109H20.0664V21.3555C20.0664 21.7114 20.355 22 20.7109 22C21.0669 22 21.3555 21.7114 21.3555 21.3555V20.7109C21.7114 20.7109 22 20.4224 22 20.0664V17.4023C22 17.0464 21.7115 16.7578 21.3555 16.7578ZM11.6016 1.28906H12.8906V3.56533L11.6016 2.49111V1.28906ZM6.44531 14.1797V10.3125H7.73438V14.1797H6.44531ZM10.3125 14.1797H9.02344V10.3125H10.3125V14.1797ZM10.957 9.02344H5.80078C5.44483 9.02344 5.15625 9.31202 5.15625 9.66797V14.1797H2.57813V6.31752L8.37891 1.48354C9.14809 2.12455 13.5766 5.81492 14.1797 6.31752V14.1797C13.4128 14.1797 12.3845 14.1797 11.6016 14.1797V9.66797C11.6016 9.31202 11.313 9.02344 10.957 9.02344ZM13.9335 15.4688H18.379L19.0236 16.7578H13.289L13.9335 15.4688ZM11.6016 18.0469H20.0626C20.064 18.0469 20.0655 18.047 20.0669 18.047C20.0678 18.047 20.0686 18.0469 20.0695 18.0469H20.7109V19.4219H11.6016V18.0469Z" fill="white"/>
<path d="M8.37891 3.86719C7.31272 3.86719 6.44531 4.7346 6.44531 5.80078C6.44531 6.86696 7.31272 7.73438 8.37891 7.73438C9.44509 7.73438 10.3125 6.86696 10.3125 5.80078C10.3125 4.7346 9.44513 3.86719 8.37891 3.86719ZM8.37891 6.44531C8.02351 6.44531 7.73438 6.15618 7.73438 5.80078C7.73438 5.44539 8.02351 5.15625 8.37891 5.15625C8.7343 5.15625 9.02344 5.44539 9.02344 5.80078C9.02344 6.15618 8.73434 6.44531 8.37891 6.44531Z" fill="white"/>
</svg>
