<svg width="18" height="19" viewBox="0 0 18 19" fill="none" xmlns="http://www.w3.org/2000/svg">
<path d="M4.9421 15.9126H2.8327C2.6928 15.9126 2.5587 15.857 2.4598 15.7581C2.3609 15.6592 2.3053 15.5251 2.3053 15.3852V7.8735C2.3053 7.7337 2.3609 7.5995 2.4598 7.5007C2.5587 7.4018 2.6928 7.3462 2.8327 7.3462H4.9421C5.082 7.3462 5.2161 7.4018 5.315 7.5007C5.4139 7.5995 5.4695 7.7337 5.4695 7.8735V15.3852C5.4695 15.5251 5.4139 15.6592 5.315 15.7581C5.2161 15.857 5.082 15.9126 4.9421 15.9126ZM3.3601 14.8579H4.4148V8.4009H3.3601V14.8579Z" fill="url(#paint0_linear_1_11)"/>
<path d="M10.0549 15.9126H7.94541C7.80561 15.9126 7.67141 15.857 7.57261 15.7581C7.47371 15.6592 7.41811 15.5251 7.41811 15.3852V7.8735C7.41811 7.7337 7.47371 7.5995 7.57261 7.5007C7.67141 7.4018 7.80561 7.3462 7.94541 7.3462H10.0549C10.1947 7.3462 10.3289 7.4018 10.4278 7.5007C10.5267 7.5995 10.5822 7.7337 10.5822 7.8735V15.3852C10.5822 15.5251 10.5267 15.6592 10.4278 15.7581C10.3289 15.857 10.1947 15.9126 10.0549 15.9126ZM8.47281 14.8579H9.52751V8.4009H8.47281V14.8579Z" fill="url(#paint1_linear_1_11)"/>
<path d="M15.1676 15.9126H13.0582C12.9183 15.9126 12.7842 15.857 12.6853 15.7581C12.5864 15.6592 12.5308 15.5251 12.5308 15.3852V7.8735C12.5308 7.7337 12.5864 7.5995 12.6853 7.5007C12.7842 7.4018 12.9183 7.3462 13.0582 7.3462H15.1676C15.3075 7.3462 15.4416 7.4018 15.5405 7.5007C15.6394 7.5995 15.695 7.7337 15.695 7.8735V15.3852C15.695 15.5251 15.6394 15.6592 15.5405 15.7581C15.4416 15.857 15.3075 15.9126 15.1676 15.9126ZM13.5855 14.8579H14.6403V8.4009H13.5855V14.8579Z" fill="url(#paint2_linear_1_11)"/>
<path d="M16.2223 8.4008H1.778C1.6381 8.4008 1.504 8.3453 1.4051 8.2464C1.3062 8.1475 1.2506 8.0134 1.2506 7.8735V5.7641C1.2506 5.6242 1.3062 5.4901 1.4051 5.3912C1.504 5.2923 1.6381 5.2367 1.778 5.2367H16.2223C16.3622 5.2367 16.4963 5.2923 16.5952 5.3912C16.6941 5.4901 16.7497 5.6242 16.7497 5.7641V7.8735C16.7497 8.0134 16.6941 8.1475 16.5952 8.2464C16.4963 8.3453 16.3622 8.4008 16.2223 8.4008ZM2.30529 7.3461H15.695V6.2914H2.30529V7.3461Z" fill="url(#paint3_linear_1_11)"/>
<path d="M17.473 18.0219H0.5274C0.3875 18.0219 0.2534 17.9664 0.1545 17.8675C0.0556 17.7686 0 17.6344 0 17.4946V15.3851C0 15.2453 0.0556 15.1111 0.1545 15.0122C0.2534 14.9134 0.3875 14.8578 0.5274 14.8578H17.473C17.6128 14.8578 17.747 14.9134 17.8459 15.0122C17.9448 15.1111 18.0003 15.2453 18.0003 15.3851V17.4946C18.0003 17.6344 17.9448 17.7686 17.8459 17.8675C17.747 17.9664 17.6128 18.0219 17.473 18.0219ZM1.0547 16.9672H16.9456V15.9125H1.0547V16.9672Z" fill="url(#paint4_linear_1_11)"/>
<path d="M17.4732 6.2914H0.527397C0.412797 6.2911 0.301497 6.2535 0.210197 6.1843C0.118897 6.1151 0.052597 6.018 0.0213971 5.9078C-0.00980295 5.7976 -0.00430343 5.6802 0.0371966 5.5734C0.0785966 5.4666 0.153697 5.3761 0.250997 5.3158L8.7238 0.100503C8.807 0.049203 8.9029 0.0220032 9.0007 0.0220032C9.0985 0.0220032 9.1943 0.049203 9.2776 0.100503L17.7496 5.315C17.8469 5.3754 17.922 5.4658 17.9634 5.5726C18.0049 5.6794 18.0104 5.7968 17.9792 5.907C17.9479 6.0172 17.8817 6.1143 17.7904 6.1835C17.6991 6.2527 17.5878 6.2903 17.4732 6.2906V6.2914ZM2.3908 5.2367H15.6098L9.0002 1.1681L2.3908 5.2367Z" fill="url(#paint5_linear_1_11)"/>
<path d="M9.3588 4.178H8.6418C8.502 4.178 8.3678 4.1224 8.2689 4.0235C8.17 3.9246 8.1145 3.7905 8.1145 3.6506C8.1145 3.5108 8.17 3.3766 8.2689 3.2778C8.3678 3.1789 8.502 3.1233 8.6418 3.1233H9.3588C9.4986 3.1233 9.6328 3.1789 9.7317 3.2778C9.8306 3.3766 9.8861 3.5108 9.8861 3.6506C9.8861 3.7905 9.8306 3.9246 9.7317 4.0235C9.6328 4.1224 9.4986 4.178 9.3588 4.178Z" fill="url(#paint6_linear_1_11)"/>
<defs>
<linearGradient id="paint0_linear_1_11" x1="2.3115" y1="11.6779" x2="5.4898" y2="11.6779" gradientUnits="userSpaceOnUse">
<stop stop-color="#8A2BE2"/>
<stop offset="0.23" stop-color="#8427E1"/>
<stop offset="0.52" stop-color="#741CDD"/>
<stop offset="0.86" stop-color="#5909D7"/>
<stop offset="1" stop-color="#4B00D4"/>
</linearGradient>
<linearGradient id="paint1_linear_1_11" x1="7.42431" y1="11.6779" x2="10.6026" y2="11.6779" gradientUnits="userSpaceOnUse">
<stop stop-color="#8A2BE2"/>
<stop offset="0.23" stop-color="#8427E1"/>
<stop offset="0.52" stop-color="#741CDD"/>
<stop offset="0.86" stop-color="#5909D7"/>
<stop offset="1" stop-color="#4B00D4"/>
</linearGradient>
<linearGradient id="paint2_linear_1_11" x1="12.537" y1="11.6779" x2="15.7153" y2="11.6779" gradientUnits="userSpaceOnUse">
<stop stop-color="#8A2BE2"/>
<stop offset="0.23" stop-color="#8427E1"/>
<stop offset="0.52" stop-color="#741CDD"/>
<stop offset="0.86" stop-color="#5909D7"/>
<stop offset="1" stop-color="#4B00D4"/>
</linearGradient>
<linearGradient id="paint3_linear_1_11" x1="1.2809" y1="6.8367" x2="16.8492" y2="6.8367" gradientUnits="userSpaceOnUse">
<stop stop-color="#8A2BE2"/>
<stop offset="0.23" stop-color="#8427E1"/>
<stop offset="0.52" stop-color="#741CDD"/>
<stop offset="0.86" stop-color="#5909D7"/>
<stop offset="1" stop-color="#4B00D4"/>
</linearGradient>
<linearGradient id="paint4_linear_1_11" x1="0.0352" y1="16.4578" x2="18.1159" y2="16.4578" gradientUnits="userSpaceOnUse">
<stop stop-color="#8A2BE2"/>
<stop offset="0.23" stop-color="#8427E1"/>
<stop offset="0.52" stop-color="#741CDD"/>
<stop offset="0.86" stop-color="#5909D7"/>
<stop offset="1" stop-color="#4B00D4"/>
</linearGradient>
<linearGradient id="paint5_linear_1_11" x1="0.0366969" y1="3.1922" x2="18.1147" y2="3.1922" gradientUnits="userSpaceOnUse">
<stop stop-color="#8A2BE2"/>
<stop offset="0.23" stop-color="#8427E1"/>
<stop offset="0.52" stop-color="#741CDD"/>
<stop offset="0.86" stop-color="#5909D7"/>
<stop offset="1" stop-color="#4B00D4"/>
</linearGradient>
<linearGradient id="paint6_linear_1_11" x1="8.1179" y1="3.6566" x2="9.8975" y2="3.6566" gradientUnits="userSpaceOnUse">
<stop stop-color="#8A2BE2"/>
<stop offset="0.23" stop-color="#8427E1"/>
<stop offset="0.52" stop-color="#741CDD"/>
<stop offset="0.86" stop-color="#5909D7"/>
<stop offset="1" stop-color="#4B00D4"/>
</linearGradient>
</defs>
</svg>
