<svg width="18" height="19" viewBox="0 0 18 19" fill="none" xmlns="http://www.w3.org/2000/svg">
<path d="M9.00364 6.93439C6.29336 6.93439 3.57685 6.93439 0.86658 6.92816C0.692125 6.92816 0.498979 6.90324 0.349446 6.82847C-0.124073 6.57302 -0.111612 5.94374 0.368138 5.62598C1.42732 4.90324 2.49897 4.19919 3.56439 3.48891C5.20302 2.39233 6.84788 1.30199 8.48651 0.205417C8.89149 -0.0687269 9.10333 -0.0687269 9.50831 0.199186C12.1875 1.98735 14.8728 3.76928 17.552 5.56367C17.7202 5.67582 17.8822 5.85651 17.957 6.04343C18.1003 6.4048 17.8448 6.81601 17.4647 6.89701C17.3464 6.92193 17.2155 6.92816 17.0971 6.92816C14.3993 6.93439 11.7015 6.93439 9.00364 6.93439ZM16.2685 5.91882C16.1999 5.86274 16.1813 5.84405 16.1563 5.82536C13.8199 4.26772 11.4772 2.71009 9.14071 1.14C9.00987 1.05277 8.9351 1.09015 8.83542 1.15869C6.53012 2.69763 4.22483 4.23657 1.9133 5.77551C1.86346 5.80667 1.81362 5.85028 1.73262 5.91258C6.59866 5.91882 11.4087 5.91882 16.2685 5.91882Z" fill="white"/>
<path d="M8.97873 18.3739C6.6672 18.3739 4.36191 18.3802 2.05038 18.3739C0.96627 18.3677 0.249758 17.3085 0.654743 16.3178C0.885273 15.7509 1.42109 15.3895 2.06284 15.3895C3.51455 15.3833 4.9725 15.3895 6.42421 15.3895C9.58932 15.3895 12.7545 15.3895 15.9134 15.3895C16.8106 15.3895 17.4648 16.0437 17.4523 16.9097C17.4398 17.7322 16.7919 18.3677 15.9507 18.3739C14.418 18.3802 12.8853 18.3739 11.3588 18.3739C10.5613 18.3739 9.77001 18.3739 8.97873 18.3739ZM8.99119 17.3833C11.2342 17.3833 13.4835 17.3833 15.7264 17.3833C15.8012 17.3833 15.8822 17.3895 15.957 17.3833C16.2623 17.3583 16.4679 17.1527 16.4617 16.8786C16.4617 16.6044 16.256 16.4051 15.9445 16.3864C15.8884 16.3801 15.8386 16.3864 15.7825 16.3864C11.2592 16.3864 6.73574 16.3864 2.2186 16.3864C1.77623 16.3864 1.54571 16.5546 1.53947 16.8786C1.53324 17.2088 1.77623 17.3895 2.23106 17.3895C4.48029 17.3833 6.73574 17.3833 8.99119 17.3833Z" fill="white"/>
<path d="M2.53016 11.1399C2.53016 10.2551 2.53016 9.37041 2.53016 8.47944C2.53016 8.26137 2.60492 8.08069 2.8043 7.97477C2.97875 7.88754 3.14698 7.9 3.30897 8.00592C3.48342 8.1243 3.52704 8.29876 3.52704 8.4919C3.52704 8.95296 3.52704 9.40779 3.52704 9.86885C3.52704 11.1212 3.52704 12.3735 3.52704 13.6196C3.52704 13.6757 3.52704 13.7256 3.52704 13.7816C3.52081 14.1492 3.32143 14.386 3.01614 14.3798C2.7233 14.3735 2.52393 14.1492 2.52393 13.7879C2.52393 12.9156 2.53016 12.0246 2.53016 11.1399Z" fill="white"/>
<path d="M14.4679 11.1402C14.4679 10.2617 14.4679 9.38322 14.4679 8.50472C14.4679 8.12465 14.7171 7.87543 15.0349 7.92528C15.2529 7.96266 15.4025 8.08727 15.4461 8.31157C15.4648 8.42372 15.4648 8.5421 15.4648 8.66048C15.4648 10.324 15.4648 11.9876 15.4648 13.6511C15.4648 13.7259 15.471 13.8069 15.4648 13.8817C15.4398 14.1807 15.228 14.3926 14.9539 14.3863C14.6922 14.3801 14.4928 14.1807 14.4679 13.8879C14.4616 13.8194 14.4679 13.7508 14.4679 13.6761C14.4679 12.8349 14.4679 11.9876 14.4679 11.1402Z" fill="white"/>
<path d="M11.4833 11.1647C11.4833 12.0432 11.4896 12.9217 11.4771 13.8002C11.4771 13.956 11.4023 14.1304 11.3089 14.255C11.1905 14.4046 10.9787 14.4482 10.8229 14.3423C10.6858 14.255 10.5986 14.0868 10.5051 13.9497C10.474 13.9061 10.4989 13.8314 10.4989 13.769C10.4989 12.0307 10.4989 10.2862 10.4989 8.54786C10.4989 8.50424 10.4989 8.45441 10.4989 8.4108C10.5176 8.13042 10.7294 7.9248 10.9974 7.9248C11.2653 7.9248 11.4771 8.13041 11.4833 8.41702C11.4896 9.13976 11.4896 9.86251 11.4896 10.5852C11.4833 10.7784 11.4833 10.9715 11.4833 11.1647Z" fill="white"/>
<path d="M6.51766 11.1588C6.51766 10.2492 6.51143 9.3395 6.51766 8.42984C6.51766 8.13077 6.73573 7.91895 7.00988 7.91895C7.28402 7.91895 7.48963 8.137 7.50209 8.42984C7.50209 8.49214 7.50209 8.55446 7.50209 8.61676C7.50209 9.60119 7.50209 10.5918 7.50209 11.5763C7.50209 12.3115 7.50209 13.0529 7.50209 13.7881C7.50209 13.894 7.4834 14.0062 7.44601 14.1059C7.35879 14.3115 7.12203 14.4174 6.90396 14.3675C6.66097 14.3115 6.51766 14.137 6.51766 13.8566C6.51766 12.9657 6.51766 12.0622 6.51766 11.1588Z" fill="white"/>
</svg>
