<svg width="60" height="60" viewBox="0 0 60 60" fill="none" xmlns="http://www.w3.org/2000/svg">
<path d="M29.9999 55.7544C44.2237 55.7544 55.7544 44.2237 55.7544 29.9999C55.7544 15.776 44.2237 4.24536 29.9999 4.24536C15.776 4.24536 4.24536 15.776 4.24536 29.9999C4.24536 44.2237 15.776 55.7544 29.9999 55.7544Z" fill="white"/>
<path d="M12.0308 42.1673L42.1673 12.031C38.6971 9.67678 34.5094 8.30099 30.0001 8.30099C18.0159 8.30099 8.30078 18.0162 8.30078 30.0003C8.30078 34.5093 9.67657 38.6971 12.0308 42.1673Z" fill="white"/>
<path opacity="0.1" d="M9.79774 37.9337C9.74044 37.2352 9.71044 36.529 9.71044 35.8157C9.71044 21.6733 21.1752 10.2086 35.3175 10.2086C36.8084 10.2086 38.2694 10.3361 39.6903 10.5807C36.7736 9.12226 33.483 8.30089 30.0001 8.30089C18.0159 8.30089 8.30078 18.0161 8.30078 30.0002C8.3009 32.8003 8.83176 35.4763 9.79774 37.9337Z" fill="black"/>
<path d="M30 0C13.4315 0 0 13.4315 0 30C0 46.5685 13.4315 60 30 60C46.5685 60 60 46.5685 60 30C60 13.4315 46.5687 0 30 0ZM8.30077 30C8.30077 18.0158 18.016 8.30066 30.0001 8.30066C34.5094 8.30066 38.6971 9.67644 42.1673 12.0306L12.0308 42.1673C9.67656 38.6971 8.30077 34.5093 8.30077 30ZM30 51.6995C25.4907 51.6995 21.303 50.3237 17.8328 47.9695L47.9695 17.8331C50.3237 21.3032 51.6995 25.491 51.6995 30.0002C51.6995 41.9842 41.9842 51.6995 30 51.6995Z" fill="#FF6465"/>
</svg>
