<svg width="16" height="16" viewBox="0 0 16 16" fill="none" xmlns="http://www.w3.org/2000/svg">
<path d="M1.45455 1.3335H14.5455C15.3513 1.3335 16 1.92816 16 2.66683V6.00016H0V2.66683C0 1.92816 0.648727 1.3335 1.45455 1.3335Z" fill="#5D008F"/>
<path d="M0 5.3335V14.6668C0 15.4055 0.648727 16.0002 1.45455 16.0002H14.5455C15.3513 16.0002 16 15.4055 16 14.6668V5.3335H0Z" fill="url(#paint0_linear_122_62)"/>
<path d="M4.36373 0.666667C4.36373 0.298477 4.03811 0 3.63645 0C3.23479 0 2.90918 0.298477 2.90918 0.666667V3.33333C2.90918 3.70152 3.23479 4 3.63645 4C4.03811 4 4.36373 3.70152 4.36373 3.33333V0.666667Z" fill="#0019DC"/>
<path d="M13.091 0.666667C13.091 0.298477 12.7654 0 12.3637 0C11.9621 0 11.6365 0.298477 11.6365 0.666667V3.33333C11.6365 3.70152 11.9621 4 12.3637 4C12.7654 4 13.091 3.70152 13.091 3.33333V0.666667Z" fill="#0019DC"/>
<path d="M13.091 6.6665H11.6365V7.99984H13.091V6.6665Z" fill="#3C00F2" fill-opacity="0.36"/>
<path d="M10.1818 6.6665H8.72729V7.99984H10.1818V6.6665Z" fill="#3C00F2" fill-opacity="0.36"/>
<path d="M7.27266 6.6665H5.81812V7.99984H7.27266V6.6665Z" fill="#3C00F2" fill-opacity="0.36"/>
<path d="M4.36373 6.6665H2.90918V7.99984H4.36373V6.6665Z" fill="#0019DC" fill-opacity="0.36"/>
<path d="M13.091 9.3335H11.6365V10.6668H13.091V9.3335Z" fill="#3C00F2" fill-opacity="0.36"/>
<path d="M10.1818 9.3335H8.72729V10.6668H10.1818V9.3335Z" fill="#3C00F2" fill-opacity="0.36"/>
<path d="M7.27266 9.3335H5.81812V10.6668H7.27266V9.3335Z" fill="#3C00F2" fill-opacity="0.36"/>
<path d="M4.36373 9.3335H2.90918V10.6668H4.36373V9.3335Z" fill="#3C00F2" fill-opacity="0.36"/>
<path d="M10.1818 12H8.72729V13.3333H10.1818V12Z" fill="#3C00F2" fill-opacity="0.36"/>
<path d="M7.27266 12H5.81812V13.3333H7.27266V12Z" fill="#3C00F2" fill-opacity="0.36"/>
<path d="M4.36373 12H2.90918V13.3333H4.36373V12Z" fill="#3C00F2" fill-opacity="0.36"/>
<defs>
<linearGradient id="paint0_linear_122_62" x1="0" y1="10.6668" x2="16" y2="10.6668" gradientUnits="userSpaceOnUse">
<stop stop-color="#F3F3F3"/>
<stop offset="1" stop-color="#DFE3E4"/>
</linearGradient>
</defs>
</svg>
