<?xml version="1.0" encoding="utf-8"?>
<!-- Generator: Adobe Illustrator 25.4.8, SVG Export Plug-In . SVG Version: 6.00 Build 0)  -->
<svg version="1.1" id="Layer_1" xmlns="http://www.w3.org/2000/svg" xmlns:xlink="http://www.w3.org/1999/xlink" x="0px" y="0px"
	 viewBox="0 0 1252 260" style="enable-background:new 0 0 1252 260;" xml:space="preserve">
<style type="text/css">
	.st0{fill:url(#SVGID_1_);}
</style>
<linearGradient id="SVGID_1_" gradientUnits="userSpaceOnUse" x1="1246.1807" y1="1003.5467" x2="1.1806" y2="986.0466" gradientTransform="matrix(1 0 0 -1 0 1116)">
	<stop  offset="0" style="stop-color:#7D23E0"/>
	<stop  offset="1" style="stop-color:#4201D3"/>
</linearGradient>
<path class="st0" d="M1240.3,4c-3.5,3.1-34.7,38-35.9,39.5c-1.3,1.4,1.5-0.9-1.1,0.6c-9.9,0.8-42-7.6-84.2,11.5
	c-49.2,22.4-57.9,54.5-57.9,54.5c-1.2,0.2-2.5,0.2-3.8,0c-30.9-9-46.7-16.5-95.7-5.6c-16,4.6-30.7,12.7-43,23.8
	c-12.4,11.1-22,24.9-28.3,40.3c-14.2-37.8-56.3-19.4-56.3-19.4c-8.6-16.1-20.4-30.2-34.8-41.5c-14.3-11.3-30.8-19.5-48.4-24.2
	c-99.8-25.2-163.4,22.9-167.6,25.2c-70.2-13.6-121.5,33.1-123,67.3c-25.9-25.9-80.9-49.7-168.3-44.4C166.7,139,101.3,248.5,99,253.4
	v0.4c-25.3-18.3-65.6-25.9-94.5,2.5L0,259.9V0h1244.6L1240.3,4z"/>
</svg>
