<svg width="18" height="18" viewBox="0 0 18 18" fill="none" xmlns="http://www.w3.org/2000/svg">
<path d="M4.08463 8.18461C3.03664 8.18461 1.98864 8.18461 0.940642 8.18461C0.332292 8.18461 0 7.85743 0 7.25419C0 5.14797 0 3.03664 0 0.930417C0 0.332292 0.32718 0 0.925305 0C3.04175 0 5.15308 0 7.26953 0C7.85231 0 8.18972 0.332292 8.18972 0.909969C8.18972 3.03152 8.18972 5.15308 8.18972 7.26953C8.18972 7.8472 7.85231 8.17949 7.26953 8.17949C6.20108 8.18972 5.14286 8.18461 4.08463 8.18461ZM6.53848 1.65124C4.89747 1.65124 3.27691 1.65124 1.65124 1.65124C1.65124 3.28713 1.65124 4.91281 1.65124 6.53337C3.28713 6.53337 4.91281 6.53337 6.53848 6.53337C6.53848 4.90258 6.53848 3.28202 6.53848 1.65124Z" fill="#3C00F2" fill-opacity="0.36"/>
<path d="M9.81543 4.07952C9.81543 3.03153 9.81543 1.98353 9.81543 0.93553C9.81543 0.32718 10.1426 0 10.751 0C12.8572 0 14.9685 0 17.0747 0C17.6728 0 18.0051 0.32718 18.0051 0.925305C18.0051 3.04175 18.0051 5.15308 18.0051 7.26953C18.0051 7.85231 17.6728 8.18972 17.0901 8.18972C14.9685 8.18972 12.8469 8.18972 10.7305 8.18972C10.1579 8.18972 9.82054 7.85231 9.82054 7.28486C9.81543 6.21642 9.81543 5.14797 9.81543 4.07952ZM11.4667 1.64612C11.4667 3.28713 11.4667 4.91281 11.4667 6.52826C13.1026 6.52826 14.7282 6.52826 16.3488 6.52826C16.3488 4.89236 16.3488 3.2718 16.3488 1.64612C14.7231 1.64612 13.1026 1.64612 11.4667 1.64612Z" fill="url(#paint0_linear_575_41568)"/>
<path d="M0 13.895C0 12.847 0 11.799 0 10.751C0 10.1426 0.32718 9.81543 0.93553 9.81543C3.04175 9.81543 5.15308 9.81543 7.2593 9.81543C7.85743 9.81543 8.18461 10.1426 8.18461 10.7407C8.18461 12.8572 8.18461 14.9685 8.18461 17.085C8.18461 17.6678 7.85231 18 7.26953 18C5.14797 18 3.02641 18 0.909969 18C0.337404 18 0 17.6626 0 17.0952C0 16.0267 0 14.9634 0 13.895ZM1.65124 11.4616C1.65124 13.1026 1.65124 14.7282 1.65124 16.3437C3.29225 16.3437 4.91281 16.3437 6.53337 16.3437C6.53337 14.7078 6.53337 13.0872 6.53337 11.4616C4.9077 11.4616 3.28713 11.4616 1.65124 11.4616Z" fill="url(#paint1_linear_575_41568)"/>
<path d="M9.82054 14.0178C9.77964 11.7736 11.4973 9.91785 13.7723 9.82072C16.0012 9.72359 17.908 11.4873 17.9949 13.7827C18.0767 16.0371 16.3079 17.9286 14.0279 17.9951C11.8296 18.0615 9.90745 16.3643 9.82054 14.0178ZM16.3641 13.9002C16.3641 12.5608 15.265 11.4566 13.9307 11.4515C12.5658 11.4464 11.4564 12.5455 11.4615 13.9002C11.4615 15.2601 12.5607 16.3592 13.9256 16.3592C15.265 16.3592 16.3641 15.255 16.3641 13.9002Z" fill="#3C00F2" fill-opacity="0.36"/>
<defs>
<linearGradient id="paint0_linear_575_41568" x1="9.83145" y1="4.1412" x2="18.0577" y2="4.1412" gradientUnits="userSpaceOnUse">
<stop stop-color="#8A2BE2"/>
<stop offset="0.23" stop-color="#8427E1"/>
<stop offset="0.52" stop-color="#741CDD"/>
<stop offset="0.86" stop-color="#5909D7"/>
<stop offset="1" stop-color="#4B00D4"/>
</linearGradient>
<linearGradient id="paint1_linear_575_41568" x1="0.0160127" y1="13.9541" x2="8.23715" y2="13.9541" gradientUnits="userSpaceOnUse">
<stop stop-color="#8A2BE2"/>
<stop offset="0.23" stop-color="#8427E1"/>
<stop offset="0.52" stop-color="#741CDD"/>
<stop offset="0.86" stop-color="#5909D7"/>
<stop offset="1" stop-color="#4B00D4"/>
</linearGradient>
</defs>
</svg>
