<svg width="61" height="61" viewBox="0 0 61 61" fill="none" xmlns="http://www.w3.org/2000/svg">
<circle cx="30.5" cy="30.5" r="27.5" stroke="#FF6465" stroke-width="6"/>
<path d="M32.588 30.5016L39.6628 23.4268C40.2395 22.8505 40.2395 21.9157 39.6628 21.3395C39.087 20.7629 38.1514 20.7629 37.5756 21.3395L30.5008 28.4144L23.426 21.3395C22.8501 20.7628 21.9145 20.7628 21.3387 21.3395C20.7621 21.9157 20.7621 22.8505 21.3387 23.4267L28.4135 30.5016L21.3387 37.5764C20.7662 38.1489 20.7662 39.0912 21.3387 39.6637C21.9112 40.2362 22.8535 40.2362 23.426 39.6637L30.5008 32.5889L37.5756 39.6637C38.1481 40.2362 39.0903 40.2362 39.6628 39.6637C40.2353 39.0912 40.2353 38.1489 39.6628 37.5764L32.588 30.5016Z" fill="#FF6465" stroke="#FF6465" stroke-width="4"/>
</svg>
