<svg width="498" height="131" viewBox="0 0 498 131" fill="none" xmlns="http://www.w3.org/2000/svg">
<rect x="0.499878" y="0.5" width="497" height="130" rx="9.5" fill="white" stroke="#8A2BE2" stroke-dasharray="10 10"/>
<rect width="188" height="19" transform="translate(162 82)" fill="white"/>
<path d="M173.328 92.272C173.328 93.1307 173.192 93.912 172.92 94.616C172.648 95.32 172.264 95.9227 171.768 96.424C171.272 96.9253 170.677 97.3147 169.984 97.592C169.291 97.864 168.523 98 167.68 98H163.392V86.536H167.68C168.523 86.536 169.291 86.6747 169.984 86.952C170.677 87.224 171.272 87.6133 171.768 88.12C172.264 88.6213 172.648 89.224 172.92 89.928C173.192 90.632 173.328 91.4133 173.328 92.272ZM171.736 92.272C171.736 91.568 171.64 90.9387 171.448 90.384C171.256 89.8293 170.984 89.36 170.632 88.976C170.28 88.592 169.853 88.2987 169.352 88.096C168.851 87.8933 168.293 87.792 167.68 87.792H164.952V96.744H167.68C168.293 96.744 168.851 96.6427 169.352 96.44C169.853 96.2373 170.28 95.9467 170.632 95.568C170.984 95.184 171.256 94.7147 171.448 94.16C171.64 93.6053 171.736 92.976 171.736 92.272ZM175.215 98V89.896H176.031C176.185 89.896 176.292 89.9253 176.351 89.984C176.409 90.0427 176.449 90.144 176.471 90.288L176.567 91.552C176.844 90.9867 177.185 90.5467 177.591 90.232C178.001 89.912 178.481 89.752 179.031 89.752C179.255 89.752 179.457 89.7787 179.639 89.832C179.82 89.88 179.988 89.9493 180.143 90.04L179.959 91.104C179.921 91.2373 179.839 91.304 179.711 91.304C179.636 91.304 179.521 91.28 179.367 91.232C179.212 91.1787 178.996 91.152 178.719 91.152C178.223 91.152 177.807 91.296 177.471 91.584C177.14 91.872 176.863 92.2907 176.639 92.84V98H175.215ZM187.323 98H186.691C186.552 98 186.44 97.9787 186.355 97.936C186.27 97.8933 186.214 97.8027 186.187 97.664L186.027 96.912C185.814 97.104 185.606 97.2773 185.403 97.432C185.2 97.5813 184.987 97.7093 184.763 97.816C184.539 97.9173 184.299 97.9947 184.043 98.048C183.792 98.1013 183.512 98.128 183.203 98.128C182.888 98.128 182.592 98.0853 182.315 98C182.043 97.9093 181.806 97.776 181.603 97.6C181.4 97.424 181.238 97.2027 181.115 96.936C180.998 96.664 180.939 96.344 180.939 95.976C180.939 95.656 181.027 95.3493 181.203 95.056C181.379 94.7573 181.662 94.4933 182.051 94.264C182.446 94.0347 182.96 93.848 183.595 93.704C184.23 93.5547 185.006 93.4693 185.923 93.448V92.816C185.923 92.1867 185.787 91.712 185.515 91.392C185.248 91.0667 184.851 90.904 184.323 90.904C183.976 90.904 183.683 90.9493 183.443 91.04C183.208 91.1253 183.003 91.224 182.827 91.336C182.656 91.4427 182.507 91.5413 182.379 91.632C182.256 91.7173 182.134 91.76 182.011 91.76C181.915 91.76 181.83 91.736 181.755 91.688C181.686 91.6347 181.63 91.5707 181.587 91.496L181.331 91.04C181.779 90.608 182.262 90.2853 182.779 90.072C183.296 89.8587 183.87 89.752 184.499 89.752C184.952 89.752 185.355 89.8267 185.707 89.976C186.059 90.1253 186.355 90.3333 186.595 90.6C186.835 90.8667 187.016 91.1893 187.139 91.568C187.262 91.9467 187.323 92.3627 187.323 92.816V98ZM183.627 97.128C183.878 97.128 184.107 97.104 184.315 97.056C184.523 97.0027 184.718 96.9307 184.899 96.84C185.086 96.744 185.262 96.6293 185.427 96.496C185.598 96.3627 185.763 96.2107 185.923 96.04V94.352C185.267 94.3733 184.71 94.4267 184.251 94.512C183.792 94.592 183.419 94.6987 183.131 94.832C182.843 94.9653 182.632 95.1227 182.499 95.304C182.371 95.4853 182.307 95.688 182.307 95.912C182.307 96.1253 182.342 96.3093 182.411 96.464C182.48 96.6187 182.574 96.7467 182.691 96.848C182.808 96.944 182.947 97.016 183.107 97.064C183.267 97.1067 183.44 97.128 183.627 97.128ZM192.208 89.76C192.56 89.76 192.888 89.8 193.192 89.88C193.502 89.9547 193.782 90.0667 194.032 90.216H196.232V90.744C196.232 90.92 196.12 91.032 195.896 91.08L194.976 91.208C195.158 91.5547 195.248 91.9413 195.248 92.368C195.248 92.7627 195.171 93.1227 195.016 93.448C194.867 93.768 194.656 94.0427 194.384 94.272C194.118 94.5013 193.798 94.6773 193.424 94.8C193.056 94.9227 192.651 94.984 192.208 94.984C191.83 94.984 191.472 94.9387 191.136 94.848C190.966 94.9547 190.835 95.0693 190.744 95.192C190.659 95.3147 190.616 95.4347 190.616 95.552C190.616 95.744 190.694 95.8907 190.848 95.992C191.003 96.088 191.208 96.1573 191.464 96.2C191.72 96.2427 192.011 96.2693 192.336 96.28C192.662 96.2907 192.992 96.3093 193.328 96.336C193.67 96.3573 194.003 96.3973 194.328 96.456C194.654 96.5147 194.944 96.6107 195.2 96.744C195.456 96.8773 195.662 97.0613 195.816 97.296C195.971 97.5307 196.048 97.8347 196.048 98.208C196.048 98.5547 195.96 98.8907 195.784 99.216C195.614 99.5413 195.366 99.8293 195.04 100.08C194.715 100.336 194.318 100.539 193.848 100.688C193.379 100.843 192.848 100.92 192.256 100.92C191.664 100.92 191.144 100.861 190.696 100.744C190.254 100.627 189.886 100.469 189.592 100.272C189.299 100.075 189.078 99.8453 188.928 99.584C188.784 99.328 188.712 99.0587 188.712 98.776C188.712 98.376 188.838 98.0373 189.088 97.76C189.344 97.4773 189.694 97.2533 190.136 97.088C189.907 96.9813 189.723 96.84 189.584 96.664C189.451 96.4827 189.384 96.2427 189.384 95.944C189.384 95.8267 189.406 95.7067 189.448 95.584C189.491 95.456 189.555 95.3307 189.64 95.208C189.731 95.0853 189.84 94.968 189.968 94.856C190.096 94.744 190.246 94.6453 190.416 94.56C190.016 94.336 189.702 94.04 189.472 93.672C189.248 93.2987 189.136 92.864 189.136 92.368C189.136 91.9733 189.211 91.616 189.36 91.296C189.515 90.9707 189.728 90.696 190 90.472C190.272 90.2427 190.595 90.0667 190.968 89.944C191.347 89.8213 191.76 89.76 192.208 89.76ZM194.736 98.44C194.736 98.2373 194.68 98.0747 194.568 97.952C194.456 97.8293 194.304 97.736 194.112 97.672C193.92 97.6027 193.699 97.552 193.448 97.52C193.198 97.488 192.934 97.4667 192.656 97.456C192.379 97.44 192.096 97.424 191.808 97.408C191.52 97.392 191.246 97.3627 190.984 97.32C190.68 97.464 190.432 97.64 190.24 97.848C190.054 98.056 189.96 98.304 189.96 98.592C189.96 98.7733 190.006 98.9413 190.096 99.096C190.192 99.256 190.336 99.392 190.528 99.504C190.72 99.6213 190.96 99.712 191.248 99.776C191.542 99.8453 191.886 99.88 192.28 99.88C192.664 99.88 193.008 99.8453 193.312 99.776C193.616 99.7067 193.872 99.608 194.08 99.48C194.294 99.352 194.456 99.2 194.568 99.024C194.68 98.848 194.736 98.6533 194.736 98.44ZM192.208 94.04C192.496 94.04 192.75 94 192.968 93.92C193.192 93.84 193.379 93.728 193.528 93.584C193.678 93.44 193.79 93.2693 193.864 93.072C193.939 92.8693 193.976 92.648 193.976 92.408C193.976 91.912 193.824 91.5173 193.52 91.224C193.222 90.9307 192.784 90.784 192.208 90.784C191.638 90.784 191.2 90.9307 190.896 91.224C190.598 91.5173 190.448 91.912 190.448 92.408C190.448 92.648 190.486 92.8693 190.56 93.072C190.64 93.2693 190.755 93.44 190.904 93.584C191.054 93.728 191.238 93.84 191.456 93.92C191.675 94 191.926 94.04 192.208 94.04ZM204.026 89.768C204.618 89.768 205.151 89.8667 205.626 90.064C206.106 90.2613 206.511 90.5413 206.842 90.904C207.178 91.2667 207.434 91.7067 207.61 92.224C207.791 92.736 207.882 93.3093 207.882 93.944C207.882 94.584 207.791 95.16 207.61 95.672C207.434 96.184 207.178 96.6213 206.842 96.984C206.511 97.3467 206.106 97.6267 205.626 97.824C205.151 98.016 204.618 98.112 204.026 98.112C203.434 98.112 202.898 98.016 202.418 97.824C201.943 97.6267 201.538 97.3467 201.202 96.984C200.866 96.6213 200.607 96.184 200.426 95.672C200.245 95.16 200.154 94.584 200.154 93.944C200.154 93.3093 200.245 92.736 200.426 92.224C200.607 91.7067 200.866 91.2667 201.202 90.904C201.538 90.5413 201.943 90.2613 202.418 90.064C202.898 89.8667 203.434 89.768 204.026 89.768ZM204.026 97C204.826 97 205.423 96.7333 205.818 96.2C206.213 95.6613 206.41 94.912 206.41 93.952C206.41 92.9867 206.213 92.2347 205.818 91.696C205.423 91.1573 204.826 90.888 204.026 90.888C203.621 90.888 203.269 90.9573 202.97 91.096C202.671 91.2347 202.421 91.4347 202.218 91.696C202.021 91.9573 201.871 92.28 201.77 92.664C201.674 93.0427 201.626 93.472 201.626 93.952C201.626 94.432 201.674 94.8613 201.77 95.24C201.871 95.6187 202.021 95.9387 202.218 96.2C202.421 96.456 202.671 96.6533 202.97 96.792C203.269 96.9307 203.621 97 204.026 97ZM209.637 98V89.896H210.453C210.607 89.896 210.714 89.9253 210.773 89.984C210.831 90.0427 210.871 90.144 210.893 90.288L210.989 91.552C211.266 90.9867 211.607 90.5467 212.013 90.232C212.423 89.912 212.903 89.752 213.453 89.752C213.677 89.752 213.879 89.7787 214.061 89.832C214.242 89.88 214.41 89.9493 214.565 90.04L214.381 91.104C214.343 91.2373 214.261 91.304 214.133 91.304C214.058 91.304 213.943 91.28 213.789 91.232C213.634 91.1787 213.418 91.152 213.141 91.152C212.645 91.152 212.229 91.296 211.893 91.584C211.562 91.872 211.285 92.2907 211.061 92.84V98H209.637ZM229.344 92.272C229.344 93.1307 229.208 93.912 228.936 94.616C228.664 95.32 228.28 95.9227 227.784 96.424C227.288 96.9253 226.693 97.3147 226 97.592C225.306 97.864 224.538 98 223.696 98H219.408V86.536H223.696C224.538 86.536 225.306 86.6747 226 86.952C226.693 87.224 227.288 87.6133 227.784 88.12C228.28 88.6213 228.664 89.224 228.936 89.928C229.208 90.632 229.344 91.4133 229.344 92.272ZM227.752 92.272C227.752 91.568 227.656 90.9387 227.464 90.384C227.272 89.8293 227 89.36 226.648 88.976C226.296 88.592 225.869 88.2987 225.368 88.096C224.866 87.8933 224.309 87.792 223.696 87.792H220.968V96.744H223.696C224.309 96.744 224.866 96.6427 225.368 96.44C225.869 96.2373 226.296 95.9467 226.648 95.568C227 95.184 227.272 94.7147 227.464 94.16C227.656 93.6053 227.752 92.976 227.752 92.272ZM231.23 98V89.896H232.046C232.201 89.896 232.308 89.9253 232.366 89.984C232.425 90.0427 232.465 90.144 232.486 90.288L232.582 91.552C232.86 90.9867 233.201 90.5467 233.606 90.232C234.017 89.912 234.497 89.752 235.046 89.752C235.27 89.752 235.473 89.7787 235.654 89.832C235.836 89.88 236.004 89.9493 236.158 90.04L235.974 91.104C235.937 91.2373 235.854 91.304 235.726 91.304C235.652 91.304 235.537 91.28 235.382 91.232C235.228 91.1787 235.012 91.152 234.734 91.152C234.238 91.152 233.822 91.296 233.486 91.584C233.156 91.872 232.878 92.2907 232.654 92.84V98H231.23ZM240.964 89.768C241.556 89.768 242.089 89.8667 242.564 90.064C243.044 90.2613 243.449 90.5413 243.78 90.904C244.116 91.2667 244.372 91.7067 244.548 92.224C244.729 92.736 244.82 93.3093 244.82 93.944C244.82 94.584 244.729 95.16 244.548 95.672C244.372 96.184 244.116 96.6213 243.78 96.984C243.449 97.3467 243.044 97.6267 242.564 97.824C242.089 98.016 241.556 98.112 240.964 98.112C240.372 98.112 239.836 98.016 239.356 97.824C238.881 97.6267 238.476 97.3467 238.14 96.984C237.804 96.6213 237.545 96.184 237.364 95.672C237.182 95.16 237.092 94.584 237.092 93.944C237.092 93.3093 237.182 92.736 237.364 92.224C237.545 91.7067 237.804 91.2667 238.14 90.904C238.476 90.5413 238.881 90.2613 239.356 90.064C239.836 89.8667 240.372 89.768 240.964 89.768ZM240.964 97C241.764 97 242.361 96.7333 242.756 96.2C243.15 95.6613 243.348 94.912 243.348 93.952C243.348 92.9867 243.15 92.2347 242.756 91.696C242.361 91.1573 241.764 90.888 240.964 90.888C240.558 90.888 240.206 90.9573 239.908 91.096C239.609 91.2347 239.358 91.4347 239.156 91.696C238.958 91.9573 238.809 92.28 238.708 92.664C238.612 93.0427 238.564 93.472 238.564 93.952C238.564 94.432 238.612 94.8613 238.708 95.24C238.809 95.6187 238.958 95.9387 239.156 96.2C239.358 96.456 239.609 96.6533 239.908 96.792C240.206 96.9307 240.558 97 240.964 97ZM246.574 100.744V89.896H247.422C247.625 89.896 247.753 89.9947 247.806 90.192L247.926 91.152C248.273 90.7307 248.667 90.392 249.11 90.136C249.558 89.88 250.073 89.752 250.654 89.752C251.118 89.752 251.539 89.8427 251.918 90.024C252.297 90.2 252.619 90.464 252.886 90.816C253.153 91.1627 253.358 91.5947 253.502 92.112C253.646 92.6293 253.718 93.224 253.718 93.896C253.718 94.4933 253.638 95.0507 253.478 95.568C253.318 96.08 253.089 96.5253 252.79 96.904C252.491 97.2773 252.123 97.5733 251.686 97.792C251.254 98.0053 250.766 98.112 250.222 98.112C249.721 98.112 249.291 98.0293 248.934 97.864C248.582 97.6987 248.27 97.464 247.998 97.16V100.744H246.574ZM250.182 90.904C249.718 90.904 249.31 91.0107 248.958 91.224C248.611 91.4373 248.291 91.7387 247.998 92.128V96.048C248.259 96.4 248.545 96.648 248.854 96.792C249.169 96.936 249.518 97.008 249.902 97.008C250.654 97.008 251.233 96.7387 251.638 96.2C252.043 95.6613 252.246 94.8933 252.246 93.896C252.246 93.368 252.198 92.9147 252.102 92.536C252.011 92.1573 251.878 91.848 251.702 91.608C251.526 91.3627 251.31 91.184 251.054 91.072C250.798 90.96 250.507 90.904 250.182 90.904ZM260.872 100.392C260.824 100.499 260.763 100.584 260.688 100.648C260.619 100.712 260.509 100.744 260.36 100.744H259.304L260.784 97.528L257.44 89.896H258.672C258.795 89.896 258.891 89.928 258.96 89.992C259.029 90.0507 259.08 90.1173 259.112 90.192L261.28 95.296C261.328 95.4133 261.368 95.5307 261.4 95.648C261.437 95.7653 261.469 95.8853 261.496 96.008C261.533 95.8853 261.571 95.7653 261.608 95.648C261.645 95.5307 261.688 95.4107 261.736 95.288L263.84 90.192C263.872 90.1067 263.925 90.0373 264 89.984C264.08 89.9253 264.165 89.896 264.256 89.896H265.392L260.872 100.392ZM269.76 89.768C270.352 89.768 270.886 89.8667 271.36 90.064C271.84 90.2613 272.246 90.5413 272.576 90.904C272.912 91.2667 273.168 91.7067 273.344 92.224C273.526 92.736 273.616 93.3093 273.616 93.944C273.616 94.584 273.526 95.16 273.344 95.672C273.168 96.184 272.912 96.6213 272.576 96.984C272.246 97.3467 271.84 97.6267 271.36 97.824C270.886 98.016 270.352 98.112 269.76 98.112C269.168 98.112 268.632 98.016 268.152 97.824C267.678 97.6267 267.272 97.3467 266.936 96.984C266.6 96.6213 266.342 96.184 266.16 95.672C265.979 95.16 265.888 94.584 265.888 93.944C265.888 93.3093 265.979 92.736 266.16 92.224C266.342 91.7067 266.6 91.2667 266.936 90.904C267.272 90.5413 267.678 90.2613 268.152 90.064C268.632 89.8667 269.168 89.768 269.76 89.768ZM269.76 97C270.56 97 271.158 96.7333 271.552 96.2C271.947 95.6613 272.144 94.912 272.144 93.952C272.144 92.9867 271.947 92.2347 271.552 91.696C271.158 91.1573 270.56 90.888 269.76 90.888C269.355 90.888 269.003 90.9573 268.704 91.096C268.406 91.2347 268.155 91.4347 267.952 91.696C267.755 91.9573 267.606 92.28 267.504 92.664C267.408 93.0427 267.36 93.472 267.36 93.952C267.36 94.432 267.408 94.8613 267.504 95.24C267.606 95.6187 267.755 95.9387 267.952 96.2C268.155 96.456 268.406 96.6533 268.704 96.792C269.003 96.9307 269.355 97 269.76 97ZM276.603 89.896V95.064C276.603 95.6773 276.744 96.152 277.027 96.488C277.31 96.824 277.736 96.992 278.307 96.992C278.723 96.992 279.115 96.8933 279.483 96.696C279.851 96.4987 280.19 96.224 280.499 95.872V89.896H281.923V98H281.075C280.872 98 280.744 97.9013 280.691 97.704L280.579 96.832C280.227 97.2213 279.832 97.536 279.395 97.776C278.958 98.0107 278.456 98.128 277.891 98.128C277.448 98.128 277.056 98.056 276.715 97.912C276.379 97.7627 276.096 97.5547 275.867 97.288C275.638 97.0213 275.464 96.6987 275.347 96.32C275.235 95.9413 275.179 95.5227 275.179 95.064V89.896H276.603ZM284.262 98V89.896H285.078C285.232 89.896 285.339 89.9253 285.398 89.984C285.456 90.0427 285.496 90.144 285.518 90.288L285.614 91.552C285.891 90.9867 286.232 90.5467 286.638 90.232C287.048 89.912 287.528 89.752 288.078 89.752C288.302 89.752 288.504 89.7787 288.686 89.832C288.867 89.88 289.035 89.9493 289.19 90.04L289.006 91.104C288.968 91.2373 288.886 91.304 288.758 91.304C288.683 91.304 288.568 91.28 288.414 91.232C288.259 91.1787 288.043 91.152 287.766 91.152C287.27 91.152 286.854 91.296 286.518 91.584C286.187 91.872 285.91 92.2907 285.686 92.84V98H284.262ZM294.129 98V91.112L293.233 91.008C293.121 90.9813 293.027 90.9413 292.953 90.888C292.883 90.8293 292.849 90.7467 292.849 90.64V90.056H294.129V89.608C294.129 89.112 294.206 88.6587 294.361 88.248C294.515 87.832 294.747 87.4747 295.057 87.176C295.366 86.8773 295.75 86.6453 296.209 86.48C296.673 86.3147 297.211 86.232 297.825 86.232C298.027 86.232 298.233 86.2453 298.441 86.272C298.654 86.2987 298.838 86.3387 298.993 86.392L298.945 87.136C298.934 87.2053 298.902 87.2507 298.849 87.272C298.795 87.288 298.718 87.296 298.617 87.296C298.558 87.296 298.497 87.296 298.433 87.296C298.369 87.2907 298.297 87.288 298.217 87.288C297.273 87.288 296.585 87.4853 296.153 87.88C295.726 88.2693 295.513 88.8587 295.513 89.648V90.056H300.409V98H298.985V91.088H295.561V98H294.129ZM304.518 86.216V98H303.094V86.216H304.518ZM310.235 89.768C310.721 89.768 311.169 89.8507 311.579 90.016C311.99 90.176 312.345 90.4107 312.643 90.72C312.942 91.024 313.174 91.4027 313.339 91.856C313.51 92.304 313.595 92.816 313.595 93.392C313.595 93.616 313.571 93.7653 313.523 93.84C313.475 93.9147 313.385 93.952 313.251 93.952H307.859C307.87 94.464 307.939 94.9093 308.067 95.288C308.195 95.6667 308.371 95.984 308.595 96.24C308.819 96.4907 309.086 96.68 309.395 96.808C309.705 96.9307 310.051 96.992 310.435 96.992C310.793 96.992 311.099 96.952 311.355 96.872C311.617 96.7867 311.841 96.696 312.027 96.6C312.214 96.504 312.369 96.416 312.491 96.336C312.619 96.2507 312.729 96.208 312.819 96.208C312.937 96.208 313.027 96.2533 313.091 96.344L313.491 96.864C313.315 97.0773 313.105 97.264 312.859 97.424C312.614 97.5787 312.35 97.7067 312.067 97.808C311.79 97.9093 311.502 97.984 311.203 98.032C310.905 98.0853 310.609 98.112 310.315 98.112C309.755 98.112 309.238 98.0187 308.763 97.832C308.294 97.64 307.886 97.3627 307.539 97C307.198 96.632 306.931 96.1787 306.739 95.64C306.547 95.1013 306.451 94.4827 306.451 93.784C306.451 93.2187 306.537 92.6907 306.707 92.2C306.883 91.7093 307.134 91.2853 307.459 90.928C307.785 90.5653 308.182 90.2827 308.651 90.08C309.121 89.872 309.649 89.768 310.235 89.768ZM310.267 90.816C309.579 90.816 309.038 91.016 308.643 91.416C308.249 91.8107 308.003 92.36 307.907 93.064H312.315C312.315 92.7333 312.27 92.432 312.179 92.16C312.089 91.8827 311.955 91.6453 311.779 91.448C311.603 91.2453 311.387 91.0907 311.131 90.984C310.881 90.872 310.593 90.816 310.267 90.816ZM318.512 98V86.216H319.936V90.984C320.282 90.616 320.666 90.3227 321.088 90.104C321.509 89.88 321.994 89.768 322.544 89.768C322.986 89.768 323.376 89.8427 323.712 89.992C324.053 90.136 324.336 90.344 324.56 90.616C324.789 90.8827 324.962 91.2053 325.08 91.584C325.197 91.9627 325.256 92.3813 325.256 92.84V98H323.832V92.84C323.832 92.2267 323.69 91.752 323.408 91.416C323.13 91.0747 322.704 90.904 322.128 90.904C321.706 90.904 321.312 91.0053 320.944 91.208C320.581 91.4107 320.245 91.6853 319.936 92.032V98H318.512ZM330.61 89.768C331.096 89.768 331.544 89.8507 331.954 90.016C332.365 90.176 332.72 90.4107 333.018 90.72C333.317 91.024 333.549 91.4027 333.714 91.856C333.885 92.304 333.97 92.816 333.97 93.392C333.97 93.616 333.946 93.7653 333.898 93.84C333.85 93.9147 333.76 93.952 333.626 93.952H328.234C328.245 94.464 328.314 94.9093 328.442 95.288C328.57 95.6667 328.746 95.984 328.97 96.24C329.194 96.4907 329.461 96.68 329.77 96.808C330.08 96.9307 330.426 96.992 330.81 96.992C331.168 96.992 331.474 96.952 331.73 96.872C331.992 96.7867 332.216 96.696 332.402 96.6C332.589 96.504 332.744 96.416 332.866 96.336C332.994 96.2507 333.104 96.208 333.194 96.208C333.312 96.208 333.402 96.2533 333.466 96.344L333.866 96.864C333.69 97.0773 333.48 97.264 333.234 97.424C332.989 97.5787 332.725 97.7067 332.442 97.808C332.165 97.9093 331.877 97.984 331.578 98.032C331.28 98.0853 330.984 98.112 330.69 98.112C330.13 98.112 329.613 98.0187 329.138 97.832C328.669 97.64 328.261 97.3627 327.914 97C327.573 96.632 327.306 96.1787 327.114 95.64C326.922 95.1013 326.826 94.4827 326.826 93.784C326.826 93.2187 326.912 92.6907 327.082 92.2C327.258 91.7093 327.509 91.2853 327.834 90.928C328.16 90.5653 328.557 90.2827 329.026 90.08C329.496 89.872 330.024 89.768 330.61 89.768ZM330.642 90.816C329.954 90.816 329.413 91.016 329.018 91.416C328.624 91.8107 328.378 92.36 328.282 93.064H332.69C332.69 92.7333 332.645 92.432 332.554 92.16C332.464 91.8827 332.33 91.6453 332.154 91.448C331.978 91.2453 331.762 91.0907 331.506 90.984C331.256 90.872 330.968 90.816 330.642 90.816ZM335.793 98V89.896H336.609C336.764 89.896 336.87 89.9253 336.929 89.984C336.988 90.0427 337.028 90.144 337.049 90.288L337.145 91.552C337.422 90.9867 337.764 90.5467 338.169 90.232C338.58 89.912 339.06 89.752 339.609 89.752C339.833 89.752 340.036 89.7787 340.217 89.832C340.398 89.88 340.566 89.9493 340.721 90.04L340.537 91.104C340.5 91.2373 340.417 91.304 340.289 91.304C340.214 91.304 340.1 91.28 339.945 91.232C339.79 91.1787 339.574 91.152 339.297 91.152C338.801 91.152 338.385 91.296 338.049 91.584C337.718 91.872 337.441 92.2907 337.217 92.84V98H335.793ZM345.454 89.768C345.939 89.768 346.387 89.8507 346.798 90.016C347.209 90.176 347.563 90.4107 347.862 90.72C348.161 91.024 348.393 91.4027 348.558 91.856C348.729 92.304 348.814 92.816 348.814 93.392C348.814 93.616 348.79 93.7653 348.742 93.84C348.694 93.9147 348.603 93.952 348.47 93.952H343.078C343.089 94.464 343.158 94.9093 343.286 95.288C343.414 95.6667 343.59 95.984 343.814 96.24C344.038 96.4907 344.305 96.68 344.614 96.808C344.923 96.9307 345.27 96.992 345.654 96.992C346.011 96.992 346.318 96.952 346.574 96.872C346.835 96.7867 347.059 96.696 347.246 96.6C347.433 96.504 347.587 96.416 347.71 96.336C347.838 96.2507 347.947 96.208 348.038 96.208C348.155 96.208 348.246 96.2533 348.31 96.344L348.71 96.864C348.534 97.0773 348.323 97.264 348.078 97.424C347.833 97.5787 347.569 97.7067 347.286 97.808C347.009 97.9093 346.721 97.984 346.422 98.032C346.123 98.0853 345.827 98.112 345.534 98.112C344.974 98.112 344.457 98.0187 343.982 97.832C343.513 97.64 343.105 97.3627 342.758 97C342.417 96.632 342.15 96.1787 341.958 95.64C341.766 95.1013 341.67 94.4827 341.67 93.784C341.67 93.2187 341.755 92.6907 341.926 92.2C342.102 91.7093 342.353 91.2853 342.678 90.928C343.003 90.5653 343.401 90.2827 343.87 90.08C344.339 89.872 344.867 89.768 345.454 89.768ZM345.486 90.816C344.798 90.816 344.257 91.016 343.862 91.416C343.467 91.8107 343.222 92.36 343.126 93.064H347.534C347.534 92.7333 347.489 92.432 347.398 92.16C347.307 91.8827 347.174 91.6453 346.998 91.448C346.822 91.2453 346.606 91.0907 346.35 90.984C346.099 90.872 345.811 90.816 345.486 90.816Z" fill="#8A2BE2"/>
<path d="M256 56V75.5" stroke="#8A2BE2" stroke-opacity="0.36" stroke-width="2" stroke-linecap="round" stroke-linejoin="round"/>
<path d="M274.178 69.845C276.291 68.6929 277.961 66.8699 278.923 64.6637C279.885 62.4574 280.085 59.9937 279.491 57.6611C278.898 55.3286 277.544 53.2603 275.644 51.7825C273.745 50.3046 271.407 49.5016 269 49.5H266.27C265.614 46.9633 264.392 44.6084 262.695 42.6121C260.998 40.6159 258.87 39.0303 256.472 37.9746C254.075 36.9189 251.468 36.4206 248.85 36.5171C246.232 36.6135 243.67 37.3023 241.356 38.5316C239.042 39.7609 237.037 41.4987 235.492 43.6144C233.946 45.7301 232.9 48.1686 232.433 50.7467C231.966 53.3247 232.089 55.9751 232.793 58.4987C233.498 61.0223 234.765 63.3534 236.5 65.3166" stroke="url(#paint0_linear_646_50853)" stroke-width="2" stroke-linecap="round" stroke-linejoin="round"/>
<path d="M264.667 64.6667L256 56L247.333 64.6667" stroke="url(#paint1_linear_646_50853)" stroke-width="2" stroke-linecap="round" stroke-linejoin="round"/>
<defs>
<linearGradient id="paint0_linear_646_50853" x1="232.877" y1="31.959" x2="270.314" y2="92.016" gradientUnits="userSpaceOnUse">
<stop stop-color="#8A2BE2"/>
<stop offset="0.221875" stop-color="#8A2BE2"/>
<stop offset="0.398958" stop-color="#8A2BE2"/>
<stop offset="0.586458" stop-color="#8A2BE2"/>
<stop offset="0.732292" stop-color="#5910EC"/>
<stop offset="0.930208" stop-color="#5910EC"/>
</linearGradient>
<linearGradient id="paint1_linear_646_50853" x1="247.596" y1="54.8182" x2="255.656" y2="72.9043" gradientUnits="userSpaceOnUse">
<stop stop-color="#8A2BE2"/>
<stop offset="0.221875" stop-color="#8A2BE2"/>
<stop offset="0.398958" stop-color="#8A2BE2"/>
<stop offset="0.586458" stop-color="#8A2BE2"/>
<stop offset="0.732292" stop-color="#5910EC"/>
<stop offset="0.930208" stop-color="#5910EC"/>
</linearGradient>
</defs>
</svg>
