<svg width="25" height="24" viewBox="0 0 25 24" fill="none" xmlns="http://www.w3.org/2000/svg">
<g clip-path="url(#clip0_3_72)">
<path d="M24.1034 22.2637C24.098 22.7206 23.9127 23.157 23.5876 23.4782C23.2625 23.7994 22.824 23.9795 22.367 23.9795H1.69517C1.2382 23.9795 0.799639 23.7994 0.474582 23.4782C0.149525 23.157 -0.0358196 22.7206 -0.0412598 22.2637V8.49624C-0.012774 7.97626 0.136585 7.47008 0.394956 7.01793C0.653327 6.56578 1.01359 6.18013 1.44711 5.8916L10.5427 0.351533C10.9966 0.117644 11.4998 -0.00439453 12.0104 -0.00439453C12.521 -0.00439453 13.0242 0.117644 13.4781 0.351533L22.5737 5.8916C23.0073 6.18013 23.3675 6.56578 23.6259 7.01793C23.8843 7.47008 24.0336 7.97626 24.0621 8.49624L24.1034 22.2637Z" fill="url(#paint0_linear_3_72)"/>
<path d="M21.9537 9.92261L12.9201 15.5453C12.6476 15.6695 12.3513 15.733 12.0518 15.7314C11.7524 15.733 11.4561 15.6695 11.1836 15.5453L2.15004 9.92261C1.90863 9.7611 1.70696 9.54698 1.56017 9.29636C1.41338 9.04574 1.32528 8.76514 1.30249 8.47559H22.8012C22.7784 8.76514 22.6903 9.04574 22.5435 9.29636C22.3967 9.54698 22.1951 9.7611 21.9537 9.92261Z" fill="url(#paint1_linear_3_72)"/>
<path d="M21.9537 7.04921L12.9201 1.44713C12.6508 1.31352 12.3523 1.24956 12.0518 1.26109C11.7514 1.24956 11.4529 1.31352 11.1836 1.44713L2.15004 7.04921C1.91551 7.21781 1.71892 7.43367 1.57294 7.6829C1.42696 7.93214 1.33483 8.20921 1.30249 8.49623H22.8012C22.7689 8.20921 22.6767 7.93214 22.5308 7.6829C22.3848 7.43367 22.1882 7.21781 21.9537 7.04921Z" fill="white"/>
</g>
<defs>
<linearGradient id="paint0_linear_3_72" x1="16.0828" y1="26.3774" x2="7.06984" y2="1.59184" gradientUnits="userSpaceOnUse">
<stop stop-color="#3C00F2"/>
<stop offset="0.25" stop-color="#5910EC"/>
<stop offset="0.54" stop-color="#741FE7"/>
<stop offset="0.8" stop-color="#8428E3"/>
<stop offset="1" stop-color="#8A2BE2"/>
</linearGradient>
<linearGradient id="paint1_linear_3_72" x1="12.0518" y1="15.7314" x2="12.0518" y2="8.47559" gradientUnits="userSpaceOnUse">
<stop stop-color="#EBEEFF"/>
<stop offset="0.34" stop-color="#E2E8FF"/>
<stop offset="0.9" stop-color="#CAD7FF"/>
<stop offset="1" stop-color="#C5D4FF"/>
</linearGradient>
<clipPath id="clip0_3_72">
<rect width="24.0827" height="24" fill="white"/>
</clipPath>
</defs>
</svg>
