<svg width="60" height="60" viewBox="0 0 60 60" fill="none" xmlns="http://www.w3.org/2000/svg">
<rect width="60" height="60" rx="10" fill="#E85858" fill-opacity="0.1"/>
<path d="M37.5 36.0001C37.5 36.3316 37.6317 36.6495 37.8661 36.8839C38.1005 37.1184 38.4185 37.2501 38.75 37.2501H45V34.7501H38.75C38.4185 34.7501 38.1005 34.8818 37.8661 35.1162C37.6317 35.3506 37.5 35.6685 37.5 36.0001Z" fill="#E85858"/>
<path d="M42.5 26.2374V24.7499C42.5 23.7554 42.1049 22.8015 41.4017 22.0983C40.6984 21.395 39.7446 20.9999 38.75 20.9999H35.3L32.8 23.4999H38.75C39.0815 23.4999 39.3995 23.6316 39.6339 23.8661C39.8683 24.1005 40 24.4184 40 24.7499V25.9999H18.75C18.4185 25.9999 18.1005 25.8682 17.8661 25.6338C17.6317 25.3994 17.5 25.0815 17.5 24.7499C17.5 24.4184 17.6317 24.1005 17.8661 23.8661C18.1005 23.6316 18.4185 23.4999 18.75 23.4999H24.7L22.2 20.9999H18.75C17.7554 20.9999 16.8016 21.395 16.0983 22.0983C15.3951 22.8015 15 23.7554 15 24.7499V42.2499C15 43.2445 15.3951 44.1983 16.0983 44.9016C16.8016 45.6049 17.7554 45.9999 18.75 45.9999H41.25C42.2446 45.9999 43.1984 45.6049 43.9017 44.9016C44.6049 44.1983 45 43.2445 45 42.2499V39.7499H38.75C37.7554 39.7499 36.8016 39.3549 36.0983 38.6516C35.3951 37.9483 35 36.9945 35 35.9999C35 35.0054 35.3951 34.0516 36.0983 33.3483C36.8016 32.645 37.7554 32.2499 38.75 32.2499H45V29.7499C44.9953 28.9784 44.7526 28.2271 44.3052 27.5985C43.8578 26.9699 43.2274 26.4946 42.5 26.2374V26.2374Z" fill="#E85858"/>
<path d="M27.8622 11.3697C27.9784 11.2525 28.1166 11.1595 28.269 11.0961C28.4213 11.0326 28.5847 11 28.7497 11C28.9147 11 29.0781 11.0326 29.2304 11.0961C29.3827 11.1595 29.521 11.2525 29.6372 11.3697L33.3872 15.1197C33.5606 15.2955 33.6781 15.5187 33.7248 15.7612C33.7716 16.0037 33.7454 16.2546 33.6497 16.4822C33.5559 16.7105 33.3967 16.9059 33.192 17.0438C32.9874 17.1817 32.7465 17.256 32.4997 17.2572H29.9997V22.2572C29.9997 22.5887 29.868 22.9067 29.6336 23.1411C29.3991 23.3755 29.0812 23.5072 28.7497 23.5072C28.4182 23.5072 28.1002 23.3755 27.8658 23.1411C27.6314 22.9067 27.4997 22.5887 27.4997 22.2572V17.2572H24.9997C24.7529 17.256 24.512 17.1817 24.3074 17.0438C24.1027 16.9059 23.9435 16.7105 23.8497 16.4822C23.754 16.2546 23.7278 16.0037 23.7745 15.7612C23.8212 15.5187 23.9387 15.2955 24.1122 15.1197L27.8622 11.3697Z" fill="#E85858"/>
</svg>
