<svg width="23" height="24" viewBox="0 0 23 24" fill="none" xmlns="http://www.w3.org/2000/svg">
<path d="M12.749 2.07351C12.3394 2.02497 11.9226 2 11.5 2C5.70101 2 1 6.70101 1 12.5C1 18.299 5.70101 23 11.5 23C17.299 23 22 18.299 22 12.5C22 11.9907 21.9637 11.4899 21.8937 11" stroke="white" stroke-width="2" stroke-linecap="round"/>
<path d="M22 5.99854V1.99854L18 1.99854" stroke="white" stroke-width="2" stroke-linecap="round" stroke-linejoin="round"/>
<path d="M22 1.99854L17 6.99854" stroke="white" stroke-width="2" stroke-linecap="round" stroke-linejoin="round"/>
<path d="M14.4154 9.458H12.3754C12.5754 9.586 12.7314 9.734 12.8434 9.902C12.9554 10.066 13.0354 10.246 13.0834 10.442H14.4154V11.582H13.0774C12.9854 11.954 12.8014 12.284 12.5254 12.572C12.2494 12.86 11.8874 13.084 11.4394 13.244C11.5634 13.3 11.6774 13.374 11.7814 13.466C11.8894 13.558 11.9854 13.668 12.0694 13.796L14.2414 17H12.7834C12.5114 17 12.3114 16.892 12.1834 16.676L10.3594 13.898C10.2914 13.794 10.2154 13.72 10.1314 13.676C10.0514 13.632 9.93139 13.61 9.77139 13.61H8.64339V12.518H9.83139C10.2874 12.518 10.6514 12.432 10.9234 12.26C11.1994 12.088 11.3934 11.862 11.5054 11.582H8.63739V10.442H11.5414C11.4454 10.15 11.2574 9.922 10.9774 9.758C10.7014 9.59 10.3274 9.506 9.85539 9.506H8.64339V8.324H14.4154V9.458Z" fill="white"/>
</svg>
