<svg width="42" height="24" viewBox="0 0 42 24" fill="none" xmlns="http://www.w3.org/2000/svg">
<g clip-path="url(#clip0_3_88)">
<path d="M20.5445 0C9.82302 0 2.60059 6.9533 2.60059 9.28601C2.60059 11.6187 9.55386 18.572 20.5445 18.572C31.5352 18.572 38.4884 11.9776 38.4884 9.28601C38.4884 6.59442 31.4454 0 20.5445 0ZM20.5445 16.4635C17.5295 16.5293 14.538 15.9188 11.7899 14.6767C9.04178 13.4346 6.60694 11.5926 4.66417 9.28601C6.58526 6.954 9.01603 5.09414 11.7693 3.84973C14.5225 2.60533 17.5247 2.00957 20.5445 2.10842C23.5776 1.90659 26.6137 2.45604 29.3837 3.70804C32.1538 4.96003 34.5723 6.87594 36.4249 9.28601C34.575 11.6991 32.157 13.6172 29.3863 14.8695C26.6156 16.1218 23.5781 16.6694 20.5445 16.4635Z" fill="url(#paint0_linear_3_88)"/>
<path d="M19.5129 22.7889C19.5129 23.0626 19.6217 23.325 19.8151 23.5185C20.0086 23.7119 20.2711 23.8207 20.5447 23.8207C20.8183 23.8207 21.0808 23.7119 21.2743 23.5185C21.4678 23.325 21.5765 23.0626 21.5765 22.7889V20.9496C21.5825 20.8104 21.5604 20.6714 21.5112 20.541C21.4621 20.4106 21.387 20.2915 21.2906 20.1909C21.1942 20.0903 21.0784 20.0102 20.9502 19.9556C20.822 19.901 20.684 19.8729 20.5447 19.873C20.4053 19.8729 20.2674 19.901 20.1392 19.9556C20.011 20.0102 19.8952 20.0903 19.7988 20.1909C19.7024 20.2915 19.6274 20.4106 19.5782 20.541C19.5291 20.6714 19.5069 20.8104 19.5129 20.9496V22.7889Z" fill="url(#paint1_linear_3_88)"/>
<path d="M19.5129 22.7889C19.5129 23.0626 19.6217 23.325 19.8151 23.5185C20.0086 23.7119 20.2711 23.8207 20.5447 23.8207C20.8183 23.8207 21.0808 23.7119 21.2743 23.5185C21.4678 23.325 21.5765 23.0626 21.5765 22.7889V20.9496C21.5825 20.8104 21.5604 20.6714 21.5112 20.541C21.4621 20.4106 21.387 20.2915 21.2906 20.1909C21.1942 20.0903 21.0784 20.0102 20.9502 19.9556C20.822 19.901 20.684 19.8729 20.5447 19.873C20.4053 19.8729 20.2674 19.901 20.1392 19.9556C20.011 20.0102 19.8952 20.0903 19.7988 20.1909C19.7024 20.2915 19.6274 20.4106 19.5782 20.541C19.5291 20.6714 19.5069 20.8104 19.5129 20.9496V22.7889Z" fill="url(#paint2_linear_3_88)"/>
<path d="M26.7801 19.3346C26.6462 19.3707 26.5209 19.4333 26.4117 19.5189C26.3025 19.6044 26.2118 19.7111 26.1448 19.8325C26.0778 19.954 26.0359 20.0877 26.0217 20.2257C26.0076 20.3637 26.0214 20.5031 26.0623 20.6356L26.5558 22.43C26.6389 22.6938 26.8204 22.9156 27.0626 23.0492C27.3048 23.1829 27.5892 23.2181 27.8568 23.1477C28.1206 23.0646 28.3424 22.8831 28.476 22.6409C28.6097 22.3987 28.645 22.1143 28.5745 21.8468L28.0362 20.0524C27.9628 19.7919 27.79 19.5707 27.555 19.4365C27.3201 19.3022 27.0418 19.2656 26.7801 19.3346Z" fill="url(#paint3_linear_3_88)"/>
<path d="M26.7801 19.3346C26.6462 19.3707 26.5209 19.4333 26.4117 19.5189C26.3025 19.6044 26.2118 19.7111 26.1448 19.8325C26.0778 19.954 26.0359 20.0877 26.0217 20.2257C26.0076 20.3637 26.0214 20.5031 26.0623 20.6356L26.5558 22.43C26.6389 22.6938 26.8204 22.9156 27.0626 23.0492C27.3048 23.1829 27.5892 23.2181 27.8568 23.1477C28.1206 23.0646 28.3424 22.8831 28.476 22.6409C28.6097 22.3987 28.645 22.1143 28.5745 21.8468L28.0362 20.0524C27.9628 19.7919 27.79 19.5707 27.555 19.4365C27.3201 19.3022 27.0418 19.2656 26.7801 19.3346Z" fill="url(#paint4_linear_3_88)"/>
<path d="M32.881 16.8673C32.6589 17.0367 32.5113 17.2859 32.4694 17.5621C32.4276 17.8383 32.4947 18.12 32.6567 18.3476L33.8231 19.9178C34.0231 20.1071 34.2879 20.2126 34.5633 20.2126C34.8386 20.2126 35.1035 20.1071 35.3035 19.9178C35.4012 19.8255 35.4791 19.7143 35.5323 19.5908C35.5856 19.4674 35.613 19.3344 35.613 19.2C35.613 19.0656 35.5856 18.9326 35.5323 18.8092C35.4791 18.6858 35.4012 18.5745 35.3035 18.4822L34.1371 16.9122C33.9446 16.7258 33.6872 16.6216 33.4193 16.6216C33.1514 16.6216 32.8941 16.7258 32.7016 16.9122L32.881 16.8673Z" fill="url(#paint5_linear_3_88)"/>
<path d="M32.881 16.8673C32.6589 17.0367 32.5113 17.2859 32.4694 17.5621C32.4276 17.8383 32.4947 18.12 32.6567 18.3476L33.8231 19.9178C34.0231 20.1071 34.2879 20.2126 34.5633 20.2126C34.8386 20.2126 35.1035 20.1071 35.3035 19.9178C35.4012 19.8255 35.4791 19.7143 35.5323 19.5908C35.5856 19.4674 35.613 19.3344 35.613 19.2C35.613 19.0656 35.5856 18.9326 35.5323 18.8092C35.4791 18.6858 35.4012 18.5745 35.3035 18.4822L34.1371 16.9122C33.9446 16.7258 33.6872 16.6216 33.4193 16.6216C33.1514 16.6216 32.8941 16.7258 32.7016 16.9122L32.881 16.8673Z" fill="url(#paint6_linear_3_88)"/>
<path d="M38.8923 13.144C38.6538 12.9911 38.3647 12.9383 38.0876 12.9971C37.8105 13.0558 37.5678 13.2214 37.4119 13.458C37.2828 13.695 37.2434 13.9707 37.301 14.2344C37.3587 14.4981 37.5096 14.7321 37.7259 14.8936L39.4755 16.0151C39.7075 16.1638 39.989 16.2142 40.2583 16.1553C40.5275 16.0964 40.7623 15.933 40.911 15.701C41.0597 15.469 41.1101 15.1874 41.0513 14.9182C40.9924 14.649 40.8289 14.4142 40.5969 14.2655L38.8923 13.144Z" fill="url(#paint7_linear_3_88)"/>
<path d="M38.8923 13.144C38.6538 12.9911 38.3647 12.9383 38.0876 12.9971C37.8105 13.0558 37.5678 13.2214 37.4119 13.458C37.2828 13.695 37.2434 13.9707 37.301 14.2344C37.3587 14.4981 37.5096 14.7321 37.7259 14.8936L39.4755 16.0151C39.7075 16.1638 39.989 16.2142 40.2583 16.1553C40.5275 16.0964 40.7623 15.933 40.911 15.701C41.0597 15.469 41.1101 15.1874 41.0513 14.9182C40.9924 14.649 40.8289 14.4142 40.5969 14.2655L38.8923 13.144Z" fill="url(#paint8_linear_3_88)"/>
<path d="M12.5597 21.8468C12.5112 21.976 12.4904 22.114 12.4986 22.2518C12.5067 22.3896 12.5438 22.5241 12.6072 22.6467C12.6706 22.7693 12.759 22.8772 12.8668 22.9635C12.9745 23.0498 13.0991 23.1126 13.2326 23.1477C13.3651 23.1887 13.5045 23.2025 13.6425 23.1883C13.7805 23.1742 13.9142 23.1323 14.0356 23.0653C14.1571 22.9983 14.2637 22.9075 14.3493 22.7984C14.4348 22.6892 14.4975 22.5639 14.5335 22.43L15.0718 20.6356C15.1315 20.3685 15.0915 20.0888 14.9593 19.8492C14.8271 19.6095 14.6118 19.4266 14.3541 19.3346C14.087 19.2749 13.8073 19.315 13.5677 19.4472C13.3281 19.5794 13.1451 19.7946 13.0531 20.0524L12.5597 21.8468Z" fill="url(#paint9_linear_3_88)"/>
<path d="M12.5597 21.8468C12.5112 21.976 12.4904 22.114 12.4986 22.2518C12.5067 22.3896 12.5438 22.5241 12.6072 22.6467C12.6706 22.7693 12.759 22.8772 12.8668 22.9635C12.9745 23.0498 13.0991 23.1126 13.2326 23.1477C13.3651 23.1887 13.5045 23.2025 13.6425 23.1883C13.7805 23.1742 13.9142 23.1323 14.0356 23.0653C14.1571 22.9983 14.2637 22.9075 14.3493 22.7984C14.4348 22.6892 14.4975 22.5639 14.5335 22.43L15.0718 20.6356C15.1315 20.3685 15.0915 20.0888 14.9593 19.8492C14.8271 19.6095 14.6118 19.4266 14.3541 19.3346C14.087 19.2749 13.8073 19.315 13.5677 19.4472C13.3281 19.5794 13.1451 19.7946 13.0531 20.0524L12.5597 21.8468Z" fill="url(#paint10_linear_3_88)"/>
<path d="M5.60634 18.6617C5.52129 18.7686 5.45932 18.8919 5.42439 19.0239C5.38947 19.1559 5.38237 19.2938 5.40345 19.4287C5.42453 19.5636 5.47338 19.6927 5.54692 19.8078C5.62046 19.9229 5.71706 20.0214 5.83065 20.0972C6.0231 20.2836 6.28052 20.3878 6.54842 20.3878C6.81633 20.3878 7.07374 20.2836 7.2662 20.0972L8.43253 18.5271C8.62183 18.3272 8.72734 18.0623 8.72734 17.7869C8.72734 17.5116 8.62183 17.2467 8.43253 17.0468C8.22787 16.867 7.96479 16.7678 7.69237 16.7678C7.41995 16.7678 7.1568 16.867 6.95214 17.0468L5.60634 18.6617Z" fill="url(#paint11_linear_3_88)"/>
<path d="M5.60634 18.6617C5.52129 18.7686 5.45932 18.8919 5.42439 19.0239C5.38947 19.1559 5.38237 19.2938 5.40345 19.4287C5.42453 19.5636 5.47338 19.6927 5.54692 19.8078C5.62046 19.9229 5.71706 20.0214 5.83065 20.0972C6.0231 20.2836 6.28052 20.3878 6.54842 20.3878C6.81633 20.3878 7.07374 20.2836 7.2662 20.0972L8.43253 18.5271C8.62183 18.3272 8.72734 18.0623 8.72734 17.7869C8.72734 17.5116 8.62183 17.2467 8.43253 17.0468C8.22787 16.867 7.96479 16.7678 7.69237 16.7678C7.41995 16.7678 7.1568 16.867 6.95214 17.0468L5.60634 18.6617Z" fill="url(#paint12_linear_3_88)"/>
<path d="M0.537214 14.2653C0.305212 14.414 0.141729 14.6488 0.0828389 14.918C0.023949 15.1872 0.0744432 15.4688 0.223163 15.7008C0.371882 15.9328 0.606697 16.0962 0.875908 16.1551C1.14512 16.214 1.42671 16.1636 1.65871 16.0148L3.36334 14.8933C3.59534 14.7446 3.75875 14.5098 3.81764 14.2406C3.87653 13.9714 3.82611 13.6898 3.67739 13.4578C3.52867 13.2258 3.29385 13.0624 3.02464 13.0035C2.75543 12.9446 2.47384 12.9951 2.24184 13.1438L0.537214 14.2653Z" fill="url(#paint13_linear_3_88)"/>
<path d="M0.537214 14.2653C0.305212 14.414 0.141729 14.6488 0.0828389 14.918C0.023949 15.1872 0.0744432 15.4688 0.223163 15.7008C0.371882 15.9328 0.606697 16.0962 0.875908 16.1551C1.14512 16.214 1.42671 16.1636 1.65871 16.0148L3.36334 14.8933C3.59534 14.7446 3.75875 14.5098 3.81764 14.2406C3.87653 13.9714 3.82611 13.6898 3.67739 13.4578C3.52867 13.2258 3.29385 13.0624 3.02464 13.0035C2.75543 12.9446 2.47384 12.9951 2.24184 13.1438L0.537214 14.2653Z" fill="url(#paint14_linear_3_88)"/>
</g>
<defs>
<linearGradient id="paint0_linear_3_88" x1="25.8828" y1="23.8654" x2="17.0454" y2="-0.314022" gradientUnits="userSpaceOnUse">
<stop stop-color="#3C00F2"/>
<stop offset="0.25" stop-color="#5910EC"/>
<stop offset="0.54" stop-color="#741FE7"/>
<stop offset="0.8" stop-color="#8428E3"/>
<stop offset="1" stop-color="#8A2BE2"/>
</linearGradient>
<linearGradient id="paint1_linear_3_88" x1="398.174" y1="910.376" x2="386.884" y2="894.132" gradientUnits="userSpaceOnUse">
<stop stop-color="#3C00F2"/>
<stop offset="0.25" stop-color="#5910EC"/>
<stop offset="0.54" stop-color="#741FE7"/>
<stop offset="0.8" stop-color="#8428E3"/>
<stop offset="1" stop-color="#8A2BE2"/>
</linearGradient>
<linearGradient id="paint2_linear_3_88" x1="398.174" y1="910.376" x2="386.884" y2="894.132" gradientUnits="userSpaceOnUse">
<stop stop-color="#3C00F2"/>
<stop offset="0.25" stop-color="#5910EC"/>
<stop offset="0.54" stop-color="#741FE7"/>
<stop offset="0.8" stop-color="#8428E3"/>
<stop offset="1" stop-color="#8A2BE2"/>
</linearGradient>
<linearGradient id="paint3_linear_3_88" x1="505.115" y1="893.17" x2="495.165" y2="874.892" gradientUnits="userSpaceOnUse">
<stop stop-color="#3C00F2"/>
<stop offset="0.25" stop-color="#5910EC"/>
<stop offset="0.54" stop-color="#741FE7"/>
<stop offset="0.8" stop-color="#8428E3"/>
<stop offset="1" stop-color="#8A2BE2"/>
</linearGradient>
<linearGradient id="paint4_linear_3_88" x1="505.115" y1="893.17" x2="495.165" y2="874.892" gradientUnits="userSpaceOnUse">
<stop stop-color="#3C00F2"/>
<stop offset="0.25" stop-color="#5910EC"/>
<stop offset="0.54" stop-color="#741FE7"/>
<stop offset="0.8" stop-color="#8428E3"/>
<stop offset="1" stop-color="#8A2BE2"/>
</linearGradient>
<linearGradient id="paint5_linear_3_88" x1="620.216" y1="822.834" x2="612.475" y2="804.16" gradientUnits="userSpaceOnUse">
<stop stop-color="#3C00F2"/>
<stop offset="0.25" stop-color="#5910EC"/>
<stop offset="0.54" stop-color="#741FE7"/>
<stop offset="0.8" stop-color="#8428E3"/>
<stop offset="1" stop-color="#8A2BE2"/>
</linearGradient>
<linearGradient id="paint6_linear_3_88" x1="620.216" y1="822.834" x2="612.475" y2="804.16" gradientUnits="userSpaceOnUse">
<stop stop-color="#3C00F2"/>
<stop offset="0.25" stop-color="#5910EC"/>
<stop offset="0.54" stop-color="#741FE7"/>
<stop offset="0.8" stop-color="#8428E3"/>
<stop offset="1" stop-color="#8A2BE2"/>
</linearGradient>
<linearGradient id="paint7_linear_3_88" x1="749.912" y1="731.209" x2="744.427" y2="713.329" gradientUnits="userSpaceOnUse">
<stop stop-color="#3C00F2"/>
<stop offset="0.25" stop-color="#5910EC"/>
<stop offset="0.54" stop-color="#741FE7"/>
<stop offset="0.8" stop-color="#8428E3"/>
<stop offset="1" stop-color="#8A2BE2"/>
</linearGradient>
<linearGradient id="paint8_linear_3_88" x1="749.912" y1="731.209" x2="744.427" y2="713.329" gradientUnits="userSpaceOnUse">
<stop stop-color="#3C00F2"/>
<stop offset="0.25" stop-color="#5910EC"/>
<stop offset="0.54" stop-color="#741FE7"/>
<stop offset="0.8" stop-color="#8428E3"/>
<stop offset="1" stop-color="#8A2BE2"/>
</linearGradient>
<linearGradient id="paint9_linear_3_88" x1="486.217" y1="897.721" x2="476.271" y2="879.407" gradientUnits="userSpaceOnUse">
<stop stop-color="#3C00F2"/>
<stop offset="0.25" stop-color="#5910EC"/>
<stop offset="0.54" stop-color="#741FE7"/>
<stop offset="0.8" stop-color="#8428E3"/>
<stop offset="1" stop-color="#8A2BE2"/>
</linearGradient>
<linearGradient id="paint10_linear_3_88" x1="486.217" y1="897.721" x2="476.271" y2="879.407" gradientUnits="userSpaceOnUse">
<stop stop-color="#3C00F2"/>
<stop offset="0.25" stop-color="#5910EC"/>
<stop offset="0.54" stop-color="#741FE7"/>
<stop offset="0.8" stop-color="#8428E3"/>
<stop offset="1" stop-color="#8A2BE2"/>
</linearGradient>
<linearGradient id="paint11_linear_3_88" x1="608.894" y1="836.504" x2="601.351" y2="817.39" gradientUnits="userSpaceOnUse">
<stop stop-color="#3C00F2"/>
<stop offset="0.25" stop-color="#5910EC"/>
<stop offset="0.54" stop-color="#741FE7"/>
<stop offset="0.8" stop-color="#8428E3"/>
<stop offset="1" stop-color="#8A2BE2"/>
</linearGradient>
<linearGradient id="paint12_linear_3_88" x1="608.894" y1="836.504" x2="601.351" y2="817.39" gradientUnits="userSpaceOnUse">
<stop stop-color="#3C00F2"/>
<stop offset="0.25" stop-color="#5910EC"/>
<stop offset="0.54" stop-color="#741FE7"/>
<stop offset="0.8" stop-color="#8428E3"/>
<stop offset="1" stop-color="#8A2BE2"/>
</linearGradient>
<linearGradient id="paint13_linear_3_88" x1="681.761" y1="738.365" x2="676.244" y2="720.521" gradientUnits="userSpaceOnUse">
<stop stop-color="#3C00F2"/>
<stop offset="0.25" stop-color="#5910EC"/>
<stop offset="0.54" stop-color="#741FE7"/>
<stop offset="0.8" stop-color="#8428E3"/>
<stop offset="1" stop-color="#8A2BE2"/>
</linearGradient>
<linearGradient id="paint14_linear_3_88" x1="681.761" y1="738.365" x2="676.244" y2="720.521" gradientUnits="userSpaceOnUse">
<stop stop-color="#3C00F2"/>
<stop offset="0.25" stop-color="#5910EC"/>
<stop offset="0.54" stop-color="#741FE7"/>
<stop offset="0.8" stop-color="#8428E3"/>
<stop offset="1" stop-color="#8A2BE2"/>
</linearGradient>
<clipPath id="clip0_3_88">
<rect width="41.0019" height="24" fill="white" transform="translate(0.0437012)"/>
</clipPath>
</defs>
</svg>
