<svg width="30" height="30" viewBox="0 0 30 30" fill="none" xmlns="http://www.w3.org/2000/svg">
<circle cx="15" cy="15" r="15" fill="white"/>
<path d="M17.0081 14.7275C17.0081 15.6824 16.2777 16.4549 15.375 16.4549C14.4723 16.4549 13.7419 15.6824 13.7419 14.7275C13.7419 13.7726 14.4723 13 15.375 13C16.2777 13 17.0081 13.7726 17.0081 14.7275ZM19.3669 13C18.4642 13 17.7339 13.7726 17.7339 14.7275C17.7339 15.6824 18.4642 16.4549 19.3669 16.4549C20.2697 16.4549 21 15.6824 21 14.7275C21 13.7726 20.2697 13 19.3669 13ZM11.3831 13C10.4803 13 9.75 13.7726 9.75 14.7275C9.75 15.6824 10.4803 16.4549 11.3831 16.4549C12.2858 16.4549 13.0161 15.6824 13.0161 14.7275C13.0161 13.7726 12.2858 13 11.3831 13Z" fill="#8B8E97"/>
</svg>
