<svg width="24" height="24" viewBox="0 0 24 24" fill="none" xmlns="http://www.w3.org/2000/svg">
<path d="M22.2143 12.7857H19.7503C21.6855 11.7132 23 9.65071 23 7.28571C23 3.81993 20.1801 1 16.7143 1C14.0821 1 11.8264 2.628 10.8914 4.92857H8.85714V1.78571C8.85714 1.35121 8.50593 1 8.07143 1H4.92857C4.49407 1 4.14286 1.35121 4.14286 1.78571V4.92857H1.78571C1.35121 4.92857 1 5.27979 1 5.71429V22.2143C1 22.6488 1.35121 23 1.78571 23H11.2143C11.6488 23 12 22.6488 12 22.2143H22.2143C22.6488 22.2143 23 21.8631 23 21.4286V13.5714C23 13.1369 22.6488 12.7857 22.2143 12.7857ZM21.4286 14.3571V15.1429C20.9949 15.1429 20.6429 14.7909 20.6429 14.3571H21.4286ZM7.28571 10.4286V12.7857H5.71429V10.4286H7.28571ZM5.71429 8.85714V6.5H7.28571V8.85714H5.71429ZM2.57143 10.4286H4.14286V12.7857H2.57143V10.4286ZM2.57143 14.3571H4.14286V16.7143H2.57143V14.3571ZM5.71429 14.3571H7.28571V16.7143H5.71429V14.3571ZM8.85714 20.6429V19.8571C9.29086 19.8571 9.64286 20.2091 9.64286 20.6429H8.85714ZM8.85714 14.3571H9.64286C9.64286 14.7909 9.29086 15.1429 8.85714 15.1429V14.3571ZM8.85714 12.7857V10.4286H10.4286V12.7857H8.85714ZM12 11.4296C12.4769 11.9717 13.0419 12.4337 13.6783 12.7857H12V11.4296ZM16.7143 2.57143C19.3142 2.57143 21.4286 4.68579 21.4286 7.28571C21.4286 9.88564 19.3142 12 16.7143 12C14.1144 12 12 9.88564 12 7.28571C12 4.68579 14.1144 2.57143 16.7143 2.57143ZM10.4286 6.5V8.85714H8.85714V6.5H10.4286ZM5.71429 2.57143H7.28571V4.92857H5.71429V2.57143ZM2.57143 6.5H4.14286V8.85714H2.57143V6.5ZM2.57143 21.4286V18.2857H4.14286V21.4286H2.57143ZM5.71429 21.4286V18.2857H7.28571V21.4286H5.71429ZM11.2143 20.6429C11.2143 19.3433 10.1567 18.2857 8.85714 18.2857V16.7143C10.1567 16.7143 11.2143 15.6567 11.2143 14.3571H19.0714C19.0714 15.6567 20.129 16.7143 21.4286 16.7143V18.2857C20.129 18.2857 19.0714 19.3433 19.0714 20.6429H11.2143ZM21.4286 20.6429H20.6429C20.6429 20.2091 20.9949 19.8571 21.4286 19.8571V20.6429Z" fill="white" stroke="#5406D6" stroke-width="0.3"/>
<path d="M19.1865 5.3435H17.6565C17.8065 5.4395 17.9235 5.5505 18.0075 5.6765C18.0915 5.7995 18.1515 5.9345 18.1875 6.0815H19.1865V6.9365H18.183C18.114 7.2155 17.976 7.463 17.769 7.679C17.562 7.895 17.2905 8.063 16.9545 8.183C17.0475 8.225 17.133 8.2805 17.211 8.3495C17.292 8.4185 17.364 8.501 17.427 8.597L19.056 11H17.9625C17.7585 11 17.6085 10.919 17.5125 10.757L16.1445 8.6735C16.0935 8.5955 16.0365 8.54 15.9735 8.507C15.9135 8.474 15.8235 8.4575 15.7035 8.4575H14.8575V7.6385H15.7485C16.0905 7.6385 16.3635 7.574 16.5675 7.445C16.7745 7.316 16.92 7.1465 17.004 6.9365H14.853V6.0815H17.031C16.959 5.8625 16.818 5.6915 16.608 5.5685C16.401 5.4425 16.1205 5.3795 15.7665 5.3795H14.8575V4.493H19.1865V5.3435Z" fill="white"/>
<path d="M19.1865 5.3435V5.4935H19.3365V5.3435H19.1865ZM17.6565 5.3435V5.1935H17.1439L17.5757 5.46984L17.6565 5.3435ZM18.0075 5.6765L17.8827 5.75971L17.8837 5.76109L18.0075 5.6765ZM18.1875 6.0815L18.0418 6.11718L18.0698 6.2315H18.1875V6.0815ZM19.1865 6.0815H19.3365V5.9315H19.1865V6.0815ZM19.1865 6.9365V7.0865H19.3365V6.9365H19.1865ZM18.183 6.9365V6.7865H18.0656L18.0374 6.90049L18.183 6.9365ZM16.9545 8.183L16.9041 8.04174L16.5541 8.16674L16.8928 8.31971L16.9545 8.183ZM17.211 8.3495L17.1116 8.46187L17.1138 8.46369L17.211 8.3495ZM17.427 8.597L17.3016 8.67931L17.3029 8.68117L17.427 8.597ZM19.056 11V11.15H19.3389L19.1802 10.9158L19.056 11ZM17.5125 10.757L17.6417 10.6804L17.6379 10.6747L17.5125 10.757ZM16.1445 8.6735L16.019 8.75559L16.0192 8.75583L16.1445 8.6735ZM15.9735 8.507L15.9012 8.63846L15.9039 8.63987L15.9735 8.507ZM14.8575 8.4575H14.7075V8.6075H14.8575V8.4575ZM14.8575 7.6385V7.4885H14.7075V7.6385H14.8575ZM16.5675 7.445L16.4882 7.31769L16.4874 7.31822L16.5675 7.445ZM17.004 6.9365L17.1433 6.99221L17.2256 6.7865H17.004V6.9365ZM14.853 6.9365H14.703V7.0865H14.853V6.9365ZM14.853 6.0815V5.9315H14.703V6.0815H14.853ZM17.031 6.0815V6.2315H17.2383L17.1735 6.03465L17.031 6.0815ZM16.608 5.5685L16.53 5.69665L16.5322 5.69793L16.608 5.5685ZM14.8575 5.3795H14.7075V5.5295H14.8575V5.3795ZM14.8575 4.493V4.343H14.7075V4.493H14.8575ZM19.1865 4.493H19.3365V4.343H19.1865V4.493ZM19.1865 5.1935H17.6565V5.4935H19.1865V5.1935ZM17.5757 5.46984C17.7112 5.5566 17.8121 5.65374 17.8827 5.7597L18.1324 5.59329C18.035 5.44726 17.9018 5.3224 17.7374 5.21716L17.5757 5.46984ZM17.8837 5.76109C17.9574 5.86899 18.0101 5.98737 18.0418 6.11718L18.3332 6.04582C18.293 5.88162 18.2257 5.73001 18.1314 5.59191L17.8837 5.76109ZM18.1875 6.2315H19.1865V5.9315H18.1875V6.2315ZM19.0365 6.0815V6.9365H19.3365V6.0815H19.0365ZM19.1865 6.7865H18.183V7.0865H19.1865V6.7865ZM18.0374 6.90049C17.975 7.15296 17.8504 7.37735 17.6607 7.57521L17.8773 7.78279C18.1017 7.54865 18.2531 7.27804 18.3287 6.97251L18.0374 6.90049ZM17.6607 7.57521C17.4727 7.77146 17.2224 7.92808 16.9041 8.04174L17.005 8.32426C17.3587 8.19792 17.6514 8.01854 17.8773 7.78279L17.6607 7.57521ZM16.8928 8.31971C16.9718 8.35539 17.0447 8.4026 17.1117 8.46185L17.3104 8.23715C17.2214 8.1584 17.1233 8.09461 17.0163 8.04629L16.8928 8.31971ZM17.1138 8.46369C17.1831 8.52275 17.2458 8.59427 17.3016 8.6793L17.5525 8.5147C17.4822 8.40773 17.401 8.31425 17.3083 8.23531L17.1138 8.46369ZM17.3029 8.68117L18.9319 11.0842L19.1802 10.9158L17.5512 8.51283L17.3029 8.68117ZM19.056 10.85H17.9625V11.15H19.056V10.85ZM17.9625 10.85C17.8062 10.85 17.708 10.7925 17.6416 10.6805L17.3835 10.8335C17.5091 11.0455 17.7109 11.15 17.9625 11.15V10.85ZM17.6379 10.6747L16.2699 8.59117L16.0192 8.75583L17.3872 10.8393L17.6379 10.6747ZM16.2701 8.59141C16.2093 8.49844 16.1348 8.42213 16.0431 8.37413L15.9039 8.63987C15.9383 8.65787 15.9778 8.69256 16.019 8.75559L16.2701 8.59141ZM16.0458 8.37557C15.9527 8.32437 15.8324 8.3075 15.7035 8.3075V8.6075C15.8147 8.6075 15.8743 8.62363 15.9013 8.63843L16.0458 8.37557ZM15.7035 8.3075H14.8575V8.6075H15.7035V8.3075ZM15.0075 8.4575V7.6385H14.7075V8.4575H15.0075ZM14.8575 7.7885H15.7485V7.4885H14.8575V7.7885ZM15.7485 7.7885C16.1076 7.7885 16.4117 7.72102 16.6477 7.57178L16.4874 7.31822C16.3154 7.42698 16.0734 7.4885 15.7485 7.4885V7.7885ZM16.6469 7.5723C16.8787 7.42782 17.0465 7.23421 17.1433 6.99221L16.8648 6.88079C16.7936 7.05879 16.6704 7.20418 16.4882 7.3177L16.6469 7.5723ZM17.004 6.7865H14.853V7.0865H17.004V6.7865ZM15.003 6.9365V6.0815H14.703V6.9365H15.003ZM14.853 6.2315H17.031V5.9315H14.853V6.2315ZM17.1735 6.03465C17.0894 5.77886 16.9235 5.57943 16.6839 5.43907L16.5322 5.69793C16.7126 5.80357 16.8286 5.94614 16.8885 6.12835L17.1735 6.03465ZM16.686 5.44037C16.4471 5.29493 16.1361 5.2295 15.7665 5.2295V5.5295C16.1049 5.5295 16.355 5.59007 16.5301 5.69663L16.686 5.44037ZM15.7665 5.2295H14.8575V5.5295H15.7665V5.2295ZM15.0075 5.3795V4.493H14.7075V5.3795H15.0075ZM14.8575 4.643H19.1865V4.343H14.8575V4.643ZM19.0365 4.493V5.3435H19.3365V4.493H19.0365Z" fill="#5406D6"/>
<path d="M15.1428 15.1431C13.8432 15.1431 12.7856 16.2006 12.7856 17.5002C12.7856 18.7998 13.8432 19.8574 15.1428 19.8574C16.4424 19.8574 17.4999 18.7998 17.4999 17.5002C17.4999 16.2006 16.4424 15.1431 15.1428 15.1431ZM15.1428 18.2859C14.7091 18.2859 14.3571 17.9339 14.3571 17.5002C14.3571 17.0665 14.7091 16.7145 15.1428 16.7145C15.5765 16.7145 15.9285 17.0665 15.9285 17.5002C15.9285 17.9339 15.5765 18.2859 15.1428 18.2859Z" fill="white" stroke="#5406D6" stroke-width="0.3"/>
</svg>
