<svg width="24" height="21" viewBox="0 0 24 21" fill="none" xmlns="http://www.w3.org/2000/svg">
<path d="M11.0894 1.09801L7.51402 0.0294012C7.33875 -0.0229113 7.14994 -0.00495804 6.98771 0.0796045L2.86008 2.23187V2.15621C2.86008 1.7679 2.54531 1.45309 2.15705 1.45309H0.703032C0.314766 1.45314 0 1.7679 0 2.15626C0 2.54462 0.314766 2.85939 0.703032 2.85939H1.45397V10.5938H0.703032C0.314766 10.5938 0 10.9086 0 11.2969C0 11.6852 0.314766 12 0.703032 12H2.157C2.54527 12 2.86003 11.6852 2.86003 11.2969V10.5938C9.65096 10.5801 9.4584 10.6262 9.8265 10.5544C11.0285 11.9254 12.7345 12.7031 14.5775 12.7031C18.0665 12.7031 20.905 9.86434 20.905 6.37501C20.905 1.31279 15.2474 -1.66021 11.0894 1.09801ZM8.25014 6.37501H6.74325L7.88536 5.05708L8.36325 5.18284C8.28933 5.56904 8.25014 5.96753 8.25014 6.37501ZM2.86008 3.81775L7.38478 1.45848L9.83504 2.19081C9.40374 2.67915 9.04664 3.23434 8.78124 3.8387L7.81978 3.58567C7.56052 3.51737 7.28508 3.60254 7.10958 3.80514L4.67236 6.61764C4.2788 7.07176 4.60191 7.78126 5.20364 7.78126H9.42188C9.80958 7.78126 10.1249 8.09669 10.1249 8.48439C10.1249 8.87209 9.80954 9.18751 9.42188 9.18751H2.86008V3.81775ZM14.5776 11.2969C13.2315 11.2969 11.9791 10.7633 11.057 9.81494C12.11 8.52306 11.3061 6.57179 9.65639 6.38837C9.64932 3.64529 11.8821 1.45314 14.5776 1.45314C17.2912 1.45314 19.4989 3.66109 19.4989 6.37501C19.4989 9.08894 17.2913 11.2969 14.5776 11.2969Z" fill="white"/>
<path d="M17.1865 4.3435H15.6565C15.8065 4.4395 15.9235 4.5505 16.0075 4.6765C16.0915 4.7995 16.1515 4.9345 16.1875 5.0815H17.1865V5.9365H16.183C16.114 6.2155 15.976 6.463 15.769 6.679C15.562 6.895 15.2905 7.063 14.9545 7.183C15.0475 7.225 15.133 7.2805 15.211 7.3495C15.292 7.4185 15.364 7.501 15.427 7.597L17.056 10H15.9625C15.7585 10 15.6085 9.919 15.5125 9.757L14.1445 7.6735C14.0935 7.5955 14.0365 7.54 13.9735 7.507C13.9135 7.474 13.8235 7.4575 13.7035 7.4575H12.8575V6.6385H13.7485C14.0905 6.6385 14.3635 6.574 14.5675 6.445C14.7745 6.316 14.92 6.1465 15.004 5.9365H12.853V5.0815H15.031C14.959 4.8625 14.818 4.6915 14.608 4.5685C14.401 4.4425 14.1205 4.3795 13.7665 4.3795H12.8575V3.493H17.1865V4.3435Z" fill="white"/>
<path d="M16.0688 17.0613L15.2804 17.8497V14.5762C15.2804 14.1879 14.9656 13.873 14.5774 13.873C14.1891 13.873 13.8743 14.1879 13.8743 14.5762V17.8498L13.086 17.0613C12.8114 16.7868 12.3662 16.7868 12.0917 17.0613C11.8171 17.3359 11.8171 17.7811 12.0917 18.0557L14.0802 20.0445C14.3545 20.3189 14.8 20.3191 15.0745 20.0445L17.063 18.0557C17.3376 17.7812 17.3376 17.3359 17.063 17.0613C16.7885 16.7868 16.3433 16.7868 16.0688 17.0613Z" fill="white"/>
<path d="M23.4789 14.0095C23.1041 13.9093 22.7184 14.1316 22.6178 14.5067L22.3293 15.5837L20.6926 12.7487C20.4985 12.4123 20.0685 12.2971 19.7322 12.4913C19.396 12.6855 19.2807 13.1155 19.4749 13.4518L21.1115 16.2868L20.0346 15.9982C19.6601 15.8981 19.2741 16.1202 19.1735 16.4954C19.0731 16.8705 19.2956 17.256 19.6707 17.3565L22.3871 18.0844C22.762 18.1847 23.1475 17.9627 23.2481 17.5873L23.976 14.8706C24.0765 14.4956 23.854 14.11 23.4789 14.0095Z" fill="white"/>
<path d="M9.12075 15.9982L8.04389 16.2868L9.68049 13.4518C9.87464 13.1155 9.75942 12.6854 9.42314 12.4913C9.08691 12.2971 8.65688 12.4124 8.46277 12.7487L6.82617 15.5837L6.53761 14.5067C6.43711 14.1316 6.05175 13.9092 5.67652 14.0095C5.30147 14.1101 5.07891 14.4956 5.17941 14.8707L5.90728 17.5873C6.00755 17.9616 6.39211 18.1851 6.76838 18.0845L9.48474 17.3566C9.85978 17.256 10.0823 16.8705 9.98185 16.4954C9.88135 16.1203 9.49585 15.8979 9.12075 15.9982Z" fill="white"/>
</svg>
