<svg width="25" height="25" viewBox="0 0 25 25" fill="none" xmlns="http://www.w3.org/2000/svg">
<rect width="25" height="25" rx="5" fill="#757575"/>
<g clip-path="url(#clip0_999_49771)">
<path d="M11.875 7.5H7.5C7.16848 7.5 6.85054 7.6317 6.61612 7.86612C6.3817 8.10054 6.25 8.41848 6.25 8.75V17.5C6.25 17.8315 6.3817 18.1495 6.61612 18.3839C6.85054 18.6183 7.16848 18.75 7.5 18.75H16.25C16.5815 18.75 16.8995 18.6183 17.1339 18.3839C17.3683 18.1495 17.5 17.8315 17.5 17.5V13.125" stroke="white" stroke-linecap="round" stroke-linejoin="round"/>
<path d="M16.5625 6.5602C16.8111 6.31156 17.1484 6.17187 17.5 6.17188C17.8516 6.17188 18.1889 6.31156 18.4375 6.5602C18.6861 6.80884 18.8258 7.14607 18.8258 7.4977C18.8258 7.84933 18.6861 8.18656 18.4375 8.4352L12.5 14.3727L10 14.9977L10.625 12.4977L16.5625 6.5602Z" stroke="white" stroke-linecap="round" stroke-linejoin="round"/>
</g>
<defs>
<clipPath id="clip0_999_49771">
<rect width="15" height="15" fill="white" transform="translate(5 5)"/>
</clipPath>
</defs>
</svg>
