<svg width="149" height="50" viewBox="0 0 149 50" fill="none" xmlns="http://www.w3.org/2000/svg">
<path d="M148.53 6.4053L141.285 0V3.28921H64.9362C61.0347 3.28976 57.2027 4.28389 53.8291 6.17071C50.4556 8.05753 47.6605 10.7699 45.7274 14.0326L40.6397 22.6171L34.4201 15.2749H28.0736L37.752 27.4949L34.9066 32.3523C33.35 34.9874 31.096 37.1785 28.3741 38.7025C25.6521 40.2265 22.5594 41.0291 19.4106 41.0285H7.24645V36.6599L0.000854492 43.5947L7.24645 50V46.2525H20.0981C23.9929 46.2469 27.817 45.2502 31.1828 43.3636C34.5487 41.4769 37.3368 38.7673 39.2646 35.5092L50.1171 17.1792C51.6746 14.5531 53.925 12.3696 56.6405 10.8497C59.356 9.32974 62.4403 8.52726 65.5814 8.52342H141.253V13.3809L148.53 6.4053Z" fill="url(#paint0_linear_121_4016)"/>
<path d="M59.6897 33.3299V19.5417H53.9355V15.3157H71.0605V19.5417H65.3064V33.3299H59.6897Z" fill="url(#paint1_linear_121_4016)"/>
<path d="M87.1913 33.3299V26.0794H80.4852V33.3299H74.8368V15.3157H80.4852V21.6497H87.1913V15.3157H92.8503V33.3299H87.1913Z" fill="url(#paint2_linear_121_4016)"/>
<path d="M109.256 33.3312C109.103 32.5902 109.029 31.8362 109.034 31.0807V29.6958C109.055 29.1325 108.931 28.5729 108.674 28.0665C108.433 27.652 108.063 27.3208 107.616 27.1194C106.987 26.8848 106.313 26.7807 105.638 26.8139H102.751V33.3312H97.314V15.2762H106.453C107.553 15.2644 108.653 15.3324 109.743 15.4799C110.477 15.5677 111.192 15.7706 111.858 16.0807C112.38 16.3365 112.85 16.6816 113.244 17.099C113.601 17.4952 113.887 17.9461 114.09 18.433C114.288 19.0037 114.381 19.6034 114.365 20.2049C114.39 20.9632 114.242 21.7176 113.931 22.4147C113.697 22.9234 113.343 23.3724 112.896 23.7259C112.45 24.0795 111.924 24.3279 111.361 24.4514L110.303 24.7263L111.361 25.1133C112.271 25.3748 113.094 25.859 113.751 26.5186C114.228 27.304 114.452 28.2074 114.397 29.1153L114.492 32.0685C114.492 32.71 114.598 32.9239 114.703 33.0868C114.777 33.1708 114.867 33.24 114.968 33.2905L109.256 33.3312ZM102.751 23.4229H106.157C106.971 23.4953 107.786 23.2938 108.463 22.8526C108.688 22.6497 108.867 22.4045 108.99 22.1321C109.113 21.8597 109.176 21.566 109.176 21.2691C109.176 20.9722 109.113 20.6785 108.99 20.4061C108.867 20.1337 108.688 19.8885 108.463 19.6856C107.798 19.2533 106.998 19.0554 106.199 19.1255H102.751V23.4229Z" fill="url(#paint3_linear_121_4016)"/>
<path d="M128.169 33.8594C126.996 33.872 125.825 33.7593 124.678 33.5234C123.787 33.3191 122.936 32.9751 122.161 32.505C121.491 32.1017 120.897 31.5922 120.405 30.9979C119.897 30.3061 119.537 29.5237 119.347 28.6965C119.144 27.7455 119.059 26.7747 119.093 25.8044V15.2749H124.72V26.4765C124.686 27.12 124.798 27.7629 125.048 28.3604C125.277 28.8659 125.681 29.2796 126.191 29.5315C126.775 29.8117 127.421 29.9515 128.073 29.9388C128.515 29.9633 128.958 29.903 129.376 29.7614C129.793 29.6198 130.178 29.3998 130.506 29.114C130.827 28.7643 131.071 28.3559 131.224 27.9131C131.376 27.4704 131.435 27.0025 131.395 26.5376V15.2749H137.022V25.8859C137.054 26.9541 136.944 28.0218 136.694 29.0631C136.491 29.8047 136.131 30.4981 135.636 31.0997C135.137 31.6861 134.54 32.1885 133.87 32.5865C133.093 33.0337 132.247 33.3569 131.363 33.5437C130.314 33.7676 129.243 33.8735 128.169 33.8594Z" fill="url(#paint4_linear_121_4016)"/>
<path d="M12.5034 32.4542V15.275H19.7173C21.0295 15.2467 22.342 15.3217 23.6415 15.499C24.3736 15.6089 25.0859 15.818 25.757 16.1202C26.9225 16.7176 27.8186 17.7072 28.2745 18.9002C28.51 19.5551 28.628 20.2438 28.6235 20.9369C28.6524 21.7847 28.505 22.6294 28.1899 23.4216C27.9604 24.0312 27.6202 24.5967 27.185 25.0917C26.8301 25.4661 26.4203 25.7885 25.9686 26.0489C25.5375 26.2648 25.0836 26.4355 24.6147 26.5581C23.631 26.828 22.6124 26.9617 21.5895 26.9552H17.771V32.4949L12.5034 32.4542ZM17.6758 23.3605H20.225C20.8644 23.3877 21.5046 23.3329 22.129 23.1976C22.5629 23.0688 22.9368 22.7988 23.1867 22.4338C23.4482 22.0391 23.5809 21.578 23.5675 21.11C23.6027 20.7592 23.5315 20.406 23.3626 20.0934C23.1936 19.7807 22.9341 19.5219 22.6155 19.3483C21.7863 19.0027 20.8833 18.8526 19.9817 18.9104H17.6758V23.3605Z" fill="url(#paint5_linear_121_4016)"/>
<defs>
<linearGradient id="paint0_linear_121_4016" x1="203.778" y1="9.74302" x2="30.0391" y2="94.5498" gradientUnits="userSpaceOnUse">
<stop stop-color="white"/>
<stop offset="0.23" stop-color="#8427E1"/>
<stop offset="0.52" stop-color="#741CDD"/>
<stop offset="0.86" stop-color="#5909D7"/>
<stop offset="1" stop-color="#4B00D4"/>
</linearGradient>
<linearGradient id="paint1_linear_121_4016" x1="62.2227" y1="9.39874" x2="62.2227" y2="38.9982" gradientUnits="userSpaceOnUse">
<stop stop-color="#4B00D4"/>
<stop offset="1" stop-color="#3E2C5F"/>
</linearGradient>
<linearGradient id="paint2_linear_121_4016" x1="83.5539" y1="9.39874" x2="83.5539" y2="38.9982" gradientUnits="userSpaceOnUse">
<stop stop-color="#4B00D4"/>
<stop offset="1" stop-color="#3E2C5F"/>
</linearGradient>
<linearGradient id="paint3_linear_121_4016" x1="105.857" y1="9.34415" x2="105.857" y2="39.0128" gradientUnits="userSpaceOnUse">
<stop stop-color="#4B00D4"/>
<stop offset="1" stop-color="#3E2C5F"/>
</linearGradient>
<linearGradient id="paint4_linear_121_4016" x1="127.768" y1="9.17025" x2="127.768" y2="39.7088" gradientUnits="userSpaceOnUse">
<stop stop-color="#4B00D4"/>
<stop offset="1" stop-color="#3E2C5F"/>
</linearGradient>
<linearGradient id="paint5_linear_121_4016" x1="20.306" y1="9.61122" x2="20.306" y2="37.9151" gradientUnits="userSpaceOnUse">
<stop stop-color="#4B00D4"/>
<stop offset="1" stop-color="#3E2C5F"/>
</linearGradient>
</defs>
</svg>
