<svg width="64" height="50" viewBox="0 0 64 50" fill="none" xmlns="http://www.w3.org/2000/svg">
<g clip-path="url(#clip0_416_2305)">
<path d="M63.5303 6.4053L56.2847 0V3.28921H53.9362C50.0347 3.28976 46.2027 4.28389 42.8291 6.17071C39.4556 8.05753 36.6605 10.7699 34.7274 14.0326L29.6397 22.6171L23.4201 15.275H17.0736L26.752 27.4949L23.9066 32.3523C22.35 34.9874 20.096 37.1785 17.3741 38.7025C14.6521 40.2265 11.5594 41.0291 8.41059 41.0285H7.24645V36.6599L0.000854492 43.5947L7.24645 50V46.2525H9.09813C12.9929 46.2469 16.817 45.2502 20.1828 43.3636C23.5487 41.4769 26.3368 38.7673 28.2646 35.5092L39.1171 17.1792C40.6746 14.5531 42.925 12.3696 45.6405 10.8497C48.356 9.32974 51.4403 8.52726 54.5814 8.52342H56.2529V13.3809L63.5303 6.4053Z" fill="url(#paint0_linear_416_2305)"/>
</g>
<defs>
<linearGradient id="paint0_linear_416_2305" x1="192.778" y1="9.743" x2="19.0391" y2="94.5498" gradientUnits="userSpaceOnUse">
<stop stop-color="white"/>
<stop offset="0.23" stop-color="#8427E1"/>
<stop offset="0.52" stop-color="#741CDD"/>
<stop offset="0.86" stop-color="#5909D7"/>
<stop offset="1" stop-color="#4B00D4"/>
</linearGradient>
<clipPath id="clip0_416_2305">
<rect width="64" height="50" fill="white"/>
</clipPath>
</defs>
</svg>
