<svg width="1119" height="252" viewBox="0 0 1119 252" fill="none" xmlns="http://www.w3.org/2000/svg">
<path d="M0.43 116.18C19.36 116.18 35.87 102.85 55.17 91.41C74.47 79.97 92.28 63.6 111.31 51.41C133.412 44.2692 155.948 38.5509 178.78 34.29C207.33 27.81 234.14 14.85 261.08 1.42999L264.83 0C293.83 16.86 325.63 34.42 359.3 43.24C379.76 48.9339 400.865 51.9854 422.1 52.32C441.619 51.9928 461.03 49.3373 479.92 44.41C492.87 40.91 505.82 35.53 518.77 31.41C520.756 31.3036 522.745 31.5232 524.66 32.06C549.33 39.64 573.36 50.06 597.51 59.74C629.057 71.7171 661.541 81.0624 694.63 87.68C707.63 91.83 746.43 101.04 746.43 101.04C758.366 121.121 777.207 136.169 799.43 143.37C811.669 147.788 824.743 149.404 837.69 148.1C839.295 156.543 842.506 164.599 847.15 171.83C849.22 174.29 851.23 176.83 853.23 179.54C868.529 197.461 887.663 211.709 909.217 221.23C930.77 230.751 954.19 235.3 977.74 234.54C982.34 234.54 993.67 232.98 998.2 232.66C1004.95 231.966 1011.65 230.884 1018.28 229.42C1032.68 225.747 1046.75 220.912 1060.36 214.96C1060.36 214.96 1064.12 211.78 1066.84 212.76C1076.11 216.57 1089.84 233.87 1118.18 251.99H0.43L0 116.16L0.43 116.18Z" fill="url(#paint0_linear_57_668)"/>
<defs>
<linearGradient id="paint0_linear_57_668" x1="-3.66456e-06" y1="193.5" x2="1118" y2="185" gradientUnits="userSpaceOnUse">
<stop stop-color="#4C01D5"/>
<stop offset="1" stop-color="#7A20DF"/>
</linearGradient>
</defs>
</svg>
