<svg width="32" height="31" viewBox="0 0 32 31" fill="none" xmlns="http://www.w3.org/2000/svg">
<path d="M5.55554 15.8273H8.88999V19.1632H5.55554V15.8273Z" fill="white"/>
<path d="M12.2222 15.8273H11.1111V19.1632C11.1111 19.753 10.877 20.3187 10.4602 20.7358C10.0435 21.1529 9.47826 21.3872 8.88889 21.3872H5.55556C4.96619 21.3872 4.40095 21.1529 3.98421 20.7358C3.56746 20.3187 3.33333 19.753 3.33333 19.1632V15.8273H2.22222C1.63285 15.8273 1.06762 16.0616 0.650874 16.4787C0.234126 16.8957 0 17.4614 0 18.0512V28.059C0 28.6489 0.234126 29.2146 0.650874 29.6316C1.06762 30.0487 1.63285 30.283 2.22222 30.283H12.2222C12.8116 30.283 13.3768 30.0487 13.7936 29.6316C14.2103 29.2146 14.4444 28.6489 14.4444 28.059V18.0512C14.4444 17.4614 14.2103 16.8957 13.7936 16.4787C13.3768 16.0616 12.8116 15.8273 12.2222 15.8273Z" fill="white"/>
<path d="M22.2222 15.8273H25.5567V19.1632H22.2222V15.8273Z" fill="white"/>
<path d="M28.8889 15.8273H27.7778V19.1632C27.7778 19.753 27.5437 20.3187 27.1269 20.7358C26.7102 21.1529 26.1449 21.3872 25.5556 21.3872H22.2222C21.6329 21.3872 21.0676 21.1529 20.6509 20.7358C20.2341 20.3187 20 19.753 20 19.1632V15.8273H18.8889C18.2995 15.8273 17.7343 16.0616 17.3176 16.4787C16.9008 16.8957 16.6667 17.4614 16.6667 18.0512V28.059C16.6667 28.6489 16.9008 29.2146 17.3176 29.6316C17.7343 30.0487 18.2995 30.283 18.8889 30.283H28.8889C29.4783 30.283 30.0435 30.0487 30.4603 29.6316C30.877 29.2146 31.1111 28.6489 31.1111 28.059V18.0512C31.1111 17.4614 30.877 16.8957 30.4603 16.4787C30.0435 16.0616 29.4783 15.8273 28.8889 15.8273Z" fill="white"/>
<path d="M14.4445 0.259583H16.6678V3.59552H14.4445V0.259583Z" fill="white"/>
<path d="M9.99999 13.6033H21.1111C21.7005 13.6033 22.2657 13.369 22.6825 12.952C23.0992 12.5349 23.3333 11.9692 23.3333 11.3794V2.48354C23.3333 1.89371 23.0992 1.32804 22.6825 0.910965C22.2657 0.493892 21.7005 0.259583 21.1111 0.259583H18.8889V3.59552C18.8889 4.18535 18.6548 4.75103 18.238 5.1681C17.8213 5.58517 17.256 5.81948 16.6667 5.81948H14.4444C13.8551 5.81948 13.2898 5.58517 12.8731 5.1681C12.4563 4.75103 12.2222 4.18535 12.2222 3.59552V0.259583H9.99999C9.41062 0.259583 8.84539 0.493892 8.42865 0.910965C8.0119 1.32804 7.77777 1.89371 7.77777 2.48354V11.3794C7.77777 11.9692 8.0119 12.5349 8.42865 12.952C8.84539 13.369 9.41062 13.6033 9.99999 13.6033Z" fill="white"/>
</svg>
