<svg width="60" height="60" viewBox="0 0 60 60" fill="none" xmlns="http://www.w3.org/2000/svg">
<rect width="60" height="60" rx="10" fill="#FFB11B" fill-opacity="0.1"/>
<path d="M43.1178 19.6842L44.9928 34.6847C45.086 35.4378 44.2487 36.0133 43.8538 35.4653C42.7559 33.9418 40.9734 32.9435 38.9603 32.9258C35.6907 32.8971 32.9556 35.4905 32.8174 38.7572C32.7835 39.5649 32.2558 40.0771 31.6378 40.1927C27.4809 40.9704 22.8494 41.3634 17.8113 41.3634C17.3384 41.3634 16.9394 41.0113 16.8808 40.5419L15.0082 25.5614C14.9279 24.9189 15.4483 24.4396 16.0212 24.4919C16.0611 24.4955 20.038 24.8447 25.1845 24.3349C29.8868 23.8691 36.5609 22.5706 41.6523 19.0302C42.2291 18.6293 43.0296 18.984 43.1178 19.6842Z" fill="#FFB11B"/>
<path d="M32.455 28.201H30.075C30.3083 28.3503 30.4903 28.523 30.621 28.719C30.7517 28.9103 30.845 29.1203 30.901 29.349H32.455V30.679H30.894C30.7867 31.113 30.572 31.498 30.25 31.834C29.928 32.17 29.5057 32.4313 28.983 32.618C29.1277 32.6833 29.2607 32.7697 29.382 32.877C29.508 32.9843 29.62 33.1127 29.718 33.262L32.252 37H30.551C30.2337 37 30.0003 36.874 29.851 36.622L27.723 33.381C27.6437 33.2597 27.555 33.1733 27.457 33.122C27.3637 33.0707 27.2237 33.045 27.037 33.045H25.721V31.771H27.107C27.639 31.771 28.0637 31.6707 28.381 31.47C28.703 31.2693 28.9293 31.0057 29.06 30.679H25.714V29.349H29.102C28.99 29.0083 28.7707 28.7423 28.444 28.551C28.122 28.355 27.6857 28.257 27.135 28.257H25.721V26.878H32.455V28.201Z" fill="#FFF7E8"/>
<path d="M38.9054 43.2386C36.5791 43.2386 34.6865 41.346 34.6865 39.0197C34.6865 36.6934 36.5791 34.8008 38.9054 34.8008C41.2317 34.8008 43.1243 36.6934 43.1243 39.0197C43.1243 41.346 41.2317 43.2386 38.9054 43.2386Z" fill="#FFB11B"/>
<path d="M27.0673 18.0654C26.7612 18.2505 26.7719 18.6988 27.0842 18.8734C28.1383 19.4624 29.0364 20.2986 29.7 21.303C29.8611 21.5468 30.1536 21.6687 30.439 21.6059C32.2529 21.2069 34.1618 20.6688 36.063 19.9439C36.3783 19.8237 36.4676 19.4156 36.2285 19.1774C33.7602 16.7173 29.978 16.3047 27.0673 18.0654Z" fill="#FFB11B"/>
<path d="M18.9773 22.0002C18.742 22.3059 18.9644 22.7493 19.3502 22.7507C21.8964 22.7597 24.5449 22.5851 27.1115 22.2109C27.4973 22.1546 27.6494 21.6823 27.3709 21.4094C24.9512 19.0382 21.0313 19.3311 18.9773 22.0002Z" fill="#FFB11B"/>
</svg>
