<svg width="106" height="117" viewBox="0 0 106 117" fill="none" xmlns="http://www.w3.org/2000/svg">
<path d="M10.0401 104.432V116H8.93609C8.76542 116 8.62142 115.973 8.50409 115.92C8.39209 115.861 8.28275 115.765 8.17609 115.632L2.13609 107.92C2.16809 108.272 2.18409 108.597 2.18409 108.896V116H0.288086V104.432H1.41609C1.50675 104.432 1.58409 104.437 1.64809 104.448C1.71742 104.453 1.77609 104.469 1.82409 104.496C1.87742 104.517 1.92809 104.552 1.97609 104.6C2.02409 104.643 2.07742 104.701 2.13609 104.776L8.20009 112.52C8.18409 112.333 8.17075 112.149 8.16009 111.968C8.14942 111.787 8.14409 111.619 8.14409 111.464V104.432H10.0401Z" fill="#949494"/>
<path d="M15.6862 107.664C16.2942 107.664 16.8462 107.763 17.3422 107.96C17.8435 108.157 18.2702 108.437 18.6222 108.8C18.9795 109.163 19.2542 109.605 19.4462 110.128C19.6382 110.651 19.7342 111.235 19.7342 111.88C19.7342 112.531 19.6382 113.117 19.4462 113.64C19.2542 114.163 18.9795 114.608 18.6222 114.976C18.2702 115.344 17.8435 115.627 17.3422 115.824C16.8462 116.021 16.2942 116.12 15.6862 116.12C15.0729 116.12 14.5155 116.021 14.0142 115.824C13.5129 115.627 13.0835 115.344 12.7262 114.976C12.3742 114.608 12.0995 114.163 11.9022 113.64C11.7102 113.117 11.6142 112.531 11.6142 111.88C11.6142 111.235 11.7102 110.651 11.9022 110.128C12.0995 109.605 12.3742 109.163 12.7262 108.8C13.0835 108.437 13.5129 108.157 14.0142 107.96C14.5155 107.763 15.0729 107.664 15.6862 107.664ZM15.6862 114.6C16.3689 114.6 16.8729 114.371 17.1982 113.912C17.5289 113.453 17.6942 112.781 17.6942 111.896C17.6942 111.011 17.5289 110.336 17.1982 109.872C16.8729 109.408 16.3689 109.176 15.6862 109.176C14.9929 109.176 14.4782 109.411 14.1422 109.88C13.8115 110.344 13.6462 111.016 13.6462 111.896C13.6462 112.776 13.8115 113.448 14.1422 113.912C14.4782 114.371 14.9929 114.6 15.6862 114.6Z" fill="#949494"/>
<path d="M35.7163 110.216C35.7163 111.064 35.575 111.843 35.2923 112.552C35.0097 113.261 34.6123 113.872 34.1003 114.384C33.5883 114.896 32.9723 115.293 32.2523 115.576C31.5323 115.859 30.7323 116 29.8523 116H25.4443V104.432H29.8523C30.7323 104.432 31.5323 104.576 32.2523 104.864C32.9723 105.147 33.5883 105.544 34.1003 106.056C34.6123 106.563 35.0097 107.171 35.2923 107.88C35.575 108.589 35.7163 109.368 35.7163 110.216ZM33.5083 110.216C33.5083 109.581 33.423 109.013 33.2523 108.512C33.087 108.005 32.8443 107.579 32.5243 107.232C32.2097 106.88 31.8257 106.611 31.3723 106.424C30.9243 106.237 30.4177 106.144 29.8523 106.144H27.6043V114.288H29.8523C30.4177 114.288 30.9243 114.195 31.3723 114.008C31.8257 113.821 32.2097 113.555 32.5243 113.208C32.8443 112.856 33.087 112.429 33.2523 111.928C33.423 111.421 33.5083 110.851 33.5083 110.216Z" fill="#949494"/>
<path d="M41.4371 112.496C40.8664 112.523 40.3864 112.573 39.9971 112.648C39.6078 112.717 39.2958 112.808 39.0611 112.92C38.8264 113.032 38.6584 113.163 38.5571 113.312C38.4558 113.461 38.4051 113.624 38.4051 113.8C38.4051 114.147 38.5064 114.395 38.7091 114.544C38.9171 114.693 39.1864 114.768 39.5171 114.768C39.9224 114.768 40.2718 114.696 40.5651 114.552C40.8638 114.403 41.1544 114.179 41.4371 113.88V112.496ZM36.9091 108.936C37.8531 108.072 38.9891 107.64 40.3171 107.64C40.7971 107.64 41.2264 107.72 41.6051 107.88C41.9838 108.035 42.3038 108.253 42.5651 108.536C42.8264 108.813 43.0238 109.147 43.1571 109.536C43.2958 109.925 43.3651 110.352 43.3651 110.816V116H42.4691C42.2824 116 42.1384 115.973 42.0371 115.92C41.9358 115.861 41.8558 115.747 41.7971 115.576L41.6211 114.984C41.4131 115.171 41.2104 115.336 41.0131 115.48C40.8158 115.619 40.6104 115.736 40.3971 115.832C40.1838 115.928 39.9544 116 39.7091 116.048C39.4691 116.101 39.2024 116.128 38.9091 116.128C38.5624 116.128 38.2424 116.083 37.9491 115.992C37.6558 115.896 37.4024 115.755 37.1891 115.568C36.9758 115.381 36.8104 115.149 36.6931 114.872C36.5758 114.595 36.5171 114.272 36.5171 113.904C36.5171 113.696 36.5518 113.491 36.6211 113.288C36.6904 113.08 36.8024 112.883 36.9571 112.696C37.1171 112.509 37.3224 112.333 37.5731 112.168C37.8238 112.003 38.1304 111.859 38.4931 111.736C38.8611 111.613 39.2878 111.515 39.7731 111.44C40.2584 111.36 40.8131 111.312 41.4371 111.296V110.816C41.4371 110.267 41.3198 109.861 41.0851 109.6C40.8504 109.333 40.5118 109.2 40.0691 109.2C39.7491 109.2 39.4824 109.237 39.2691 109.312C39.0611 109.387 38.8771 109.472 38.7171 109.568C38.5571 109.659 38.4104 109.741 38.2771 109.816C38.1491 109.891 38.0051 109.928 37.8451 109.928C37.7064 109.928 37.5891 109.893 37.4931 109.824C37.3971 109.749 37.3198 109.664 37.2611 109.568L36.9091 108.936Z" fill="#949494"/>
<path d="M47.8527 116.128C47.138 116.128 46.5887 115.928 46.2047 115.528C45.826 115.123 45.6367 114.565 45.6367 113.856V109.272H44.7967C44.69 109.272 44.5994 109.237 44.5247 109.168C44.45 109.099 44.4127 108.995 44.4127 108.856V108.072L45.7327 107.856L46.1487 105.616C46.1754 105.509 46.226 105.427 46.3007 105.368C46.3754 105.309 46.4714 105.28 46.5887 105.28H47.6127V107.864H49.8047V109.272H47.6127V113.72C47.6127 113.976 47.674 114.176 47.7967 114.32C47.9247 114.464 48.098 114.536 48.3167 114.536C48.4394 114.536 48.5407 114.523 48.6207 114.496C48.706 114.464 48.778 114.432 48.8367 114.4C48.9007 114.368 48.9567 114.339 49.0047 114.312C49.0527 114.28 49.1007 114.264 49.1487 114.264C49.2074 114.264 49.2554 114.28 49.2927 114.312C49.33 114.339 49.37 114.381 49.4127 114.44L50.0047 115.4C49.7167 115.64 49.386 115.821 49.0127 115.944C48.6394 116.067 48.2527 116.128 47.8527 116.128Z" fill="#949494"/>
<path d="M55.4058 112.496C54.8352 112.523 54.3552 112.573 53.9658 112.648C53.5765 112.717 53.2645 112.808 53.0298 112.92C52.7952 113.032 52.6272 113.163 52.5258 113.312C52.4245 113.461 52.3738 113.624 52.3738 113.8C52.3738 114.147 52.4752 114.395 52.6778 114.544C52.8858 114.693 53.1552 114.768 53.4858 114.768C53.8912 114.768 54.2405 114.696 54.5338 114.552C54.8325 114.403 55.1232 114.179 55.4058 113.88V112.496ZM50.8778 108.936C51.8218 108.072 52.9578 107.64 54.2858 107.64C54.7658 107.64 55.1952 107.72 55.5738 107.88C55.9525 108.035 56.2725 108.253 56.5338 108.536C56.7952 108.813 56.9925 109.147 57.1258 109.536C57.2645 109.925 57.3338 110.352 57.3338 110.816V116H56.4378C56.2512 116 56.1072 115.973 56.0058 115.92C55.9045 115.861 55.8245 115.747 55.7658 115.576L55.5898 114.984C55.3818 115.171 55.1792 115.336 54.9818 115.48C54.7845 115.619 54.5792 115.736 54.3658 115.832C54.1525 115.928 53.9232 116 53.6778 116.048C53.4378 116.101 53.1712 116.128 52.8778 116.128C52.5312 116.128 52.2112 116.083 51.9178 115.992C51.6245 115.896 51.3712 115.755 51.1578 115.568C50.9445 115.381 50.7792 115.149 50.6618 114.872C50.5445 114.595 50.4858 114.272 50.4858 113.904C50.4858 113.696 50.5205 113.491 50.5898 113.288C50.6592 113.08 50.7712 112.883 50.9258 112.696C51.0858 112.509 51.2912 112.333 51.5418 112.168C51.7925 112.003 52.0992 111.859 52.4618 111.736C52.8298 111.613 53.2565 111.515 53.7418 111.44C54.2272 111.36 54.7818 111.312 55.4058 111.296V110.816C55.4058 110.267 55.2885 109.861 55.0538 109.6C54.8192 109.333 54.4805 109.2 54.0378 109.2C53.7178 109.2 53.4512 109.237 53.2378 109.312C53.0298 109.387 52.8458 109.472 52.6858 109.568C52.5258 109.659 52.3792 109.741 52.2458 109.816C52.1178 109.891 51.9738 109.928 51.8138 109.928C51.6752 109.928 51.5578 109.893 51.4618 109.824C51.3658 109.749 51.2885 109.664 51.2298 109.568L50.8778 108.936Z" fill="#949494"/>
<path d="M65.5575 106.144V109.568H69.8935V111.288H65.5575V116H63.3975V104.432H70.6935V106.144H65.5575Z" fill="#949494"/>
<path d="M75.0612 107.664C75.6692 107.664 76.2212 107.763 76.7172 107.96C77.2185 108.157 77.6452 108.437 77.9972 108.8C78.3545 109.163 78.6292 109.605 78.8212 110.128C79.0132 110.651 79.1092 111.235 79.1092 111.88C79.1092 112.531 79.0132 113.117 78.8212 113.64C78.6292 114.163 78.3545 114.608 77.9972 114.976C77.6452 115.344 77.2185 115.627 76.7172 115.824C76.2212 116.021 75.6692 116.12 75.0612 116.12C74.4479 116.12 73.8905 116.021 73.3892 115.824C72.8879 115.627 72.4585 115.344 72.1012 114.976C71.7492 114.608 71.4745 114.163 71.2772 113.64C71.0852 113.117 70.9892 112.531 70.9892 111.88C70.9892 111.235 71.0852 110.651 71.2772 110.128C71.4745 109.605 71.7492 109.163 72.1012 108.8C72.4585 108.437 72.8879 108.157 73.3892 107.96C73.8905 107.763 74.4479 107.664 75.0612 107.664ZM75.0612 114.6C75.7439 114.6 76.2479 114.371 76.5732 113.912C76.9039 113.453 77.0692 112.781 77.0692 111.896C77.0692 111.011 76.9039 110.336 76.5732 109.872C76.2479 109.408 75.7439 109.176 75.0612 109.176C74.3679 109.176 73.8532 109.411 73.5172 109.88C73.1865 110.344 73.0212 111.016 73.0212 111.896C73.0212 112.776 73.1865 113.448 73.5172 113.912C73.8532 114.371 74.3679 114.6 75.0612 114.6Z" fill="#949494"/>
<path d="M87.6887 107.792V116H86.4807C86.2194 116 86.054 115.88 85.9847 115.64L85.8487 114.984C85.5127 115.325 85.142 115.603 84.7367 115.816C84.3314 116.024 83.854 116.128 83.3047 116.128C82.8567 116.128 82.4594 116.053 82.1127 115.904C81.7714 115.749 81.4834 115.533 81.2487 115.256C81.014 114.979 80.8354 114.651 80.7127 114.272C80.5954 113.888 80.5367 113.467 80.5367 113.008V107.792H82.5127V113.008C82.5127 113.509 82.6274 113.899 82.8567 114.176C83.0914 114.448 83.4407 114.584 83.9047 114.584C84.246 114.584 84.566 114.509 84.8647 114.36C85.1634 114.205 85.446 113.995 85.7127 113.728V107.792H87.6887Z" fill="#949494"/>
<path d="M91.496 108.8C91.6613 108.635 91.8346 108.483 92.016 108.344C92.2026 108.2 92.3973 108.08 92.6 107.984C92.808 107.883 93.0293 107.805 93.264 107.752C93.4986 107.693 93.7546 107.664 94.032 107.664C94.48 107.664 94.8773 107.741 95.224 107.896C95.5706 108.045 95.8586 108.259 96.088 108.536C96.3226 108.808 96.4986 109.136 96.616 109.52C96.7386 109.899 96.8 110.317 96.8 110.776V116H94.824V110.776C94.824 110.275 94.7093 109.888 94.48 109.616C94.2506 109.339 93.9013 109.2 93.432 109.2C93.0906 109.2 92.7706 109.277 92.472 109.432C92.1733 109.587 91.8906 109.797 91.624 110.064V116H89.648V107.792H90.856C91.112 107.792 91.28 107.912 91.36 108.152L91.496 108.8Z" fill="#949494"/>
<path d="M103.831 109.888C103.607 109.616 103.362 109.424 103.095 109.312C102.834 109.2 102.551 109.144 102.247 109.144C101.949 109.144 101.679 109.2 101.439 109.312C101.199 109.424 100.994 109.595 100.823 109.824C100.653 110.048 100.522 110.336 100.431 110.688C100.341 111.035 100.295 111.445 100.295 111.92C100.295 112.4 100.333 112.808 100.407 113.144C100.487 113.475 100.599 113.747 100.743 113.96C100.887 114.168 101.063 114.32 101.271 114.416C101.479 114.507 101.711 114.552 101.967 114.552C102.378 114.552 102.727 114.467 103.015 114.296C103.303 114.125 103.575 113.883 103.831 113.568V109.888ZM105.807 104.112V116H104.599C104.338 116 104.173 115.88 104.103 115.64L103.935 114.848C103.605 115.227 103.223 115.533 102.791 115.768C102.365 116.003 101.866 116.12 101.295 116.12C100.847 116.12 100.437 116.027 100.063 115.84C99.6899 115.653 99.3672 115.384 99.0952 115.032C98.8285 114.675 98.6205 114.235 98.4712 113.712C98.3272 113.189 98.2552 112.592 98.2552 111.92C98.2552 111.312 98.3379 110.747 98.5032 110.224C98.6685 109.701 98.9059 109.248 99.2152 108.864C99.5245 108.48 99.8952 108.181 100.327 107.968C100.759 107.749 101.245 107.64 101.783 107.64C102.242 107.64 102.634 107.712 102.959 107.856C103.285 108 103.575 108.195 103.831 108.44V104.112H105.807Z" fill="#949494"/>
<path d="M66.6001 11.0851C66.6001 12.1897 67.4955 13.0851 68.6001 13.0851H74.8309C76.6153 13.0851 77.5065 10.9256 76.2414 9.66719L70.0106 3.46932C68.7491 2.21454 66.6001 3.10803 66.6001 4.88728V11.0851Z" fill="#CFD1D2"/>
<path d="M65.4982 17.1868C63.8413 17.1868 62.4982 15.8436 62.4982 14.1868V3C62.4982 1.34315 61.155 0 59.4982 0H29C27.3431 0 26 1.34315 26 3V67C26 68.6569 27.3431 70 29 70H76.6849C78.3418 70 79.6849 68.6569 79.6849 67V20.1868C79.6849 18.5299 78.3418 17.1868 76.6849 17.1868H65.4982ZM39.8137 46.9857C38.681 46.9857 37.7629 46.0676 37.7629 44.9349V44.9349C37.7629 43.8023 38.681 42.8842 39.8137 42.8842H65.871C67.0036 42.8842 67.9218 43.8023 67.9218 44.9349V44.9349C67.9218 46.0676 67.0036 46.9857 65.871 46.9857H39.8137ZM58.0461 53.6849C59.1787 53.6849 60.0968 54.6031 60.0968 55.7357V55.7357C60.0968 56.8683 59.1787 57.7865 58.0461 57.7865H47.6387C46.5061 57.7865 45.588 56.8683 45.588 55.7357V55.7357C45.588 54.6031 46.5061 53.6849 47.6388 53.6849H58.0461ZM65.8712 32.0834C67.0038 32.0834 67.9219 33.0015 67.9219 34.1342V34.1342C67.9219 35.2668 67.0038 36.1849 65.8712 36.1849H39.8137C38.681 36.1849 37.7629 35.2668 37.7629 34.1342V34.1342C37.7629 33.0015 38.681 32.0834 39.8137 32.0834H65.8712ZM39.8137 25.3842C38.681 25.3842 37.7629 24.466 37.7629 23.3334V23.3334C37.7629 22.2008 38.681 21.2826 39.8137 21.2826H50.7916C51.9242 21.2826 52.8424 22.2008 52.8424 23.3334V23.3334C52.8424 24.466 51.9242 25.3842 50.7916 25.3842H39.8137Z" fill="#CFD1D2"/>
</svg>
