<svg width="227" height="175" viewBox="0 0 227 175" fill="none" xmlns="http://www.w3.org/2000/svg">
<g clip-path="url(#clip0_4780_1627)">
<path d="M116.461 174C162.553 174 199.921 136.632 199.921 90.3747C199.921 44.1173 162.389 6.7493 116.461 6.7493C70.368 6.7493 33 44.1173 33 90.3747C33 136.632 70.368 174 116.461 174Z" fill="#F1EEFE"/>
<path d="M201 35.5573C204.727 35.5573 207.749 32.5355 207.749 28.808C207.749 25.0805 204.727 22.0587 201 22.0587C197.272 22.0587 194.25 25.0805 194.25 28.808C194.25 32.5355 197.272 35.5573 201 35.5573Z" fill="#F0EDFE"/>
<path d="M210.877 9.21854C213.422 9.21854 215.486 7.1549 215.486 4.60927C215.486 2.06364 213.422 0 210.877 0C208.331 0 206.267 2.06364 206.267 4.60927C206.267 7.1549 208.331 9.21854 210.877 9.21854Z" fill="#F0EDFE"/>
<path d="M34.6093 26.2185C37.1549 26.2185 39.2185 24.1549 39.2185 21.6093C39.2185 19.0636 37.1549 17 34.6093 17C32.0636 17 30 19.0636 30 21.6093C30 24.1549 32.0636 26.2185 34.6093 26.2185Z" fill="#F0EDFE"/>
<path d="M8.56007 135.032C13.2877 135.032 17.1201 131.2 17.1201 126.472C17.1201 121.744 13.2877 117.912 8.56007 117.912C3.83248 117.912 0 121.744 0 126.472C0 131.2 3.83248 135.032 8.56007 135.032Z" fill="#F0EDFE"/>
<g filter="url(#filter0_d_4780_1627)">
<path d="M200.487 127.626H175.167C173.969 127.626 172.943 126.856 172.601 125.83C170.12 118.473 164.645 116.677 151.387 111.459C150.617 111.117 150.531 110.09 151.301 109.663C155.15 107.781 154.466 106.156 154.466 94.8642C154.295 94.6932 154.124 94.4365 154.038 94.2655C153.183 92.9824 152.584 91.4426 152.413 89.9029L151.558 89.4752C148.991 90.074 149.163 87.3367 148.478 82.0332C148.222 79.8092 148.564 79.3814 149.505 79.0393L150.36 77.9273C145.313 66.6359 147.879 59.5361 152.841 56.9699C151.215 53.3772 151.13 52.0941 151.13 52.0941C151.13 52.0941 161.651 53.8904 165.244 53.1206C169.863 52.1796 176.878 53.2917 179.529 59.365C183.892 61.0758 185.603 63.8987 186.03 66.807C186.629 71.5973 183.977 76.8152 183.464 78.8682C183.55 78.9537 183.55 79.0393 183.635 79.1248C184.32 79.467 184.576 80.0658 184.32 81.9477C183.721 86.9945 183.806 90.1595 181.24 89.3897L178.931 93.4101C178.845 93.9233 178.759 94.0944 178.759 94.351C178.674 95.1209 178.674 96.5751 178.674 104.958C178.674 105.984 178.931 106.925 179.444 107.695C179.957 108.636 180.812 109.321 181.839 109.748H181.924C187.912 112.229 192.189 113.854 195.354 115.137C202.369 117.96 203.566 118.73 204.165 123.435C204.336 125.744 202.711 127.626 200.487 127.626Z" fill="white"/>
</g>
<path d="M183.291 78.7811C183.547 77.498 182.948 75.9583 182.435 74.8463C182.35 74.6752 182.264 74.5041 182.178 74.2475C180.211 70.2271 175.677 68.5163 171.4 68.3452C160.451 67.7464 159.425 69.8849 156.003 66.72C157.03 68.3452 157.201 70.8259 155.49 73.9909C154.378 76.2149 152.154 77.1559 150.186 77.8402C145.225 66.5489 147.706 59.449 152.667 56.8828C151.042 53.2901 150.956 52.007 150.956 52.007C150.956 52.007 161.478 53.8034 165.07 53.0335C169.69 52.0926 176.704 53.2046 179.356 59.2779C183.718 60.9888 185.429 63.8116 185.857 66.72C186.541 71.5102 183.804 76.7282 183.291 78.7811Z" fill="#B9A9FF"/>
<path d="M197.832 127.625C200.484 123.519 199.458 119.669 195.181 115.136C202.195 117.959 203.392 118.728 203.991 123.433C204.333 125.572 202.623 127.539 200.399 127.539H197.832V127.625Z" fill="url(#paint0_linear_4780_1627)"/>
<path d="M179.27 107.779V109.747H153.865V107.181C154.463 105.812 154.292 105.897 154.292 94.8627C154.121 94.6916 153.95 94.435 153.865 94.2639V93.6651C154.378 94.6061 155.148 95.4615 155.918 96.1458L163.873 101.706C165.755 103.246 168.406 103.331 170.288 101.791L177.73 95.1193C177.987 94.8627 178.244 94.6916 178.5 94.435C178.415 95.2049 178.415 96.6591 178.415 105.042C178.5 105.983 178.757 106.924 179.27 107.779Z" fill="url(#paint1_linear_4780_1627)"/>
<g filter="url(#filter1_d_4780_1627)">
<path d="M69.6074 108.549C65.5014 108.464 65.0737 107.694 65.0737 107.694V100.851C69.4363 97.2579 73.1145 93.0664 74.141 87.5919C76.8783 86.9931 78.5891 84.5124 78.3325 81.7751C78.2469 80.5775 77.4771 79.4655 77.3915 78.1824C77.3915 77.5836 77.3915 76.9849 77.3915 76.3861C77.3915 75.9584 77.3915 75.6162 77.306 75.1885C77.306 74.7608 77.2204 74.3331 77.2204 73.9054C76.9638 71.8524 76.4506 69.7139 75.0819 67.2333C71.6603 60.8177 64.9026 56.5407 57.2896 56.5407C55.7498 56.5407 54.2101 56.7118 52.7559 57.054C50.0186 57.6527 47.538 58.8503 45.3139 60.5611C44.8862 60.9033 44.4585 61.2454 44.0308 61.5876C43.9453 61.6731 43.8597 61.7587 43.6886 61.8442C41.2935 64.0683 39.4116 66.8911 38.3851 70.0561C37.3587 73.2211 37.102 76.4716 37.5297 79.7221C37.5297 79.8077 37.5297 79.8932 37.5297 79.9788C37.5297 80.0643 37.5297 80.1498 37.5297 80.2354C37.6153 80.8342 37.7864 80.7486 37.3587 81.2619C37.2731 81.433 37.102 81.604 37.0165 81.8607C36.5033 82.8016 36.0756 84.0847 36.6743 85.6244C37.7008 88.5328 39.7538 88.1051 41.6357 89.7304C41.5501 89.8159 41.3791 89.9014 41.2935 89.9014H41.208L39.0695 90.5858C26.2384 94.6062 24.7842 108.207 37.9574 110.688C37.0165 110.773 36.1611 111.287 35.5623 111.714C31.3708 114.965 28.7191 119.926 28.0348 124.802C27.7781 126.256 28.9757 127.625 30.5154 127.625H50.874C51.3017 127.625 51.7294 127.283 51.9005 126.855C53.7824 120.012 58.0594 117.616 66.9556 114.024L72.088 111.971C72.9434 111.629 73.8844 111.287 74.9109 110.859C75.8518 110.517 75.7663 109.148 74.7398 108.891C73.7133 108.635 72.6868 108.549 71.6603 108.464C70.8049 108.549 70.1206 108.549 69.6074 108.549ZM43.5176 99.8241C43.5176 98.9687 44.1163 98.0278 45.3995 97.0013C45.9127 97.6856 46.597 98.4555 47.3669 99.1398C47.9657 99.653 48.5644 100.166 49.2488 100.68C49.6765 100.936 50.1042 101.278 50.5319 101.62C50.6174 101.706 50.7029 101.792 50.7885 101.792C50.874 101.877 51.0451 101.963 51.1307 102.048V106.24C51.0451 106.154 50.9596 106.069 50.874 106.069C50.4463 105.726 50.1042 105.384 49.762 105.128C49.1632 104.7 48.5644 104.358 47.9657 104.016C47.709 103.845 47.538 103.759 47.3669 103.588C45.3995 102.305 43.6031 101.107 43.5176 99.8241Z" fill="white"/>
</g>
<path d="M69.6073 108.549C68.923 111.03 68.1531 112.57 68.1531 112.57L46.0837 109.063L47.3668 103.588C47.5379 103.759 47.7945 103.845 47.9656 103.93C48.5644 104.272 49.2487 104.7 49.762 105.128C50.1041 105.384 50.5318 105.641 50.874 106.069C50.9595 106.154 51.0451 106.24 51.0451 106.24V102.048C50.874 101.963 50.7885 101.877 50.7029 101.792C54.2956 103.588 58.7437 104.529 65.1592 100.765C65.0737 100.765 65.0737 100.851 64.9881 100.851V107.694C64.9881 107.694 65.5014 108.464 69.6073 108.549Z" fill="url(#paint2_linear_4780_1627)"/>
<path d="M77.2204 75.1885C73.5421 76.4716 69.6073 76.9848 65.6724 76.6427C59.5135 76.1294 53.5257 73.6488 48.9065 69.5428C47.3668 73.9909 43.5175 77.327 39.1549 79.2944C38.5562 79.551 37.9574 79.8077 37.3586 79.9788C37.3586 79.8932 37.3586 79.8077 37.3586 79.8077C36.9309 76.5571 37.1875 73.3066 38.214 70.1416C39.2405 66.9766 41.1224 64.1538 43.5175 61.9297C43.603 61.8442 43.6886 61.7587 43.8597 61.6731C44.2874 61.331 44.7151 60.9888 45.1428 60.6466C47.3668 59.0214 49.933 57.8238 52.5848 57.1395C54.1245 56.7973 55.5787 56.6262 57.1184 56.6262C64.7315 56.6262 71.4892 60.9033 74.9108 67.3188C76.1939 69.7995 76.7927 71.938 77.0493 73.9054C77.2204 74.3331 77.2204 74.7608 77.2204 75.1885Z" fill="#B9A9FF"/>
<path d="M45.6561 97.2579C46.1694 97.9422 46.7682 98.541 47.2814 99.0542C46.6826 98.541 46.0838 97.9422 45.6561 97.2579Z" fill="#3973F4"/>
<path d="M53.697 118.9C52.0718 120.953 48.9923 121.038 46.4261 120.953C49.1634 118.301 47.6237 109.661 38.0432 110.688H37.9576C24.7844 108.207 26.2386 94.6062 38.9841 90.5858L41.1226 89.9015C41.2937 89.987 41.3792 90.0726 41.4648 90.2437C42.4913 92.8954 43.8599 95.1194 45.3141 96.9158C40.0961 101.278 47.367 102.647 50.8742 105.983C53.9537 107.779 56.5199 115.307 53.697 118.9Z" fill="#B9A9FF"/>
<path d="M45.5711 97.2586C45.4853 97.1728 45.3995 97.0871 45.3995 97.0013C45.3995 97.0013 45.4853 97.1728 45.5711 97.2586Z" fill="#3973F4"/>
<g filter="url(#filter2_d_4780_1627)">
<path d="M167.722 131.56C168.15 134.725 165.669 137.633 162.419 137.633H62.1654C58.9149 137.633 56.4342 134.725 56.8619 131.56C57.8028 124.973 59.257 123.604 69.0086 119.669L71.4038 118.729C75.9374 116.932 81.8397 114.708 89.7949 111.372C91.5913 110.602 93.0454 109.234 93.8153 107.437C94.243 106.496 94.4996 105.384 94.4996 104.272V89.3027C94.243 88.9605 93.9864 88.7039 93.8153 88.3617C92.5322 86.4798 91.6768 84.2558 91.4202 81.8607L90.1371 81.2619C86.2878 82.2028 86.6299 78.0969 85.6034 70.2272C85.1757 66.9766 85.689 66.2923 87.1432 65.7791L88.3407 64.1538C80.9843 47.4735 84.6625 37.0375 91.9334 33.3593C89.7094 28.0558 89.5383 26.1739 89.5383 26.1739C89.5383 26.1739 105.021 28.7401 110.325 27.7136C117.082 26.345 127.518 27.9703 131.368 36.952C137.783 39.5182 140.264 43.5386 140.862 47.9867C141.803 55.001 137.783 62.6996 137.013 65.6935C137.099 65.8646 137.099 65.9502 137.184 66.0357C138.211 66.5489 138.553 67.4043 138.211 70.2272C137.27 77.6692 137.526 82.2884 133.677 81.2619L130.255 87.2497C130.084 87.934 130.084 88.1906 129.999 88.7039C129.828 89.8159 129.913 92.04 129.913 104.272C129.913 105.726 130.341 107.181 131.111 108.293C131.966 109.576 133.164 110.688 134.618 111.287C134.704 111.287 134.704 111.287 134.789 111.372C143.6 115.05 149.93 117.445 154.549 119.242C165.07 123.348 166.696 124.631 167.722 131.56Z" fill="white"/>
</g>
<path d="M137.099 65.6935C137.441 63.8117 136.585 61.5021 135.901 59.8768C135.816 59.6202 135.644 59.3636 135.559 59.0214C132.565 53.0336 125.978 50.6384 119.648 50.2963C103.481 49.4409 102.027 52.5203 96.9802 47.9012C98.52 50.2963 98.691 53.9745 96.2959 58.5937C94.5851 61.8442 91.3346 63.2984 88.5118 64.2394C81.1553 47.559 84.8335 37.1231 92.1044 33.4448C89.7093 28.0558 89.5382 26.1739 89.5382 26.1739C89.5382 26.1739 105.021 28.7401 110.325 27.7136C117.082 26.345 127.518 27.9703 131.367 36.952C137.783 39.5182 140.264 43.5386 140.862 47.9867C141.889 54.9155 137.868 62.6141 137.099 65.6935Z" fill="#B9A9FF"/>
<path d="M158.655 137.547C162.59 131.56 161.05 125.914 154.72 119.242C165.07 123.348 166.781 124.631 167.722 131.474C168.15 134.639 165.669 137.547 162.419 137.547H158.655Z" fill="url(#paint3_linear_4780_1627)"/>
<path d="M131.196 108.293V111.201H93.9008V107.437C94.3285 106.496 94.5851 105.384 94.5851 104.272V89.3026C94.3285 88.9605 94.0718 88.7039 93.9008 88.3617V87.5063C94.6706 88.8749 95.6971 90.158 96.9802 91.1845L108.699 99.3964C111.437 101.706 115.371 101.792 118.194 99.5675L129.143 89.7303C129.486 89.3882 129.913 89.046 130.255 88.7039C130.084 89.8159 130.17 92.0399 130.17 104.272C130.084 105.726 130.512 107.095 131.196 108.293Z" fill="url(#paint4_linear_4780_1627)"/>
<path d="M141.383 153.38C140.852 155.637 140.056 158.026 139.127 160.017C136.605 164.928 132.623 168.777 127.712 171.299C122.669 173.82 116.696 174.882 110.723 173.555C96.6541 170.635 87.6286 156.831 90.5487 142.762C93.4687 128.693 107.14 119.535 121.209 122.588C126.252 123.649 130.632 126.171 134.349 129.622C140.587 135.86 143.242 144.886 141.383 153.38Z" fill="url(#paint5_linear_4780_1627)"/>
<path d="M123.715 146.229H117.742V140.256C117.742 139.062 116.813 138 115.485 138C114.291 138 113.229 138.929 113.229 140.256V146.229H107.256C106.062 146.229 105 147.158 105 148.485C105 149.813 105.929 150.742 107.256 150.742H113.229V156.715C113.229 157.909 114.158 158.971 115.485 158.971C116.68 158.971 117.742 158.042 117.742 156.715V150.742H123.715C124.909 150.742 125.971 149.813 125.971 148.485C125.971 147.158 124.909 146.229 123.715 146.229Z" fill="white"/>
</g>
<defs>
<filter id="filter0_d_4780_1627" x="125.618" y="41.0941" width="100.559" height="119.532" filterUnits="userSpaceOnUse" color-interpolation-filters="sRGB">
<feFlood flood-opacity="0" result="BackgroundImageFix"/>
<feColorMatrix in="SourceAlpha" type="matrix" values="0 0 0 0 0 0 0 0 0 0 0 0 0 0 0 0 0 0 127 0" result="hardAlpha"/>
<feOffset dy="11"/>
<feGaussianBlur stdDeviation="11"/>
<feColorMatrix type="matrix" values="0 0 0 0 0.72549 0 0 0 0 0.662745 0 0 0 0 1 0 0 0 0.27 0"/>
<feBlend mode="normal" in2="BackgroundImageFix" result="effect1_dropShadow_4780_1627"/>
<feBlend mode="normal" in="SourceGraphic" in2="effect1_dropShadow_4780_1627" result="shape"/>
</filter>
<filter id="filter1_d_4780_1627" x="6.00001" y="45.5407" width="94.3579" height="115.084" filterUnits="userSpaceOnUse" color-interpolation-filters="sRGB">
<feFlood flood-opacity="0" result="BackgroundImageFix"/>
<feColorMatrix in="SourceAlpha" type="matrix" values="0 0 0 0 0 0 0 0 0 0 0 0 0 0 0 0 0 0 127 0" result="hardAlpha"/>
<feOffset dy="11"/>
<feGaussianBlur stdDeviation="11"/>
<feColorMatrix type="matrix" values="0 0 0 0 0.72549 0 0 0 0 0.662745 0 0 0 0 1 0 0 0 0.27 0"/>
<feBlend mode="normal" in2="BackgroundImageFix" result="effect1_dropShadow_4780_1627"/>
<feBlend mode="normal" in="SourceGraphic" in2="effect1_dropShadow_4780_1627" result="shape"/>
</filter>
<filter id="filter2_d_4780_1627" x="34.8138" y="15.1739" width="154.956" height="155.459" filterUnits="userSpaceOnUse" color-interpolation-filters="sRGB">
<feFlood flood-opacity="0" result="BackgroundImageFix"/>
<feColorMatrix in="SourceAlpha" type="matrix" values="0 0 0 0 0 0 0 0 0 0 0 0 0 0 0 0 0 0 127 0" result="hardAlpha"/>
<feOffset dy="11"/>
<feGaussianBlur stdDeviation="11"/>
<feColorMatrix type="matrix" values="0 0 0 0 0.72549 0 0 0 0 0.662745 0 0 0 0 1 0 0 0 0.27 0"/>
<feBlend mode="normal" in2="BackgroundImageFix" result="effect1_dropShadow_4780_1627"/>
<feBlend mode="normal" in="SourceGraphic" in2="effect1_dropShadow_4780_1627" result="shape"/>
</filter>
<linearGradient id="paint0_linear_4780_1627" x1="199.608" y1="115.136" x2="199.608" y2="127.625" gradientUnits="userSpaceOnUse">
<stop stop-color="#F1EEFE"/>
<stop offset="1" stop-color="#F1EEFE" stop-opacity="0"/>
</linearGradient>
<linearGradient id="paint1_linear_4780_1627" x1="166.567" y1="93.6651" x2="166.567" y2="109.747" gradientUnits="userSpaceOnUse">
<stop stop-color="#F1EEFE"/>
<stop offset="1" stop-color="#F1EEFE" stop-opacity="0"/>
</linearGradient>
<linearGradient id="paint2_linear_4780_1627" x1="57.8455" y1="100.765" x2="57.8455" y2="112.57" gradientUnits="userSpaceOnUse">
<stop stop-color="#F1EEFE"/>
<stop offset="1" stop-color="#F1EEFE" stop-opacity="0"/>
</linearGradient>
<linearGradient id="paint3_linear_4780_1627" x1="161.245" y1="119.242" x2="161.245" y2="137.547" gradientUnits="userSpaceOnUse">
<stop stop-color="#F1EEFE"/>
<stop offset="1" stop-color="#F1EEFE" stop-opacity="0"/>
</linearGradient>
<linearGradient id="paint4_linear_4780_1627" x1="112.549" y1="87.5063" x2="112.549" y2="111.201" gradientUnits="userSpaceOnUse">
<stop stop-color="#F1EEFE"/>
<stop offset="1" stop-color="#F1EEFE" stop-opacity="0"/>
</linearGradient>
<linearGradient id="paint5_linear_4780_1627" x1="-14.6641" y1="134.783" x2="164.375" y2="157.724" gradientUnits="userSpaceOnUse">
<stop stop-color="#F1EEFE"/>
<stop offset="1" stop-color="#6F4EF2"/>
</linearGradient>
<clipPath id="clip0_4780_1627">
<rect width="227" height="175" fill="white"/>
</clipPath>
</defs>
</svg>
