<svg width="222" height="197" viewBox="0 0 222 197" fill="none" xmlns="http://www.w3.org/2000/svg">
<g filter="url(#filter0_d_4948_625)">
<path d="M131.319 36.419L157.323 129.897C158.173 133.126 156.303 136.356 153.074 137.205L61.4656 161.51C58.2363 162.36 55.0071 160.49 54.1573 157.261L22.2047 36.5889C21.3549 33.3597 23.2245 30.1304 26.4537 29.2806L92.7383 11.7747L131.319 36.419Z" fill="url(#paint0_linear_4948_625)"/>
</g>
<path d="M129.96 95.5652L80.501 108.652L75.0623 110.012L58.5762 114.431C57.8963 114.601 57.3864 115.451 57.7264 116.3C57.8963 117.15 58.7461 117.66 59.426 117.49L75.9121 113.071L81.3508 111.711L130.809 98.6245C131.489 98.4545 131.999 97.6047 131.659 96.7549C131.489 95.9051 130.639 95.3953 129.96 95.5652Z" fill="#B9A9FF" fill-opacity="0.8"/>
<path d="M126.73 84.0079L108.375 88.7668L102.086 90.4664L55.687 102.873C55.0072 103.043 54.4973 103.893 54.8372 104.743C55.0072 105.593 55.857 106.103 56.5368 105.933L103.106 93.5257L109.394 91.8261L127.75 87.0672C128.43 86.8972 128.94 86.0474 128.6 85.1976C128.26 84.5178 127.41 83.8379 126.73 84.0079Z" fill="#B9A9FF" fill-opacity="0.8"/>
<path d="M124.011 72.2806L119.252 73.4703L114.493 74.66L52.4575 91.1462C51.7777 91.3161 51.2678 92.166 51.6077 93.0158C51.7777 93.8656 52.6275 94.3754 53.3073 94.2055L115.343 77.7193L120.612 76.3596L124.861 75.1699C125.541 74.9999 126.05 74.1501 125.711 73.3003C125.541 72.6205 124.861 72.1106 124.011 72.2806Z" fill="#B9A9FF" fill-opacity="0.8"/>
<path d="M95.2876 132.447L91.8884 133.296C91.2086 133.466 90.3588 132.956 90.1888 132.107C90.0188 131.257 90.3588 130.407 91.0386 130.237L94.4378 129.387C95.1177 129.217 95.9675 129.727 96.1374 130.577C96.3074 131.597 95.9675 132.277 95.2876 132.447Z" fill="#CED7E2"/>
<path d="M84.9203 135.166L65.3748 140.265C64.695 140.435 63.8452 139.925 63.6752 139.075C63.5052 138.225 63.8452 137.375 64.525 137.206L84.0705 132.107C84.7503 131.937 85.6001 132.447 85.7701 133.296C86.11 134.146 85.7701 134.996 84.9203 135.166Z" fill="#B9A9FF" fill-opacity="0.8"/>
<path d="M121.632 60.5534L106.165 64.6324L102.426 65.6522L49.5684 79.5889C48.8885 79.7589 48.3786 80.6087 48.7186 81.4585C48.8885 82.3083 49.7383 82.8182 50.4182 82.6482L103.106 68.8814L106.845 67.8617L122.141 63.7826C122.991 63.6127 123.331 62.7629 123.161 61.7431C123.161 61.0633 122.311 60.3834 121.632 60.5534Z" fill="#B9A9FF" fill-opacity="0.8"/>
<path d="M85.0902 34.8893L41.2404 46.4466C40.2206 46.7865 39.2008 46.1067 38.8609 45.0869C38.521 44.0672 39.2008 43.0474 40.2206 42.7075L84.0704 31.1502C85.0902 30.8102 86.1099 31.4901 86.4498 32.5098C86.7898 33.5296 86.1099 34.5494 85.0902 34.8893Z" fill="#B9A9FF" fill-opacity="0.8"/>
<path d="M60.9556 52.5652L44.1295 56.9841C43.1098 57.3241 42.09 56.6442 41.7501 55.6245C41.4101 54.6047 42.09 53.5849 43.1097 53.245L59.7659 48.826C60.7856 48.4861 61.8054 49.166 62.1453 50.1857C62.4852 51.2055 61.8054 52.2252 60.9556 52.5652Z" fill="#B9A9FF" fill-opacity="0.8"/>
<path d="M92.7383 11.7747L99.5367 37.6087C100.556 41.1778 104.466 43.3873 108.035 42.3676L131.319 36.419" fill="#B9A9FF"/>
<g filter="url(#filter1_d_4948_625)">
<path d="M199.983 62.7628L184.347 158.621C183.837 161.85 180.608 164.059 177.379 163.379L84.2402 147.063C81.011 146.553 78.8016 143.324 79.3115 140.095L100.896 17.2134C101.406 13.9842 104.635 11.7747 107.865 12.4545L175.509 24.3518L199.983 62.7628Z" fill="url(#paint1_linear_4948_625)"/>
</g>
<path d="M173.979 115.96L123.671 107.123L118.232 106.103L101.406 103.213C100.726 103.043 99.8767 103.723 99.8767 104.573C99.7067 105.423 100.216 106.273 100.896 106.443L117.722 109.332L123.161 110.352L173.469 119.19C174.149 119.36 174.999 118.68 174.999 117.83C175.169 116.98 174.829 116.13 173.979 115.96Z" fill="#B9A9FF" fill-opacity="0.8"/>
<path d="M176.019 104.233L157.323 101.004L151.035 99.8142L103.616 91.4861C102.936 91.3161 102.086 91.996 102.086 92.8458C101.916 93.6956 102.426 94.5454 103.106 94.7154L150.525 103.043L156.813 104.233L175.509 107.462C176.189 107.632 177.039 106.953 177.039 106.103C177.209 105.253 176.699 104.403 176.019 104.233Z" fill="#B9A9FF" fill-opacity="0.8"/>
<path d="M178.398 92.3359L173.469 91.4861L168.541 90.6363L105.315 79.5889C104.635 79.4189 103.786 80.0988 103.786 80.9486C103.616 81.7984 104.126 82.6482 104.805 82.8181L168.031 93.8656L173.469 94.8853L177.718 95.5652C178.398 95.7351 179.248 95.0553 179.248 94.2055C179.588 93.3557 179.248 92.5059 178.398 92.3359Z" fill="#B9A9FF" fill-opacity="0.8"/>
<path d="M127.07 134.996L123.671 134.486C122.991 134.316 122.481 133.466 122.651 132.617C122.821 131.767 123.501 131.087 124.181 131.257L127.58 131.767C128.26 131.937 128.77 132.787 128.6 133.636C128.43 134.656 127.75 134.996 127.07 134.996Z" fill="#B9A9FF" fill-opacity="0.8"/>
<path d="M116.703 133.126L96.8173 129.727C96.1375 129.557 95.6276 128.707 95.7976 127.858C95.9675 127.008 96.6474 126.328 97.3272 126.498L117.213 129.897C117.892 130.067 118.402 130.917 118.232 131.767C118.062 132.787 117.383 133.296 116.703 133.126Z" fill="#B9A9FF" fill-opacity="0.8"/>
<path d="M181.118 80.7787L165.311 78.0593L161.402 77.3794L107.525 67.8617C106.845 67.6917 105.995 68.3715 105.995 69.2213C105.825 70.0711 106.335 70.9209 107.015 71.0909L160.892 80.6087L164.802 81.2885L180.438 84.0079C181.288 84.1779 181.968 83.498 182.137 82.6482C182.307 81.7984 181.798 80.9486 181.118 80.7787Z" fill="#B9A9FF" fill-opacity="0.8"/>
<path d="M159.255 42.5833L114.556 34.7652C113.536 34.5952 112.856 33.5754 113.026 32.5557C113.196 31.5359 114.216 30.8561 115.236 31.026L159.935 38.8442C160.955 39.0142 161.635 40.0339 161.465 41.0537C161.295 41.9035 160.275 42.7533 159.255 42.5833Z" fill="#B9A9FF" fill-opacity="0.8"/>
<path d="M129.45 47.9763L112.284 44.917C111.264 44.747 110.584 43.7273 110.754 42.7075C110.924 41.6877 111.944 41.0079 112.963 41.1779L129.96 44.2372C130.979 44.4071 131.659 45.4269 131.489 46.4466C131.319 47.4664 130.299 48.1462 129.45 47.9763Z" fill="#B9A9FF" fill-opacity="0.8"/>
<path d="M175.339 24.3517L170.75 50.6956C170.07 54.4347 172.79 58.0039 176.529 58.6838L199.983 62.7628" fill="url(#paint2_linear_4948_625)"/>
<path d="M136.383 175.38C135.852 177.637 135.056 180.026 134.127 182.017C131.605 186.928 127.623 190.777 122.712 193.299C117.669 195.82 111.696 196.882 105.723 195.555C91.6541 192.635 82.6286 178.831 85.5487 164.762C88.4687 150.693 102.14 141.535 116.209 144.588C121.252 145.649 125.632 148.171 129.349 151.622C135.587 157.86 138.242 166.886 136.383 175.38Z" fill="url(#paint3_linear_4948_625)"/>
<path d="M118.715 168.229H112.742V162.256C112.742 161.062 111.813 160 110.485 160C109.291 160 108.229 160.929 108.229 162.256V168.229H102.256C101.062 168.229 100 169.158 100 170.485C100 171.813 100.929 172.742 102.256 172.742H108.229V178.715C108.229 179.909 109.158 180.971 110.485 180.971C111.68 180.971 112.742 180.042 112.742 178.715V172.742H118.715C119.909 172.742 120.971 171.813 120.971 170.485C120.971 169.158 119.909 168.229 118.715 168.229Z" fill="white"/>
<defs>
<filter id="filter0_d_4948_625" x="0" y="0.774719" width="179.528" height="193.94" filterUnits="userSpaceOnUse" color-interpolation-filters="sRGB">
<feFlood flood-opacity="0" result="BackgroundImageFix"/>
<feColorMatrix in="SourceAlpha" type="matrix" values="0 0 0 0 0 0 0 0 0 0 0 0 0 0 0 0 0 0 127 0" result="hardAlpha"/>
<feOffset dy="11"/>
<feGaussianBlur stdDeviation="11"/>
<feColorMatrix type="matrix" values="0 0 0 0 0.72549 0 0 0 0 0.662745 0 0 0 0 1 0 0 0 0.27 0"/>
<feBlend mode="normal" in2="BackgroundImageFix" result="effect1_dropShadow_4948_625"/>
<feBlend mode="normal" in="SourceGraphic" in2="effect1_dropShadow_4948_625" result="shape"/>
</filter>
<filter id="filter1_d_4948_625" x="57.2383" y="1.33133" width="164.745" height="195.171" filterUnits="userSpaceOnUse" color-interpolation-filters="sRGB">
<feFlood flood-opacity="0" result="BackgroundImageFix"/>
<feColorMatrix in="SourceAlpha" type="matrix" values="0 0 0 0 0 0 0 0 0 0 0 0 0 0 0 0 0 0 127 0" result="hardAlpha"/>
<feOffset dy="11"/>
<feGaussianBlur stdDeviation="11"/>
<feColorMatrix type="matrix" values="0 0 0 0 0.72549 0 0 0 0 0.662745 0 0 0 0 1 0 0 0 0.27 0"/>
<feBlend mode="normal" in2="BackgroundImageFix" result="effect1_dropShadow_4948_625"/>
<feBlend mode="normal" in="SourceGraphic" in2="effect1_dropShadow_4948_625" result="shape"/>
</filter>
<linearGradient id="paint0_linear_4948_625" x1="89.7198" y1="8.30647" x2="385.446" y2="579.014" gradientUnits="userSpaceOnUse">
<stop stop-color="#FDFEFF"/>
<stop offset="0.9964" stop-color="#F1EEFE"/>
</linearGradient>
<linearGradient id="paint1_linear_4948_625" x1="139.571" y1="8.83461" x2="295.853" y2="505" gradientUnits="userSpaceOnUse">
<stop stop-color="#FDFEFF"/>
<stop offset="0.9964" stop-color="#F1EEFE"/>
</linearGradient>
<linearGradient id="paint2_linear_4948_625" x1="158.353" y1="69.5" x2="211.112" y2="47.0898" gradientUnits="userSpaceOnUse">
<stop stop-color="#F1EEFE"/>
<stop offset="1" stop-color="#6F4EF2"/>
</linearGradient>
<linearGradient id="paint3_linear_4948_625" x1="-19.6641" y1="156.783" x2="159.375" y2="179.724" gradientUnits="userSpaceOnUse">
<stop stop-color="#F1EEFE"/>
<stop offset="1" stop-color="#6F4EF2"/>
</linearGradient>
</defs>
</svg>
