<svg width="167" height="182" viewBox="0 0 167 182" fill="none" xmlns="http://www.w3.org/2000/svg">
<path d="M166.926 146.799L162.901 144.767L164.933 140.742L161.483 139L159.451 143.025L155.426 140.993L153.626 144.558L157.651 146.59L155.619 150.615L159.069 152.357L161.101 148.332L165.126 150.364L166.926 146.799Z" fill="#BEB3FD"/>
<path d="M151.406 12.5659C153.493 12.5659 155.185 10.8722 155.185 8.783C155.185 6.6937 153.493 5 151.406 5C149.318 5 147.626 6.6937 147.626 8.783C147.626 10.8722 149.318 12.5659 151.406 12.5659Z" fill="#E3DDFF"/>
<path d="M3.7796 76.576C5.867 76.576 7.5592 74.883 7.5592 72.793C7.5592 70.704 5.867 69.01 3.7796 69.01C1.6922 69.01 0 70.704 0 72.793C0 74.883 1.6922 76.576 3.7796 76.576Z" fill="#E3DDFF"/>
<path d="M24.3991 16.29H21.1094V13H18.2897V16.29H15V19.203H18.2897V22.493H21.1094V19.203H24.3991V16.29Z" fill="#BEB3FD"/>
<path d="M24.5593 152.578H21.2697V149.288H18.4499V152.578H15.1602V155.492H18.4499V158.781H21.2697V155.492H24.5593V152.578Z" fill="#BEB3FC"/>
<circle cx="84.5156" cy="70" r="70" fill="#F1EDFE"/>
<circle cx="81.3537" cy="116.618" r="2" stroke="#8BB2FF" stroke-width="2.70341"/>
<rect x="41.0684" y="13.7185" width="87.5879" height="116.432" rx="8" fill="url(#paint0_linear_5204_470)"/>
<rect x="53.0273" y="33.0654" width="50.3015" height="4.22111" rx="2.11055" fill="white"/>
<rect x="53.0273" y="46.4321" width="28.4925" height="4.22111" rx="2.11055" fill="white"/>
<rect x="53.0273" y="59.7993" width="59.799" height="4.22111" rx="2.11055" fill="white"/>
<rect x="53.0273" y="73.1658" width="47.8392" height="4.22111" rx="2.11055" fill="white"/>
<rect x="53.0273" y="86.5327" width="47.8392" height="4.22111" rx="2.11055" fill="white"/>
<rect x="53.0273" y="99.8994" width="32.3618" height="4.22111" rx="2.11055" fill="white"/>
<circle cx="100.591" cy="95.4024" r="20.9736" transform="rotate(-60 100.591 95.4024)" fill="#F6F9FF" stroke="#7E61FF" stroke-width="4"/>
<rect x="115.497" y="108.487" width="4.56508" height="28.9023" rx="2.28254" transform="rotate(-53.2219 115.497 108.487)" fill="#7E61FF"/>
<path d="M114.383 160.38C113.852 162.637 113.056 165.026 112.127 167.017C109.605 171.928 105.623 175.777 100.712 178.299C95.669 180.82 89.696 181.882 83.723 180.555C69.6541 177.635 60.6286 163.831 63.5487 149.762C66.4687 135.693 80.14 126.535 94.209 129.588C99.252 130.649 103.632 133.171 107.349 136.622C113.587 142.86 116.242 151.886 114.383 160.38Z" fill="url(#paint1_linear_5204_470)"/>
<path d="M96.715 153.229H90.742V147.256C90.742 146.062 89.813 145 88.485 145C87.291 145 86.229 145.929 86.229 147.256V153.229H80.256C79.062 153.229 78 154.158 78 155.485C78 156.813 78.929 157.742 80.256 157.742H86.229V163.715C86.229 164.909 87.158 165.971 88.485 165.971C89.68 165.971 90.742 165.042 90.742 163.715V157.742H96.715C97.909 157.742 98.971 156.813 98.971 155.485C98.971 154.158 97.909 153.229 96.715 153.229Z" fill="white"/>
<defs>
<linearGradient id="paint0_linear_5204_470" x1="85.0382" y1="13.7185" x2="85.0382" y2="130.151" gradientUnits="userSpaceOnUse">
<stop stop-color="#ECD8FF"/>
<stop offset="1" stop-color="#BCA0EF"/>
</linearGradient>
<linearGradient id="paint1_linear_5204_470" x1="-41.6641" y1="141.783" x2="137.375" y2="164.724" gradientUnits="userSpaceOnUse">
<stop stop-color="#F1EEFE"/>
<stop offset="1" stop-color="#6F4EF2"/>
</linearGradient>
</defs>
</svg>
