<svg width="178" height="184" viewBox="0 0 178 184" fill="none" xmlns="http://www.w3.org/2000/svg">
<path d="M158.889 103.166C161.864 103.166 164.277 100.753 164.277 97.7777C164.277 94.8018 161.864 92.3894 158.889 92.3894C155.913 92.3894 153.5 94.8018 153.5 97.7777C153.5 100.753 155.913 103.166 158.889 103.166Z" fill="#EFECFD"/>
<path d="M148.541 118.199C150.573 118.199 152.221 116.552 152.221 114.52C152.221 112.487 150.573 110.84 148.541 110.84C146.509 110.84 144.861 112.487 144.861 114.52C144.861 116.552 146.509 118.199 148.541 118.199Z" fill="#EFECFD"/>
<path d="M29.3068 28.2556C31.3391 28.2556 32.9866 26.6081 32.9866 24.5758C32.9866 22.5435 31.3391 20.896 29.3068 20.896C27.2745 20.896 25.627 22.5435 25.627 24.5758C25.627 26.6081 27.2745 28.2556 29.3068 28.2556Z" fill="#EFECFD"/>
<path d="M6.83392 99.2231C10.6082 99.2231 13.6678 96.1634 13.6678 92.3892C13.6678 88.6149 10.6082 85.5552 6.83392 85.5552C3.05965 85.5552 0 88.6149 0 92.3892C0 96.1634 3.05965 99.2231 6.83392 99.2231Z" fill="#EFECFD"/>
<path d="M89.826 133.524C126.624 133.524 156.457 103.692 156.457 66.7621C156.457 29.8327 126.624 0 89.826 0C53.028 0 23.1953 29.8327 23.1953 66.7621C23.1953 103.692 53.028 133.524 89.826 133.524Z" fill="#F1EDFE"/>
<path d="M128.522 10.0347C130.504 10.0347 132.181 11.5517 132.181 13.6756V121.082C132.181 123.054 130.656 124.723 128.522 124.723H49.0935C47.1116 124.723 45.4346 123.206 45.4346 121.082V13.6756C45.4346 11.7035 46.9592 10.0347 49.0935 10.0347H128.522Z" fill="url(#paint0_linear_5158_122)"/>
<path d="M132.181 21.2608V120.93C132.181 122.902 130.656 124.571 128.522 124.571H55.9539L49.5508 118.199L121.662 19.4403L127.912 17.1648L132.181 21.2608Z" fill="url(#paint1_linear_5158_122)"/>
<path d="M128.217 18.3784C128.217 17.7716 127.76 17.1648 126.997 17.1648H50.7705C50.1607 17.1648 49.5508 17.6199 49.5508 18.3784V116.986C49.5508 117.593 50.0082 118.199 50.7705 118.199H126.845C127.455 118.199 128.065 117.744 128.065 116.986L128.217 18.3784Z" fill="#D9CDFF"/>
<path d="M128.217 18.3784C128.217 17.7716 127.76 17.1648 126.997 17.1648H50.7707C50.1609 17.1648 49.5511 17.6199 49.5511 18.3784C50.4658 57.6696 50.7707 102.119 46.502 113.648L119.527 112.586C123.948 92.5615 127.302 56.6077 128.217 18.3784Z" fill="#EBE6FF"/>
<g filter="url(#filter0_d_5158_122)">
<path d="M128.064 17.3164C128.064 17.3164 127.912 23.2328 126.082 61.007C126.082 61.3104 126.082 61.4621 126.082 61.7655C123.795 98.7812 90.8652 106.518 86.9014 106.973C85.072 107.125 81.5655 107.428 75.3149 107.428C67.5397 107.732 55.6482 107.884 37.0488 108.035C36.439 108.035 35.9816 107.428 36.2865 106.822C49.0927 81.1836 49.2451 17.4681 49.2451 17.4681L128.064 17.3164Z" fill="white"/>
<path opacity="0.4" d="M61 33H93.5" stroke="url(#paint2_linear_5158_122)" stroke-width="3" stroke-linecap="round"/>
<path opacity="0.4" d="M61 43.5H112" stroke="url(#paint3_linear_5158_122)" stroke-width="3" stroke-linecap="round"/>
<path opacity="0.4" d="M61 54.5H79" stroke="url(#paint4_linear_5158_122)" stroke-width="3" stroke-linecap="round"/>
</g>
<path d="M125.93 61.614C123.796 98.6297 90.7135 106.366 86.7496 106.822C84.9202 106.973 81.4137 107.277 75.1631 107.277C91.6282 99.6916 100.471 86.0383 100.318 75.4191C108.246 76.0259 121.967 75.419 125.93 61.614Z" fill="#E6E5FC"/>
<path d="M107.331 10.3381C107.331 10.1864 107.331 10.1864 107.331 10.3381L106.569 9.57962C106.569 9.57962 106.111 9.73132 105.959 10.0347H94.0671C94.0671 9.73132 94.0671 9.57962 94.0671 9.27621C94.0671 6.84895 91.9328 4.7251 89.4935 4.7251C87.0542 4.7251 84.9198 6.84895 84.9198 9.27621C84.9198 9.57962 84.9198 9.73132 85.0723 9.88302H72.7235C72.1137 9.88302 71.5039 10.3381 71.5039 11.2483V15.1926C71.5039 18.2267 73.6382 20.0471 76.5348 20.0471H101.843C104.892 20.0471 107.483 18.2267 107.483 15.1926V11.0966C107.636 10.7932 107.483 10.4898 107.331 10.3381Z" fill="#1C3754"/>
<path d="M106.873 10.3382V14.2825C106.873 14.5859 106.873 14.7376 106.873 15.041C106.416 17.62 104.282 19.7438 101.538 19.7438H76.0781C73.3339 19.7438 71.1996 17.62 70.7422 15.041C70.7422 14.7376 70.7422 14.5859 70.7422 14.2825V10.3382C70.7422 9.73137 71.1996 8.97286 71.9618 8.97286H84.4631C84.4631 8.66945 84.4631 8.51775 84.4631 8.36604C84.4631 5.93878 86.5975 3.81494 89.0367 3.81494C91.476 3.81494 93.6104 5.93878 93.6104 8.36604C93.6104 8.66945 93.6104 8.82115 93.6104 8.97286H106.111C106.416 9.12456 106.873 9.57967 106.873 10.3382Z" fill="#9279FD"/>
<path d="M88.7311 10.4899C89.9507 10.4899 90.8655 9.57967 90.8655 8.36604C90.8655 7.15241 89.9507 6.24219 88.7311 6.24219C87.5115 6.24219 86.5967 7.15241 86.5967 8.36604C86.5967 9.57967 87.6639 10.4899 88.7311 10.4899Z" fill="#EAEEF9"/>
<path d="M106.721 15.041C106.264 17.62 104.129 19.7438 101.385 19.7438H76.0781C73.3339 19.7438 71.1996 17.62 70.7422 15.041H106.721Z" fill="#7E61FF"/>
<path d="M171.514 17.7715C174.868 33.5487 174.411 50.2361 169.837 65.7098C168.77 68.8956 167.703 72.3848 165.416 74.812C162.214 78.6046 156.421 80.2734 151.695 79.0597C146.816 77.8461 142.853 73.5984 141.938 68.4405C141.176 65.2547 142.243 61.4621 144.987 59.49C147.884 57.6695 152 58.1246 154.439 60.4002C157.183 62.6758 158.251 66.1649 158.098 69.5024C157.946 72.8399 156.726 76.1774 155.049 79.0597C150.018 88.4654 140.871 95.8988 130.351 99.2363C122.576 101.664 114.191 101.664 106.416 99.5397" stroke="#9B84F5" stroke-width="2" stroke-miterlimit="10" stroke-dasharray="4 4"/>
<path d="M177.917 13.2204C177.46 14.8891 175.631 15.4959 173.801 14.434C171.819 13.5238 170.447 12.7653 170.752 11.2482C171.209 9.73118 173.039 9.57948 175.173 9.42777C177.765 9.12437 178.222 11.5516 177.917 13.2204Z" fill="#F1EDFE"/>
<path d="M163.129 14.7376C163.891 16.103 166.026 17.0132 167.55 15.6478C169.227 14.1308 170.599 13.0689 169.837 11.5518C169.075 10.1865 167.855 10.6416 165.263 10.945C163.129 11.4001 162.214 13.2206 163.129 14.7376Z" fill="#F1EDFE"/>
<path d="M169.837 9.12455C170.904 8.97285 171.972 9.57966 172.277 10.4899C172.429 10.7933 172.581 11.2484 172.581 11.5518C172.886 13.6757 172.124 15.4961 170.904 15.6478C169.532 15.9513 168.16 14.4342 168.008 12.4621C168.008 11.8553 168.008 11.5518 168.008 11.0967C168.16 10.0348 168.77 9.27625 169.837 9.12455C169.837 9.12455 169.99 9.12455 169.837 9.12455Z" fill="#6F4EF2"/>
<path d="M120.383 162.38C119.852 164.637 119.056 167.026 118.127 169.017C115.605 173.928 111.623 177.777 106.712 180.299C101.669 182.82 95.696 183.882 89.723 182.555C75.6541 179.635 66.6286 165.831 69.5487 151.762C72.4687 137.693 86.14 128.535 100.209 131.588C105.252 132.649 109.632 135.171 113.349 138.622C119.587 144.86 122.242 153.886 120.383 162.38Z" fill="url(#paint5_linear_5158_122)"/>
<path d="M102.715 155.229H96.742V149.256C96.742 148.062 95.813 147 94.485 147C93.291 147 92.229 147.929 92.229 149.256V155.229H86.256C85.062 155.229 84 156.158 84 157.485C84 158.813 84.929 159.742 86.256 159.742H92.229V165.715C92.229 166.909 93.158 167.971 94.485 167.971C95.68 167.971 96.742 167.042 96.742 165.715V159.742H102.715C103.909 159.742 104.971 158.813 104.971 157.485C104.971 156.158 103.909 155.229 102.715 155.229Z" fill="white"/>
<defs>
<filter id="filter0_d_5158_122" x="14.1895" y="6.31641" width="135.875" height="134.719" filterUnits="userSpaceOnUse" color-interpolation-filters="sRGB">
<feFlood flood-opacity="0" result="BackgroundImageFix"/>
<feColorMatrix in="SourceAlpha" type="matrix" values="0 0 0 0 0 0 0 0 0 0 0 0 0 0 0 0 0 0 127 0" result="hardAlpha"/>
<feOffset dy="11"/>
<feGaussianBlur stdDeviation="11"/>
<feColorMatrix type="matrix" values="0 0 0 0 0.397708 0 0 0 0 0.47749 0 0 0 0 0.575 0 0 0 0.27 0"/>
<feBlend mode="normal" in2="BackgroundImageFix" result="effect1_dropShadow_5158_122"/>
<feBlend mode="normal" in="SourceGraphic" in2="effect1_dropShadow_5158_122" result="shape"/>
</filter>
<linearGradient id="paint0_linear_5158_122" x1="-62.9997" y1="-145" x2="157.074" y2="118.486" gradientUnits="userSpaceOnUse">
<stop stop-color="#F1EEFE"/>
<stop offset="1" stop-color="#6F4EF2"/>
</linearGradient>
<linearGradient id="paint1_linear_5158_122" x1="-188.5" y1="-62.5" x2="186.312" y2="108.741" gradientUnits="userSpaceOnUse">
<stop stop-color="#F1EEFE"/>
<stop offset="1" stop-color="#6F4EF2"/>
</linearGradient>
<linearGradient id="paint2_linear_5158_122" x1="61.0636" y1="33.5057" x2="93.7086" y2="33.5057" gradientUnits="userSpaceOnUse">
<stop stop-color="#8A2BE2"/>
<stop offset="0.23" stop-color="#8427E1"/>
<stop offset="0.52" stop-color="#741CDD"/>
<stop offset="0.86" stop-color="#5909D7"/>
<stop offset="1" stop-color="#4B00D4"/>
</linearGradient>
<linearGradient id="paint3_linear_5158_122" x1="61.0998" y1="44.0057" x2="112.327" y2="44.0057" gradientUnits="userSpaceOnUse">
<stop stop-color="#8A2BE2"/>
<stop offset="0.23" stop-color="#8427E1"/>
<stop offset="0.52" stop-color="#741CDD"/>
<stop offset="0.86" stop-color="#5909D7"/>
<stop offset="1" stop-color="#4B00D4"/>
</linearGradient>
<linearGradient id="paint4_linear_5158_122" x1="61.0352" y1="55.0057" x2="79.1156" y2="55.0057" gradientUnits="userSpaceOnUse">
<stop stop-color="#8A2BE2"/>
<stop offset="0.23" stop-color="#8427E1"/>
<stop offset="0.52" stop-color="#741CDD"/>
<stop offset="0.86" stop-color="#5909D7"/>
<stop offset="1" stop-color="#4B00D4"/>
</linearGradient>
<linearGradient id="paint5_linear_5158_122" x1="-35.6641" y1="143.783" x2="143.375" y2="166.724" gradientUnits="userSpaceOnUse">
<stop stop-color="#F1EEFE"/>
<stop offset="1" stop-color="#6F4EF2"/>
</linearGradient>
</defs>
</svg>
