<svg width="228" height="193" viewBox="0 0 228 193" fill="none" xmlns="http://www.w3.org/2000/svg">
<g clip-path="url(#clip0_4785_7603)">
<path d="M113.461 174C159.553 174 196.921 136.632 196.921 90.3747C196.921 44.1174 159.389 6.74933 113.461 6.74933C67.368 6.74933 30 44.1174 30 90.3747C30 136.632 67.368 174 113.461 174Z" fill="#F1EEFE"/>
<path d="M207 35.5573C210.727 35.5573 213.749 32.5355 213.749 28.808C213.749 25.0805 210.727 22.0587 207 22.0587C203.272 22.0587 200.25 25.0805 200.25 28.808C200.25 32.5355 203.272 35.5573 207 35.5573Z" fill="#F0EDFE"/>
<path d="M216.877 9.21854C219.422 9.21854 221.486 7.1549 221.486 4.60927C221.486 2.06364 219.422 0 216.877 0C214.331 0 212.267 2.06364 212.267 4.60927C212.267 7.1549 214.331 9.21854 216.877 9.21854Z" fill="#F0EDFE"/>
<path d="M40.6093 26.2185C43.1549 26.2185 45.2185 24.1549 45.2185 21.6093C45.2185 19.0636 43.1549 17 40.6093 17C38.0636 17 36 19.0636 36 21.6093C36 24.1549 38.0636 26.2185 40.6093 26.2185Z" fill="#F0EDFE"/>
<path d="M14.5601 135.032C19.2877 135.032 23.1201 131.2 23.1201 126.472C23.1201 121.744 19.2877 117.912 14.5601 117.912C9.83248 117.912 6 121.744 6 126.472C6 131.2 9.83248 135.032 14.5601 135.032Z" fill="#F0EDFE"/>
<path opacity="0.1" d="M203.832 127.625C206.484 123.519 205.458 119.669 201.181 115.136C208.195 117.959 209.393 118.728 209.991 123.433C210.333 125.572 208.623 127.539 206.399 127.539H203.832V127.625Z" fill="#9AA2B2"/>
<path d="M185.27 107.779V109.747H159.865V107.181C160.464 105.812 160.292 105.897 160.292 94.8627C160.121 94.6916 159.95 94.435 159.865 94.2639V93.6652C160.378 94.6061 161.148 95.4615 161.918 96.1458L169.873 101.706C171.755 103.246 174.407 103.331 176.288 101.791L183.73 95.1193C183.987 94.8627 184.244 94.6916 184.5 94.435C184.415 95.2049 184.415 96.6591 184.415 105.042C184.5 105.983 184.757 106.924 185.27 107.779Z" fill="url(#paint0_linear_4785_7603)"/>
<path d="M75.6075 108.549C74.9232 111.03 74.1534 112.57 74.1534 112.57L52.084 109.063L53.3671 103.588C53.5381 103.759 53.7948 103.845 53.9658 103.93C54.5646 104.272 55.249 104.7 55.7622 105.128C56.1044 105.384 56.5321 105.641 56.8742 106.069C56.9598 106.154 57.0453 106.24 57.0453 106.24V102.048C56.8742 101.963 56.7887 101.877 56.7031 101.792C60.2958 103.588 64.7439 104.529 71.1594 100.765C71.0739 100.765 71.0739 100.851 70.9884 100.851V107.694C70.9884 107.694 71.5016 108.464 75.6075 108.549Z" fill="url(#paint1_linear_4785_7603)"/>
<path d="M51.6562 97.2579C52.1696 97.9423 52.7684 98.541 53.2816 99.0543C52.6828 98.541 52.084 97.9423 51.6562 97.2579Z" fill="#3973F4"/>
<path d="M51.5709 97.2586C51.4851 97.1729 51.3994 97.0871 51.3994 97.0013C51.3994 97.0013 51.4851 97.1729 51.5709 97.2586Z" fill="#3973F4"/>
<path d="M164.655 137.547C168.59 131.56 167.05 125.914 160.72 119.242C171.07 123.348 172.781 124.631 173.722 131.474C174.15 134.639 171.669 137.547 168.419 137.547H164.655Z" fill="url(#paint2_linear_4785_7603)"/>
<path d="M137.196 108.293V111.201H99.9004V107.437C100.328 106.496 100.585 105.384 100.585 104.272V89.3026C100.328 88.9605 100.072 88.7039 99.9004 88.3617V87.5063C100.671 88.8749 101.697 90.158 102.98 91.1845L114.699 99.3964C117.437 101.706 121.371 101.792 124.194 99.5675L135.143 89.7303C135.486 89.3882 135.913 89.046 136.255 88.7039C136.084 89.8159 136.17 92.0399 136.17 104.272C136.084 105.726 136.512 107.095 137.196 108.293Z" fill="url(#paint3_linear_4785_7603)"/>
<path d="M138.383 172.38C137.852 174.637 137.056 177.026 136.127 179.017C133.605 183.928 129.623 187.777 124.712 190.299C119.669 192.82 113.696 193.882 107.723 192.555C93.6541 189.635 84.6286 175.831 87.5487 161.762C90.4687 147.693 104.14 138.535 118.209 141.588C123.252 142.649 127.632 145.171 131.349 148.622C137.587 154.86 140.242 163.886 138.383 172.38Z" fill="url(#paint4_linear_4785_7603)"/>
<path d="M120.715 165.229H114.742V159.256C114.742 158.062 113.813 157 112.485 157C111.291 157 110.229 157.929 110.229 159.256V165.229H104.256C103.062 165.229 102 166.158 102 167.485C102 168.813 102.929 169.742 104.256 169.742H110.229V175.715C110.229 176.909 111.158 177.971 112.485 177.971C113.68 177.971 114.742 177.042 114.742 175.715V169.742H120.715C121.909 169.742 122.971 168.813 122.971 167.485C122.971 166.158 121.909 165.229 120.715 165.229Z" fill="white"/>
<g filter="url(#filter0_d_4785_7603)">
<path d="M143.605 131.266H85.1036C82.6091 131.266 80.5898 129.247 80.5898 126.752V46.5138C80.5898 44.0193 82.6091 42 85.1036 42H143.605C146.1 42 148.119 44.0193 148.119 46.5138V126.752C148.119 129.247 146.1 131.266 143.605 131.266Z" fill="url(#paint5_linear_4785_7603)"/>
</g>
<path d="M121.957 109.618H106.752C105.06 109.618 103.694 108.252 103.694 106.559C103.694 104.866 105.06 103.5 106.752 103.5H121.957C123.649 103.5 125.015 104.866 125.015 106.559C125.015 108.252 123.649 109.618 121.957 109.618Z" fill="#D2C7FF"/>
<path d="M128.935 116.24H99.7442C98.8533 116.24 98.1406 115.527 98.1406 114.636C98.1406 113.745 98.8533 113.033 99.7442 113.033H128.935C129.826 113.033 130.539 113.745 130.539 114.636C130.539 115.497 129.826 116.24 128.935 116.24Z" fill="#D2C7FF"/>
<path d="M134.31 73.8341C134.31 79.8327 131.667 85.2077 127.48 88.8603C123.976 91.919 119.373 93.7601 114.355 93.7601C109.336 93.7601 104.733 91.919 101.229 88.8306C97.0414 85.178 94.3984 79.803 94.3984 73.8044C94.3984 62.7872 103.337 53.8487 114.355 53.8487C125.372 53.8487 134.31 62.8169 134.31 73.8341Z" fill="#DFD9FA"/>
<path d="M127.48 88.8602C123.976 91.9189 119.373 93.7601 114.355 93.7601C109.336 93.7601 104.733 91.9189 101.229 88.8305C102.684 88.2663 104.585 87.5239 107.138 86.4846C107.732 86.247 108.178 85.8016 108.445 85.2373C108.593 84.9107 108.653 84.584 108.653 84.2277V79.4466C108.564 79.3575 108.504 79.2387 108.445 79.1497C108.029 78.526 107.762 77.8133 107.673 77.0709L107.257 76.8631C106.04 77.16 106.129 75.8534 105.802 73.3292C105.683 72.2899 105.832 72.082 106.307 71.9038L106.693 71.3693C104.317 66.024 105.505 62.6684 107.851 61.4805C107.079 59.7879 107.02 59.1642 107.02 59.1642C107.02 59.1642 112.009 59.9957 113.701 59.6691C115.869 59.2236 119.225 59.7582 120.472 62.6387C122.551 63.4405 123.352 64.7768 123.531 66.1725C123.709 67.4791 123.323 68.9045 122.937 70.0033C122.907 70.0924 122.877 70.1518 122.848 70.2112C122.848 70.2409 122.818 70.2705 122.818 70.3002C122.758 70.4487 122.729 70.5675 122.669 70.6863C122.64 70.7457 122.64 70.8051 122.61 70.8645C122.58 70.9833 122.521 71.102 122.491 71.1911C122.491 71.2208 122.491 71.2208 122.462 71.2505C122.432 71.3396 122.402 71.4287 122.372 71.5178C122.343 71.6366 122.313 71.7257 122.283 71.8147C122.313 71.8444 122.313 71.9038 122.343 71.9335C122.669 72.082 122.788 72.379 122.669 73.2995C122.372 75.7049 122.462 77.16 121.214 76.8334L120.116 78.7339C120.086 78.9418 120.056 79.0606 120.026 79.1793C119.997 79.5357 119.997 80.2484 119.997 84.1683C119.997 84.6434 120.145 85.0889 120.383 85.4749C120.65 85.8906 121.036 86.247 121.511 86.4549C121.511 86.4549 121.541 86.4549 121.541 86.4846C124.125 87.5833 126.025 88.296 127.48 88.8602Z" fill="white"/>
<path d="M122.313 71.8444C122.402 71.2505 122.135 70.4784 121.927 69.9736C121.897 69.8845 121.838 69.7954 121.808 69.7063C120.858 67.8058 118.72 67.004 116.701 66.8852C111.533 66.6179 111.029 67.5979 109.425 66.1131C109.93 66.8555 109.96 68.073 109.187 69.5578C108.653 70.5972 107.614 71.0723 106.663 71.3693C104.288 66.024 105.475 62.6684 107.821 61.4805C107.049 59.7879 106.99 59.1642 106.99 59.1642C106.99 59.1642 111.979 59.9957 113.672 59.6691C115.839 59.2236 119.195 59.7582 120.442 62.6387C122.521 63.4405 123.323 64.7768 123.501 66.1725C123.857 68.3997 122.551 70.8645 122.313 71.8444Z" fill="#B9A9FF"/>
<path d="M120.412 85.5343V86.4548H108.415V85.2373C108.564 84.9106 108.623 84.584 108.623 84.2276V79.4466C108.534 79.3575 108.475 79.2387 108.415 79.1496V78.8527C108.683 79.2981 109.009 79.6841 109.395 80.0405L113.137 82.6834C113.998 83.4258 115.275 83.4258 116.166 82.7131L119.67 79.5654C119.789 79.4763 119.908 79.3575 120.026 79.2387C119.997 79.5951 119.997 80.3078 119.997 84.2276C120.056 84.7028 120.175 85.1482 120.412 85.5343Z" fill="url(#paint6_linear_4785_7603)"/>
<g filter="url(#filter1_d_4785_7603)">
<path d="M64.1386 117.457H26.5138C24.0193 117.457 22 115.438 22 112.944V60.3223C22 57.8279 24.0193 55.8085 26.5138 55.8085H64.1386C66.6331 55.8085 68.6524 57.8279 68.6524 60.3223V112.973C68.6524 115.468 66.6331 117.457 64.1386 117.457Z" fill="url(#paint7_linear_4785_7603)"/>
</g>
<path d="M50.5681 102.52H40.0557C38.8975 102.52 37.9473 101.57 37.9473 100.412C37.9473 99.2539 38.8975 98.3036 40.0557 98.3036H50.5681C51.7262 98.3036 52.6765 99.2539 52.6765 100.412C52.6765 101.57 51.7262 102.52 50.5681 102.52Z" fill="#D2C7FF"/>
<path d="M55.4078 107.094H35.2442C34.6206 107.094 34.1455 106.589 34.1455 105.995C34.1455 105.371 34.6503 104.896 35.2442 104.896H55.4078C56.0314 104.896 56.5065 105.401 56.5065 105.995C56.5065 106.589 56.0017 107.094 55.4078 107.094Z" fill="#D2C7FF"/>
<path d="M59.0901 77.7836C59.0901 81.9411 57.249 85.6531 54.3685 88.1772C51.9334 90.2857 48.7856 91.5626 45.3112 91.5626C41.8368 91.5626 38.6593 90.2857 36.2539 88.1772C33.3734 85.6531 31.5322 81.9411 31.5322 77.7836C31.5322 70.1815 37.709 64.0047 45.3112 64.0047C52.9134 64.0047 59.0901 70.1815 59.0901 77.7836Z" fill="#DFD9FA"/>
<path d="M54.3685 88.1781C51.9334 90.2865 48.7856 91.5634 45.3112 91.5634C41.8368 91.5634 38.6593 90.2865 36.2539 88.1781C37.2636 87.7921 38.5702 87.2872 40.3223 86.5448C40.738 86.3666 41.035 86.0697 41.2132 85.6836C41.3022 85.4758 41.3616 85.2382 41.3616 84.9709V81.6747C41.3022 81.6153 41.2429 81.5262 41.2132 81.4668C40.9162 81.0511 40.738 80.5462 40.6786 80.0414L40.3817 79.8929C39.5502 80.1008 39.6096 79.1802 39.372 77.4579C39.2829 76.7451 39.4017 76.5967 39.6987 76.4779L39.9659 76.1215C38.3326 72.4095 39.1641 70.0932 40.7677 69.2915C40.2332 68.1333 40.2035 67.6879 40.2035 67.6879C40.2035 67.6879 43.6482 68.2521 44.8361 68.0442C46.3506 67.7473 48.6372 68.1036 49.4983 70.0932C50.9238 70.6575 51.488 71.578 51.6068 72.5283C51.7255 73.4489 51.4583 74.3992 51.2207 75.1713C51.191 75.2307 51.191 75.2603 51.1613 75.3197C51.1613 75.3494 51.1316 75.3494 51.1316 75.3791C51.1019 75.4682 51.0722 75.5573 51.0425 75.6464C51.0128 75.6761 51.0128 75.7355 50.9831 75.7652C50.9534 75.8543 50.9238 75.9137 50.8941 76.0027V76.0324C50.8644 76.0918 50.8347 76.1512 50.8347 76.2106C50.805 76.2997 50.7753 76.3591 50.7753 76.4185C50.805 76.4482 50.805 76.4779 50.805 76.5076C51.0425 76.6264 51.1019 76.8045 51.0128 77.4282C50.805 79.0911 50.8644 80.1008 50.0032 79.8632L49.2608 81.1995C49.2311 81.348 49.2014 81.4074 49.2014 81.5262C49.1717 81.7638 49.1717 82.2686 49.1717 84.9709C49.1717 85.2976 49.2608 85.5946 49.439 85.8618C49.6171 86.1588 49.8844 86.3963 50.211 86.5151H50.2407C52.0819 87.2872 53.3885 87.7921 54.3685 88.1781Z" fill="white"/>
<path d="M50.8347 76.4176C50.8941 76.0019 50.7159 75.497 50.5675 75.111C50.5378 75.0516 50.5081 74.9922 50.4784 74.9328C49.8251 73.6262 48.3403 73.062 46.9446 73.0026C43.381 72.8244 43.0247 73.5074 41.9259 72.468C42.2823 73.0026 42.312 73.8044 41.7774 74.8437C41.3914 75.5564 40.6787 75.8831 40.0551 76.0909C38.4218 72.3789 39.2533 70.0627 40.8569 69.2609C40.3223 68.1027 40.2926 67.6573 40.2926 67.6573C40.2926 67.6573 43.7374 68.2215 44.9252 68.0136C46.4397 67.7167 48.7263 68.073 49.5875 70.0627C51.0129 70.6269 51.5771 71.5475 51.6959 72.4977C51.8741 74.0419 50.9832 75.7346 50.8347 76.4176Z" fill="#B9A9FF"/>
<path d="M49.5284 85.8906V86.5439H41.2432V85.6827C41.3323 85.4749 41.3917 85.2373 41.3917 84.97V81.6738C41.3323 81.6144 41.2729 81.5253 41.2432 81.4659V81.2877C41.4214 81.5847 41.659 81.8816 41.9262 82.0895L44.5098 83.901C45.1037 84.4058 45.9946 84.4355 46.6182 83.9307L49.0533 81.7629C49.1424 81.7035 49.2315 81.6144 49.2909 81.5253C49.2612 81.7629 49.2612 82.2677 49.2612 84.97C49.2612 85.2967 49.3502 85.6233 49.5284 85.8906Z" fill="url(#paint8_linear_4785_7603)"/>
<g filter="url(#filter2_d_4785_7603)">
<path d="M201.304 117.457H163.68C161.185 117.457 159.166 115.438 159.166 112.944V60.3223C159.166 57.8279 161.185 55.8085 163.68 55.8085H201.304C203.799 55.8085 205.818 57.8279 205.818 60.3223V112.973C205.818 115.468 203.799 117.457 201.304 117.457Z" fill="url(#paint9_linear_4785_7603)"/>
</g>
<path d="M187.733 102.52H177.221C176.063 102.52 175.113 101.57 175.113 100.412C175.113 99.2539 176.063 98.3036 177.221 98.3036H187.733C188.891 98.3036 189.842 99.2539 189.842 100.412C189.871 101.57 188.921 102.52 187.733 102.52Z" fill="#D2C7FF"/>
<path d="M192.574 107.094H172.41C171.787 107.094 171.312 106.589 171.312 105.995C171.312 105.371 171.816 104.896 172.41 104.896H192.574C193.197 104.896 193.673 105.401 193.673 105.995C193.673 106.589 193.197 107.094 192.574 107.094Z" fill="#D2C7FF"/>
<path d="M196.286 77.7836C196.286 81.9411 194.445 85.6531 191.564 88.1772C189.129 90.2857 185.981 91.5626 182.507 91.5626C179.032 91.5626 175.855 90.2857 173.45 88.1772C170.569 85.6531 168.728 81.9411 168.728 77.7836C168.728 70.1815 174.905 64.0047 182.507 64.0047C190.109 64.0047 196.286 70.1815 196.286 77.7836Z" fill="#DFD9FA"/>
<path d="M191.564 88.1781C189.129 90.2865 185.981 91.5634 182.507 91.5634C179.032 91.5634 175.855 90.2865 173.45 88.1781C174.459 87.7921 175.766 87.2872 177.518 86.5448C177.934 86.3666 178.231 86.0697 178.409 85.6836C178.498 85.4758 178.557 85.2382 178.557 84.9709V81.6747C178.498 81.6153 178.439 81.5262 178.409 81.4668C178.112 81.0511 177.934 80.5462 177.874 80.0414L177.577 79.8929C176.746 80.1008 176.805 79.1802 176.568 77.4579C176.479 76.7451 176.597 76.5967 176.894 76.4779L177.162 76.1215C175.528 72.4095 176.36 70.0932 177.963 69.2915C177.429 68.1333 177.399 67.6879 177.399 67.6879C177.399 67.6879 180.844 68.2521 182.032 68.0442C183.546 67.7473 185.833 68.1036 186.694 70.0932C188.119 70.6575 188.684 71.578 188.802 72.5283C188.921 73.4489 188.654 74.3992 188.416 75.1713C188.387 75.2307 188.387 75.2603 188.357 75.3197C188.357 75.3494 188.327 75.3494 188.327 75.3791C188.298 75.4682 188.268 75.5573 188.238 75.6464C188.208 75.6761 188.208 75.7355 188.179 75.7652C188.149 75.8543 188.119 75.9137 188.09 76.0027V76.0324C188.06 76.0918 188.03 76.1512 188.03 76.2106C188.001 76.2997 187.971 76.3591 187.971 76.4185C188.001 76.4482 188.001 76.4779 188.001 76.5076C188.238 76.6264 188.298 76.8045 188.208 77.4282C188.001 79.0911 188.06 80.1008 187.199 79.8632L186.456 81.1995C186.427 81.348 186.397 81.4074 186.397 81.5262C186.367 81.7638 186.367 82.2686 186.367 84.9709C186.367 85.2976 186.456 85.5946 186.635 85.8618C186.813 86.1588 187.08 86.3963 187.407 86.5151H187.436C189.248 87.2872 190.554 87.7921 191.564 88.1781Z" fill="white"/>
<path d="M188.001 76.4176C188.06 76.0019 187.882 75.497 187.733 75.111C187.704 75.0516 187.674 74.9922 187.644 74.9328C186.991 73.6262 185.506 73.062 184.11 73.0026C180.547 72.8244 180.191 73.5074 179.092 72.468C179.448 73.0026 179.478 73.8044 178.943 74.8437C178.557 75.5564 177.845 75.8831 177.221 76.0909C175.588 72.3789 176.419 70.0627 178.023 69.2609C177.488 68.1027 177.459 67.6573 177.459 67.6573C177.459 67.6573 180.903 68.2215 182.091 68.0136C183.606 67.7167 185.892 68.073 186.753 70.0627C188.179 70.6269 188.743 71.5475 188.862 72.4977C189.04 74.0419 188.179 75.7346 188.001 76.4176Z" fill="#B9A9FF"/>
<path d="M186.694 85.8906V86.5439H178.409V85.6827C178.498 85.4749 178.557 85.2373 178.557 84.97V81.6738C178.498 81.6144 178.438 81.5253 178.409 81.4659V81.2877C178.587 81.5847 178.824 81.8816 179.092 82.0895L181.675 83.901C182.269 84.4058 183.16 84.4355 183.784 83.9307L186.219 81.7629C186.308 81.7035 186.397 81.6144 186.456 81.5253C186.427 81.7629 186.427 82.2677 186.427 84.97C186.427 85.2967 186.516 85.6233 186.694 85.8906Z" fill="url(#paint10_linear_4785_7603)"/>
</g>
<defs>
<filter id="filter0_d_4785_7603" x="58.5898" y="31" width="111.528" height="133.266" filterUnits="userSpaceOnUse" color-interpolation-filters="sRGB">
<feFlood flood-opacity="0" result="BackgroundImageFix"/>
<feColorMatrix in="SourceAlpha" type="matrix" values="0 0 0 0 0 0 0 0 0 0 0 0 0 0 0 0 0 0 127 0" result="hardAlpha"/>
<feOffset dy="11"/>
<feGaussianBlur stdDeviation="11"/>
<feColorMatrix type="matrix" values="0 0 0 0 0.397708 0 0 0 0 0.47749 0 0 0 0 0.575 0 0 0 0.27 0"/>
<feBlend mode="normal" in2="BackgroundImageFix" result="effect1_dropShadow_4785_7603"/>
<feBlend mode="normal" in="SourceGraphic" in2="effect1_dropShadow_4785_7603" result="shape"/>
</filter>
<filter id="filter1_d_4785_7603" x="0" y="44.8085" width="90.6523" height="105.649" filterUnits="userSpaceOnUse" color-interpolation-filters="sRGB">
<feFlood flood-opacity="0" result="BackgroundImageFix"/>
<feColorMatrix in="SourceAlpha" type="matrix" values="0 0 0 0 0 0 0 0 0 0 0 0 0 0 0 0 0 0 127 0" result="hardAlpha"/>
<feOffset dy="11"/>
<feGaussianBlur stdDeviation="11"/>
<feColorMatrix type="matrix" values="0 0 0 0 0.397708 0 0 0 0 0.47749 0 0 0 0 0.575 0 0 0 0.27 0"/>
<feBlend mode="normal" in2="BackgroundImageFix" result="effect1_dropShadow_4785_7603"/>
<feBlend mode="normal" in="SourceGraphic" in2="effect1_dropShadow_4785_7603" result="shape"/>
</filter>
<filter id="filter2_d_4785_7603" x="137.166" y="44.8085" width="90.6523" height="105.649" filterUnits="userSpaceOnUse" color-interpolation-filters="sRGB">
<feFlood flood-opacity="0" result="BackgroundImageFix"/>
<feColorMatrix in="SourceAlpha" type="matrix" values="0 0 0 0 0 0 0 0 0 0 0 0 0 0 0 0 0 0 127 0" result="hardAlpha"/>
<feOffset dy="11"/>
<feGaussianBlur stdDeviation="11"/>
<feColorMatrix type="matrix" values="0 0 0 0 0.397708 0 0 0 0 0.47749 0 0 0 0 0.575 0 0 0 0.27 0"/>
<feBlend mode="normal" in2="BackgroundImageFix" result="effect1_dropShadow_4785_7603"/>
<feBlend mode="normal" in="SourceGraphic" in2="effect1_dropShadow_4785_7603" result="shape"/>
</filter>
<linearGradient id="paint0_linear_4785_7603" x1="172.567" y1="93.6652" x2="172.567" y2="109.747" gradientUnits="userSpaceOnUse">
<stop stop-color="#F1EEFE"/>
<stop offset="1" stop-color="#F1EEFE" stop-opacity="0"/>
</linearGradient>
<linearGradient id="paint1_linear_4785_7603" x1="63.8458" y1="100.765" x2="63.8458" y2="112.57" gradientUnits="userSpaceOnUse">
<stop stop-color="#F1EEFE"/>
<stop offset="1" stop-color="#F1EEFE" stop-opacity="0"/>
</linearGradient>
<linearGradient id="paint2_linear_4785_7603" x1="167.245" y1="119.242" x2="167.245" y2="137.547" gradientUnits="userSpaceOnUse">
<stop stop-color="#F1EEFE"/>
<stop offset="1" stop-color="#F1EEFE" stop-opacity="0"/>
</linearGradient>
<linearGradient id="paint3_linear_4785_7603" x1="118.549" y1="87.5063" x2="118.549" y2="111.201" gradientUnits="userSpaceOnUse">
<stop stop-color="#F1EEFE"/>
<stop offset="1" stop-color="#F1EEFE" stop-opacity="0"/>
</linearGradient>
<linearGradient id="paint4_linear_4785_7603" x1="-17.6641" y1="153.783" x2="161.375" y2="176.724" gradientUnits="userSpaceOnUse">
<stop stop-color="#F1EEFE"/>
<stop offset="1" stop-color="#6F4EF2"/>
</linearGradient>
<linearGradient id="paint5_linear_4785_7603" x1="114.333" y1="39.9352" x2="114.333" y2="132.229" gradientUnits="userSpaceOnUse">
<stop stop-color="#FDFEFF"/>
<stop offset="0.9964" stop-color="#F4F1FF"/>
</linearGradient>
<linearGradient id="paint6_linear_4785_7603" x1="114.414" y1="78.8527" x2="114.414" y2="86.4548" gradientUnits="userSpaceOnUse">
<stop stop-color="#F1EEFE"/>
<stop offset="1" stop-color="#F1EEFE" stop-opacity="0"/>
</linearGradient>
<linearGradient id="paint7_linear_4785_7603" x1="45.311" y1="54.3825" x2="45.311" y2="118.122" gradientUnits="userSpaceOnUse">
<stop stop-color="#FDFEFF"/>
<stop offset="0.9964" stop-color="#F4F1FF"/>
</linearGradient>
<linearGradient id="paint8_linear_4785_7603" x1="45.3858" y1="81.2877" x2="45.3858" y2="86.5439" gradientUnits="userSpaceOnUse">
<stop stop-color="#F1EEFE"/>
<stop offset="1" stop-color="#F1EEFE" stop-opacity="0"/>
</linearGradient>
<linearGradient id="paint9_linear_4785_7603" x1="182.477" y1="54.3825" x2="182.477" y2="118.122" gradientUnits="userSpaceOnUse">
<stop stop-color="#FDFEFF"/>
<stop offset="0.9964" stop-color="#F4F1FF"/>
</linearGradient>
<linearGradient id="paint10_linear_4785_7603" x1="182.551" y1="81.2877" x2="182.551" y2="86.5439" gradientUnits="userSpaceOnUse">
<stop stop-color="#F1EEFE"/>
<stop offset="1" stop-color="#F1EEFE" stop-opacity="0"/>
</linearGradient>
<clipPath id="clip0_4785_7603">
<rect width="228" height="193" fill="white"/>
</clipPath>
</defs>
</svg>
