<svg width="174" height="188" viewBox="0 0 174 188" fill="none" xmlns="http://www.w3.org/2000/svg">
<path d="M168.926 152.799L164.901 150.767L166.933 146.742L163.483 145L161.451 149.025L157.426 146.993L155.626 150.558L159.651 152.59L157.619 156.615L161.069 158.357L163.101 154.332L167.126 156.364L168.926 152.799Z" fill="#BEB3FD"/>
<path d="M153.406 18.5654C155.493 18.5654 157.185 16.8717 157.185 14.7825C157.185 12.6932 155.493 10.9995 153.406 10.9995C151.318 10.9995 149.626 12.6932 149.626 14.7825C149.626 16.8717 151.318 18.5654 153.406 18.5654Z" fill="#E3DDFF"/>
<path d="M5.7796 82.5755C7.867 82.5755 9.5592 80.8825 9.5592 78.7925C9.5592 76.7035 7.867 75.0095 5.7796 75.0095C3.6922 75.0095 2 76.7035 2 78.7925C2 80.8825 3.6922 82.5755 5.7796 82.5755Z" fill="#E3DDFF"/>
<path d="M26.3991 22.2895H23.1094V18.9995H20.2897V22.2895H17V25.2025H20.2897V28.4925H23.1094V25.2025H26.3991V22.2895Z" fill="#BEB3FD"/>
<path d="M26.5593 158.578H23.2697V155.288H20.4499V158.578H17.1602V161.491H20.4499V164.781H23.2697V161.491H26.5593V158.578Z" fill="#BEB3FC"/>
<path d="M116.383 166.38C115.852 168.637 115.056 171.026 114.127 173.017C111.605 177.928 107.623 181.777 102.712 184.299C97.669 186.82 91.696 187.882 85.723 186.555C71.6541 183.635 62.6286 169.831 65.5487 155.762C68.4687 141.693 82.14 132.535 96.209 135.588C101.252 136.649 105.632 139.171 109.349 142.622C115.587 148.86 118.242 157.886 116.383 166.38Z" fill="url(#paint0_linear_1_2)"/>
<path d="M98.715 159.229H92.742V153.256C92.742 152.062 91.813 151 90.485 151C89.291 151 88.229 151.929 88.229 153.256V159.229H82.256C81.062 159.229 80 160.158 80 161.485C80 162.813 80.929 163.742 82.256 163.742H88.229V169.715C88.229 170.909 89.158 171.971 90.485 171.971C91.68 171.971 92.742 171.042 92.742 169.715V163.742H98.715C99.909 163.742 100.971 162.813 100.971 161.485C100.971 160.158 99.909 159.229 98.715 159.229Z" fill="white"/>
<path d="M165.897 74.842L46.8188 143.592C43.8419 145.311 39.9999 144.281 38.2812 141.304L3.12499 80.4119C1.40625 77.435 2.43569 73.593 5.41265 71.8743L124.491 3.1244C127.468 1.40565 131.31 2.4351 133.029 5.41206L168.185 66.3043C169.903 69.2813 168.874 73.1232 165.897 74.842Z" fill="url(#paint1_linear_1_2)" fill-opacity="0.3"/>
<g filter="url(#filter0_d_1_2)">
<path d="M39.1043 117.734L24.1043 91.7534C30.5995 88.0034 32.8871 79.4658 29.1372 72.9706L113.574 24.2207C117.324 30.7159 125.862 33.0036 132.357 29.2536L147.357 55.2343C140.862 58.9843 138.574 67.5219 142.324 74.0171L57.8871 122.767C54.1371 116.272 45.5995 113.984 39.1043 117.734Z" fill="url(#paint2_linear_1_2)"/>
</g>
<path d="M58.4885 100.048C62.2251 97.8911 63.5054 93.1131 61.3481 89.3764C59.1907 85.6398 54.4127 84.3595 50.676 86.5169C46.9394 88.6742 45.6591 93.4523 47.8164 97.1889C49.9738 100.926 54.7518 102.206 58.4885 100.048Z" fill="url(#paint3_linear_1_2)"/>
<path d="M122.36 63.1724C126.096 61.015 127.377 56.237 125.219 52.5004C123.062 48.7637 118.284 47.4834 114.547 49.6408C110.811 51.7981 109.53 56.5762 111.688 60.3128C113.845 64.0495 118.623 65.3298 122.36 63.1724Z" fill="url(#paint4_linear_1_2)"/>
<path d="M97.4516 93.7904C106.42 88.6128 108.443 75.328 101.971 64.118C95.4987 52.9081 82.9821 48.0179 74.0141 53.1956C65.0462 58.3732 63.0228 71.658 69.4949 82.868C75.967 94.078 88.4836 98.9681 97.4516 93.7904Z" fill="#D3C9FF"/>
<path d="M155.75 134.812H18.25C14.8125 134.812 12 131.999 12 128.562V58.2495C12 54.812 14.8125 51.9995 18.25 51.9995H155.75C159.187 51.9995 162 54.812 162 58.2495V128.562C162 131.999 159.187 134.812 155.75 134.812Z" fill="#D9D4F7"/>
<g filter="url(#filter1_d_1_2)">
<path d="M24.4979 108.561V78.5612C31.9978 78.5612 38.2478 72.3112 38.2478 64.8112H135.748C135.748 72.3112 141.998 78.5612 149.498 78.5612V108.561C141.998 108.561 135.748 114.811 135.748 122.311H38.2478C38.2478 114.811 31.9978 108.561 24.4979 108.561Z" fill="url(#paint5_linear_1_2)"/>
</g>
<path d="M50.1279 102.937C54.4426 102.937 57.9404 99.4392 57.9404 95.1245C57.9404 90.8098 54.4426 87.312 50.1279 87.312C45.8132 87.312 42.3154 90.8098 42.3154 95.1245C42.3154 99.4392 45.8132 102.937 50.1279 102.937Z" fill="url(#paint6_linear_1_2)"/>
<path d="M123.88 102.937C128.195 102.937 131.693 99.4392 131.693 95.1245C131.693 90.8098 128.195 87.312 123.88 87.312C119.565 87.312 116.068 90.8098 116.068 95.1245C116.068 99.4392 119.565 102.937 123.88 102.937Z" fill="url(#paint7_linear_1_2)"/>
<path d="M87 116.999C97.3553 116.999 105.75 106.506 105.75 93.5615C105.75 80.6173 97.3553 70.124 87 70.124C76.6446 70.124 68.25 80.6173 68.25 93.5615C68.25 106.506 76.6446 116.999 87 116.999Z" fill="#D3C9FF"/>
<defs>
<filter id="filter0_d_1_2" x="0.104317" y="6.22073" width="171.253" height="146.546" filterUnits="userSpaceOnUse" color-interpolation-filters="sRGB">
<feFlood flood-opacity="0" result="BackgroundImageFix"/>
<feColorMatrix in="SourceAlpha" type="matrix" values="0 0 0 0 0 0 0 0 0 0 0 0 0 0 0 0 0 0 127 0" result="hardAlpha"/>
<feOffset dy="6"/>
<feGaussianBlur stdDeviation="12"/>
<feComposite in2="hardAlpha" operator="out"/>
<feColorMatrix type="matrix" values="0 0 0 0 0.128333 0 0 0 0 0 0 0 0 0 0.641667 0 0 0 0.25 0"/>
<feBlend mode="normal" in2="BackgroundImageFix" result="effect1_dropShadow_1_2"/>
<feBlend mode="normal" in="SourceGraphic" in2="effect1_dropShadow_1_2" result="shape"/>
</filter>
<filter id="filter1_d_1_2" x="0.497864" y="46.8112" width="173" height="105.5" filterUnits="userSpaceOnUse" color-interpolation-filters="sRGB">
<feFlood flood-opacity="0" result="BackgroundImageFix"/>
<feColorMatrix in="SourceAlpha" type="matrix" values="0 0 0 0 0 0 0 0 0 0 0 0 0 0 0 0 0 0 127 0" result="hardAlpha"/>
<feOffset dy="6"/>
<feGaussianBlur stdDeviation="12"/>
<feComposite in2="hardAlpha" operator="out"/>
<feColorMatrix type="matrix" values="0 0 0 0 0.128333 0 0 0 0 0 0 0 0 0 0.641667 0 0 0 0.25 0"/>
<feBlend mode="normal" in2="BackgroundImageFix" result="effect1_dropShadow_1_2"/>
<feBlend mode="normal" in="SourceGraphic" in2="effect1_dropShadow_1_2" result="shape"/>
</filter>
<linearGradient id="paint0_linear_1_2" x1="-39.6641" y1="147.783" x2="139.375" y2="170.724" gradientUnits="userSpaceOnUse">
<stop stop-color="#F1EEFE"/>
<stop offset="1" stop-color="#6F4EF2"/>
</linearGradient>
<linearGradient id="paint1_linear_1_2" x1="-218.353" y1="71.8027" x2="12.5984" y2="270.96" gradientUnits="userSpaceOnUse">
<stop stop-color="#F1EEFE"/>
<stop offset="1" stop-color="#6F4EF2"/>
</linearGradient>
<linearGradient id="paint2_linear_1_2" x1="112.249" y1="69.5178" x2="70.2885" y2="60.2513" gradientUnits="userSpaceOnUse">
<stop stop-color="white"/>
<stop offset="1" stop-color="#EAE7FF"/>
</linearGradient>
<linearGradient id="paint3_linear_1_2" x1="18.5718" y1="109.476" x2="68.6475" y2="88.5544" gradientUnits="userSpaceOnUse">
<stop stop-color="#F1EEFE"/>
<stop offset="1" stop-color="#6F4EF2"/>
</linearGradient>
<linearGradient id="paint4_linear_1_2" x1="82.443" y1="72.6003" x2="132.519" y2="51.6783" gradientUnits="userSpaceOnUse">
<stop stop-color="#F1EEFE"/>
<stop offset="1" stop-color="#6F4EF2"/>
</linearGradient>
<linearGradient id="paint5_linear_1_2" x1="111.951" y1="103.377" x2="80.2456" y2="74.3716" gradientUnits="userSpaceOnUse">
<stop stop-color="white"/>
<stop offset="1" stop-color="#EAE7FF"/>
</linearGradient>
<linearGradient id="paint6_linear_1_2" x1="10.8451" y1="91.1434" x2="64.673" y2="98.0623" gradientUnits="userSpaceOnUse">
<stop stop-color="#F1EEFE"/>
<stop offset="1" stop-color="#6F4EF2"/>
</linearGradient>
<linearGradient id="paint7_linear_1_2" x1="84.5972" y1="91.1434" x2="138.425" y2="98.0623" gradientUnits="userSpaceOnUse">
<stop stop-color="#F1EEFE"/>
<stop offset="1" stop-color="#6F4EF2"/>
</linearGradient>
</defs>
</svg>
