<svg width="178" height="152" viewBox="0 0 178 152" fill="none" xmlns="http://www.w3.org/2000/svg">
<path d="M158.889 121.166C161.864 121.166 164.277 118.753 164.277 115.777C164.277 112.802 161.864 110.389 158.889 110.389C155.913 110.389 153.5 112.802 153.5 115.777C153.5 118.753 155.913 121.166 158.889 121.166Z" fill="#EFECFD"/>
<path d="M148.541 136.199C150.573 136.199 152.221 134.552 152.221 132.52C152.221 130.487 150.573 128.84 148.541 128.84C146.509 128.84 144.861 130.487 144.861 132.52C144.861 134.552 146.509 136.199 148.541 136.199Z" fill="#EFECFD"/>
<path d="M29.3068 46.2556C31.3391 46.2556 32.9866 44.6081 32.9866 42.5758C32.9866 40.5435 31.3391 38.896 29.3068 38.896C27.2745 38.896 25.627 40.5435 25.627 42.5758C25.627 44.6081 27.2745 46.2556 29.3068 46.2556Z" fill="#EFECFD"/>
<path d="M6.83392 117.223C10.6082 117.223 13.6678 114.163 13.6678 110.389C13.6678 106.614 10.6082 103.555 6.83392 103.555C3.05965 103.555 0 106.614 0 110.389C0 114.163 3.05965 117.223 6.83392 117.223Z" fill="#EFECFD"/>
<path d="M89.826 151.524C126.624 151.524 156.457 121.692 156.457 84.7621C156.457 47.8327 126.624 18 89.826 18C53.028 18 23.1953 47.8327 23.1953 84.7621C23.1953 121.692 53.028 151.524 89.826 151.524Z" fill="#F1EDFE"/>
<g filter="url(#filter0_d_5240_1255)">
<path fill-rule="evenodd" clip-rule="evenodd" d="M94.784 24.3525L50.1084 24.5309C47.3073 24.4487 44.9416 26.7806 45.0011 29.5555L45.2347 84.9702L45.114 135.828C45.0935 138.604 47.4918 140.902 50.2907 140.78L97.0543 140.342L130.892 140.184C133.693 140.267 136.058 137.935 135.999 135.16L135.164 84.2829L134.621 28.957C134.642 26.1815 132.244 23.8831 129.444 24.0046L94.784 24.3525Z" fill="white"/>
</g>
<path d="M81 74.7788C81 72.5697 82.7909 70.7788 85 70.7788H91C93.2091 70.7788 95 72.5697 95 74.7788V140.779H81V74.7788Z" fill="url(#paint0_linear_5240_1255)"/>
<path d="M135 100.477C132.639 100.488 130.043 100.394 126.772 100.921C119.383 102.113 114.849 117.698 107.292 117.698C98.4374 117.698 95.034 93.7788 88.4849 93.7788C81.9358 93.7788 83.1113 107.566 69.8453 107.566C63.5276 107.566 63.2962 123.384 51.2057 125.505C49.4117 125.82 48.0151 127.779 46 127.779" stroke="url(#paint1_linear_5240_1255)" stroke-width="2"/>
<g filter="url(#filter1_b_5240_1255)">
<circle cx="88" cy="93.7788" r="4" fill="url(#paint2_radial_5240_1255)"/>
</g>
<path d="M88.7311 4.24769C89.9507 4.24769 90.8655 3.33748 90.8655 2.12385C90.8655 0.91022 89.9507 0 88.7311 0C87.5115 0 86.5967 0.91022 86.5967 2.12385C86.5967 3.33748 87.6639 4.24769 88.7311 4.24769Z" fill="#EAEEF9"/>
<path d="M171.514 35.7715C174.868 51.5487 174.411 68.2361 169.837 83.7098C168.77 86.8956 167.703 90.3848 165.416 92.812C162.214 96.6046 156.421 98.2734 151.695 97.0597C146.816 95.8461 142.853 91.5984 141.938 86.4405C141.176 83.2547 142.243 79.4621 144.987 77.49C147.884 75.6695 152 76.1246 154.439 78.4002C157.183 80.6758 158.251 84.1649 158.098 87.5024C157.946 90.8399 156.726 94.1774 155.049 97.0597C150.018 106.465 140.871 113.899 130.351 117.236C122.576 119.664 114.191 119.664 106.416 117.54" stroke="#9B84F5" stroke-width="2" stroke-miterlimit="10" stroke-dasharray="4 4"/>
<path d="M177.917 31.2204C177.46 32.8891 175.631 33.4959 173.801 32.434C171.819 31.5238 170.447 30.7653 170.752 29.2482C171.209 27.7312 173.039 27.5795 175.173 27.4278C177.765 27.1244 178.222 29.5516 177.917 31.2204Z" fill="#F1EDFE"/>
<path d="M163.129 32.7374C163.891 34.1028 166.026 35.013 167.55 33.6476C169.227 32.1306 170.599 31.0687 169.837 29.5516C169.075 28.1863 167.855 28.6414 165.263 28.9448C163.129 29.3999 162.214 31.2204 163.129 32.7374Z" fill="#F1EDFE"/>
<path d="M169.837 27.1243C170.904 26.9726 171.972 27.5794 172.277 28.4896C172.429 28.793 172.581 29.2481 172.581 29.5515C172.886 31.6754 172.124 33.4958 170.904 33.6475C169.532 33.951 168.16 32.4339 168.008 30.4618C168.008 29.855 168.008 29.5515 168.008 29.0964C168.16 28.0345 168.77 27.276 169.837 27.1243C169.837 27.1243 169.99 27.1243 169.837 27.1243Z" fill="#6F4EF2"/>
<defs>
<filter id="filter0_d_5240_1255" x="41" y="24" width="99" height="124.784" filterUnits="userSpaceOnUse" color-interpolation-filters="sRGB">
<feFlood flood-opacity="0" result="BackgroundImageFix"/>
<feColorMatrix in="SourceAlpha" type="matrix" values="0 0 0 0 0 0 0 0 0 0 0 0 0 0 0 0 0 0 127 0" result="hardAlpha"/>
<feOffset dy="4"/>
<feGaussianBlur stdDeviation="2"/>
<feComposite in2="hardAlpha" operator="out"/>
<feColorMatrix type="matrix" values="0 0 0 0 0.517647 0 0 0 0 0.152941 0 0 0 0 0.882353 0 0 0 0.1 0"/>
<feBlend mode="normal" in2="BackgroundImageFix" result="effect1_dropShadow_5240_1255"/>
<feBlend mode="normal" in="SourceGraphic" in2="effect1_dropShadow_5240_1255" result="shape"/>
</filter>
<filter id="filter1_b_5240_1255" x="60" y="65.7788" width="56" height="56" filterUnits="userSpaceOnUse" color-interpolation-filters="sRGB">
<feFlood flood-opacity="0" result="BackgroundImageFix"/>
<feGaussianBlur in="BackgroundImageFix" stdDeviation="12"/>
<feComposite in2="SourceAlpha" operator="in" result="effect1_backgroundBlur_5240_1255"/>
<feBlend mode="normal" in="SourceGraphic" in2="effect1_backgroundBlur_5240_1255" result="shape"/>
</filter>
<linearGradient id="paint0_linear_5240_1255" x1="88" y1="70.7788" x2="88" y2="140.779" gradientUnits="userSpaceOnUse">
<stop stop-color="#B6B6FF" stop-opacity="0.25"/>
<stop offset="1" stop-color="#8427E1" stop-opacity="0.48"/>
</linearGradient>
<linearGradient id="paint1_linear_5240_1255" x1="145.438" y1="101.456" x2="-14.5321" y2="168.23" gradientUnits="userSpaceOnUse">
<stop stop-color="white"/>
<stop offset="1" stop-color="#4B00D4"/>
</linearGradient>
<radialGradient id="paint2_radial_5240_1255" cx="0" cy="0" r="1" gradientUnits="userSpaceOnUse" gradientTransform="translate(95.4 90.8788) rotate(132.769) scale(10.8977)">
<stop stop-color="white"/>
<stop offset="1" stop-color="#7012CE"/>
</radialGradient>
</defs>
</svg>
