<svg width="178" height="220" viewBox="0 0 178 220" fill="none" xmlns="http://www.w3.org/2000/svg">
<path d="M156.384 68.0975C159.557 68.0975 162.129 65.5231 162.129 62.3474C162.129 59.1717 159.557 56.5973 156.384 56.5973C153.211 56.5973 150.639 59.1717 150.639 62.3474C150.639 65.5231 153.211 68.0975 156.384 68.0975Z" fill="#E3DDFF"/>
<path d="M3.77957 99.1929C5.86697 99.1929 7.55915 97.4992 7.55915 95.41C7.55915 93.3207 5.86697 91.627 3.77957 91.627C1.69217 91.627 0 93.3207 0 95.41C0 97.4992 1.69217 99.1929 3.77957 99.1929Z" fill="#E3DDFF"/>
<path d="M21.1536 167.203C23.241 167.203 24.9332 165.51 24.9332 163.42C24.9332 161.331 23.241 159.637 21.1536 159.637C19.0662 159.637 17.374 161.331 17.374 163.42C17.374 165.51 19.0662 167.203 21.1536 167.203Z" fill="#E3DDFF"/>
<path d="M41.3567 167.203L94.3947 150.584V82.446L41.3567 98.9373V167.203Z" fill="#B7BFCD"/>
<path opacity="0.4" d="M147.433 167.203L94.3948 150.584V82.446L147.433 98.9373V167.203Z" fill="#6D7C9A"/>
<path d="M41.3567 167.203L94.3947 150.584V82.446L41.3567 98.9373V167.203Z" fill="url(#paint0_linear_4782_2405)"/>
<path d="M147.433 167.203L94.3948 150.584V82.446L147.433 98.9373V167.203Z" fill="url(#paint1_linear_4782_2405)"/>
<path d="M94.3947 183.95L41.3567 167.331V99.1929L94.3947 115.812V183.95Z" fill="#C9BDFA"/>
<path d="M94.3948 183.95L147.433 167.331V99.1929L94.3948 115.812V183.95Z" fill="#C1B5FF"/>
<path opacity="0.09" d="M82.3778 171.933L41.3567 167.331V99.1929L94.3947 115.812L82.3778 171.933Z" fill="url(#paint2_linear_4782_2405)"/>
<path opacity="0.2" d="M106.412 159.917L147.433 167.331V99.1929L94.3948 115.812L106.412 159.917Z" fill="url(#paint3_linear_4782_2405)"/>
<path d="M94.3947 82.446L69.458 63.7815L15.5339 81.9347L41.3567 98.9373L94.3947 82.446Z" fill="#E3DDFF"/>
<path d="M94.3948 82.446L119.331 63.7815L173.256 81.9347L147.433 98.9373L94.3948 82.446Z" fill="#E3DDFF"/>
<path d="M41.3567 99.1929L94.3947 115.812L67.939 132.687L15.5339 115.301L41.3567 99.1929Z" fill="#E3DDFF"/>
<path d="M147.433 99.1929L94.3948 115.812L120.85 132.687L173.256 115.301L147.433 99.1929Z" fill="#E3DDFF"/>
<path d="M109.193 17.031C116.623 37.196 118.838 41.6765 119.565 61.5463C119.285 66.0819 119.112 71.0139 116.973 74.9852C114.118 81.0605 107.133 85.2678 100.534 85.336C93.7352 85.4575 87.0702 81.2949 84.0702 74.8763C81.9596 70.9808 82.0267 65.6524 84.9219 62.1156C88.0693 58.7237 93.6064 57.8779 97.5895 59.9973C101.971 62.0101 104.586 66.1952 105.555 70.6089C106.524 75.0226 106.098 79.8098 104.916 84.1624C102.443 94.7484 100.395 95.2606 94.3301 113.183" stroke="#9B84F5" stroke-width="2" stroke-miterlimit="10" stroke-dasharray="4 4"/>
<path d="M118.236 6.35765C118.219 9.32278 115.459 11.1384 111.96 10.1916C108.276 9.56355 105.668 8.91626 105.5 6.26984C105.585 3.55584 108.546 2.49362 112.012 1.29622C116.168 -0.355083 118.001 3.46011 118.236 6.35765Z" fill="#E3DDFF"/>
<path d="M94.4288 15.4249C96.296 17.3471 100.233 17.9075 102.151 14.9715C104.255 11.7168 106.055 9.3506 104.121 7.17732C102.253 5.25517 100.436 6.54927 96.2805 8.20057C92.9491 9.90022 92.2421 13.3192 94.4288 15.4249Z" fill="#E3DDFF"/>
<path d="M103.045 3.15971C104.744 2.43544 106.779 2.96679 107.688 4.33835C108.075 4.77301 108.529 5.45879 108.663 5.96103C110.11 9.34157 109.655 12.693 107.703 13.4849C105.566 14.5954 102.623 12.6925 101.496 9.49551C101.227 8.49102 101.092 7.98877 100.891 7.2354C100.672 5.40995 101.345 3.88397 103.045 3.15971C103.045 3.15971 103.297 3.09212 103.045 3.15971Z" fill="#6F4EF2"/>
<path d="M24.933 57.5781H21.6434V54.2884H18.8236V57.5781H15.5339V60.4918H18.8236V63.7815H21.6434V60.4918H24.933V57.5781Z" fill="#BEB3FC"/>
<path d="M32.1591 140.115H28.8694V136.825H26.0497V140.115H22.76V143.028H26.0497V146.318H28.8694V143.028H32.1591V140.115Z" fill="#BEB3FD"/>
<path d="M175.968 140.301L171.943 138.269L173.975 134.244L170.525 132.502L168.493 136.527L164.468 134.495L162.668 138.06L166.693 140.092L164.661 144.117L168.111 145.859L170.143 141.834L174.168 143.866L175.968 140.301Z" fill="#E3DDFF"/>
<path d="M120.383 198.38C119.852 200.637 119.056 203.026 118.127 205.017C115.605 209.928 111.623 213.777 106.712 216.299C101.669 218.82 95.696 219.882 89.723 218.555C75.6541 215.635 66.6286 201.831 69.5487 187.762C72.4687 173.693 86.14 164.535 100.209 167.588C105.252 168.649 109.632 171.171 113.349 174.622C119.587 180.86 122.242 189.886 120.383 198.38Z" fill="url(#paint4_linear_4782_2405)"/>
<path d="M102.715 191.229H96.742V185.256C96.742 184.062 95.813 183 94.485 183C93.291 183 92.229 183.929 92.229 185.256V191.229H86.256C85.062 191.229 84 192.158 84 193.485C84 194.813 84.929 195.742 86.256 195.742H92.229V201.715C92.229 202.909 93.158 203.971 94.485 203.971C95.68 203.971 96.742 203.042 96.742 201.715V195.742H102.715C103.909 195.742 104.971 194.813 104.971 193.485C104.971 192.158 103.909 191.229 102.715 191.229Z" fill="white"/>
<defs>
<linearGradient id="paint0_linear_4782_2405" x1="144.954" y1="220.059" x2="54.8938" y2="63.1352" gradientUnits="userSpaceOnUse">
<stop stop-color="#F1EEFE"/>
<stop offset="1" stop-color="#6F4EF2"/>
</linearGradient>
<linearGradient id="paint1_linear_4782_2405" x1="144.954" y1="220.059" x2="54.8939" y2="63.1352" gradientUnits="userSpaceOnUse">
<stop stop-color="#F1EEFE"/>
<stop offset="1" stop-color="#6F4EF2"/>
</linearGradient>
<linearGradient id="paint2_linear_4782_2405" x1="53.2475" y1="145.826" x2="65.9893" y2="109.839" gradientUnits="userSpaceOnUse">
<stop offset="0.00289017" stop-color="#6C80AA" stop-opacity="0"/>
<stop offset="1" stop-color="#5D6A86"/>
</linearGradient>
<linearGradient id="paint3_linear_4782_2405" x1="123.019" y1="155.657" x2="124.021" y2="109.989" gradientUnits="userSpaceOnUse">
<stop offset="0.00289017" stop-color="#314F91" stop-opacity="0"/>
<stop offset="1" stop-color="#324264"/>
</linearGradient>
<linearGradient id="paint4_linear_4782_2405" x1="-35.6641" y1="179.783" x2="143.375" y2="202.724" gradientUnits="userSpaceOnUse">
<stop stop-color="#F1EEFE"/>
<stop offset="1" stop-color="#6F4EF2"/>
</linearGradient>
</defs>
</svg>
