<svg width="40" height="40" viewBox="0 0 40 40" fill="none" xmlns="http://www.w3.org/2000/svg">
<rect width="40" height="40" rx="10" fill="#F4F4F4"/>
<path d="M18.2047 13.4499C17.9976 13.4499 17.7991 13.3677 17.6527 13.2213C17.5063 13.075 17.424 12.8765 17.4239 12.6694V10.7959C17.4219 10.6921 17.4406 10.5889 17.4789 10.4925C17.5173 10.396 17.5744 10.3082 17.6471 10.234C17.7198 10.1599 17.8065 10.1011 17.9023 10.0609C17.998 10.0207 18.1007 10 18.2045 10C18.3083 10 18.4111 10.0207 18.5068 10.0609C18.6025 10.1011 18.6892 10.1599 18.7619 10.234C18.8346 10.3082 18.8918 10.396 18.9301 10.4925C18.9684 10.5889 18.9871 10.6921 18.9851 10.7959V12.6694C18.985 12.8764 18.9028 13.0749 18.7565 13.2212C18.6101 13.3676 18.4116 13.4498 18.2047 13.4499Z" fill="url(#paint0_linear_3114_353)"/>
<path d="M18.2196 30C17.5987 29.9993 17.0034 29.7523 16.5643 29.3133C16.1253 28.8742 15.8783 28.2789 15.8776 27.658C15.8776 27.451 15.9599 27.2524 16.1063 27.1059C16.2527 26.9595 16.4513 26.8773 16.6584 26.8773C16.8654 26.8773 17.064 26.9595 17.2105 27.1059C17.3569 27.2524 17.4391 27.451 17.4391 27.658C17.4431 27.8624 17.5271 28.0571 17.673 28.2003C17.819 28.3435 18.0153 28.4237 18.2197 28.4237C18.4242 28.4237 18.6205 28.3435 18.7664 28.2003C18.9124 28.0571 18.9964 27.8624 19.0003 27.658C18.9983 27.5542 19.017 27.4511 19.0554 27.3546C19.0937 27.2582 19.1509 27.1703 19.2236 27.0962C19.2962 27.0221 19.383 26.9632 19.4787 26.923C19.5744 26.8829 19.6772 26.8622 19.781 26.8622C19.8848 26.8622 19.9875 26.8829 20.0832 26.923C20.1789 26.9632 20.2657 27.0221 20.3383 27.0962C20.411 27.1703 20.4682 27.2582 20.5065 27.3546C20.5449 27.4511 20.5636 27.5542 20.5616 27.658C20.5609 28.2789 20.3139 28.8742 19.8748 29.3133C19.4358 29.7523 18.8405 29.9993 18.2196 30Z" fill="url(#paint1_linear_3114_353)"/>
<path d="M24.1372 27.658H12.2871C11.9429 27.6581 11.6028 27.5822 11.2912 27.4359C10.9796 27.2895 10.7041 27.0763 10.4843 26.8113C10.2645 26.5463 10.1059 26.2362 10.0196 25.9029C9.93334 25.5696 9.92161 25.2214 9.98526 24.8831C10.2552 23.4428 10.7888 22.5092 11.2599 21.6854C11.7379 20.8494 12.1156 20.1889 12.1156 19.1488V17.9778C12.1195 16.3783 12.7511 14.8442 13.8744 13.7055C14.9977 12.5667 16.5231 11.9144 18.1224 11.8887H18.2764C18.3802 11.8867 18.4833 11.9054 18.5798 11.9437C18.6763 11.982 18.7641 12.0392 18.8382 12.1119C18.9123 12.1846 18.9712 12.2713 19.0114 12.367C19.0516 12.4627 19.0723 12.5655 19.0723 12.6693C19.0723 12.7731 19.0516 12.8759 19.0114 12.9716C18.9712 13.0673 18.9123 13.154 18.8382 13.2267C18.7641 13.2994 18.6763 13.3566 18.5798 13.3949C18.4833 13.4332 18.3802 13.4519 18.2764 13.4499H18.1382C15.6777 13.4862 13.6768 15.5161 13.6768 17.9778V19.1488C13.6768 20.6037 13.1373 21.5476 12.6153 22.4603C12.1855 23.2118 11.7414 23.9891 11.5198 25.1706C11.4986 25.2834 11.5025 25.3995 11.5312 25.5107C11.5599 25.6219 11.6128 25.7253 11.686 25.8137C11.7593 25.9021 11.8511 25.9733 11.955 26.0222C12.0589 26.0711 12.1723 26.0965 12.2871 26.0965H24.1372C24.252 26.0965 24.3654 26.0711 24.4693 26.0222C24.5732 25.9733 24.665 25.9021 24.7383 25.8137C24.8115 25.7253 24.8644 25.6219 24.8931 25.5107C24.9218 25.3995 24.9257 25.2834 24.9045 25.1706C24.8856 25.0697 24.8868 24.9661 24.9079 24.8657C24.9291 24.7653 24.9698 24.6701 25.0278 24.5854C25.1449 24.4144 25.3251 24.2969 25.5287 24.2588C25.7324 24.2207 25.9429 24.2651 26.1139 24.3821C26.2849 24.4992 26.4024 24.6794 26.4405 24.8831C26.5041 25.2214 26.4924 25.5696 26.4062 25.9029C26.3199 26.2362 26.1612 26.5463 25.9414 26.8113C25.7216 27.0763 25.4461 27.2895 25.1345 27.4359C24.8229 27.5822 24.4829 27.6581 24.1386 27.658H24.1372Z" fill="url(#paint2_linear_3114_353)"/>
<path d="M24.2042 22.3497C24.0634 22.3497 23.9252 22.3116 23.8042 22.2394C23.6833 22.1673 23.5841 22.0638 23.5172 21.9398C23.1322 21.2285 22.771 20.4202 22.7352 19.3297C22.7299 19.1236 22.8063 18.9238 22.9477 18.7739C23.0891 18.6239 23.2841 18.5359 23.4901 18.5292C23.6961 18.5224 23.8965 18.5974 24.0474 18.7378C24.1984 18.8781 24.2877 19.0725 24.2959 19.2785C24.3196 20.0051 24.5409 20.551 24.8901 21.1965C24.9545 21.3154 24.9868 21.4489 24.984 21.5841C24.9813 21.7192 24.9435 21.8513 24.8743 21.9674C24.8052 22.0835 24.7071 22.1797 24.5897 22.2466C24.4722 22.3134 24.3394 22.3487 24.2042 22.3488V22.3497Z" fill="url(#paint3_linear_3114_353)"/>
<path d="M20.7777 14.1136C20.6449 14.1138 20.5143 14.0798 20.3986 14.0149C19.7517 13.6556 19.026 13.4617 18.2861 13.4505H18.1479C18.0441 13.4525 17.941 13.4338 17.8445 13.3955C17.7481 13.3571 17.6602 13.3 17.5861 13.2273C17.512 13.1546 17.4531 13.0679 17.4129 12.9722C17.3727 12.8764 17.3521 12.7737 17.3521 12.6699C17.3521 12.5661 17.3727 12.4633 17.4129 12.3676C17.4531 12.2719 17.512 12.1852 17.5861 12.1125C17.6602 12.0398 17.7481 11.9826 17.8445 11.9443C17.941 11.906 18.0441 11.8873 18.1479 11.8893H18.3022C19.3026 11.9031 20.2839 12.1646 21.1585 12.6504C21.3103 12.7342 21.4299 12.8662 21.4984 13.0254C21.5668 13.1847 21.5803 13.3623 21.5367 13.5301C21.4931 13.6979 21.3948 13.8464 21.2574 13.9521C21.12 14.0579 20.9513 14.1149 20.778 14.1141L20.7777 14.1136Z" fill="url(#paint4_linear_3114_353)"/>
<path d="M24.84 20.1637C22.0423 20.1637 19.7659 17.8873 19.7659 15.0893C19.7659 12.2912 22.0423 10.0151 24.84 10.0151C27.6378 10.0151 29.9145 12.2915 29.9145 15.0893C29.9145 17.887 27.6381 20.1637 24.84 20.1637ZM24.84 11.5763C24.1452 11.5763 23.466 11.7824 22.8883 12.1684C22.3106 12.5544 21.8604 13.103 21.5945 13.7449C21.3286 14.3868 21.259 15.0932 21.3946 15.7746C21.5301 16.4561 21.8647 17.082 22.356 17.5733C22.8473 18.0646 23.4732 18.3992 24.1547 18.5347C24.8361 18.6703 25.5425 18.6007 26.1844 18.3348C26.8263 18.0689 27.3749 17.6187 27.7609 17.041C28.147 16.4633 28.353 15.7841 28.353 15.0893C28.3518 14.1579 27.9813 13.2651 27.3228 12.6065C26.6642 11.948 25.7714 11.5775 24.84 11.5763Z" fill="url(#paint5_linear_3114_353)"/>
<path d="M24.9571 17.197C24.7502 17.197 24.5517 17.1147 24.4054 16.9684C24.259 16.822 24.1768 16.6236 24.1767 16.4166V15.1768C24.0018 15.222 23.8167 15.2052 23.6529 15.1293C23.4891 15.0533 23.3566 14.9229 23.2781 14.7603C23.1996 14.5977 23.1799 14.4129 23.2224 14.2374C23.2648 14.0618 23.3668 13.9065 23.511 13.7977L24.487 13.0611C24.6028 12.9736 24.7408 12.9202 24.8854 12.9067C25.0299 12.8933 25.1754 12.9205 25.3053 12.9853C25.4353 13.05 25.5446 13.1497 25.6211 13.2731C25.6975 13.3966 25.7379 13.5389 25.7379 13.6841V16.4166C25.7378 16.6236 25.6555 16.8221 25.5091 16.9685C25.3627 17.1148 25.1642 17.197 24.9571 17.197Z" fill="url(#paint6_linear_3114_353)"/>
<defs>
<linearGradient id="paint0_linear_3114_353" x1="17.4268" y1="11.7445" x2="18.9953" y2="11.7445" gradientUnits="userSpaceOnUse">
<stop stop-color="#8A2BE2"/>
<stop offset="0.23" stop-color="#8427E1"/>
<stop offset="0.52" stop-color="#741CDD"/>
<stop offset="0.86" stop-color="#5909D7"/>
<stop offset="1" stop-color="#4B00D4"/>
</linearGradient>
<linearGradient id="paint1_linear_3114_353" x1="15.8868" y1="28.4488" x2="20.5918" y2="28.4488" gradientUnits="userSpaceOnUse">
<stop stop-color="#8A2BE2"/>
<stop offset="0.23" stop-color="#8427E1"/>
<stop offset="0.52" stop-color="#741CDD"/>
<stop offset="0.86" stop-color="#5909D7"/>
<stop offset="1" stop-color="#4B00D4"/>
</linearGradient>
<linearGradient id="paint2_linear_3114_353" x1="9.97724" y1="19.8625" x2="26.587" y2="19.8625" gradientUnits="userSpaceOnUse">
<stop stop-color="#8A2BE2"/>
<stop offset="0.23" stop-color="#8427E1"/>
<stop offset="0.52" stop-color="#741CDD"/>
<stop offset="0.86" stop-color="#5909D7"/>
<stop offset="1" stop-color="#4B00D4"/>
</linearGradient>
<linearGradient id="paint3_linear_3114_353" x1="22.7394" y1="20.4608" x2="24.9986" y2="20.4608" gradientUnits="userSpaceOnUse">
<stop stop-color="#8A2BE2"/>
<stop offset="0.23" stop-color="#8427E1"/>
<stop offset="0.52" stop-color="#741CDD"/>
<stop offset="0.86" stop-color="#5909D7"/>
<stop offset="1" stop-color="#4B00D4"/>
</linearGradient>
<linearGradient id="paint4_linear_3114_353" x1="17.3603" y1="13.0142" x2="21.5888" y2="13.0142" gradientUnits="userSpaceOnUse">
<stop stop-color="#8A2BE2"/>
<stop offset="0.23" stop-color="#8427E1"/>
<stop offset="0.52" stop-color="#741CDD"/>
<stop offset="0.86" stop-color="#5909D7"/>
<stop offset="1" stop-color="#4B00D4"/>
</linearGradient>
<linearGradient id="paint5_linear_3114_353" x1="19.7857" y1="15.1468" x2="29.9796" y2="15.1468" gradientUnits="userSpaceOnUse">
<stop stop-color="#8A2BE2"/>
<stop offset="0.23" stop-color="#8427E1"/>
<stop offset="0.52" stop-color="#741CDD"/>
<stop offset="0.86" stop-color="#5909D7"/>
<stop offset="1" stop-color="#4B00D4"/>
</linearGradient>
<linearGradient id="paint6_linear_3114_353" x1="23.2055" y1="15.0745" x2="25.7542" y2="15.0745" gradientUnits="userSpaceOnUse">
<stop stop-color="#8A2BE2"/>
<stop offset="0.23" stop-color="#8427E1"/>
<stop offset="0.52" stop-color="#741CDD"/>
<stop offset="0.86" stop-color="#5909D7"/>
<stop offset="1" stop-color="#4B00D4"/>
</linearGradient>
</defs>
</svg>
