<svg width="27" height="30" viewBox="0 0 27 30" fill="none" xmlns="http://www.w3.org/2000/svg">
<path d="M13.5469 0C13.9531 0.171875 14.3984 0.296875 14.7656 0.539062C15.4609 1.00781 15.7969 1.71875 15.8281 2.5625C15.8437 3 15.8281 3.4375 15.8281 3.88281C16.2187 4.03906 16.6015 4.16406 16.9687 4.34375C20.3515 6.03906 22.1406 8.77343 22.2734 12.5625C22.3203 13.8672 22.2578 15.1797 22.3359 16.4844C22.5 19.0937 23.3984 21.4453 24.9297 23.5547C25.2734 24.0234 25.664 24.4687 26.0547 24.9062C26.3359 25.2265 26.4765 25.5625 26.289 25.9765C26.1094 26.3672 25.7656 26.4922 25.3515 26.4922C22.8515 26.4844 20.3515 26.4922 17.8515 26.4922C17.7422 26.4922 17.6406 26.4922 17.5078 26.4922C17.4609 26.6484 17.4297 26.7969 17.375 26.9375C16.7656 28.6406 15.5859 29.6562 13.7969 29.9609C13.75 29.9687 13.7031 29.9922 13.664 30.0078C13.3515 30.0078 13.039 30.0078 12.7265 30.0078C12.25 29.8672 11.75 29.7812 11.3125 29.5703C10.1094 29 9.32811 28.0547 8.96092 26.7734C8.93748 26.6953 8.92186 26.625 8.89842 26.5469C8.89842 26.539 8.89061 26.5312 8.85936 26.4922C8.76561 26.4922 8.65623 26.4922 8.53904 26.4922C6.02342 26.4922 3.49998 26.4922 0.984357 26.4922C0.234357 26.4922 -0.210955 25.8047 0.132795 25.1953C0.187482 25.0937 0.265607 25 0.343732 24.9219C2.15623 22.9844 3.35154 20.7265 3.83592 18.1172C4.00779 17.1953 4.06248 16.2422 4.10936 15.2969C4.16404 14.1016 4.06248 12.8906 4.18748 11.6953C4.52342 8.49218 6.17186 6.125 8.98436 4.57812C9.47654 4.30468 10.0156 4.11718 10.5625 3.875C10.5625 3.53906 10.5625 3.15625 10.5625 2.78125C10.5625 1.36719 11.3594 0.375 12.7422 0.0625C12.7812 0.0546875 12.8125 0.03125 12.8515 0.015625C13.0781 0 13.3125 0 13.5469 0ZM23.5937 24.7187C23.5 24.5781 23.4375 24.4844 23.3672 24.3906C21.7109 22.0234 20.75 19.4062 20.5781 16.5234C20.5 15.2969 20.5469 14.0625 20.5156 12.8359C20.5 12.3203 20.4765 11.7969 20.3984 11.2891C19.789 7.46874 15.914 4.69531 12.1015 5.34375C8.40623 5.97656 5.87498 8.96874 5.87498 12.7187C5.87498 13.6094 5.88279 14.4922 5.87498 15.3828C5.85154 18.7109 4.89842 21.7422 2.96873 24.4609C2.91404 24.5312 2.86717 24.6094 2.80467 24.7109C9.74998 24.7187 16.6406 24.7187 23.5937 24.7187ZM15.6406 26.5C14 26.5 12.375 26.5 10.7422 26.5C11.0078 27.4844 12.0937 28.2422 13.2031 28.2422C14.3125 28.2344 15.3828 27.4765 15.6406 26.5ZM12.3281 3.53125C12.9219 3.53125 13.4844 3.53125 14.0703 3.53125C14.0703 3.19531 14.0859 2.875 14.0625 2.55469C14.0312 2.10937 13.6484 1.75781 13.2109 1.75C12.7812 1.74219 12.3828 2.05469 12.3359 2.49219C12.2969 2.84375 12.3281 3.19531 12.3281 3.53125Z" fill="url(#paint0_linear_83_5510)"/>
<path d="M0.0156521 12.1719C0.148465 8.78911 1.40628 5.81255 3.82815 3.32817C4.20315 2.94536 4.75784 2.92192 5.1094 3.27348C5.46097 3.61723 5.46097 4.16411 5.07815 4.55473C3.80472 5.85161 2.87503 7.35161 2.32034 9.08599C1.95315 10.2188 1.78128 11.3829 1.76565 12.5704C1.76565 12.961 1.58597 13.2501 1.2344 13.4063C0.91409 13.5547 0.578152 13.5157 0.335965 13.2657C0.179715 13.1016 0.0937772 12.8594 0.0156521 12.6407C-0.0234104 12.5235 0.0156521 12.3829 0.0156521 12.1719Z" fill="url(#paint1_linear_83_5510)"/>
<path d="M26.3594 12.2734C26.3594 12.4375 26.3829 12.6094 26.3516 12.7656C26.2657 13.2109 25.8516 13.5156 25.4141 13.4688C24.961 13.4219 24.625 13.0547 24.6172 12.5703C24.6016 11.5234 24.4766 10.4922 24.1875 9.47657C23.6641 7.63282 22.7266 6.02345 21.3985 4.63282C21.25 4.47657 21.1094 4.28126 21.0469 4.07813C20.9297 3.68751 21.1328 3.29688 21.4766 3.1172C21.8282 2.9297 22.2422 3.00001 22.5469 3.31251C23.4453 4.21876 24.2032 5.23438 24.8047 6.35938C25.8047 8.20313 26.3125 10.1797 26.3594 12.2734Z" fill="url(#paint2_linear_83_5510)"/>
<defs>
<linearGradient id="paint0_linear_83_5510" x1="0.0664634" y1="15.1737" x2="26.5436" y2="15.1737" gradientUnits="userSpaceOnUse">
<stop stop-color="#8A2BE2"/>
<stop offset="0.23" stop-color="#8427E1"/>
<stop offset="0.52" stop-color="#741CDD"/>
<stop offset="0.86" stop-color="#5909D7"/>
<stop offset="1" stop-color="#4B00D4"/>
</linearGradient>
<linearGradient id="paint1_linear_83_5510" x1="0.00879906" y1="8.31808" x2="5.40377" y2="8.31808" gradientUnits="userSpaceOnUse">
<stop stop-color="#8A2BE2"/>
<stop offset="0.23" stop-color="#8427E1"/>
<stop offset="0.52" stop-color="#741CDD"/>
<stop offset="0.86" stop-color="#5909D7"/>
<stop offset="1" stop-color="#4B00D4"/>
</linearGradient>
<linearGradient id="paint2_linear_83_5510" x1="21.024" y1="8.30302" x2="26.4022" y2="8.30302" gradientUnits="userSpaceOnUse">
<stop stop-color="#8A2BE2"/>
<stop offset="0.23" stop-color="#8427E1"/>
<stop offset="0.52" stop-color="#741CDD"/>
<stop offset="0.86" stop-color="#5909D7"/>
<stop offset="1" stop-color="#4B00D4"/>
</linearGradient>
</defs>
</svg>
