<svg width="31" height="31" viewBox="0 0 31 31" fill="none" xmlns="http://www.w3.org/2000/svg">
<path fill-rule="evenodd" clip-rule="evenodd" d="M3.11049 18.8373C1.61649 20.096 0.666992 21.9815 0.666992 24.0869C0.666992 27.8743 3.73974 30.9495 7.52424 30.9495C9.62799 30.9495 11.512 29.9992 12.7705 28.5048H25.0315C26.5262 28.5048 27.9595 27.9104 29.017 26.8528C30.0737 25.7952 30.667 24.3608 30.667 22.8649V6.56593C30.667 5.07076 30.0737 3.63564 29.017 2.57806C27.9595 1.52049 26.5262 0.926025 25.0315 0.926025H8.74599C7.25124 0.926025 5.81799 1.52049 4.76124 2.57806C3.70374 3.63564 3.11049 5.07076 3.11049 6.56593V18.8373ZM7.52424 18.7254C10.4815 18.7254 12.8815 21.1281 12.8815 24.0869C12.8815 27.0464 10.4815 29.4483 7.52424 29.4483C4.56774 29.4483 2.16699 27.0464 2.16699 24.0869C2.16699 21.1281 4.56774 18.7254 7.52424 18.7254ZM7.52424 23.0255L6.18324 21.6835C5.89074 21.3908 5.41524 21.3908 5.12274 21.6835C4.83024 21.9762 4.83024 22.4521 5.12274 22.7448L6.46374 24.0869L5.12274 25.4289C4.83024 25.7224 4.83024 26.1975 5.12274 26.4902C5.41524 26.7837 5.89074 26.7837 6.18324 26.4902L7.52424 25.1489L8.86524 26.4902C9.15849 26.7837 9.63324 26.7837 9.92649 26.4902C10.219 26.1975 10.219 25.7224 9.92649 25.4289L8.58549 24.0869L9.92649 22.7448C10.219 22.4521 10.219 21.9762 9.92649 21.6835C9.63324 21.3908 9.15849 21.3908 8.86524 21.6835L7.52424 23.0255ZM19.546 24.0441H26.146C26.56 24.0441 26.896 23.7078 26.896 23.2935C26.896 22.8792 26.56 22.5429 26.146 22.5429H19.546C19.132 22.5429 18.796 22.8792 18.796 23.2935C18.796 23.7078 19.132 24.0441 19.546 24.0441ZM19.546 20.0983H26.146C26.56 20.0983 26.896 19.762 26.896 19.3477C26.896 18.9333 26.56 18.5971 26.146 18.5971H19.546C19.132 18.5971 18.796 18.9333 18.796 19.3477C18.796 19.762 19.132 20.0983 19.546 20.0983ZM12.8387 2.4272H20.9387V9.1577C20.9387 9.33034 20.8472 9.48946 20.698 9.57578C20.5495 9.6621 20.3657 9.66285 20.2157 9.57728L17.2607 7.88771C17.0305 7.75561 16.747 7.75561 16.5167 7.88771L13.5617 9.57728C13.4117 9.66285 13.228 9.6621 13.0795 9.57578C12.9302 9.48946 12.8387 9.33034 12.8387 9.1577V2.4272Z" fill="white"/>
</svg>
