<svg width="357" height="350" viewBox="0 0 357 350" fill="none" xmlns="http://www.w3.org/2000/svg">
<path d="M356.573 235.498H219.781V156.34H356.573V235.498ZM220.616 234.664H355.738V157.174H220.616V234.664Z" fill="#E0E0E0"/>
<path d="M328.353 198.547H238.102V201.193H328.353V198.547Z" fill="#F0F0F0"/>
<path d="M334.571 208.418H238.102V211.306H334.571V208.418Z" fill="#F0F0F0"/>
<path d="M334.571 218.398H238.102V221.286H334.571V218.398Z" fill="#F0F0F0"/>
<path d="M269.643 184.219H238.102V191.088H269.643V184.219Z" fill="#F0F0F0"/>
<path d="M356.154 156.75H220.222V169.353H356.154V156.75Z" fill="#E0E0E0"/>
<path d="M345.696 167.473C345.52 167.307 347.273 165.195 349.602 162.758C351.931 160.321 353.975 158.476 354.142 158.635C354.309 158.793 352.565 160.913 350.236 163.359C347.908 165.804 345.863 167.64 345.696 167.473Z" fill="white"/>
<path d="M354.16 167.475C353.993 167.641 351.956 165.805 349.619 163.36C347.282 160.914 345.538 158.802 345.713 158.636C345.888 158.469 347.916 160.305 350.253 162.759C352.59 165.213 354.318 167.308 354.16 167.475Z" fill="white"/>
<path d="M188.248 0H52.3159V78.3323H188.248V0Z" fill="#E6E6E6"/>
<path d="M160.453 41.793H70.2021V44.4388H160.453V41.793Z" fill="#F0F0F0"/>
<path d="M166.671 51.6641H70.2021V54.552H166.671V51.6641Z" fill="#F0F0F0"/>
<path d="M166.671 61.6445H70.2021V64.5324H166.671V61.6445Z" fill="#F0F0F0"/>
<path d="M101.744 27.4648H70.2021V34.334H101.744V27.4648Z" fill="#F0F0F0"/>
<path d="M188.248 0H52.3159V12.6033H188.248V0Z" fill="#E0E0E0"/>
<path d="M177.331 10.6575C177.156 10.499 178.909 8.37893 181.238 5.94174C183.566 3.50455 185.611 1.65997 185.778 1.8269C185.945 1.99383 184.201 4.1055 181.872 6.54269C179.543 8.97988 177.498 10.8078 177.331 10.6575Z" fill="white"/>
<path d="M185.778 10.6576C185.611 10.8245 183.575 8.98827 181.238 6.54273C178.901 4.0972 177.156 1.99387 177.331 1.82694C177.507 1.66001 179.535 3.49625 181.872 5.94178C184.209 8.38732 185.953 10.499 185.778 10.6576Z" fill="white"/>
<path d="M136.766 145.518H0V66.3516H136.766V145.518ZM0.834654 144.684H135.932V67.1862H0.834654V144.684Z" fill="#E0E0E0"/>
<path d="M108.554 108.566H18.3032V111.212H108.554V108.566Z" fill="#F0F0F0"/>
<path d="M114.772 118.426H18.3032V121.314H114.772V118.426Z" fill="#F0F0F0"/>
<path d="M114.772 128.406H18.3032V131.294H114.772V128.406Z" fill="#F0F0F0"/>
<path d="M49.8448 94.2266H18.3032V101.096H49.8448V94.2266Z" fill="#F0F0F0"/>
<path d="M136.349 66.7617H0.416992V79.365H136.349V66.7617Z" fill="#E0E0E0"/>
<path d="M294.609 163.656H134.105V307.35H294.609V163.656Z" fill="#E6E6E6"/>
<path d="M142.177 118.383H16.4443V249.014H142.177V118.383Z" fill="#F0F0F0"/>
<path d="M142.177 118.383H16.4443V132.614H142.177V118.383Z" fill="#E0E0E0"/>
<path d="M26.8261 125.348C26.8032 125.864 26.6293 126.362 26.326 126.78C26.0226 127.198 25.6031 127.518 25.1196 127.7C24.6361 127.882 24.1099 127.918 23.6062 127.803C23.1025 127.688 22.6435 127.429 22.2863 127.055C21.929 126.682 21.6891 126.213 21.5965 125.704C21.5038 125.196 21.5624 124.672 21.7651 124.197C21.9677 123.722 22.3053 123.316 22.7362 123.031C23.167 122.746 23.6721 122.594 24.1886 122.594C24.903 122.611 25.5813 122.911 26.0755 123.427C26.5697 123.943 26.8396 124.634 26.8261 125.348Z" fill="white"/>
<path d="M37.5346 125.348C37.5133 125.867 37.34 126.367 37.0363 126.788C36.7326 127.209 36.3118 127.531 35.8264 127.715C35.341 127.898 34.8123 127.935 34.3062 127.82C33.8001 127.705 33.3389 127.444 32.98 127.07C32.6211 126.695 32.3803 126.223 32.2876 125.712C32.195 125.201 32.2545 124.675 32.4588 124.198C32.6632 123.721 33.0033 123.314 33.4368 123.029C33.8703 122.744 34.3782 122.593 34.8971 122.594C35.6114 122.611 36.2898 122.911 36.784 123.427C37.2782 123.943 37.548 124.634 37.5346 125.348Z" fill="white"/>
<path d="M48.2436 125.348C48.2223 125.867 48.049 126.367 47.7453 126.788C47.4416 127.209 47.0208 127.531 46.5354 127.715C46.0499 127.898 45.5213 127.935 45.0152 127.82C44.5091 127.705 44.0479 127.444 43.689 127.07C43.3301 126.695 43.0893 126.223 42.9966 125.712C42.904 125.201 42.9635 124.675 43.1678 124.198C43.3721 123.721 43.7122 123.314 44.1458 123.029C44.5793 122.744 45.0871 122.593 45.6061 122.594C46.3204 122.611 46.9988 122.911 47.493 123.427C47.9872 123.943 48.257 124.634 48.2436 125.348Z" fill="white"/>
<path d="M338.62 28.5742H178.116V188.544H338.62V28.5742Z" fill="#F0F0F0"/>
<path d="M338.62 28.5742H178.116V47.3122H338.62V28.5742Z" fill="#E0E0E0"/>
<path d="M191.786 37.7557C191.757 38.4369 191.528 39.0945 191.128 39.6468C190.728 40.199 190.175 40.6217 189.537 40.8622C188.899 41.1028 188.204 41.1506 187.539 40.9998C186.874 40.8491 186.268 40.5063 185.797 40.0141C185.325 39.5219 185.008 38.9019 184.885 38.2312C184.763 37.5604 184.84 36.8684 185.107 36.2412C185.374 35.6139 185.82 35.079 186.389 34.7027C186.957 34.3265 187.624 34.1256 188.306 34.125C189.248 34.1469 190.144 34.5412 190.796 35.2217C191.448 35.9021 191.804 36.8133 191.786 37.7557Z" fill="white"/>
<path d="M204.866 35.3015C205.329 35.8039 205.633 36.4315 205.742 37.1059C205.851 37.7803 205.758 38.4717 205.477 39.0941C205.195 39.7164 204.736 40.2421 204.158 40.6057C203.58 40.9693 202.907 41.1546 202.225 41.1387C201.542 41.1227 200.878 40.9062 200.318 40.5161C199.757 40.1259 199.324 39.5794 199.071 38.9446C198.819 38.3098 198.759 37.6148 198.899 36.9462C199.039 36.2776 199.372 35.665 199.858 35.1846C200.538 34.5373 201.447 34.1861 202.386 34.208C203.325 34.2299 204.217 34.6231 204.866 35.3015Z" fill="white"/>
<path d="M219.982 37.7557C219.952 38.4369 219.723 39.0945 219.324 39.6468C218.924 40.199 218.37 40.6217 217.732 40.8622C217.094 41.1028 216.4 41.1506 215.735 40.9998C215.07 40.8491 214.464 40.5063 213.992 40.0141C213.52 39.5219 213.203 38.9019 213.081 38.2312C212.958 37.5604 213.035 36.8684 213.302 36.2412C213.57 35.6139 214.015 35.079 214.584 34.7027C215.153 34.3265 215.819 34.1256 216.501 34.125C217.444 34.1469 218.339 34.5412 218.991 35.2217C219.643 35.9021 220 36.8133 219.982 37.7557Z" fill="white"/>
<path d="M247.474 247.597C234.579 238.591 231.657 221.873 232.167 206.84C232.25 204.337 231.975 201.682 233.168 199.487C234.362 197.292 237.149 195.781 239.395 196.833C241.256 197.709 242.066 199.879 243.109 201.674C244.501 204.064 246.541 206.012 248.993 207.291C250.587 208.126 252.566 208.627 254.143 207.759C256.313 206.565 256.563 203.585 256.547 201.081C256.547 196.424 256.519 191.772 256.463 187.126C256.313 184.631 256.567 182.128 257.215 179.714C257.991 177.344 259.718 175.149 262.081 174.481C264.443 173.813 267.389 175.19 267.923 177.628C268.015 178.66 268.04 179.697 267.998 180.733C268.065 181.776 268.549 182.919 269.526 183.236C270.502 183.554 271.52 182.827 272.272 182.093C274.842 179.589 276.595 176.326 278.223 173.104C279.85 169.882 281.444 166.568 283.782 163.822C286.119 161.076 289.349 158.898 292.963 158.689C296.577 158.481 300.341 160.701 301.242 164.206C302.144 167.712 300.099 171.293 297.904 174.139C294.591 178.364 290.687 182.088 286.311 185.198C285.456 185.664 284.775 186.393 284.366 187.276C283.823 188.946 285.401 190.615 287.045 191.141C288.906 191.758 290.926 191.566 292.888 191.8C294.849 192.034 296.936 192.885 297.679 194.721C298.697 197.275 296.56 199.946 294.465 201.699C290.258 205.205 285.482 207.963 280.343 209.854C278.507 210.521 276.578 211.114 275.093 212.399C273.607 213.685 272.722 215.93 273.615 217.691C274.509 219.452 276.804 220.011 278.732 219.652C280.66 219.294 282.371 218.259 284.207 217.566C287.638 216.272 292.061 216.506 294.223 219.469C294.893 220.489 295.317 221.652 295.462 222.864C295.606 224.076 295.468 225.305 295.058 226.455C294.222 228.743 292.937 230.84 291.277 232.623C285.81 239.154 278.707 244.117 270.694 247.004C262.74 249.758 255.37 250.51 247.466 247.613" fill="url(#paint0_linear_1_162)"/>
<path d="M297.57 160.754C297.57 160.754 297.495 160.837 297.328 160.988L296.586 161.647C295.935 162.231 294.975 163.083 293.764 164.209C290.333 167.395 287.147 170.836 284.233 174.501C282.371 176.813 280.443 179.433 278.39 182.28C276.337 185.126 274.217 188.197 272.114 191.461C269.871 194.902 267.818 198.463 265.962 202.128C264.994 204.039 264.143 206.034 263.266 208.07L260.679 214.289C257.268 222.121 254.298 230.138 251.781 238.302C249.754 244.981 248.357 251.836 247.608 258.776C247.123 263.459 247.044 268.176 247.374 272.873C247.508 274.542 247.633 275.819 247.75 276.687C247.8 277.105 247.833 277.438 247.867 277.681V278.023C247.831 277.914 247.806 277.802 247.792 277.689C247.75 277.447 247.7 277.121 247.633 276.704C247.483 275.869 247.324 274.551 247.174 272.881C246.771 268.176 246.799 263.443 247.258 258.742C247.96 251.773 249.327 244.886 251.339 238.176C253.834 229.99 256.797 221.953 260.211 214.105L262.866 207.912C263.742 205.884 264.602 203.872 265.578 201.952C267.447 198.277 269.517 194.707 271.78 191.26C273.916 187.922 276.07 184.9 278.098 182.079C280.126 179.258 282.088 176.621 283.941 174.317C286.884 170.662 290.113 167.245 293.598 164.101C294.833 162.991 295.818 162.156 296.485 161.597L297.262 160.971C297.357 160.888 297.46 160.815 297.57 160.754Z" fill="#263238"/>
<path d="M265.686 201.932C265.568 201.588 265.487 201.233 265.444 200.872C265.31 200.179 265.16 199.203 264.985 197.934C264.626 195.43 264.259 192 263.866 188.202C263.474 184.404 263.032 180.966 262.665 178.487C262.473 177.252 262.306 176.258 262.189 175.566C262.098 175.211 262.05 174.847 262.047 174.48C262.191 174.815 262.294 175.165 262.356 175.524C262.539 176.208 262.748 177.193 262.982 178.437C263.457 180.941 263.925 184.346 264.317 188.152C264.709 191.958 265.043 195.297 265.302 197.893C265.427 199.061 265.536 200.054 265.619 200.847C265.684 201.205 265.706 201.569 265.686 201.932Z" fill="#263238"/>
<path d="M297.804 195.932C297.398 196.02 296.985 196.07 296.569 196.082C295.734 196.157 294.549 196.257 293.08 196.424C290.142 196.741 286.102 197.325 281.67 198.16C277.238 198.995 273.257 199.938 270.394 200.664C268.967 201.031 267.815 201.365 267.056 201.59C266.65 201.735 266.23 201.835 265.804 201.891C266.189 201.697 266.592 201.538 267.006 201.415C267.79 201.14 268.925 200.756 270.344 200.347C273.19 199.512 277.172 198.519 281.62 197.668C285.389 196.947 289.191 196.418 293.013 196.082C294.491 195.957 295.684 195.906 296.519 195.89C296.948 195.861 297.378 195.875 297.804 195.932Z" fill="#263238"/>
<path d="M251.749 237.583C251.66 237.462 251.587 237.33 251.532 237.191L250.981 236.031C250.506 235.021 249.863 233.527 249.095 231.699C247.543 228.026 245.564 222.885 243.461 217.176C241.358 211.467 239.421 206.325 237.952 202.611C237.235 200.808 236.642 199.331 236.2 198.229L235.732 197.036C235.667 196.898 235.622 196.752 235.599 196.602C235.688 196.722 235.761 196.854 235.816 196.994L236.366 198.154C236.834 199.164 237.485 200.658 238.253 202.486C239.805 206.158 241.783 211.3 243.887 217.009C245.99 222.718 247.926 227.859 249.395 231.574C250.113 233.376 250.706 234.854 251.14 235.955C251.332 236.431 251.49 236.79 251.616 237.149C251.68 237.287 251.725 237.433 251.749 237.583Z" fill="#263238"/>
<path d="M294.381 223.84C294.247 223.917 294.104 223.975 293.955 224.015L292.72 224.432L288.154 225.91C284.298 227.162 278.973 228.948 273.13 230.918C267.288 232.887 261.938 234.64 258.057 235.809C256.12 236.401 254.543 236.852 253.449 237.153L252.189 237.478C252.042 237.525 251.891 237.555 251.738 237.57C251.872 237.493 252.015 237.434 252.164 237.395L253.399 236.977L257.965 235.5C261.821 234.248 267.146 232.462 272.989 230.492C278.831 228.522 284.173 226.769 288.054 225.601C289.999 225.008 291.568 224.558 292.67 224.257L293.93 223.932C294.077 223.885 294.228 223.854 294.381 223.84Z" fill="#263238"/>
<path d="M276.988 21.3893C274.632 22.231 272.046 20.9651 271.265 18.5883L270.845 17.3079C267.456 6.9498 256.656 1.44944 246.732 4.94664C236.808 8.44383 231.524 19.8035 234.913 30.1615L235.328 31.4244C236.123 33.8476 234.844 36.4636 232.442 37.3229C230.797 37.9611 229.461 39.2088 228.711 40.8068C227.962 42.4048 227.858 44.23 228.419 45.9031L240.38 82.4526C240.628 83.2808 241.04 84.0507 241.592 84.7165C242.144 85.3823 242.824 85.9304 243.591 86.3283C244.359 86.7261 245.199 86.9656 246.061 87.0325C246.923 87.0994 247.79 86.9923 248.61 86.7177L293.155 70.7841C294.822 70.147 296.177 68.8882 296.935 67.2724C297.694 65.6566 297.795 63.8098 297.22 62.1204L285.251 25.5709C284.996 24.745 284.578 23.9788 284.02 23.3182C283.463 22.6575 282.778 22.1159 282.007 21.7256C281.236 21.3354 280.394 21.1045 279.532 21.0467C278.669 20.9889 277.804 21.1054 276.988 21.3893ZM243.034 27.2319C242.12 24.5386 242.284 21.5963 243.492 19.0213C244.699 16.4463 246.856 14.4384 249.511 13.4184C250.822 12.9699 252.21 12.79 253.592 12.8895C254.974 12.9891 256.321 13.3659 257.554 13.9977C258.788 14.6294 259.881 15.5031 260.769 16.5665C261.657 17.63 262.322 18.8614 262.724 20.1874C263.746 23.3145 262.093 26.6872 258.995 27.7954L250.435 30.8583C247.387 31.9488 244.04 30.3088 243.034 27.2319ZM268.074 59.6665L271.129 68.998C271.185 69.1851 271.167 69.3866 271.078 69.5607C270.989 69.7348 270.837 69.868 270.653 69.9328L266.371 71.4602C266.201 71.5074 266.019 71.4869 265.863 71.4029C265.707 71.3189 265.59 71.1779 265.536 71.0095L264.05 66.5256C263.089 63.6263 260.197 61.8493 257.786 59.974C256.444 58.9298 255.452 57.5004 254.945 55.8772C254.219 53.7313 254.351 51.3877 255.314 49.3372C256.277 47.2866 257.996 45.6882 260.111 44.8765C261.155 44.5197 262.261 44.3768 263.361 44.4563C264.462 44.5358 265.535 44.836 266.518 45.3392C267.5 45.8423 268.371 46.5381 269.078 47.3849C269.786 48.2318 270.316 49.2124 270.636 50.2683C271.173 51.9172 271.218 53.687 270.764 55.3607C270.313 57.026 269.388 58.5243 268.102 59.674C268.092 59.6823 268.078 59.6784 268.074 59.6665Z" fill="url(#paint1_linear_1_162)"/>
<path d="M272.498 22.8194C272.498 22.9362 264.527 25.9326 254.612 29.4966C244.696 33.0606 236.608 35.9234 236.567 35.84C236.525 35.7565 244.538 32.7351 254.462 29.1627C264.386 25.5904 272.457 22.7109 272.498 22.8194Z" fill="#263238"/>
<path d="M281.961 24.3594C281.998 24.4318 282.028 24.5072 282.053 24.5847C282.119 24.7517 282.194 24.9687 282.295 25.2358C282.512 25.8451 282.812 26.6881 283.188 27.7397L286.393 37.0712C287.728 41.0274 289.322 45.7182 291.092 50.9264C291.927 53.5389 292.911 56.2598 293.83 59.1227C294.321 60.598 294.533 62.1519 294.456 63.7049C294.385 64.5126 294.155 65.2984 293.779 66.0169C293.378 66.7331 292.843 67.3651 292.202 67.8782C290.912 68.8195 289.481 69.5493 287.962 70.04L283.663 71.5841L275.526 74.497L261.745 79.4048L252.439 82.6766L249.935 83.5113L249.267 83.7283C249.196 83.76 249.12 83.7798 249.042 83.7867C249.042 83.7867 249.109 83.7867 249.251 83.6866L249.902 83.4278L252.406 82.4847L261.662 79.0793L275.417 74.0714L283.538 71.1334L287.837 69.5809C289.313 69.1101 290.702 68.4026 291.952 67.4859C292.548 67.0098 293.047 66.4232 293.421 65.7582C293.774 65.0936 293.987 64.3635 294.047 63.6131C294.123 62.1168 293.92 60.6192 293.446 59.1978C292.544 56.36 291.593 53.614 290.733 51.0015C288.997 45.7849 287.394 41.0775 286.126 37.1212C284.857 33.165 283.789 29.9849 283.054 27.7481C282.704 26.6547 282.436 25.8033 282.219 25.1857L282.019 24.518C281.994 24.4674 281.974 24.4142 281.961 24.3594Z" fill="#263238"/>
<path d="M258.457 12.8574C258.457 12.8574 258.014 12.6404 257.197 12.3065C256.031 11.8585 254.798 11.6102 253.549 11.572C251.699 11.5086 249.857 11.8564 248.157 12.5903C246.09 13.5042 244.323 14.9825 243.058 16.8554C241.784 18.7229 241.101 20.9299 241.096 23.1904C241.113 25.0431 241.394 26.8839 241.931 28.6574C242.365 30.1765 242.815 31.3867 243.116 32.2297C243.293 32.6579 243.438 33.0987 243.55 33.5485C243.313 33.1481 243.114 32.7261 242.957 32.2881C242.615 31.4535 242.123 30.2683 241.639 28.7409C241.044 26.9488 240.721 25.078 240.679 23.1904C240.656 20.8446 241.356 18.5485 242.682 16.6133C243.991 14.672 245.831 13.1481 247.982 12.2231C249.735 11.4851 251.634 11.1596 253.532 11.2716C254.808 11.3366 256.061 11.6335 257.23 12.1479C257.542 12.2921 257.844 12.4595 258.131 12.6487C258.25 12.7009 258.36 12.7713 258.457 12.8574Z" fill="#263238"/>
<path d="M258.843 45.5026C258.976 45.4218 259.115 45.3521 259.26 45.2939C259.678 45.1054 260.111 44.9518 260.554 44.8348C261.257 44.6272 261.983 44.5039 262.715 44.4676C263.712 44.414 264.709 44.5646 265.645 44.91C267.782 45.6612 269.743 47.8396 270.711 50.7525C271.176 52.3158 271.176 53.9802 270.711 55.5434C270.197 57.2401 269.274 58.7847 268.024 60.0422L268.074 59.8169C269.184 62.8634 270.394 66.1686 271.646 69.6157L271.721 69.8244L271.513 69.8995L269.601 70.5338L265.428 71.9277L265.219 71.9945L265.153 71.7858C264.009 68.3303 262.757 65.1086 261.814 61.9452L261.998 62.0871C260.366 61.9516 258.81 61.3391 257.524 60.326C256.36 59.4297 255.406 58.2904 254.728 56.9874C254.116 55.8319 253.811 54.5386 253.843 53.2315C253.882 51.8955 254.215 50.5847 254.82 49.3928C255.424 48.2009 256.285 47.1575 257.34 46.3372C257.775 45.9847 258.262 45.703 258.784 45.5026C258.313 45.7823 257.856 46.0859 257.415 46.4123C256.256 47.3929 255.368 48.6545 254.836 50.0765C254.38 51.1487 254.166 52.3087 254.211 53.4733C254.256 54.6379 254.558 55.7781 255.095 56.8121C255.762 58.0656 256.693 59.1592 257.824 60.0172C259.051 60.9802 260.535 61.5607 262.089 61.6865H262.231L262.273 61.8117C263.191 64.9166 264.452 68.1634 265.612 71.6356L265.336 71.502L269.51 70.1082L271.413 69.4655L271.279 69.7493C270.035 66.3021 268.833 62.9886 267.732 59.9421V59.8169L267.832 59.7167C269.045 58.5114 269.95 57.0311 270.469 55.4016C270.912 53.9062 270.912 52.3146 270.469 50.8193C269.56 48.0149 267.682 45.8865 265.645 45.1353C264.744 44.7877 263.781 44.6259 262.816 44.6596C262.095 44.6761 261.378 44.7741 260.679 44.9517C259.435 45.2605 258.851 45.5443 258.843 45.5026Z" fill="#263238"/>
<path d="M233.044 286.511L149.67 286.127C144.855 286.1 140.248 284.164 136.86 280.743C133.472 277.322 131.58 272.696 131.6 267.881L132.484 58.8757C132.494 56.4903 132.974 54.1302 133.897 51.9304C134.819 49.7306 136.166 47.7341 137.861 46.0551C139.555 44.3761 141.564 43.0476 143.772 42.1454C145.98 41.2432 148.345 40.785 150.73 40.7971L234.095 41.181C238.91 41.2053 243.518 43.1396 246.908 46.559C250.298 49.9785 252.192 54.6034 252.174 59.4182L251.289 268.416C251.279 270.802 250.8 273.163 249.877 275.363C248.955 277.564 247.608 279.562 245.914 281.242C244.22 282.922 242.211 284.252 240.003 285.156C237.795 286.06 235.43 286.521 233.044 286.511Z" fill="#455A64"/>
<path d="M233.97 48.366H217.811C217.284 48.3758 216.764 48.4894 216.281 48.7002C215.797 48.911 215.36 49.215 214.994 49.5948C214.629 49.9746 214.341 50.4228 214.149 50.9137C213.956 51.4046 213.862 51.9286 213.872 52.4558V55.3855C213.882 55.9123 213.788 56.4359 213.595 56.9264C213.402 57.4168 213.115 57.8644 212.749 58.2435C212.383 58.6226 211.946 58.9258 211.462 59.1358C210.979 59.3457 210.459 59.4582 209.932 59.4669L178.432 59.325C177.367 59.2966 176.356 58.8465 175.622 58.0734C174.888 57.3003 174.491 56.2675 174.518 55.2019V52.2722C174.545 51.208 174.149 50.1764 173.417 49.4036C172.685 48.6307 171.676 48.1796 170.612 48.149H164.928L150.78 48.0823C147.415 48.0622 144.18 49.3764 141.781 51.737C139.383 54.0976 138.018 57.3123 137.985 60.6772L137.151 264.683C137.143 266.353 137.464 268.007 138.096 269.552C138.727 271.098 139.657 272.503 140.832 273.689C142.007 274.875 143.404 275.818 144.944 276.464C146.483 277.109 148.135 277.446 149.804 277.453L233.002 277.837C234.673 277.845 236.328 277.524 237.874 276.892C239.421 276.259 240.827 275.329 242.014 274.153C243.2 272.977 244.144 271.579 244.79 270.039C245.436 268.499 245.773 266.846 245.781 265.176L246.615 61.1696C246.635 57.7952 245.315 54.551 242.943 52.1501C240.572 49.7492 237.345 48.3881 233.97 48.366Z" fill="white"/>
<path d="M223.016 250.556L161.152 250.289C160.509 250.289 159.992 249.588 160 248.736L160.067 232.552C160.067 231.718 160.593 231 161.235 231L222.029 231.279C222.742 231.282 223.566 231.259 223.989 231.833C224.204 232.124 224.298 232.486 224.252 232.845L224.193 249.012C224.193 249.872 223.659 250.564 223.016 250.556Z" fill="url(#paint2_linear_1_162)"/>
<path d="M177.545 244.098C177.095 244.098 176.659 244.038 176.236 243.919C175.819 243.794 175.482 243.634 175.228 243.439L175.675 242.447C175.919 242.626 176.209 242.769 176.545 242.878C176.881 242.986 177.217 243.041 177.553 243.041C177.927 243.041 178.204 242.986 178.383 242.878C178.562 242.764 178.651 242.615 178.651 242.431C178.651 242.295 178.597 242.184 178.488 242.097C178.385 242.005 178.25 241.932 178.082 241.878C177.919 241.824 177.697 241.764 177.415 241.699C176.981 241.596 176.626 241.493 176.35 241.39C176.073 241.287 175.835 241.122 175.634 240.894C175.439 240.666 175.342 240.363 175.342 239.983C175.342 239.652 175.431 239.354 175.61 239.089C175.789 238.818 176.057 238.604 176.415 238.446C176.778 238.289 177.22 238.211 177.74 238.211C178.103 238.211 178.459 238.254 178.805 238.341C179.152 238.427 179.456 238.552 179.716 238.715L179.31 239.715C178.784 239.417 178.258 239.268 177.732 239.268C177.363 239.268 177.09 239.327 176.911 239.446C176.737 239.566 176.651 239.723 176.651 239.918C176.651 240.113 176.751 240.26 176.952 240.357C177.158 240.449 177.469 240.541 177.887 240.634C178.32 240.737 178.675 240.84 178.952 240.943C179.228 241.046 179.464 241.208 179.659 241.431C179.86 241.653 179.96 241.954 179.96 242.333C179.96 242.658 179.868 242.956 179.684 243.228C179.505 243.493 179.234 243.705 178.87 243.862C178.507 244.019 178.065 244.098 177.545 244.098ZM180.86 238.308H182.177V244H180.86V238.308ZM188.749 238.308V244H187.667L184.829 240.544V244H183.528V238.308H184.618L187.448 241.764V238.308H188.749ZM193.941 241.065H195.145V243.374C194.836 243.607 194.478 243.786 194.071 243.911C193.665 244.035 193.256 244.098 192.844 244.098C192.253 244.098 191.721 243.973 191.25 243.724C190.778 243.469 190.407 243.119 190.136 242.675C189.87 242.225 189.737 241.718 189.737 241.154C189.737 240.59 189.87 240.086 190.136 239.642C190.407 239.192 190.781 238.842 191.258 238.593C191.735 238.338 192.272 238.211 192.868 238.211C193.367 238.211 193.819 238.295 194.226 238.463C194.632 238.631 194.974 238.875 195.25 239.194L194.405 239.975C193.998 239.547 193.508 239.333 192.933 239.333C192.57 239.333 192.247 239.409 191.965 239.56C191.684 239.712 191.464 239.926 191.307 240.203C191.15 240.479 191.071 240.796 191.071 241.154C191.071 241.506 191.15 241.821 191.307 242.097C191.464 242.374 191.681 242.591 191.957 242.748C192.239 242.9 192.559 242.975 192.917 242.975C193.296 242.975 193.638 242.894 193.941 242.732V241.065ZM198.671 238.308H199.988V244H198.671V238.308ZM206.56 238.308V244H205.478L202.64 240.544V244H201.339V238.308H202.429L205.259 241.764V238.308H206.56Z" fill="white"/>
<path d="M171.283 108.331L153.756 108.251C152.668 108.246 151.782 109.124 151.777 110.212C151.772 111.3 152.65 112.186 153.738 112.191L171.266 112.27C172.353 112.275 173.239 111.397 173.244 110.309C173.249 109.221 172.371 108.336 171.283 108.331Z" fill="url(#paint3_linear_1_162)"/>
<path d="M171.283 108.331L153.756 108.251C152.668 108.246 151.782 109.124 151.777 110.212C151.772 111.3 152.65 112.186 153.738 112.191L171.266 112.27C172.353 112.275 173.239 111.397 173.244 110.309C173.249 109.221 172.371 108.336 171.283 108.331Z" fill="url(#paint4_linear_1_162)"/>
<path d="M-nan -nanL236.18 132.531C236.348 132.514 236.514 132.475 236.672 132.414C236.903 132.324 237.104 132.17 237.252 131.971C237.399 131.772 237.488 131.535 237.507 131.287C237.507 129.96 237.507 128.024 237.507 125.537C237.507 124.293 237.507 122.899 237.507 121.363C237.507 121.357 237.507 121.351 237.507 121.345C237.507 120.585 237.679 119.752 237.273 119.11C237.158 118.954 237.009 118.827 236.836 118.738C236.664 118.65 236.474 118.603 236.28 118.601H234.978H222.917L153.107 118.342C152.928 118.339 152.751 118.379 152.591 118.459C152.432 118.539 152.293 118.656 152.189 118.801C151.79 119.446 151.972 120.275 151.972 121.033C151.972 121.488 151.972 121.943 151.972 122.398C151.972 124.068 151.972 125.737 151.972 127.406C151.972 128.241 151.972 129.075 151.972 129.91C151.952 130.128 151.944 130.346 151.946 130.565C151.95 130.907 151.985 131.271 152.21 131.53C152.323 131.66 152.464 131.763 152.623 131.83C152.787 131.895 152.963 131.927 153.14 131.922H157.388L175.926 132.022L207.309 132.214L228.468 132.381L234.218 132.447H235.712C236.055 132.447 236.221 132.447 236.221 132.447H235.712H234.218H228.468H207.309L175.926 132.347L157.388 132.272H153.14C152.906 132.282 152.673 132.242 152.456 132.155C152.236 132.062 152.04 131.919 151.884 131.738C151.728 131.557 151.615 131.343 151.554 131.112C151.506 130.893 151.489 130.668 151.504 130.444V129.827C151.504 128.992 151.504 128.157 151.504 127.323C151.504 125.653 151.504 123.984 151.504 122.315C151.504 121.48 151.504 120.645 151.504 119.811C151.488 119.589 151.488 119.365 151.504 119.143C151.535 118.898 151.63 118.664 151.78 118.467C151.924 118.266 152.114 118.102 152.335 117.99C152.556 117.878 152.801 117.821 153.048 117.824L222.859 118.208L234.919 118.292H236.221C236.451 118.292 236.677 118.347 236.88 118.453C237.084 118.56 237.259 118.713 237.39 118.901C237.412 118.936 237.434 118.971 237.453 119.007C237.828 119.682 237.657 120.516 237.657 121.288C237.657 122.807 237.657 124.201 237.657 125.461C237.657 127.965 237.599 129.885 237.582 131.221C237.562 131.477 237.468 131.723 237.313 131.928C237.168 132.121 236.974 132.27 236.752 132.362C236.721 132.375 236.691 132.39 236.662 132.406C236.515 132.488 236.349 132.531 236.18 132.531L-nan -nanZ" fill="url(#paint5_linear_1_162)"/>
<path d="M195.654 122.527H160.073C159.056 122.527 158.232 123.351 158.232 124.368C158.232 125.384 159.056 126.208 160.073 126.208H195.654C196.671 126.208 197.495 125.384 197.495 124.368C197.495 123.351 196.671 122.527 195.654 122.527Z" fill="url(#paint6_linear_1_162)"/>
<path d="M195.654 122.527H160.073C159.056 122.527 158.232 123.351 158.232 124.368C158.232 125.384 159.056 126.208 160.073 126.208H195.654C196.671 126.208 197.495 125.384 197.495 124.368C197.495 123.351 196.671 122.527 195.654 122.527Z" fill="url(#paint7_linear_1_162)"/>
<path d="M171.136 144.272L153.609 144.193C152.521 144.188 151.635 145.065 151.63 146.153C151.625 147.241 152.503 148.127 153.591 148.132L171.119 148.212C172.206 148.217 173.092 147.339 173.097 146.251C173.102 145.163 172.224 144.277 171.136 144.272Z" fill="url(#paint8_linear_1_162)"/>
<path d="M171.136 144.272L153.609 144.193C152.521 144.188 151.635 145.065 151.63 146.153C151.625 147.241 152.503 148.127 153.591 148.132L171.119 148.212C172.206 148.217 173.092 147.339 173.097 146.251C173.102 145.163 172.224 144.277 171.136 144.272Z" fill="url(#paint9_linear_1_162)"/>
<path d="M-nan -nanL235.639 168.462C235.808 168.442 235.975 168.411 236.14 168.371C236.373 168.296 236.587 168.173 236.769 168.009C236.95 167.845 237.094 167.644 237.191 167.419C237.323 167.082 237.374 166.719 237.342 166.359C237.342 165.958 237.342 165.524 237.342 165.04C237.342 164.072 237.342 162.97 237.342 161.702V156.402C237.382 156.018 237.297 155.632 237.1 155.3C236.894 154.96 236.57 154.707 236.19 154.59C235.774 154.516 235.351 154.494 234.93 154.524H222.919L153.351 154.265C152.976 154.266 152.615 154.403 152.334 154.65C152.053 154.897 151.872 155.238 151.823 155.609C151.823 156.402 151.823 157.278 151.823 158.113C151.823 159.782 151.823 161.451 151.823 163.121C151.823 163.955 151.823 164.79 151.823 165.625C151.792 166.015 151.809 166.407 151.873 166.793C151.977 167.132 152.192 167.425 152.482 167.628C152.791 167.823 153.153 167.917 153.517 167.895H154.678H157.09L175.561 167.987L206.835 168.179L227.918 168.346L233.653 168.412H235.147H235.647H235.147H233.653H227.918H206.835L175.544 168.379L157.073 168.312H153.442C152.991 168.339 152.543 168.219 152.165 167.97C151.786 167.707 151.508 167.321 151.381 166.877C151.306 166.452 151.283 166.021 151.314 165.591C151.314 164.757 151.314 163.922 151.314 163.087C151.314 161.418 151.314 159.749 151.314 158.079C151.314 157.245 151.314 156.41 151.314 155.575C151.375 155.098 151.608 154.659 151.969 154.341C152.33 154.023 152.794 153.848 153.275 153.848L222.844 154.232L234.854 154.323C235.302 154.296 235.751 154.327 236.19 154.415C236.624 154.557 236.989 154.854 237.217 155.25C237.432 155.617 237.526 156.044 237.484 156.468C237.484 156.861 237.484 157.245 237.484 157.629C237.484 159.139 237.484 160.525 237.484 161.802C237.484 163.079 237.484 164.156 237.484 165.141C237.484 165.616 237.484 166.059 237.484 166.468C237.514 166.841 237.454 167.216 237.308 167.561C237.2 167.791 237.043 167.996 236.849 168.16C236.666 168.314 236.455 168.429 236.227 168.499C236.197 168.508 236.166 168.514 236.134 168.516C235.967 168.524 235.8 168.506 235.639 168.462L-nan -nanZ" fill="url(#paint10_linear_1_162)"/>
<path d="M170.972 181.764L153.445 181.685C152.357 181.68 151.471 182.558 151.466 183.646C151.461 184.733 152.339 185.619 153.427 185.624L170.955 185.704C172.042 185.709 172.928 184.831 172.933 183.743C172.938 182.655 172.06 181.769 170.972 181.764Z" fill="url(#paint11_linear_1_162)"/>
<path d="M170.972 181.764L153.445 181.685C152.357 181.68 151.471 182.558 151.466 183.646C151.461 184.733 152.339 185.619 153.427 185.624L170.955 185.704C172.042 185.709 172.928 184.831 172.933 183.743C172.938 182.655 172.06 181.769 170.972 181.764Z" fill="url(#paint12_linear_1_162)"/>
<path d="M-nan -nanL235.472 205.954C235.64 205.934 235.808 205.903 235.972 205.862C236.204 205.788 236.418 205.666 236.6 205.503C236.781 205.341 236.926 205.142 237.024 204.919C237.155 204.582 237.206 204.219 237.174 203.859C237.174 203.45 237.174 203.024 237.174 202.532C237.174 201.572 237.174 200.462 237.174 199.193V193.893C237.214 193.509 237.129 193.123 236.932 192.791C236.721 192.457 236.399 192.209 236.022 192.09C235.607 192.013 235.184 191.988 234.762 192.015H222.751L153.183 191.756C152.809 191.757 152.448 191.894 152.167 192.141C151.886 192.388 151.704 192.729 151.656 193.1C151.656 193.935 151.656 194.769 151.656 195.604C151.656 197.273 151.656 198.943 151.656 200.612C151.656 201.447 151.656 202.281 151.656 203.116C151.625 203.503 151.641 203.893 151.706 204.276C151.806 204.617 152.021 204.912 152.315 205.111C152.621 205.311 152.985 205.405 153.35 205.378H156.981L175.452 205.478L206.726 205.67L227.809 205.837L233.544 205.904H235.038C235.371 205.904 235.538 205.904 235.538 205.904H235.038H233.544H227.809H206.726L175.452 205.812L156.981 205.737H153.35C152.898 205.767 152.449 205.647 152.073 205.395C151.693 205.131 151.416 204.745 151.288 204.301C151.214 203.877 151.191 203.445 151.222 203.016C151.222 202.181 151.222 201.346 151.222 200.512C151.222 198.843 151.222 197.173 151.222 195.504C151.222 194.669 151.222 193.835 151.222 192.958C151.281 192.482 151.512 192.043 151.871 191.725C152.231 191.407 152.695 191.231 153.175 191.23L222.743 191.614L234.754 191.706C235.201 191.679 235.65 191.71 236.089 191.798C236.523 191.94 236.889 192.237 237.116 192.633C237.332 193 237.425 193.427 237.383 193.851C237.383 194.244 237.383 194.636 237.383 195.011C237.383 196.522 237.383 197.908 237.383 199.185C237.383 200.462 237.383 201.538 237.383 202.523C237.383 202.999 237.383 203.441 237.383 203.85C237.415 204.224 237.355 204.599 237.208 204.944C237.099 205.174 236.943 205.378 236.748 205.543C236.554 205.707 236.326 205.827 236.081 205.895C235.885 205.962 235.676 205.982 235.472 205.954L-nan -nanZ" fill="url(#paint13_linear_1_162)"/>
<path d="M194.816 159.502L159.235 159.34C158.219 159.336 157.391 160.156 157.387 161.172C157.382 162.189 158.202 163.017 159.219 163.021L194.8 163.183C195.816 163.187 196.644 162.367 196.648 161.351C196.653 160.334 195.833 159.506 194.816 159.502Z" fill="url(#paint14_linear_1_162)"/>
<path d="M194.816 159.502L159.235 159.34C158.219 159.336 157.391 160.156 157.387 161.172C157.382 162.189 158.202 163.017 159.219 163.021L194.8 163.183C195.816 163.187 196.644 162.367 196.648 161.351C196.653 160.334 195.833 159.506 194.816 159.502Z" fill="url(#paint15_linear_1_162)"/>
<path d="M-nan -nanL160.945 199.146C160.921 199.482 160.798 199.803 160.593 200.07C160.387 200.336 160.108 200.537 159.79 200.646C159.471 200.756 159.128 200.769 158.802 200.685C158.476 200.601 158.182 200.423 157.956 200.174C157.73 199.924 157.582 199.614 157.531 199.281C157.48 198.948 157.528 198.608 157.668 198.302C157.809 197.996 158.036 197.738 158.322 197.56C158.608 197.383 158.94 197.292 159.276 197.301C159.741 197.327 160.177 197.535 160.49 197.881C160.802 198.226 160.966 198.681 160.945 199.146L-nan -nanZ" fill="url(#paint16_linear_1_162)"/>
<path d="M-nan -nanL166.261 199.167C166.277 199.403 166.245 199.639 166.166 199.861C166.088 200.083 165.964 200.287 165.803 200.46C165.642 200.632 165.447 200.77 165.231 200.864C165.015 200.958 164.781 201.006 164.546 201.006C164.31 201.006 164.076 200.958 163.86 200.864C163.644 200.77 163.449 200.632 163.288 200.46C163.127 200.287 163.004 200.083 162.925 199.861C162.846 199.639 162.814 199.403 162.83 199.167C162.814 198.932 162.846 198.696 162.925 198.473C163.004 198.251 163.127 198.047 163.288 197.875C163.449 197.702 163.644 197.565 163.86 197.471C164.076 197.377 164.31 197.328 164.546 197.328C164.781 197.328 165.015 197.377 165.231 197.471C165.447 197.565 165.642 197.702 165.803 197.875C165.964 198.047 166.088 198.251 166.166 198.473C166.245 198.696 166.277 198.932 166.261 199.167L-nan -nanZ" fill="url(#paint17_linear_1_162)"/>
<path d="M171.589 199.189C171.565 199.525 171.442 199.846 171.237 200.112C171.031 200.379 170.752 200.58 170.434 200.689C170.115 200.799 169.772 200.812 169.446 200.728C169.12 200.644 168.826 200.466 168.6 200.217C168.374 199.967 168.226 199.657 168.175 199.324C168.124 198.991 168.172 198.651 168.312 198.345C168.453 198.039 168.68 197.781 168.966 197.603C169.252 197.426 169.584 197.335 169.92 197.344C170.384 197.372 170.819 197.581 171.131 197.926C171.443 198.271 171.608 198.724 171.589 199.189Z" fill="url(#paint18_linear_1_162)"/>
<path d="M176.904 199.216C176.88 199.552 176.757 199.873 176.552 200.14C176.346 200.406 176.067 200.607 175.749 200.716C175.43 200.826 175.087 200.839 174.761 200.756C174.435 200.672 174.141 200.494 173.915 200.244C173.689 199.995 173.541 199.684 173.49 199.351C173.439 199.019 173.487 198.678 173.627 198.372C173.768 198.067 173.995 197.809 174.281 197.631C174.567 197.453 174.899 197.363 175.235 197.372C175.699 197.4 176.134 197.609 176.446 197.953C176.758 198.298 176.923 198.752 176.904 199.216Z" fill="url(#paint19_linear_1_162)"/>
<path d="M182.22 199.235C182.197 199.572 182.076 199.894 181.871 200.161C181.666 200.429 181.388 200.631 181.069 200.742C180.751 200.853 180.407 200.867 180.081 200.784C179.754 200.701 179.459 200.524 179.232 200.274C179.006 200.025 178.857 199.715 178.805 199.382C178.754 199.048 178.801 198.708 178.942 198.401C179.082 198.095 179.309 197.837 179.596 197.658C179.882 197.48 180.214 197.39 180.551 197.399C181.013 197.427 181.447 197.635 181.759 197.978C182.07 198.321 182.236 198.772 182.22 199.235Z" fill="url(#paint20_linear_1_162)"/>
<path d="M-nan -nanL187.545 199.262C187.522 199.597 187.402 199.917 187.2 200.184C186.997 200.451 186.721 200.653 186.405 200.766C186.089 200.878 185.747 200.895 185.421 200.815C185.096 200.736 184.8 200.563 184.572 200.317C184.343 200.072 184.191 199.765 184.135 199.435C184.078 199.104 184.12 198.765 184.254 198.457C184.388 198.15 184.609 197.889 184.89 197.705C185.171 197.522 185.499 197.425 185.834 197.426C186.304 197.443 186.748 197.646 187.069 197.99C187.39 198.335 187.561 198.792 187.545 199.262L-nan -nanZ" fill="url(#paint21_linear_1_162)"/>
<path d="M192.863 199.277C192.88 199.512 192.848 199.748 192.769 199.97C192.69 200.193 192.566 200.397 192.405 200.569C192.245 200.742 192.05 200.879 191.834 200.973C191.617 201.067 191.384 201.116 191.148 201.116C190.912 201.116 190.679 201.067 190.463 200.973C190.246 200.879 190.052 200.742 189.891 200.569C189.73 200.397 189.606 200.193 189.527 199.97C189.449 199.748 189.416 199.512 189.433 199.277C189.416 199.041 189.449 198.805 189.527 198.583C189.606 198.36 189.73 198.157 189.891 197.984C190.052 197.812 190.246 197.674 190.463 197.58C190.679 197.486 190.912 197.438 191.148 197.438C191.384 197.438 191.617 197.486 191.834 197.58C192.05 197.674 192.245 197.812 192.405 197.984C192.566 198.157 192.69 198.36 192.769 198.583C192.848 198.805 192.88 199.041 192.863 199.277Z" fill="url(#paint22_linear_1_162)"/>
<path d="M-nan -nanL198.178 199.301C198.156 199.636 198.036 199.956 197.833 200.223C197.63 200.49 197.354 200.692 197.038 200.805C196.722 200.917 196.38 200.934 196.055 200.854C195.729 200.775 195.434 200.602 195.205 200.356C194.977 200.111 194.825 199.804 194.768 199.474C194.712 199.143 194.753 198.804 194.887 198.496C195.021 198.189 195.242 197.928 195.523 197.744C195.804 197.561 196.132 197.464 196.467 197.465C196.938 197.482 197.382 197.685 197.702 198.029C198.023 198.374 198.194 198.831 198.178 199.301L-nan -nanZ" fill="url(#paint23_linear_1_162)"/>
<path d="M-nan -nanL203.497 199.329C203.474 199.665 203.352 199.987 203.148 200.255C202.943 200.523 202.665 200.725 202.346 200.836C202.028 200.946 201.684 200.961 201.357 200.878C201.031 200.795 200.736 200.618 200.509 200.368C200.282 200.119 200.134 199.808 200.082 199.475C200.031 199.142 200.078 198.801 200.218 198.495C200.359 198.189 200.586 197.93 200.872 197.752C201.158 197.574 201.491 197.484 201.827 197.493C202.29 197.521 202.724 197.728 203.036 198.071C203.347 198.414 203.513 198.866 203.497 199.329L-nan -nanZ" fill="url(#paint24_linear_1_162)"/>
<path d="M-nan -nanL160.945 199.13C160.921 199.466 160.798 199.787 160.593 200.054C160.387 200.321 160.108 200.521 159.79 200.631C159.471 200.74 159.128 200.754 158.802 200.67C158.476 200.586 158.182 200.408 157.956 200.158C157.73 199.909 157.582 199.598 157.531 199.265C157.48 198.933 157.528 198.592 157.668 198.286C157.809 197.981 158.036 197.723 158.322 197.545C158.608 197.367 158.94 197.277 159.276 197.286C159.741 197.312 160.177 197.52 160.49 197.865C160.802 198.21 160.966 198.665 160.945 199.13L-nan -nanZ" fill="url(#paint25_linear_1_162)"/>
<path d="M-nan -nanL166.261 199.152C166.277 199.387 166.245 199.623 166.166 199.845C166.088 200.068 165.964 200.272 165.803 200.444C165.642 200.617 165.447 200.754 165.231 200.848C165.015 200.942 164.781 200.991 164.546 200.991C164.31 200.991 164.076 200.942 163.86 200.848C163.644 200.754 163.449 200.617 163.288 200.444C163.127 200.272 163.004 200.068 162.925 199.845C162.846 199.623 162.814 199.387 162.83 199.152C162.814 198.916 162.846 198.68 162.925 198.458C163.004 198.235 163.127 198.032 163.288 197.859C163.449 197.687 163.644 197.549 163.86 197.455C164.076 197.361 164.31 197.312 164.546 197.312C164.781 197.312 165.015 197.361 165.231 197.455C165.447 197.549 165.642 197.687 165.803 197.859C165.964 198.032 166.088 198.235 166.166 198.458C166.245 198.68 166.277 198.916 166.261 199.152L-nan -nanZ" fill="url(#paint26_linear_1_162)"/>
<path d="M171.586 199.185C171.561 199.521 171.438 199.842 171.233 200.109C171.027 200.375 170.748 200.576 170.43 200.685C170.111 200.795 169.768 200.808 169.442 200.724C169.116 200.64 168.822 200.463 168.596 200.213C168.37 199.963 168.222 199.653 168.171 199.32C168.12 198.987 168.168 198.647 168.308 198.341C168.449 198.035 168.676 197.777 168.962 197.6C169.248 197.422 169.58 197.332 169.916 197.34C170.38 197.368 170.815 197.577 171.127 197.922C171.439 198.267 171.604 198.72 171.586 199.185Z" fill="url(#paint27_linear_1_162)"/>
<path d="M176.904 199.212C176.879 199.548 176.757 199.869 176.551 200.136C176.346 200.403 176.067 200.603 175.748 200.713C175.43 200.822 175.086 200.836 174.76 200.752C174.434 200.668 174.14 200.49 173.914 200.24C173.688 199.991 173.541 199.68 173.49 199.348C173.439 199.015 173.486 198.674 173.627 198.368C173.767 198.063 173.995 197.805 174.281 197.627C174.566 197.449 174.898 197.359 175.235 197.368C175.699 197.396 176.134 197.605 176.446 197.949C176.758 198.294 176.922 198.748 176.904 199.212Z" fill="url(#paint28_linear_1_162)"/>
<path d="M182.219 199.216C182.196 199.552 182.075 199.874 181.871 200.142C181.666 200.41 181.387 200.612 181.069 200.722C180.751 200.833 180.407 200.848 180.08 200.765C179.754 200.682 179.459 200.504 179.232 200.255C179.005 200.006 178.857 199.695 178.805 199.362C178.753 199.029 178.801 198.688 178.941 198.382C179.082 198.075 179.309 197.817 179.595 197.639C179.881 197.461 180.213 197.37 180.55 197.38C181.013 197.408 181.446 197.615 181.758 197.958C182.07 198.301 182.236 198.752 182.219 199.216Z" fill="url(#paint29_linear_1_162)"/>
<path d="M-nan -nanL187.545 199.243C187.522 199.577 187.402 199.898 187.199 200.165C186.997 200.432 186.72 200.634 186.404 200.746C186.088 200.858 185.747 200.875 185.421 200.796C185.095 200.716 184.8 200.543 184.571 200.298C184.343 200.053 184.191 199.746 184.134 199.415C184.078 199.085 184.119 198.745 184.253 198.438C184.388 198.13 184.609 197.869 184.889 197.686C185.17 197.503 185.498 197.405 185.834 197.406C186.304 197.424 186.748 197.627 187.069 197.971C187.389 198.315 187.56 198.772 187.545 199.243L-nan -nanZ" fill="url(#paint30_linear_1_162)"/>
<path d="M192.863 199.273C192.879 199.508 192.847 199.744 192.768 199.967C192.69 200.189 192.566 200.393 192.405 200.565C192.244 200.738 192.049 200.875 191.833 200.969C191.617 201.063 191.383 201.112 191.148 201.112C190.912 201.112 190.678 201.063 190.462 200.969C190.246 200.875 190.051 200.738 189.89 200.565C189.729 200.393 189.606 200.189 189.527 199.967C189.448 199.744 189.416 199.508 189.432 199.273C189.416 199.037 189.448 198.801 189.527 198.579C189.606 198.357 189.729 198.153 189.89 197.98C190.051 197.808 190.246 197.67 190.462 197.576C190.678 197.482 190.912 197.434 191.148 197.434C191.383 197.434 191.617 197.482 191.833 197.576C192.049 197.67 192.244 197.808 192.405 197.98C192.566 198.153 192.69 198.357 192.768 198.579C192.847 198.801 192.879 199.037 192.863 199.273Z" fill="url(#paint31_linear_1_162)"/>
<path d="M-nan -nanL198.178 199.297C198.156 199.632 198.036 199.952 197.833 200.219C197.63 200.486 197.354 200.689 197.038 200.801C196.722 200.913 196.38 200.93 196.055 200.851C195.729 200.771 195.434 200.598 195.205 200.352C194.977 200.107 194.825 199.8 194.768 199.47C194.712 199.139 194.753 198.8 194.887 198.492C195.021 198.185 195.242 197.924 195.523 197.741C195.804 197.557 196.132 197.46 196.467 197.461C196.938 197.478 197.382 197.681 197.702 198.026C198.023 198.37 198.194 198.827 198.178 199.297L-nan -nanZ" fill="url(#paint32_linear_1_162)"/>
<path d="M-nan -nanL203.497 199.325C203.474 199.661 203.352 199.983 203.148 200.251C202.943 200.519 202.665 200.721 202.346 200.832C202.028 200.942 201.684 200.957 201.357 200.874C201.031 200.791 200.736 200.614 200.509 200.364C200.282 200.115 200.134 199.804 200.082 199.471C200.031 199.138 200.078 198.797 200.218 198.491C200.359 198.185 200.586 197.926 200.872 197.748C201.158 197.57 201.491 197.48 201.827 197.489C202.29 197.517 202.724 197.725 203.036 198.068C203.347 198.411 203.513 198.862 203.497 199.325L-nan -nanZ" fill="url(#paint33_linear_1_162)"/>
<path d="M197.726 79.4324C197.248 79.1666 197.06 78.0978 197.356 77.6378C197.699 77.105 197.878 76.4832 197.87 75.8497C197.891 75.4379 197.829 75.026 197.686 74.6391C197.544 74.2522 197.324 73.8984 197.04 73.5992C196.756 73.3001 196.414 73.0619 196.035 72.8991C195.656 72.7363 195.248 72.6523 194.836 72.6523C194.423 72.6523 194.015 72.7363 193.637 72.8991C193.258 73.0619 192.916 73.3001 192.632 73.5992C192.348 73.8984 192.128 74.2522 191.985 74.6391C191.843 75.026 191.78 75.4379 191.802 75.8497C191.789 76.4895 191.966 77.1188 192.311 77.658C192.608 78.1232 192.418 79.2012 191.934 79.4657C190.399 80.3037 189.747 81.7736 189.471 82.9356C189.247 83.8809 190.038 84.6587 191.009 84.6631L198.579 84.6974C199.555 84.7019 200.357 83.9281 200.148 82.9747C199.888 81.7891 199.255 80.2827 197.726 79.4324Z" fill="url(#paint34_linear_1_162)"/>
<path d="M197.726 79.4324C197.248 79.1666 197.06 78.0978 197.356 77.6378C197.699 77.105 197.878 76.4832 197.87 75.8497C197.891 75.4379 197.829 75.026 197.686 74.6391C197.544 74.2522 197.324 73.8984 197.04 73.5992C196.756 73.3001 196.414 73.0619 196.035 72.8991C195.656 72.7363 195.248 72.6523 194.836 72.6523C194.423 72.6523 194.015 72.7363 193.637 72.8991C193.258 73.0619 192.916 73.3001 192.632 73.5992C192.348 73.8984 192.128 74.2522 191.985 74.6391C191.843 75.026 191.78 75.4379 191.802 75.8497C191.789 76.4895 191.966 77.1188 192.311 77.658C192.608 78.1232 192.418 79.2012 191.934 79.4657C190.399 80.3037 189.747 81.7736 189.471 82.9356C189.247 83.8809 190.038 84.6587 191.009 84.6631L198.579 84.6974C199.555 84.7019 200.357 83.9281 200.148 82.9747C199.888 81.7891 199.255 80.2827 197.726 79.4324Z" fill="url(#paint35_linear_1_162)"/>
<path d="M211.546 87.9688L176.866 87.8115C175.566 87.8056 174.508 88.8546 174.502 90.1545C174.496 91.4544 175.545 92.513 176.845 92.5189L211.525 92.6762C212.824 92.6821 213.883 91.6331 213.889 90.3332C213.895 89.0333 212.846 87.9747 211.546 87.9688Z" fill="url(#paint36_linear_1_162)"/>
<path d="M211.546 87.9688L176.866 87.8115C175.566 87.8056 174.508 88.8546 174.502 90.1545C174.496 91.4544 175.545 92.513 176.845 92.5189L211.525 92.6762C212.824 92.6821 213.883 91.6331 213.889 90.3332C213.895 89.0333 212.846 87.9747 211.546 87.9688Z" fill="url(#paint37_linear_1_162)"/>
<path d="M69.1019 112.371H68.7096L67.5745 112.455C66.9602 112.492 66.3494 112.572 65.7466 112.697C65.3562 112.751 64.969 112.827 64.5865 112.922L63.2927 113.281C61.0908 113.956 59.0132 114.985 57.1413 116.327C54.6682 118.123 52.603 120.421 51.0818 123.071C50.1876 124.599 49.4761 126.227 48.9617 127.921C48.4213 129.762 48.1101 131.662 48.0353 133.58C47.9855 134.587 48.0023 135.596 48.0854 136.601C48.0854 137.11 48.2272 137.619 48.294 138.137C48.3502 138.659 48.4479 139.175 48.5861 139.681C49.3367 143.03 50.8595 146.158 53.0333 148.814C55.207 151.47 57.9714 153.582 61.1059 154.98C63.3746 155.959 65.8062 156.505 68.2756 156.591C70.8261 156.731 73.3791 156.365 75.7875 155.514L76.4849 155.253C76.5094 155.244 76.5354 155.239 76.5616 155.239C76.6012 155.239 76.6401 155.25 76.6741 155.27L76.7056 155.289L87.0498 160.539C87.1361 160.583 87.1504 160.7 87.0773 160.763C87.0035 160.827 86.8886 160.795 86.8586 160.702C85.7582 157.294 84.6976 153.991 83.6689 150.815C83.6619 150.793 83.6583 150.77 83.6583 150.747C83.6583 150.689 83.6813 150.634 83.7224 150.593L83.7501 150.565C86.3033 147.993 88.1987 144.844 89.2755 141.384C90.2508 138.22 90.5355 134.884 90.1102 131.602C89.7319 128.684 88.7938 125.867 87.3475 123.305C86.1007 121.104 84.4924 119.129 82.5899 117.463C81.0203 116.143 79.2831 115.038 77.4234 114.174C76.0163 113.567 74.5508 113.106 73.0498 112.797L71.3805 112.521L70.1703 112.43L69.4358 112.38H69.1854C69.2686 112.37 69.3526 112.37 69.4358 112.38H70.1786L71.3889 112.43L73.0582 112.672C74.5779 112.958 76.0633 113.403 77.4902 113.999C79.3818 114.852 81.1504 115.955 82.7485 117.279C84.686 118.938 86.3284 120.914 87.6062 123.121C89.0936 125.711 90.0605 128.566 90.4524 131.526C90.913 134.86 90.6482 138.254 89.6761 141.476C88.603 144.973 86.7057 148.16 84.1444 150.77C84.1224 150.793 84.0849 150.772 84.092 150.742C84.0991 150.711 84.1423 150.709 84.1521 150.739C85.1931 153.953 86.2749 157.297 87.3975 160.739C87.4567 160.929 87.2577 161.097 87.0804 161.006L76.6252 155.708C76.6077 155.699 76.614 155.673 76.6337 155.673C76.6546 155.673 76.6597 155.702 76.6401 155.709L75.9878 155.948C73.5331 156.812 70.9328 157.187 68.3341 157.05C65.8115 156.954 63.329 156.388 61.0141 155.381C56.5986 153.49 52.9249 150.203 50.5559 146.024C49.4658 144.095 48.6697 142.013 48.1939 139.848C48.0636 139.329 47.966 138.802 47.9017 138.27C47.835 137.745 47.7265 137.227 47.7014 136.71C47.4755 133.74 47.7894 130.754 48.6279 127.896C49.155 126.179 49.8864 124.531 50.8063 122.988C52.3639 120.313 54.472 118 56.9911 116.202C58.8938 114.857 61.0063 113.836 63.2427 113.181L64.5531 112.847C64.9388 112.757 65.3288 112.688 65.7216 112.638C66.3306 112.525 66.9472 112.459 67.5662 112.438L68.7096 112.396C68.8397 112.379 68.9707 112.37 69.1019 112.371Z" fill="url(#paint38_linear_1_162)"/>
<path d="M73.8645 132.847C73.8616 132.284 73.4048 131.83 72.8423 131.83C72.5116 131.83 72.2013 131.67 72.0095 131.4L69.43 127.776C69.135 127.362 68.9765 126.866 68.9765 126.357C68.9765 125.065 67.743 124.139 67.2069 125.314C66.9451 125.888 66.7876 126.724 66.8732 127.94C67.0092 129.872 65.5304 130.921 63.5981 131.038C62.5254 131.104 61.5617 131.215 61.3895 131.404C60.9722 131.863 60.9472 136.754 60.8887 139.484C60.8568 140.142 61.0455 140.791 61.4251 141.33C61.8047 141.868 62.3533 142.264 62.9837 142.455C63.1604 142.504 63.3429 142.529 63.5262 142.53C64.6656 142.53 69.9852 141.702 71.058 141.533C71.1856 141.513 71.3117 141.504 71.4409 141.504C72.8021 141.504 73.9036 140.396 73.8966 139.035L73.8645 132.847Z" fill="url(#paint39_linear_1_162)"/>
<path d="M76.2926 131.124C77.3363 131.061 78.1915 131.941 78.0975 132.983L77.4376 140.3C77.3736 141.01 76.7783 141.554 76.0651 141.554C75.304 141.554 74.687 140.937 74.687 140.176V132.829C74.687 131.926 75.3906 131.178 76.2926 131.124Z" fill="url(#paint40_linear_1_162)"/>
<path d="M112.785 346.595C111.003 346.093 109.736 344.487 109.736 342.636C109.736 340.432 107.958 338.642 105.755 338.626L102.5 338.602C99.4272 338.58 96.9155 341.049 96.8846 344.122L96.84 348.56C96.8355 349.007 97.1791 349.38 97.6249 349.413C101.156 349.638 115.587 349.972 117.957 349.238C119.652 348.712 115.773 347.438 112.785 346.595Z" fill="url(#paint41_linear_1_162)"/>
<path d="M118.257 348.569C118.257 348.685 113.466 348.786 107.565 348.786C101.664 348.786 96.873 348.685 96.873 348.569C96.873 348.452 101.664 348.352 107.565 348.352C113.466 348.352 118.257 348.452 118.257 348.569Z" fill="#263238"/>
<path d="M109.958 347.258C109.85 347.199 109.958 346.824 110.217 346.423C110.476 346.022 110.826 345.855 110.91 345.939C110.993 346.022 110.818 346.34 110.568 346.682C110.317 347.024 110.067 347.316 109.958 347.258Z" fill="#263238"/>
<path d="M110.778 347.727C110.661 347.727 110.719 347.259 110.97 346.817C111.22 346.375 111.554 346.107 111.646 346.174C111.737 346.241 111.587 346.617 111.353 347.009C111.12 347.401 110.886 347.768 110.778 347.727Z" fill="#263238"/>
<path d="M100.728 348.548C100.678 348.548 100.486 348.397 100.211 348.08C99.8743 347.672 99.4998 347.298 99.0921 346.962C98.6912 346.641 98.2136 346.431 97.7066 346.352C97.3143 346.302 97.0639 346.352 97.0389 346.302C97.0138 346.252 97.2559 346.077 97.7149 346.044C98.3208 346.031 98.9118 346.232 99.3843 346.611C99.8269 346.972 100.2 347.41 100.486 347.905C100.678 348.272 100.778 348.514 100.728 348.548Z" fill="#263238"/>
<path d="M110.001 345.906C110.059 346.006 109.842 346.257 109.475 346.39C109.108 346.524 108.782 346.474 108.765 346.39C108.749 346.307 109.007 346.131 109.325 346.015C109.642 345.898 109.934 345.806 110.001 345.906Z" fill="#263238"/>
<path d="M109.802 345.213C109.802 345.338 109.468 345.438 109.034 345.447C108.6 345.455 108.257 345.355 108.266 345.238C108.274 345.121 108.616 345.013 109.034 345.004C109.451 344.996 109.785 345.096 109.802 345.213Z" fill="#263238"/>
<path d="M144.292 346.595C142.51 346.093 141.243 344.487 141.243 342.636C141.243 340.432 139.465 338.642 137.262 338.626L133.951 338.602C130.909 338.58 128.423 341.024 128.392 344.066L128.347 348.451C128.343 348.898 128.686 349.272 129.132 349.304C132.663 349.53 147.102 349.972 149.464 349.238C151.159 348.712 147.281 347.438 144.292 346.595Z" fill="url(#paint42_linear_1_162)"/>
<path d="M149.766 348.584C149.766 348.701 144.984 348.801 139.074 348.801C133.165 348.801 128.391 348.701 128.391 348.584C128.391 348.467 133.173 348.367 139.074 348.367C144.975 348.367 149.766 348.467 149.766 348.584Z" fill="#263238"/>
<path d="M141.468 347.258C141.368 347.199 141.468 346.824 141.727 346.423C141.986 346.022 142.336 345.855 142.42 345.939C142.503 346.022 142.328 346.34 142.078 346.682C141.827 347.024 141.577 347.316 141.468 347.258Z" fill="#263238"/>
<path d="M142.287 347.727C142.179 347.727 142.229 347.259 142.488 346.817C142.746 346.375 143.072 346.107 143.164 346.174C143.255 346.241 143.097 346.617 142.863 347.009C142.629 347.401 142.404 347.768 142.287 347.727Z" fill="#263238"/>
<path d="M132.235 348.548C132.185 348.548 132.002 348.397 131.718 348.08C131.382 347.672 131.007 347.298 130.599 346.962C130.199 346.641 129.721 346.431 129.214 346.352C128.83 346.302 128.571 346.352 128.546 346.302C128.521 346.252 128.763 346.077 129.222 346.044C129.828 346.031 130.419 346.232 130.892 346.611C131.337 346.97 131.71 347.408 131.993 347.905C132.185 348.272 132.285 348.514 132.235 348.548Z" fill="#263238"/>
<path d="M141.511 345.906C141.569 346.006 141.352 346.257 140.985 346.39C140.618 346.524 140.292 346.474 140.276 346.39C140.259 346.307 140.518 346.131 140.835 346.015C141.152 345.898 141.444 345.806 141.511 345.906Z" fill="#263238"/>
<path d="M141.327 345.213C141.327 345.338 140.994 345.438 140.559 345.447C140.125 345.455 139.792 345.355 139.8 345.238C139.808 345.121 140.142 345.013 140.559 345.004C140.977 344.996 141.327 345.096 141.327 345.213Z" fill="#263238"/>
<path d="M188.384 133.876C188.05 133.534 187.224 133.701 187.224 133.701C187.307 133.22 187.307 132.729 187.224 132.249C187.074 131.781 186.022 131.873 186.022 131.873C185.973 131.479 185.973 131.081 186.022 130.688C186.03 130.601 186.011 130.513 185.968 130.437C185.925 130.36 185.859 130.299 185.78 130.262C185.282 130.059 184.748 129.963 184.211 129.978C183.568 129.519 186.172 125.872 187.14 124.703C188.108 123.535 187.933 122.625 187.074 122.625C186.481 122.625 183.443 126.131 182.508 127.307C181.573 128.484 179.094 131.756 179.011 129.144C178.927 126.531 177.876 124.561 177.216 124.228C176.557 123.894 175.856 124.678 176.215 125.404C176.53 126.229 176.727 127.095 176.799 127.975C176.89 128.676 176.859 129.388 176.707 130.078C176.43 131.363 176.054 132.625 175.58 133.851H175.514C175.514 133.851 157.301 151.32 155.983 152.564C154.806 153.682 131.135 151.237 126.386 150.736C124.772 150.5 123.142 150.388 121.511 150.402C119.45 150.494 119.083 150.786 117.029 150.811C111.844 150.869 106.671 151.324 101.555 152.172C99.2384 152.566 97.0746 153.588 95.2996 155.128C93.5245 156.667 92.2063 158.665 91.489 160.902C86.7064 175.843 75.8726 211.207 73.9612 231.072C72.5169 233.691 71.213 236.385 70.0551 239.143C68.7113 242.798 69.0368 242.924 69.4875 243.007C70.7061 243.232 72.0916 236.672 72.6091 238.258C73.1266 239.844 69.9799 246.079 71.257 246.262C72.9263 246.496 74.2534 239.585 74.412 239.034C74.5705 238.483 75.3968 238.659 75.2466 239.176C75.0046 239.911 72.6592 247.698 74.2951 247.948C75.1965 248.082 75.2967 246.438 75.2967 246.438C75.2967 246.438 76.966 238.984 77.7255 239.134C78.4851 239.285 77.6754 243.683 77.2915 245.152C76.9076 246.621 77.4417 247.364 78.2263 247.005C78.7605 246.755 80.0375 242.289 80.3881 240.837C80.7386 239.385 81.615 235.362 82.7919 237.69C83.9687 240.019 85.7549 241.371 86.4894 241.405C86.6549 241.385 86.8109 241.317 86.9373 241.209C87.0638 241.1 87.1548 240.956 87.1988 240.796C87.2428 240.635 87.2377 240.465 87.1842 240.307C87.1306 240.149 87.0311 240.011 86.8984 239.911C86.2666 239.294 85.7244 238.591 85.2875 237.824C84.8981 237.226 84.6157 236.565 84.4528 235.871C84.1165 234.486 83.9207 233.071 83.8686 231.647L83.735 230.813C85.6047 221.556 90.9882 194.389 98.7588 177.036L101.947 183.596L103.333 188.454L94.8359 209.429L131.077 208.953L125.668 188.137L132.237 166.436C139.34 166.595 157.577 166.862 160.615 165.484C164.438 163.815 184.211 138.842 184.211 138.842C185.5 137.841 186.734 136.771 187.908 135.637C187.908 135.637 189.11 134.627 188.384 133.876Z" fill="#FFBE9D"/>
<path d="M89.0072 192.574C91.3285 193.318 93.8114 192.008 94.5149 189.674C94.651 189.223 94.7934 188.751 94.9404 188.264C96.1463 184.271 103.202 184.935 101.647 188.805C101.002 190.299 100.24 191.739 99.3679 193.112C94.5837 200.393 100.519 206.904 109.227 206.639L111.686 206.564C122.529 206.234 130.849 197.144 127.446 186.844C127.384 186.658 127.349 186.431 127.334 186.173C127.052 181.094 133.295 177.279 132.946 172.204C132.825 169.211 135.117 166.469 138.11 166.58L146.24 166.881C150.824 167.051 154.573 163.266 154.36 158.684C154.18 154.8 151.179 151.635 147.31 151.248L132.339 149.75C126.079 149.124 116.916 151.182 110.681 150.348C109.843 150.236 109.93 150.314 109.086 150.355C99.2984 150.835 98.4917 152.833 94.1012 156.246C90.7519 158.849 85.7957 175.909 83.3821 184.858C82.5535 187.929 84.311 191.07 87.3407 192.04L89.0072 192.574Z" fill="url(#paint43_linear_1_162)"/>
<path d="M115.128 190.319C114.486 190.434 113.833 190.468 113.183 190.419C111.973 190.419 110.312 190.336 108.484 190.152C106.656 189.969 105.004 189.71 103.827 189.476C103.178 189.393 102.542 189.23 101.932 188.992C102.585 188.992 103.236 189.054 103.877 189.176C105.062 189.326 106.706 189.535 108.526 189.718C110.345 189.902 111.998 190.027 113.192 190.111C113.842 190.119 114.491 190.189 115.128 190.319Z" fill="#263238"/>
<path d="M117.664 187.176C117.022 187.49 116.344 187.723 115.644 187.869C112.314 188.744 108.879 189.151 105.436 189.079C104.724 189.102 104.012 189.035 103.316 188.878C104.019 188.79 104.728 188.753 105.436 188.77C106.747 188.728 108.55 188.636 110.536 188.403C112.523 188.169 114.292 187.835 115.544 187.568C116.239 187.382 116.948 187.251 117.664 187.176Z" fill="#263238"/>
<path d="M130.115 173.129C130.098 173.765 130.011 174.398 129.856 175.015C129.639 176.175 129.305 177.761 128.88 179.497C128.454 181.233 128.045 182.836 127.678 183.921C127.53 184.542 127.312 185.144 127.027 185.715C127.073 185.081 127.191 184.454 127.377 183.846C127.695 182.544 128.053 181.041 128.454 179.397C128.855 177.753 129.239 176.251 129.556 174.948C129.669 174.322 129.857 173.711 130.115 173.129Z" fill="#263238"/>
<path d="M93.6327 191.799C91.7018 191.5 89.7961 191.057 87.932 190.472C86.0272 190.026 84.1581 189.44 82.3398 188.719C84.2698 189.022 86.1751 189.465 88.0405 190.046C89.9457 190.49 91.815 191.076 93.6327 191.799Z" fill="#263238"/>
<path d="M132.62 166.177C132.305 166.231 131.983 166.231 131.668 166.177C130.796 166.087 129.94 165.882 129.122 165.567C127.757 165.054 126.514 164.261 125.473 163.239C124.433 162.217 123.617 160.989 123.08 159.633C122.485 158.142 122.231 156.536 122.337 154.934C122.374 153.612 122.769 152.326 123.48 151.211C123.98 150.461 124.727 149.908 125.592 149.651C125.823 149.587 126.062 149.556 126.301 149.559C126.468 149.559 126.552 149.559 126.552 149.559C126.552 149.559 126.201 149.559 125.642 149.784C124.849 150.077 124.176 150.626 123.731 151.345C122.595 153.131 122.278 156.395 123.489 159.441C124.052 160.878 124.934 162.167 126.068 163.214C126.997 164.07 128.067 164.759 129.231 165.25C130.323 165.682 131.46 165.993 132.62 166.177Z" fill="#263238"/>
<path d="M152.076 166.898C151.867 164.339 151.8 161.77 151.876 159.203C151.81 156.638 151.888 154.072 152.109 151.516C152.318 154.072 152.385 156.639 152.31 159.203C152.38 161.77 152.302 164.34 152.076 166.898Z" fill="#263238"/>
<path d="M121.462 149.621C121.554 147.759 121.746 145.656 121.746 145.656C121.746 145.656 126.353 145.147 126.629 140.389C126.904 135.632 126.629 124.656 126.629 124.656L118.282 120.383L109.018 127.669L110.445 151.457L118.942 151.999C119.591 152.017 120.221 151.777 120.694 151.331C121.166 150.885 121.443 150.27 121.462 149.621Z" fill="#FFBE9D"/>
<path d="M122.287 136.62C122.287 136.62 122.287 136.712 122.212 136.821C122.15 136.899 122.07 136.962 121.978 137.002C121.887 137.043 121.787 137.061 121.686 137.054C121.152 137.054 120.635 136.437 120.451 135.719C120.364 135.371 120.364 135.007 120.451 134.659C120.468 134.507 120.523 134.362 120.611 134.236C120.698 134.111 120.815 134.01 120.952 133.941C121.064 133.895 121.19 133.895 121.303 133.941C121.386 133.982 121.453 134.05 121.495 134.133C121.553 134.275 121.495 134.367 121.495 134.358C121.495 134.35 121.495 134.275 121.411 134.191C121.367 134.132 121.303 134.09 121.231 134.075C121.158 134.059 121.083 134.071 121.019 134.108C120.916 134.17 120.831 134.257 120.771 134.36C120.712 134.464 120.679 134.581 120.677 134.701C120.606 135.011 120.606 135.333 120.677 135.644C120.843 136.295 121.294 136.821 121.695 136.871C121.773 136.881 121.853 136.876 121.929 136.854C122.005 136.833 122.076 136.796 122.137 136.745C122.237 136.679 122.271 136.612 122.287 136.62Z" fill="#EB996E"/>
<path d="M129.492 122.081C128.849 119.894 126.52 118.809 124.4 118.208C121.17 117.29 117.681 116.89 114.526 118.05C111.371 119.21 107.582 121.247 107.582 124.727C105.721 124.577 104.652 126.204 103.918 128.224C103.448 129.455 103.167 130.749 103.083 132.064C102.85 136.621 101.573 142.914 98.6178 146.253C96.9485 148.114 94.6365 149.399 93.685 151.72C92.8504 153.731 93.2844 156.118 92.5082 158.155C91.8154 159.949 90.288 161.226 89.1696 162.787C88.0301 164.558 87.3595 166.589 87.2208 168.69C87.0821 170.791 87.4799 172.893 88.3766 174.798C89.2799 176.654 90.5516 178.307 92.1142 179.656C93.6769 181.005 95.4978 182.021 97.466 182.644C101.365 183.83 105.522 183.87 109.443 182.761C112.386 182.057 115.131 180.696 117.473 178.779C119.868 176.823 121.514 174.098 122.13 171.067C122.723 167.662 121.771 164.198 121.062 160.809C118.842 150.101 119.476 149.541 122.28 139.601C122.347 139.425 122.38 139.242 122.431 139.066C122.481 138.891 122.506 138.808 122.539 138.674C122.619 138.281 122.661 137.881 122.664 137.481C122.255 137.633 121.81 137.665 121.383 137.573C120.955 137.482 120.563 137.27 120.252 136.963C119.94 136.636 119.723 136.23 119.623 135.789C119.523 135.349 119.544 134.889 119.685 134.459C119.881 133.989 120.175 133.566 120.546 133.216C120.917 132.867 121.357 132.599 121.838 132.431C122.764 132.047 123.758 131.847 124.667 131.421C126.595 130.503 127.931 128.6 128.841 126.605C129.589 125.222 129.819 123.619 129.492 122.081Z" fill="#263238"/>
<path d="M122.62 136.844C122.796 137.104 122.942 137.384 123.054 137.678C123.304 138.204 123.638 138.947 124.006 139.807L124.072 139.965H123.897L123.062 140.04C122.487 140.04 122.002 140.149 121.435 140.141C121.385 140.13 121.34 140.106 121.302 140.073C121.264 140.039 121.235 139.996 121.218 139.949C121.193 139.873 121.193 139.791 121.218 139.715C121.237 139.602 121.262 139.491 121.293 139.381L121.443 138.788C121.519 138.393 121.636 138.007 121.794 137.637C121.778 138.04 121.719 138.44 121.618 138.83L121.502 139.423C121.46 139.623 121.385 139.932 121.502 139.907C121.919 139.907 122.512 139.815 123.062 139.782L123.897 139.707L123.789 139.89C123.43 139.056 123.129 138.271 122.954 137.728C122.8 137.451 122.688 137.153 122.62 136.844Z" fill="#FF725E"/>
<path d="M94.042 207.096L131.059 205.969L147.168 268.852L144.205 340.982H124.632L127.027 270.387L112.713 226.61L114.917 343.778L95.1354 344.071L93.0571 233.938C92.9653 230.875 91.9637 223.972 92.3393 220.934L94.042 207.096Z" fill="#263238"/>
<path d="M117.638 227.507C117.032 227.546 116.424 227.509 115.827 227.399C114.708 227.265 113.181 227.032 111.503 226.698C109.826 226.364 108.323 225.98 107.238 225.671C106.658 225.544 106.097 225.342 105.569 225.07C105.569 224.945 108.29 225.596 111.628 226.272C114.967 226.948 117.655 227.382 117.638 227.507Z" fill="#455A64"/>
<path d="M144.007 337.03C144.007 337.146 139.575 337.247 134.108 337.247C128.641 337.247 124.2 337.146 124.2 337.03C124.2 336.913 128.632 336.812 134.108 336.812C139.583 336.812 144.007 336.904 144.007 337.03Z" fill="#455A64"/>
<path d="M114.742 340.737C114.742 340.862 110.435 340.954 105.126 340.954C99.818 340.954 95.5195 340.862 95.5195 340.737C95.5195 340.611 99.8264 340.52 105.126 340.52C110.426 340.52 114.742 340.62 114.742 340.737Z" fill="#455A64"/>
<path d="M112.19 340.431C112.073 340.431 111.556 314.832 111.03 283.257C110.504 251.682 110.195 226.066 110.304 226.066C110.412 226.066 110.947 251.657 111.464 283.249C111.982 314.84 112.315 340.431 112.19 340.431Z" fill="#455A64"/>
<path d="M141.374 337.02C141.365 336.906 141.365 336.792 141.374 336.678V335.677C141.374 334.775 141.441 333.481 141.491 331.837C141.608 328.499 141.775 323.649 141.984 317.707C142.434 305.754 143.069 289.278 143.762 271.091C143.762 270.916 143.762 270.749 143.762 270.599V270.657C139.38 253.129 135.415 237.221 132.535 225.711L129.197 212.098C128.813 210.504 128.521 209.26 128.312 208.392C128.212 207.983 128.145 207.666 128.087 207.424C128.054 207.315 128.035 207.203 128.028 207.09C128.072 207.195 128.105 207.304 128.128 207.415C128.195 207.649 128.279 207.966 128.396 208.367C128.621 209.202 128.946 210.47 129.364 212.056C130.198 215.278 131.375 219.918 132.844 225.636C135.749 237.137 139.755 253.004 144.196 270.557V270.615C144.196 270.766 144.196 270.941 144.196 271.108C143.453 289.295 142.777 305.763 142.284 317.715C142.025 323.666 141.808 328.482 141.658 331.837C141.575 333.507 141.508 334.775 141.466 335.677C141.466 336.102 141.416 336.436 141.408 336.678C141.409 336.793 141.398 336.908 141.374 337.02Z" fill="#455A64"/>
<path d="M134.99 269.137C133.584 269.599 132.136 269.92 130.666 270.097C128.863 270.405 127.328 270.622 126.635 270.656V270.489C126.86 270.556 126.977 270.597 126.977 270.631C126.977 270.664 126.835 270.631 126.601 270.631H126.101L126.601 270.48C127.252 270.289 128.788 269.971 130.591 269.646C132.037 269.332 133.51 269.162 134.99 269.137Z" fill="#455A64"/>
<path d="M134.649 271.53C133.347 271.59 132.042 271.531 130.751 271.355C129.447 271.329 128.148 271.186 126.87 270.93C129.478 270.717 132.104 270.92 134.649 271.53Z" fill="#455A64"/>
<path opacity="0.2" d="M93.8857 208.423C94.3241 208.986 94.8763 209.45 95.5062 209.785C96.1362 210.12 96.8297 210.318 97.5415 210.367C99.0324 210.544 100.54 210.516 102.024 210.284C111.58 209.224 121.705 208.247 131.061 205.969C118.95 206.645 106.155 206.419 94.0443 207.096L93.9191 208.131" fill="black"/>
<g opacity="0.2">
<path opacity="0.2" d="M106.361 225.496L113.189 251.988L112.713 226.615L106.361 225.496Z" fill="black"/>
</g>
<defs>
<linearGradient id="paint0_linear_1_162" x1="232.248" y1="204.581" x2="301.906" y2="204.581" gradientUnits="userSpaceOnUse">
<stop stop-color="#8A2BE2"/>
<stop offset="0.23" stop-color="#8427E1"/>
<stop offset="0.52" stop-color="#741CDD"/>
<stop offset="0.86" stop-color="#5909D7"/>
<stop offset="1" stop-color="#4B00D4"/>
</linearGradient>
<linearGradient id="paint1_linear_1_162" x1="228.199" y1="45.9437" x2="298.035" y2="45.9437" gradientUnits="userSpaceOnUse">
<stop stop-color="#8A2BE2"/>
<stop offset="0.23" stop-color="#8427E1"/>
<stop offset="0.52" stop-color="#741CDD"/>
<stop offset="0.86" stop-color="#5909D7"/>
<stop offset="1" stop-color="#4B00D4"/>
</linearGradient>
<linearGradient id="paint2_linear_1_162" x1="160.126" y1="240.889" x2="224.676" y2="240.889" gradientUnits="userSpaceOnUse">
<stop stop-color="#8A2BE2"/>
<stop offset="0.23" stop-color="#8427E1"/>
<stop offset="0.52" stop-color="#741CDD"/>
<stop offset="0.86" stop-color="#5909D7"/>
<stop offset="1" stop-color="#4B00D4"/>
</linearGradient>
<linearGradient id="paint3_linear_1_162" x1="151.819" y1="110.234" x2="173.382" y2="110.332" gradientUnits="userSpaceOnUse">
<stop stop-color="#8A2BE2"/>
<stop offset="0.23" stop-color="#8427E1"/>
<stop offset="0.52" stop-color="#741CDD"/>
<stop offset="0.86" stop-color="#5909D7"/>
<stop offset="1" stop-color="#4B00D4"/>
</linearGradient>
<linearGradient id="paint4_linear_1_162" x1="151.819" y1="110.234" x2="173.382" y2="110.332" gradientUnits="userSpaceOnUse">
<stop stop-color="#8A2BE2"/>
<stop offset="0.23" stop-color="#8427E1"/>
<stop offset="0.52" stop-color="#741CDD"/>
<stop offset="0.86" stop-color="#5909D7"/>
<stop offset="1" stop-color="#4B00D4"/>
</linearGradient>
<linearGradient id="paint5_linear_1_162" x1="151.661" y1="125.261" x2="238.229" y2="125.261" gradientUnits="userSpaceOnUse">
<stop stop-color="#8A2BE2"/>
<stop offset="0.23" stop-color="#8427E1"/>
<stop offset="0.52" stop-color="#741CDD"/>
<stop offset="0.86" stop-color="#5909D7"/>
<stop offset="1" stop-color="#4B00D4"/>
</linearGradient>
<linearGradient id="paint6_linear_1_162" x1="158.309" y1="124.389" x2="197.747" y2="124.389" gradientUnits="userSpaceOnUse">
<stop stop-color="#8A2BE2"/>
<stop offset="0.23" stop-color="#8427E1"/>
<stop offset="0.52" stop-color="#741CDD"/>
<stop offset="0.86" stop-color="#5909D7"/>
<stop offset="1" stop-color="#4B00D4"/>
</linearGradient>
<linearGradient id="paint7_linear_1_162" x1="158.309" y1="124.389" x2="197.747" y2="124.389" gradientUnits="userSpaceOnUse">
<stop stop-color="#8A2BE2"/>
<stop offset="0.23" stop-color="#8427E1"/>
<stop offset="0.52" stop-color="#741CDD"/>
<stop offset="0.86" stop-color="#5909D7"/>
<stop offset="1" stop-color="#4B00D4"/>
</linearGradient>
<linearGradient id="paint8_linear_1_162" x1="151.672" y1="146.176" x2="173.235" y2="146.274" gradientUnits="userSpaceOnUse">
<stop stop-color="#8A2BE2"/>
<stop offset="0.23" stop-color="#8427E1"/>
<stop offset="0.52" stop-color="#741CDD"/>
<stop offset="0.86" stop-color="#5909D7"/>
<stop offset="1" stop-color="#4B00D4"/>
</linearGradient>
<linearGradient id="paint9_linear_1_162" x1="151.672" y1="146.176" x2="173.235" y2="146.274" gradientUnits="userSpaceOnUse">
<stop stop-color="#8A2BE2"/>
<stop offset="0.23" stop-color="#8427E1"/>
<stop offset="0.52" stop-color="#741CDD"/>
<stop offset="0.86" stop-color="#5909D7"/>
<stop offset="1" stop-color="#4B00D4"/>
</linearGradient>
<linearGradient id="paint10_linear_1_162" x1="151.469" y1="161.266" x2="238.047" y2="161.266" gradientUnits="userSpaceOnUse">
<stop stop-color="#8A2BE2"/>
<stop offset="0.23" stop-color="#8427E1"/>
<stop offset="0.52" stop-color="#741CDD"/>
<stop offset="0.86" stop-color="#5909D7"/>
<stop offset="1" stop-color="#4B00D4"/>
</linearGradient>
<linearGradient id="paint11_linear_1_162" x1="151.508" y1="183.668" x2="173.071" y2="183.766" gradientUnits="userSpaceOnUse">
<stop stop-color="#8A2BE2"/>
<stop offset="0.23" stop-color="#8427E1"/>
<stop offset="0.52" stop-color="#741CDD"/>
<stop offset="0.86" stop-color="#5909D7"/>
<stop offset="1" stop-color="#4B00D4"/>
</linearGradient>
<linearGradient id="paint12_linear_1_162" x1="151.508" y1="183.668" x2="173.071" y2="183.766" gradientUnits="userSpaceOnUse">
<stop stop-color="#8A2BE2"/>
<stop offset="0.23" stop-color="#8427E1"/>
<stop offset="0.52" stop-color="#741CDD"/>
<stop offset="0.86" stop-color="#5909D7"/>
<stop offset="1" stop-color="#4B00D4"/>
</linearGradient>
<linearGradient id="paint13_linear_1_162" x1="151.377" y1="198.682" x2="237.946" y2="198.682" gradientUnits="userSpaceOnUse">
<stop stop-color="#8A2BE2"/>
<stop offset="0.23" stop-color="#8427E1"/>
<stop offset="0.52" stop-color="#741CDD"/>
<stop offset="0.86" stop-color="#5909D7"/>
<stop offset="1" stop-color="#4B00D4"/>
</linearGradient>
<linearGradient id="paint14_linear_1_162" x1="157.463" y1="161.194" x2="196.9" y2="161.373" gradientUnits="userSpaceOnUse">
<stop stop-color="#8A2BE2"/>
<stop offset="0.23" stop-color="#8427E1"/>
<stop offset="0.52" stop-color="#741CDD"/>
<stop offset="0.86" stop-color="#5909D7"/>
<stop offset="1" stop-color="#4B00D4"/>
</linearGradient>
<linearGradient id="paint15_linear_1_162" x1="157.463" y1="161.194" x2="196.9" y2="161.373" gradientUnits="userSpaceOnUse">
<stop stop-color="#8A2BE2"/>
<stop offset="0.23" stop-color="#8427E1"/>
<stop offset="0.52" stop-color="#741CDD"/>
<stop offset="0.86" stop-color="#5909D7"/>
<stop offset="1" stop-color="#4B00D4"/>
</linearGradient>
<linearGradient id="paint16_linear_1_162" x1="157.518" y1="199.04" x2="160.969" y2="199.04" gradientUnits="userSpaceOnUse">
<stop stop-color="#8A2BE2"/>
<stop offset="0.23" stop-color="#8427E1"/>
<stop offset="0.52" stop-color="#741CDD"/>
<stop offset="0.86" stop-color="#5909D7"/>
<stop offset="1" stop-color="#4B00D4"/>
</linearGradient>
<linearGradient id="paint17_linear_1_162" x1="162.833" y1="199.188" x2="166.287" y2="199.188" gradientUnits="userSpaceOnUse">
<stop stop-color="#8A2BE2"/>
<stop offset="0.23" stop-color="#8427E1"/>
<stop offset="0.52" stop-color="#741CDD"/>
<stop offset="0.86" stop-color="#5909D7"/>
<stop offset="1" stop-color="#4B00D4"/>
</linearGradient>
<linearGradient id="paint18_linear_1_162" x1="168.162" y1="199.083" x2="171.613" y2="199.083" gradientUnits="userSpaceOnUse">
<stop stop-color="#8A2BE2"/>
<stop offset="0.23" stop-color="#8427E1"/>
<stop offset="0.52" stop-color="#741CDD"/>
<stop offset="0.86" stop-color="#5909D7"/>
<stop offset="1" stop-color="#4B00D4"/>
</linearGradient>
<linearGradient id="paint19_linear_1_162" x1="173.477" y1="199.11" x2="176.928" y2="199.11" gradientUnits="userSpaceOnUse">
<stop stop-color="#8A2BE2"/>
<stop offset="0.23" stop-color="#8427E1"/>
<stop offset="0.52" stop-color="#741CDD"/>
<stop offset="0.86" stop-color="#5909D7"/>
<stop offset="1" stop-color="#4B00D4"/>
</linearGradient>
<linearGradient id="paint20_linear_1_162" x1="178.792" y1="199.137" x2="182.243" y2="199.137" gradientUnits="userSpaceOnUse">
<stop stop-color="#8A2BE2"/>
<stop offset="0.23" stop-color="#8427E1"/>
<stop offset="0.52" stop-color="#741CDD"/>
<stop offset="0.86" stop-color="#5909D7"/>
<stop offset="1" stop-color="#4B00D4"/>
</linearGradient>
<linearGradient id="paint21_linear_1_162" x1="184.117" y1="199.165" x2="187.568" y2="199.165" gradientUnits="userSpaceOnUse">
<stop stop-color="#8A2BE2"/>
<stop offset="0.23" stop-color="#8427E1"/>
<stop offset="0.52" stop-color="#741CDD"/>
<stop offset="0.86" stop-color="#5909D7"/>
<stop offset="1" stop-color="#4B00D4"/>
</linearGradient>
<linearGradient id="paint22_linear_1_162" x1="189.435" y1="199.297" x2="192.89" y2="199.297" gradientUnits="userSpaceOnUse">
<stop stop-color="#8A2BE2"/>
<stop offset="0.23" stop-color="#8427E1"/>
<stop offset="0.52" stop-color="#741CDD"/>
<stop offset="0.86" stop-color="#5909D7"/>
<stop offset="1" stop-color="#4B00D4"/>
</linearGradient>
<linearGradient id="paint23_linear_1_162" x1="194.75" y1="199.204" x2="198.201" y2="199.204" gradientUnits="userSpaceOnUse">
<stop stop-color="#8A2BE2"/>
<stop offset="0.23" stop-color="#8427E1"/>
<stop offset="0.52" stop-color="#741CDD"/>
<stop offset="0.86" stop-color="#5909D7"/>
<stop offset="1" stop-color="#4B00D4"/>
</linearGradient>
<linearGradient id="paint24_linear_1_162" x1="200.069" y1="199.231" x2="203.52" y2="199.231" gradientUnits="userSpaceOnUse">
<stop stop-color="#8A2BE2"/>
<stop offset="0.23" stop-color="#8427E1"/>
<stop offset="0.52" stop-color="#741CDD"/>
<stop offset="0.86" stop-color="#5909D7"/>
<stop offset="1" stop-color="#4B00D4"/>
</linearGradient>
<linearGradient id="paint25_linear_1_162" x1="157.518" y1="199.024" x2="160.969" y2="199.024" gradientUnits="userSpaceOnUse">
<stop stop-color="#8A2BE2"/>
<stop offset="0.23" stop-color="#8427E1"/>
<stop offset="0.52" stop-color="#741CDD"/>
<stop offset="0.86" stop-color="#5909D7"/>
<stop offset="1" stop-color="#4B00D4"/>
</linearGradient>
<linearGradient id="paint26_linear_1_162" x1="162.833" y1="199.172" x2="166.287" y2="199.172" gradientUnits="userSpaceOnUse">
<stop stop-color="#8A2BE2"/>
<stop offset="0.23" stop-color="#8427E1"/>
<stop offset="0.52" stop-color="#741CDD"/>
<stop offset="0.86" stop-color="#5909D7"/>
<stop offset="1" stop-color="#4B00D4"/>
</linearGradient>
<linearGradient id="paint27_linear_1_162" x1="168.158" y1="199.079" x2="171.609" y2="199.079" gradientUnits="userSpaceOnUse">
<stop stop-color="#8A2BE2"/>
<stop offset="0.23" stop-color="#8427E1"/>
<stop offset="0.52" stop-color="#741CDD"/>
<stop offset="0.86" stop-color="#5909D7"/>
<stop offset="1" stop-color="#4B00D4"/>
</linearGradient>
<linearGradient id="paint28_linear_1_162" x1="173.476" y1="199.106" x2="176.927" y2="199.106" gradientUnits="userSpaceOnUse">
<stop stop-color="#8A2BE2"/>
<stop offset="0.23" stop-color="#8427E1"/>
<stop offset="0.52" stop-color="#741CDD"/>
<stop offset="0.86" stop-color="#5909D7"/>
<stop offset="1" stop-color="#4B00D4"/>
</linearGradient>
<linearGradient id="paint29_linear_1_162" x1="178.791" y1="199.118" x2="182.243" y2="199.118" gradientUnits="userSpaceOnUse">
<stop stop-color="#8A2BE2"/>
<stop offset="0.23" stop-color="#8427E1"/>
<stop offset="0.52" stop-color="#741CDD"/>
<stop offset="0.86" stop-color="#5909D7"/>
<stop offset="1" stop-color="#4B00D4"/>
</linearGradient>
<linearGradient id="paint30_linear_1_162" x1="184.117" y1="199.145" x2="187.568" y2="199.145" gradientUnits="userSpaceOnUse">
<stop stop-color="#8A2BE2"/>
<stop offset="0.23" stop-color="#8427E1"/>
<stop offset="0.52" stop-color="#741CDD"/>
<stop offset="0.86" stop-color="#5909D7"/>
<stop offset="1" stop-color="#4B00D4"/>
</linearGradient>
<linearGradient id="paint31_linear_1_162" x1="189.435" y1="199.294" x2="192.889" y2="199.294" gradientUnits="userSpaceOnUse">
<stop stop-color="#8A2BE2"/>
<stop offset="0.23" stop-color="#8427E1"/>
<stop offset="0.52" stop-color="#741CDD"/>
<stop offset="0.86" stop-color="#5909D7"/>
<stop offset="1" stop-color="#4B00D4"/>
</linearGradient>
<linearGradient id="paint32_linear_1_162" x1="194.75" y1="199.2" x2="198.201" y2="199.2" gradientUnits="userSpaceOnUse">
<stop stop-color="#8A2BE2"/>
<stop offset="0.23" stop-color="#8427E1"/>
<stop offset="0.52" stop-color="#741CDD"/>
<stop offset="0.86" stop-color="#5909D7"/>
<stop offset="1" stop-color="#4B00D4"/>
</linearGradient>
<linearGradient id="paint33_linear_1_162" x1="200.069" y1="199.227" x2="203.52" y2="199.227" gradientUnits="userSpaceOnUse">
<stop stop-color="#8A2BE2"/>
<stop offset="0.23" stop-color="#8427E1"/>
<stop offset="0.52" stop-color="#741CDD"/>
<stop offset="0.86" stop-color="#5909D7"/>
<stop offset="1" stop-color="#4B00D4"/>
</linearGradient>
<linearGradient id="paint34_linear_1_162" x1="189.293" y1="78.747" x2="200.397" y2="78.747" gradientUnits="userSpaceOnUse">
<stop stop-color="#8A2BE2"/>
<stop offset="0.23" stop-color="#8427E1"/>
<stop offset="0.52" stop-color="#741CDD"/>
<stop offset="0.86" stop-color="#5909D7"/>
<stop offset="1" stop-color="#4B00D4"/>
</linearGradient>
<linearGradient id="paint35_linear_1_162" x1="189.293" y1="78.747" x2="200.397" y2="78.747" gradientUnits="userSpaceOnUse">
<stop stop-color="#8A2BE2"/>
<stop offset="0.23" stop-color="#8427E1"/>
<stop offset="0.52" stop-color="#741CDD"/>
<stop offset="0.86" stop-color="#5909D7"/>
<stop offset="1" stop-color="#4B00D4"/>
</linearGradient>
<linearGradient id="paint36_linear_1_162" x1="174.579" y1="90.1815" x2="214.142" y2="90.361" gradientUnits="userSpaceOnUse">
<stop stop-color="#8A2BE2"/>
<stop offset="0.23" stop-color="#8427E1"/>
<stop offset="0.52" stop-color="#741CDD"/>
<stop offset="0.86" stop-color="#5909D7"/>
<stop offset="1" stop-color="#4B00D4"/>
</linearGradient>
<linearGradient id="paint37_linear_1_162" x1="174.579" y1="90.1815" x2="214.142" y2="90.361" gradientUnits="userSpaceOnUse">
<stop stop-color="#8A2BE2"/>
<stop offset="0.23" stop-color="#8427E1"/>
<stop offset="0.52" stop-color="#741CDD"/>
<stop offset="0.86" stop-color="#5909D7"/>
<stop offset="1" stop-color="#4B00D4"/>
</linearGradient>
<linearGradient id="paint38_linear_1_162" x1="47.7146" y1="137.086" x2="90.9486" y2="137.086" gradientUnits="userSpaceOnUse">
<stop stop-color="#8A2BE2"/>
<stop offset="0.23" stop-color="#8427E1"/>
<stop offset="0.52" stop-color="#741CDD"/>
<stop offset="0.86" stop-color="#5909D7"/>
<stop offset="1" stop-color="#4B00D4"/>
</linearGradient>
<linearGradient id="paint39_linear_1_162" x1="60.9107" y1="133.399" x2="73.9929" y2="133.399" gradientUnits="userSpaceOnUse">
<stop stop-color="#8A2BE2"/>
<stop offset="0.23" stop-color="#8427E1"/>
<stop offset="0.52" stop-color="#741CDD"/>
<stop offset="0.86" stop-color="#5909D7"/>
<stop offset="1" stop-color="#4B00D4"/>
</linearGradient>
<linearGradient id="paint40_linear_1_162" x1="74.694" y1="136.339" x2="78.2991" y2="136.339" gradientUnits="userSpaceOnUse">
<stop stop-color="#8A2BE2"/>
<stop offset="0.23" stop-color="#8427E1"/>
<stop offset="0.52" stop-color="#741CDD"/>
<stop offset="0.86" stop-color="#5909D7"/>
<stop offset="1" stop-color="#4B00D4"/>
</linearGradient>
<linearGradient id="paint41_linear_1_162" x1="96.8742" y1="344.188" x2="118.508" y2="344.188" gradientUnits="userSpaceOnUse">
<stop stop-color="#8A2BE2"/>
<stop offset="0.23" stop-color="#8427E1"/>
<stop offset="0.52" stop-color="#741CDD"/>
<stop offset="0.86" stop-color="#5909D7"/>
<stop offset="1" stop-color="#4B00D4"/>
</linearGradient>
<linearGradient id="paint42_linear_1_162" x1="128.381" y1="344.166" x2="150.016" y2="344.166" gradientUnits="userSpaceOnUse">
<stop stop-color="#8A2BE2"/>
<stop offset="0.23" stop-color="#8427E1"/>
<stop offset="0.52" stop-color="#741CDD"/>
<stop offset="0.86" stop-color="#5909D7"/>
<stop offset="1" stop-color="#4B00D4"/>
</linearGradient>
<linearGradient id="paint43_linear_1_162" x1="82.0995" y1="178.223" x2="155.223" y2="178.223" gradientUnits="userSpaceOnUse">
<stop stop-color="#8A2BE2"/>
<stop offset="0.23" stop-color="#8427E1"/>
<stop offset="0.52" stop-color="#741CDD"/>
<stop offset="0.86" stop-color="#5909D7"/>
<stop offset="1" stop-color="#4B00D4"/>
</linearGradient>
</defs>
</svg>
