<svg width="19" height="24" viewBox="0 0 19 24" fill="none" xmlns="http://www.w3.org/2000/svg">
<g clip-path="url(#clip0_3_79)">
<path d="M16.3751 10.0112H1.66855C0.747037 10.0112 0 10.7583 0 11.6798V22.3314C0 23.2529 0.747037 23.9999 1.66855 23.9999H16.3751C17.2966 23.9999 18.0437 23.2529 18.0437 22.3314V11.6798C18.0437 10.7583 17.2966 10.0112 16.3751 10.0112Z" fill="url(#paint0_linear_3_79)"/>
<path d="M9.04123 14.0274C7.65141 14.0427 6.28831 13.6453 5.12446 12.8855C3.96062 12.1257 3.04837 11.0377 2.50321 9.75919C1.95806 8.48066 1.80452 7.06912 2.06201 5.70327C2.3195 4.33743 2.97645 3.07868 3.9497 2.0864C4.92295 1.09412 6.16873 0.412911 7.52933 0.129023C8.88994 -0.154865 10.3042 -0.0286736 11.593 0.491622C12.8819 1.01192 13.9874 1.90293 14.7696 3.05184C15.5518 4.20076 15.9755 5.55593 15.9871 6.94579C16.0026 8.80521 15.2801 10.5949 13.978 11.9224C12.676 13.25 10.9006 14.0069 9.04123 14.0274ZM9.04123 1.39688C7.92759 1.39304 6.83786 1.71976 5.91004 2.33567C4.98222 2.95158 4.25803 3.82899 3.8292 4.85676C3.40036 5.88452 3.28617 7.01642 3.50107 8.10914C3.71598 9.20185 4.25031 10.2062 5.03642 10.995C5.82252 11.7839 6.82504 12.3217 7.91701 12.5403C9.00897 12.759 10.1413 12.6487 11.1705 12.2235C12.1998 11.7982 13.0796 11.077 13.6987 10.1513C14.3179 9.22564 14.6483 8.13702 14.6483 7.02338C14.6484 5.53449 14.0582 4.10631 13.0072 3.05169C11.9563 1.99707 10.5301 1.40201 9.04123 1.39688Z" fill="url(#paint1_linear_3_79)"/>
<path d="M9.04123 14.0274C7.65141 14.0427 6.28831 13.6453 5.12446 12.8855C3.96062 12.1257 3.04837 11.0377 2.50321 9.75919C1.95806 8.48066 1.80452 7.06912 2.06201 5.70327C2.3195 4.33743 2.97645 3.07868 3.9497 2.0864C4.92295 1.09412 6.16873 0.412911 7.52933 0.129023C8.88994 -0.154865 10.3042 -0.0286736 11.593 0.491622C12.8819 1.01192 13.9874 1.90293 14.7696 3.05184C15.5518 4.20076 15.9755 5.55593 15.9871 6.94579C16.0026 8.80521 15.2801 10.5949 13.978 11.9224C12.676 13.25 10.9006 14.0069 9.04123 14.0274ZM9.04123 1.39688C7.92759 1.39304 6.83786 1.71976 5.91004 2.33567C4.98222 2.95158 4.25803 3.82899 3.8292 4.85676C3.40036 5.88452 3.28617 7.01642 3.50107 8.10914C3.71598 9.20185 4.25031 10.2062 5.03642 10.995C5.82252 11.7839 6.82504 12.3217 7.91701 12.5403C9.00897 12.759 10.1413 12.6487 11.1705 12.2235C12.1998 11.7982 13.0796 11.077 13.6987 10.1513C14.3179 9.22564 14.6483 8.13702 14.6483 7.02338C14.6484 5.53449 14.0582 4.10631 13.0072 3.05169C11.9563 1.99707 10.5301 1.40201 9.04123 1.39688Z" fill="url(#paint2_linear_3_79)"/>
<path d="M9.04123 14.0274C7.65141 14.0427 6.28831 13.6453 5.12446 12.8855C3.96062 12.1257 3.04837 11.0377 2.50321 9.75919C1.95806 8.48066 1.80452 7.06912 2.06201 5.70327C2.3195 4.33743 2.97645 3.07868 3.9497 2.0864C4.92295 1.09412 6.16873 0.412911 7.52933 0.129023C8.88994 -0.154865 10.3042 -0.0286736 11.593 0.491622C12.8819 1.01192 13.9874 1.90293 14.7696 3.05184C15.5518 4.20076 15.9755 5.55593 15.9871 6.94579C16.0026 8.80521 15.2801 10.5949 13.978 11.9224C12.676 13.25 10.9006 14.0069 9.04123 14.0274ZM9.04123 1.39688C7.92759 1.39304 6.83786 1.71976 5.91004 2.33567C4.98222 2.95158 4.25803 3.82899 3.8292 4.85676C3.40036 5.88452 3.28617 7.01642 3.50107 8.10914C3.71598 9.20185 4.25031 10.2062 5.03642 10.995C5.82252 11.7839 6.82504 12.3217 7.91701 12.5403C9.00897 12.759 10.1413 12.6487 11.1705 12.2235C12.1998 11.7982 13.0796 11.077 13.6987 10.1513C14.3179 9.22564 14.6483 8.13702 14.6483 7.02338C14.6484 5.53449 14.0582 4.10631 13.0072 3.05169C11.9563 1.99707 10.5301 1.40201 9.04123 1.39688Z" fill="url(#paint3_linear_3_79)"/>
<path d="M11.0591 16.1228C11.0591 16.5065 10.9453 16.8816 10.7321 17.2007C10.5189 17.5198 10.2159 17.7685 9.86136 17.9153C9.50684 18.0622 9.11673 18.1006 8.74037 18.0257C8.36402 17.9508 8.01831 17.766 7.74697 17.4947C7.47563 17.2234 7.29086 16.8777 7.21599 16.5013C7.14113 16.125 7.17954 15.7349 7.32639 15.3803C7.47324 15.0258 7.72192 14.7228 8.04098 14.5096C8.36004 14.2964 8.73515 14.1826 9.11889 14.1826C9.63345 14.1826 10.1269 14.387 10.4908 14.7509C10.8547 15.1147 11.0591 15.6082 11.0591 16.1228Z" fill="white"/>
<path d="M10.0308 18.781C10.0346 18.9821 9.97822 19.1798 9.86886 19.3486C9.75949 19.5175 9.60214 19.6498 9.41701 19.7285C9.23189 19.8073 9.02746 19.8289 8.82997 19.7906C8.63247 19.7523 8.45093 19.6558 8.30867 19.5136C8.16642 19.3713 8.06995 19.1898 8.03165 18.9923C7.99334 18.7948 8.01494 18.5903 8.0937 18.4052C8.17245 18.2201 8.30475 18.0627 8.4736 17.9534C8.64245 17.844 8.84015 17.7876 9.04129 17.7914C9.30372 17.7914 9.5554 17.8957 9.74097 18.0813C9.92653 18.2668 10.0308 18.5185 10.0308 18.781Z" fill="white"/>
<path d="M8.07106 19.1107L7.15918 16.9377H10.8843L9.97244 19.1107H8.07106Z" fill="white"/>
</g>
<defs>
<linearGradient id="paint0_linear_3_79" x1="12.1649" y1="25.6297" x2="3.41471" y2="1.59086" gradientUnits="userSpaceOnUse">
<stop stop-color="#3C00F2"/>
<stop offset="0.25" stop-color="#5910EC"/>
<stop offset="0.54" stop-color="#741FE7"/>
<stop offset="0.8" stop-color="#8428E3"/>
<stop offset="1" stop-color="#8A2BE2"/>
</linearGradient>
<linearGradient id="paint1_linear_3_79" x1="1051.1" y1="3203.09" x2="987.751" y2="3029.05" gradientUnits="userSpaceOnUse">
<stop stop-color="#3C00F2"/>
<stop offset="0.25" stop-color="#5910EC"/>
<stop offset="0.54" stop-color="#741FE7"/>
<stop offset="0.8" stop-color="#8428E3"/>
<stop offset="1" stop-color="#8A2BE2"/>
</linearGradient>
<linearGradient id="paint2_linear_3_79" x1="1051.1" y1="3203.09" x2="987.751" y2="3029.05" gradientUnits="userSpaceOnUse">
<stop stop-color="#3C00F2"/>
<stop offset="0.25" stop-color="#5910EC"/>
<stop offset="0.54" stop-color="#741FE7"/>
<stop offset="0.8" stop-color="#8428E3"/>
<stop offset="1" stop-color="#8A2BE2"/>
</linearGradient>
<linearGradient id="paint3_linear_3_79" x1="1051.1" y1="3203.09" x2="987.751" y2="3029.05" gradientUnits="userSpaceOnUse">
<stop stop-color="#3C00F2"/>
<stop offset="0.25" stop-color="#5910EC"/>
<stop offset="0.54" stop-color="#741FE7"/>
<stop offset="0.8" stop-color="#8428E3"/>
<stop offset="1" stop-color="#8A2BE2"/>
</linearGradient>
<clipPath id="clip0_3_79">
<rect width="18.0437" height="24" fill="white"/>
</clipPath>
</defs>
</svg>
