<svg width="17" height="20" viewBox="0 0 17 20" fill="none" xmlns="http://www.w3.org/2000/svg">
<path d="M15.2749 0H1.36719C0.61332 0 0 0.61332 0 1.36719V9.915C0 10.6689 0.61332 11.2822 1.36719 11.2822H2.94758V14.164C2.94758 15.5054 3.75543 16.7173 4.95844 17.2514V19.4141C4.95844 19.7377 5.22078 20 5.54438 20H11.0977C11.4213 20 11.6837 19.7377 11.6837 19.4141V17.2514C12.8866 16.7174 13.6945 15.5055 13.6945 14.164V11.2822H15.2749C16.0288 11.2822 16.6421 10.6689 16.6421 9.91504V1.36719C16.6421 0.61332 16.0288 0 15.2749 0V0ZM1.36719 1.17188H15.2749C15.3807 1.17188 15.4702 1.26133 15.4702 1.36719V2.46531H1.17188V1.36719C1.17188 1.26133 1.26133 1.17188 1.36719 1.17188ZM10.5118 18.8281H6.13031V17.4295H10.5118V18.8281ZM12.5227 14.164C12.5227 15.1128 11.9043 15.9626 11.0094 16.2577H5.63277C4.73785 15.9626 4.11949 15.1128 4.11949 14.164V11.2822H8.54035C8.02016 11.8486 7.52938 12.7119 7.52938 13.954C7.52938 14.2776 7.79172 14.54 8.11531 14.54C8.43891 14.54 8.70125 14.2776 8.70125 13.954C8.70125 12.1541 10.1527 11.4861 10.211 11.4601C10.4298 11.3694 10.5654 11.1587 10.5654 10.9218V8.28703C10.5654 7.74742 11.0044 7.3084 11.544 7.3084C12.0837 7.3084 12.5227 7.74738 12.5227 8.28703V14.164ZM15.2749 10.1103H13.6945V8.28699C13.6945 7.10121 12.7298 6.13648 11.544 6.13648C10.3582 6.13648 9.39351 7.10117 9.39351 8.28699V10.1103H1.36719C1.26133 10.1103 1.17188 10.0209 1.17188 9.915V3.63719H15.4702V9.915C15.4702 10.0209 15.3808 10.1103 15.2749 10.1103Z" fill="url(#paint0_linear_6463_1066)"/>
<defs>
<linearGradient id="paint0_linear_6463_1066" x1="0.0325593" y1="10.1132" x2="16.7489" y2="10.1132" gradientUnits="userSpaceOnUse">
<stop stop-color="#8A2BE2"/>
<stop offset="0.23" stop-color="#8427E1"/>
<stop offset="0.52" stop-color="#741CDD"/>
<stop offset="0.86" stop-color="#5909D7"/>
<stop offset="1" stop-color="#4B00D4"/>
</linearGradient>
</defs>
</svg>
