<svg width="24" height="25" viewBox="0 0 24 25" fill="none" xmlns="http://www.w3.org/2000/svg">
<path d="M23.9876 18.8602C23.9132 18.1072 23.5097 17.4345 22.8804 17.0147L18.6141 14.1708C17.6181 13.5071 16.2866 13.6413 15.4411 14.4851L14.0777 15.8599C13.7675 15.968 12.3329 15.3599 10.4858 13.512C8.63785 11.6632 8.03798 10.2408 8.11653 9.9577L9.51516 8.55907C10.3597 7.7145 10.4923 6.37967 9.82942 5.38615L6.98551 1.11986C6.56566 0.490497 5.89294 0.0870659 5.14004 0.0125923C4.38547 -0.0627194 3.65057 0.202436 3.11612 0.736881L1.00628 2.84673C-1.88512 5.73812 1.88035 12.0921 6.89383 17.1064C10.3022 20.5148 17.7608 26.3907 21.1536 22.994L23.2634 20.8842C23.7978 20.3505 24.0621 19.6123 23.9876 18.8602Z" fill="url(#paint0_linear_56_103)"/>
<defs>
<linearGradient id="paint0_linear_56_103" x1="16.0274" y1="26.4171" x2="6.95154" y2="1.64121" gradientUnits="userSpaceOnUse">
<stop stop-color="#3C00F2"/>
<stop offset="0.25" stop-color="#5910EC"/>
<stop offset="0.54" stop-color="#741FE7"/>
<stop offset="0.8" stop-color="#8428E3"/>
<stop offset="1" stop-color="#8A2BE2"/>
</linearGradient>
</defs>
</svg>
