<svg width="25" height="25" viewBox="0 0 25 25" fill="none" xmlns="http://www.w3.org/2000/svg">
<rect width="25" height="25" rx="5" fill="white"/>
<g clip-path="url(#clip0_195_5561)">
<path d="M14.4066 8.125C15.0171 8.2441 15.5781 8.54266 16.0179 8.98246C16.4577 9.42226 16.7563 9.98329 16.8754 10.5937M14.4066 5.625C15.6749 5.7659 16.8576 6.33386 17.7605 7.23563C18.6634 8.1374 19.2329 9.31938 19.3754 10.5875M18.7504 15.575V17.45C18.7511 17.6241 18.7154 17.7964 18.6457 17.9558C18.576 18.1153 18.4737 18.2585 18.3454 18.3762C18.2172 18.4938 18.0657 18.5834 17.9009 18.6392C17.736 18.695 17.5612 18.7157 17.3879 18.7C15.4647 18.491 13.6173 17.8338 11.9941 16.7813C10.484 15.8217 9.20372 14.5414 8.24414 13.0313C7.18787 11.4008 6.53054 9.54437 6.32539 7.6125C6.30977 7.43967 6.33031 7.26548 6.3857 7.10102C6.44109 6.93656 6.53012 6.78543 6.64711 6.65726C6.76411 6.5291 6.90651 6.42669 7.06525 6.35658C7.224 6.28646 7.3956 6.25016 7.56914 6.25H9.44414C9.74745 6.24701 10.0415 6.35442 10.2715 6.55221C10.5015 6.74999 10.6517 7.02465 10.6941 7.325C10.7733 7.92504 10.92 8.5142 11.1316 9.08125C11.2157 9.30495 11.2339 9.54807 11.1841 9.7818C11.1342 10.0155 11.0184 10.2301 10.8504 10.4L10.0566 11.1937C10.9464 12.7585 12.2419 14.054 13.8066 14.9437L14.6004 14.15C14.7703 13.982 14.9849 13.8662 15.2186 13.8163C15.4523 13.7665 15.6954 13.7847 15.9191 13.8687C16.4862 14.0803 17.0753 14.2271 17.6754 14.3063C17.979 14.3491 18.2563 14.502 18.4545 14.7359C18.6527 14.9699 18.758 15.2685 18.7504 15.575Z" stroke="#741CDD" stroke-linecap="round" stroke-linejoin="round"/>
</g>
<defs>
<clipPath id="clip0_195_5561">
<rect width="15" height="15" fill="white" transform="translate(5 5)"/>
</clipPath>
</defs>
</svg>
