<svg width="13" height="18" viewBox="0 0 13 18" fill="none" xmlns="http://www.w3.org/2000/svg">
<path d="M11.8872 13.9774L11.5118 13.3506C10.8367 12.2375 9.9049 10.9599 8.68276 10.9599C8.45633 10.9599 8.2321 11.0054 8.01014 11.0976L7.35418 11.3789C7.29426 11.4038 7.23605 11.432 7.17443 11.462C7.00655 11.5437 6.81617 11.6361 6.62035 11.6361C6.13731 11.6361 5.57762 11.0075 5.04465 9.86615C4.52158 8.74589 4.55494 8.15861 4.67501 7.8631C4.80751 7.53706 5.1156 7.39767 5.44659 7.2724C5.49262 7.25495 5.53419 7.23911 5.57462 7.22247L6.23887 6.94279C7.96939 6.21912 7.3256 3.69015 7.11452 2.86101L6.93551 2.14813C6.78248 1.5606 6.37672 0 5.03085 0C4.78169 0 4.51589 0.0580467 4.24109 0.172598C4.06078 0.244202 1.57946 1.25706 0.680509 3.03645C-0.393883 5.15447 -0.195225 7.9947 1.27039 11.4764C2.72505 14.9626 4.61137 17.0949 6.87698 17.814C7.2656 17.9375 7.70481 18 8.1825 18C8.1825 18 8.18266 18 8.18274 18C9.74627 18 11.2897 17.3348 11.4149 17.2796C11.954 17.0512 12.3024 16.7041 12.4505 16.248C12.7015 15.4744 12.2804 14.6268 11.8872 13.9774ZM11.2921 15.8721C11.2577 15.9781 11.138 16.0749 10.9367 16.1596C10.9333 16.1611 10.9293 16.1628 10.9259 16.1643C10.9119 16.1705 9.51489 16.7824 8.18242 16.7823C7.82992 16.7823 7.51468 16.739 7.24547 16.6534C5.33675 16.0475 3.70462 14.1481 2.39341 11.0058C1.07247 7.86748 0.861387 5.37155 1.76692 3.58647C2.47005 2.19473 4.67136 1.31186 4.69296 1.30341C4.69734 1.30163 4.70164 1.29992 4.70595 1.29814C4.8313 1.24553 4.94365 1.21776 5.03085 1.21776C5.29916 1.21776 5.54336 1.63391 5.75558 2.44957L5.93378 3.15945C6.31827 4.66947 6.25973 5.61397 5.76751 5.81985L5.10643 6.09831C5.08012 6.10919 5.04936 6.12064 5.01542 6.13355C4.65025 6.2718 3.89037 6.55936 3.54672 7.40465C3.23489 8.17168 3.36397 9.1454 3.94095 10.3815C4.71804 12.0452 5.59443 12.854 6.62019 12.854C7.09625 12.854 7.47839 12.6682 7.70668 12.5573C7.74873 12.5369 7.78632 12.5181 7.82675 12.5014L8.48369 12.2197C8.55148 12.1914 8.61659 12.1777 8.68267 12.1777C8.99889 12.1777 9.56588 12.4908 10.4688 13.9793L10.844 14.6057C11.3063 15.3691 11.3428 15.7157 11.2921 15.8721Z" fill="white"/>
</svg>
