<svg width="130" height="130" viewBox="0 0 130 130" fill="none" xmlns="http://www.w3.org/2000/svg">
<rect width="130" height="130" rx="10" fill="#D9D9D9"/>
<path d="M60.7146 53.9185C64.265 53.9185 67.1431 51.0266 67.1431 47.4593C67.1431 43.8919 64.265 41 60.7146 41C57.1643 41 54.2861 43.8919 54.2861 47.4593C54.2861 51.0266 57.1643 53.9185 60.7146 53.9185Z" fill="white"/>
<path opacity="0.67" d="M64.4839 84.8135L51.6269 69.7418C50.8129 68.7872 49.1869 68.7872 48.3729 69.7418L35.5159 84.8135C34.9718 85.4516 34.8463 86.3505 35.1957 87.1148C35.5462 87.878 36.3059 88.3679 37.1429 88.3679H62.8569C63.6939 88.3679 64.4536 87.878 64.8041 87.1148C65.1536 86.3505 65.028 85.4516 64.4839 84.8135Z" fill="white"/>
<path d="M94.5898 84.948L77.4471 61.264C76.6415 60.1517 74.7874 60.1517 73.9818 61.264L54.2861 88.3679H92.8571C93.6628 88.3679 94.4004 87.9138 94.7666 87.1915C95.1329 86.4703 95.0638 85.603 94.5898 84.948Z" fill="white"/>
</svg>
