<svg width="56" height="55" viewBox="0 0 56 55" fill="none" xmlns="http://www.w3.org/2000/svg">
<rect width="55.0183" height="55" rx="5" fill="#8A2BE2"/>
<g clip-path="url(#clip0_5909_12062)">
<path d="M39.6112 45C30.8612 45 22.102 45 13.352 45C13.2881 44.9817 13.2242 44.9452 13.1602 44.9361C11.982 44.726 11.0778 44.1141 10.5023 43.0728C10.274 42.6527 10.1644 42.1686 10 41.7119C10 35.1905 10 28.6783 10 22.1569C10.0183 22.0929 10.0457 22.029 10.0639 21.9651C10.4019 20.4032 11.3426 19.4168 12.868 18.9784C13.0689 18.9236 13.279 18.8962 13.5164 18.8505C13.3612 18.4303 13.215 18.0376 13.078 17.6357C12.5939 16.2748 13.1694 14.9778 14.5303 14.4755C18.4943 13.0232 22.4582 11.5801 26.4222 10.1462C27.7192 9.68035 29.0162 10.2923 29.5094 11.5801C29.7651 12.2469 30.0117 12.9228 30.2401 13.5987C30.3223 13.8544 30.4319 13.9457 30.715 13.9457C32.7975 13.9366 34.8891 13.9275 36.9716 13.9457C38.2959 13.9549 39.328 14.987 39.3463 16.3113C39.3554 17.0512 39.3463 17.791 39.3463 18.5308C39.3463 18.6404 39.3463 18.75 39.3463 18.8505C41.6206 19.1062 42.9723 20.6224 42.9723 22.851C42.9723 23.9653 42.9723 25.0796 42.9723 26.203C42.9723 26.3857 42.9723 26.5593 42.9723 26.7328C43.0545 26.7602 43.0911 26.7785 43.1367 26.7876C44.315 27.089 45.0183 27.9841 45.0183 29.1897C45.0183 30.9891 45.0274 32.7884 45.0183 34.5877C45.0091 35.6929 44.3058 36.6062 43.2372 36.9076C43.155 36.935 43.0637 36.9533 42.9723 36.9807C42.9723 37.1177 42.9723 37.2456 42.9723 37.3735C42.9723 38.6796 42.9815 39.9948 42.9632 41.3009C42.9358 42.9267 41.858 44.3424 40.3053 44.8173C40.077 44.8904 39.8395 44.9452 39.6112 45ZM40.9081 36.999C39.5838 36.999 38.3233 37.0172 37.0538 36.999C34.3137 36.9624 32.0485 34.7064 32.012 31.9846C31.9755 29.0893 34.2406 26.7785 37.136 26.7511C38.2685 26.7419 39.392 26.7511 40.5245 26.7511C40.6433 26.7511 40.762 26.7511 40.899 26.7511C40.899 25.3628 40.899 24.0384 40.899 22.7049C40.899 21.6728 40.1683 20.9421 39.1271 20.9421C30.6968 20.9421 22.2573 20.9421 13.827 20.9421C12.7675 20.9421 12.0459 21.6636 12.0459 22.7231C12.0459 28.8609 12.0459 35.0078 12.0459 41.1456C12.0459 42.2234 12.7675 42.9541 13.8453 42.9541C22.2664 42.9541 30.6876 42.9541 39.1088 42.9541C40.1683 42.9541 40.8899 42.2234 40.899 41.173C40.9081 39.8852 40.899 38.5974 40.899 37.3095C40.9081 37.209 40.9081 37.1177 40.9081 36.999ZM28.1576 13.9183C27.9749 13.4069 27.8014 12.9045 27.6187 12.4022C27.4909 12.046 27.363 11.9912 26.9885 12.119C23.0976 13.5347 19.2067 14.9504 15.3158 16.3661C14.9504 16.494 14.8865 16.631 15.0144 16.9872C15.2062 17.5079 15.4162 18.0285 15.5806 18.5582C15.6628 18.814 15.7907 18.8688 16.0465 18.8688C19.0057 18.8596 21.9742 18.8596 24.9335 18.8596C25.0522 18.8596 25.1709 18.8596 25.2805 18.8596C25.2988 18.7957 25.2988 18.7866 25.2988 18.7774C25.2988 17.9463 25.2988 17.1151 25.3079 16.2839C25.3262 15.1788 26.0934 14.238 27.1712 14.0097C27.4909 13.9549 27.8105 13.9549 28.1576 13.9183ZM39.7482 28.7879C38.9261 28.7879 38.1041 28.7879 37.2912 28.7879C37.0903 28.7879 36.8802 28.7879 36.6793 28.8244C35.0535 29.1075 33.9483 30.5141 34.0853 32.1125C34.2223 33.7109 35.5467 34.9256 37.1908 34.9348C38.9444 34.9439 40.6981 34.9348 42.4517 34.9348C42.8536 34.9348 42.9632 34.8343 42.9632 34.4324C42.9632 32.7153 42.9632 30.9891 42.9632 29.2719C42.9632 28.8701 42.8719 28.7787 42.4517 28.7787C41.5475 28.7879 40.6524 28.7879 39.7482 28.7879ZM27.3721 18.8505C30.6968 18.8505 33.9849 18.8505 37.2912 18.8505C37.2912 18.0741 37.2912 17.3252 37.2912 16.5762C37.2912 16.0647 37.2273 16.0008 36.7249 16.0008C33.8022 16.0008 30.8703 16.0008 27.9475 16.0008C27.8836 16.0008 27.8105 16.0008 27.7466 16.0008C27.5183 16.0099 27.3813 16.1378 27.3813 16.3661C27.3721 17.1882 27.3721 18.0102 27.3721 18.8505Z" fill="white"/>
<path d="M37.1359 32.8889C36.5879 32.8797 36.1221 32.4139 36.1221 31.8568C36.1221 31.2814 36.597 30.8247 37.1724 30.8429C37.7296 30.8521 38.1771 31.327 38.168 31.8842C38.1589 32.4413 37.6839 32.898 37.1359 32.8889Z" fill="white"/>
</g>
<defs>
<clipPath id="clip0_5909_12062">
<rect width="35.0183" height="35" fill="white" transform="translate(10 10)"/>
</clipPath>
</defs>
</svg>
