<svg width="16" height="16" viewBox="0 0 16 16" fill="none" xmlns="http://www.w3.org/2000/svg">
<path d="M15.9891 12.5197C15.6204 14.5182 13.8756 15.9688 11.8405 15.9688C9.51432 15.9688 7.62179 14.0762 7.62179 11.75C7.62179 9.42378 9.51432 7.53125 11.8405 7.53125C12.2263 7.53125 12.6088 7.58344 12.9774 7.68634C13.3099 7.77919 13.5041 8.12394 13.4113 8.45641C13.3184 8.78884 12.9736 8.98309 12.6412 8.89028C12.3821 8.81794 12.1127 8.78122 11.8405 8.78122C10.2036 8.78122 8.87179 10.113 8.87179 11.75C8.87179 13.3869 10.2036 14.7187 11.8405 14.7187C13.2728 14.7187 14.5005 13.6985 14.7599 12.2928C14.8225 11.9534 15.1485 11.729 15.4879 11.7916C15.8274 11.8542 16.0518 12.1802 15.9891 12.5197ZM11.0325 11.0268C10.7884 10.7827 10.3927 10.7827 10.1486 11.0268C9.90454 11.2709 9.90451 11.6666 10.1486 11.9107L11.0689 12.8309C11.2817 13.0438 11.562 13.1503 11.8423 13.1503C12.1207 13.1503 12.3992 13.0452 12.6117 12.8349L15.3427 10.1317C15.5881 9.88891 15.5901 9.49319 15.3473 9.24784C15.1044 9.0025 14.7087 9.00047 14.4634 9.24331L11.8428 11.8371L11.0325 11.0268ZM15.9995 1.875V3.75C15.9995 4.09519 15.7197 4.375 15.3745 4.375V6.875C15.3745 7.22019 15.0947 7.5 14.7495 7.5C14.4043 7.5 14.1245 7.22019 14.1245 6.875V4.375H1.87451V13.5C1.87451 14.1892 2.43526 14.75 3.12451 14.75H7.09326C7.43845 14.75 7.71826 15.0298 7.71826 15.375C7.71826 15.7202 7.43845 16 7.09326 16H3.12451C1.74601 16 0.624512 14.8785 0.624512 13.5V4.375C0.279324 4.375 -0.000488281 4.09519 -0.000488281 3.75V1.875C-0.000488281 0.841125 0.840637 0 1.87451 0H14.1245C15.1584 0 15.9995 0.841125 15.9995 1.875ZM1.24951 3.125H14.7495V1.875C14.7495 1.53038 14.4691 1.25 14.1245 1.25H1.87451C1.52989 1.25 1.24951 1.53038 1.24951 1.875V3.125ZM9.99951 6.25C9.99951 5.90481 9.7197 5.625 9.37451 5.625H6.56201C6.21682 5.625 5.93701 5.90481 5.93701 6.25C5.93701 6.59519 6.21682 6.875 6.56201 6.875H9.37451C9.7197 6.875 9.99951 6.59519 9.99951 6.25Z" fill="url(#paint0_linear_6463_1102)"/>
<defs>
<linearGradient id="paint0_linear_6463_1102" x1="0.0308149" y1="8.09054" x2="16.1023" y2="8.09054" gradientUnits="userSpaceOnUse">
<stop stop-color="#8A2BE2"/>
<stop offset="0.23" stop-color="#8427E1"/>
<stop offset="0.52" stop-color="#741CDD"/>
<stop offset="0.86" stop-color="#5909D7"/>
<stop offset="1" stop-color="#4B00D4"/>
</linearGradient>
</defs>
</svg>
