<svg width="18" height="18" viewBox="0 0 18 18" fill="none" xmlns="http://www.w3.org/2000/svg">
<path d="M17.357 12.8572C17.357 13.0277 17.2893 13.1912 17.1687 13.3118C17.0481 13.4323 16.8846 13.5 16.7141 13.5H10.9285C10.758 13.5 10.5945 13.4323 10.4739 13.3118C10.3534 13.1912 10.2856 13.0277 10.2856 12.8572C10.2856 12.6867 10.3534 12.5232 10.4739 12.4026C10.5945 12.2821 10.758 12.2143 10.9285 12.2143H16.7141C16.8846 12.2143 17.0481 12.2821 17.1687 12.4026C17.2893 12.5232 17.357 12.6867 17.357 12.8572ZM17.312 2.61014C17.1308 2.39645 16.9053 2.22479 16.6511 2.10711C16.3968 1.98944 16.12 1.92856 15.8399 1.92871H14.7856C14.6151 1.92871 14.4516 1.99644 14.331 2.117C14.2105 2.23756 14.1427 2.40107 14.1427 2.57156C14.1427 2.74206 14.2105 2.90557 14.331 3.02613C14.4516 3.14669 14.6151 3.21442 14.7856 3.21442H15.8399C15.9327 3.21441 16.0245 3.23452 16.1088 3.27336C16.1931 3.3122 16.2681 3.36885 16.3284 3.43941C16.3904 3.51098 16.4357 3.59533 16.4613 3.68646C16.4868 3.77758 16.492 3.87322 16.4763 3.96655L15.6149 9.10936C15.5888 9.2603 15.5098 9.39699 15.3919 9.49481C15.2741 9.59263 15.1252 9.64516 14.972 9.64293H6.42851L5.05281 3.21442H12.9856C13.1561 3.21442 13.3196 3.14669 13.4402 3.02613C13.5607 2.90557 13.6285 2.74206 13.6285 2.57156C13.6285 2.40107 13.5607 2.23756 13.4402 2.117C13.3196 1.99644 13.1561 1.92871 12.9856 1.92871H4.78281L4.49996 0.508012C4.4686 0.361808 4.38725 0.231111 4.26991 0.138418C4.15258 0.0457242 4.0066 -0.00316718 3.85711 0.000159195H0.642851C0.472357 0.000159195 0.308845 0.067888 0.188287 0.188446C0.0677288 0.309004 0 0.472516 0 0.643011C0 0.813505 0.0677288 0.977017 0.188287 1.09758C0.308845 1.21813 0.472357 1.28586 0.642851 1.28586H3.3364L5.58638 11.9701C5.67766 12.4022 5.91452 12.7899 6.25736 13.0684C6.6002 13.3469 7.02824 13.4993 7.46993 13.5H8.99992C9.17041 13.5 9.33393 13.4323 9.45448 13.3118C9.57504 13.1912 9.64277 13.0277 9.64277 12.8572C9.64277 12.6867 9.57504 12.5232 9.45448 12.4026C9.33393 12.2821 9.17041 12.2143 8.99992 12.2143H7.46993C7.32044 12.2177 7.17446 12.1688 7.05713 12.0761C6.9398 11.9834 6.85845 11.8527 6.82708 11.7065L6.67923 10.9286H14.9849C15.4462 10.9348 15.8944 10.7754 16.2483 10.4794C16.6021 10.1833 16.8381 9.77024 16.9134 9.31508L17.7748 4.17226C17.8164 3.89388 17.7964 3.60979 17.7165 3.33992C17.6365 3.07006 17.4985 2.82097 17.312 2.61014ZM16.7141 16.0714C16.7141 16.4529 16.601 16.8257 16.3891 17.1429C16.1772 17.46 15.876 17.7072 15.5236 17.8532C15.1712 17.9992 14.7834 18.0374 14.4093 17.9629C14.0352 17.8885 13.6916 17.7049 13.4219 17.4351C13.1522 17.1654 12.9685 16.8218 12.8941 16.4477C12.8197 16.0736 12.8579 15.6858 13.0038 15.3334C13.1498 14.981 13.397 14.6798 13.7141 14.4679C14.0313 14.256 14.4042 14.1429 14.7856 14.1429C15.2971 14.1429 15.7876 14.3461 16.1493 14.7078C16.511 15.0694 16.7141 15.56 16.7141 16.0714ZM15.4284 16.0714C15.4284 15.9443 15.3907 15.82 15.3201 15.7143C15.2495 15.6086 15.1491 15.5262 15.0316 15.4775C14.9141 15.4289 14.7849 15.4161 14.6602 15.4409C14.5355 15.4657 14.4209 15.527 14.331 15.6169C14.2411 15.7068 14.1799 15.8213 14.1551 15.946C14.1303 16.0707 14.143 16.2 14.1917 16.3175C14.2403 16.4349 14.3227 16.5353 14.4284 16.606C14.5341 16.6766 14.6584 16.7143 14.7856 16.7143C14.9561 16.7143 15.1196 16.6466 15.2401 16.526C15.3607 16.4055 15.4284 16.2419 15.4284 16.0714ZM10.2856 16.0714C10.2856 16.4529 10.1725 16.8257 9.9606 17.1429C9.74869 17.46 9.44749 17.7072 9.09509 17.8532C8.7427 17.9992 8.35493 18.0374 7.98083 17.9629C7.60672 17.8885 7.26309 17.7049 6.99337 17.4351C6.72366 17.1654 6.53998 16.8218 6.46557 16.4477C6.39116 16.0736 6.42935 15.6858 6.57532 15.3334C6.72128 14.981 6.96847 14.6798 7.28562 14.4679C7.60277 14.256 7.97564 14.1429 8.35707 14.1429C8.86855 14.1429 9.35909 14.3461 9.72076 14.7078C10.0824 15.0694 10.2856 15.56 10.2856 16.0714ZM8.99992 16.0714C8.99992 15.9443 8.96222 15.82 8.89158 15.7143C8.82094 15.6086 8.72054 15.5262 8.60308 15.4775C8.48561 15.4289 8.35636 15.4161 8.23165 15.4409C8.10695 15.4657 7.99241 15.527 7.9025 15.6169C7.8126 15.7068 7.75137 15.8213 7.72657 15.946C7.70176 16.0707 7.7145 16.2 7.76315 16.3175C7.81181 16.4349 7.8942 16.5353 7.99992 16.606C8.10564 16.6766 8.22992 16.7143 8.35707 16.7143C8.52756 16.7143 8.69107 16.6466 8.81163 16.526C8.93219 16.4055 8.99992 16.2419 8.99992 16.0714ZM10.9285 3.85727C10.758 3.85727 10.5945 3.925 10.4739 4.04555C10.3534 4.16611 10.2856 4.32962 10.2856 4.50012V6.80796L10.0992 6.6151C9.97814 6.49405 9.81396 6.42604 9.64277 6.42604C9.47158 6.42604 9.3074 6.49405 9.18635 6.6151C9.0653 6.73615 8.99729 6.90033 8.99729 7.07153C8.99729 7.24272 9.0653 7.4069 9.18635 7.52795L10.472 8.81365C10.5332 8.87218 10.6053 8.91805 10.6842 8.94865C10.7611 8.98266 10.8443 9.00023 10.9285 9.00023C11.0126 9.00023 11.0958 8.98266 11.1728 8.94865C11.2517 8.91805 11.3238 8.87218 11.3849 8.81365L12.6706 7.52795C12.7305 7.46801 12.7781 7.39685 12.8105 7.31854C12.843 7.24023 12.8597 7.15629 12.8597 7.07153C12.8597 6.98676 12.843 6.90282 12.8105 6.82451C12.7781 6.7462 12.7305 6.67504 12.6706 6.6151C12.6107 6.55516 12.5395 6.50762 12.4612 6.47518C12.3829 6.44274 12.2989 6.42604 12.2142 6.42604C12.1294 6.42604 12.0455 6.44274 11.9672 6.47518C11.8888 6.50762 11.8177 6.55516 11.7578 6.6151L11.5713 6.80796V4.50012C11.5713 4.32962 11.5036 4.16611 11.383 4.04555C11.2625 3.925 11.099 3.85727 10.9285 3.85727Z" fill="url(#paint0_linear_6463_732)"/>
<defs>
<linearGradient id="paint0_linear_6463_732" x1="0.0348167" y1="9.10185" x2="17.9102" y2="9.10185" gradientUnits="userSpaceOnUse">
<stop stop-color="#8A2BE2"/>
<stop offset="0.23" stop-color="#8427E1"/>
<stop offset="0.52" stop-color="#741CDD"/>
<stop offset="0.86" stop-color="#5909D7"/>
<stop offset="1" stop-color="#4B00D4"/>
</linearGradient>
</defs>
</svg>
