<svg width="14" height="14" viewBox="0 0 14 14" fill="none" xmlns="http://www.w3.org/2000/svg">
<path d="M10.375 1.51777C10.5392 1.35361 10.734 1.2234 10.9485 1.13456C11.163 1.04572 11.3929 1 11.625 1C11.8571 1 12.087 1.04572 12.3015 1.13456C12.516 1.2234 12.7108 1.35361 12.875 1.51777C13.0392 1.68192 13.1694 1.8768 13.2582 2.09127C13.347 2.30575 13.3928 2.53562 13.3928 2.76777C13.3928 2.99991 13.347 3.22979 13.2582 3.44426C13.1694 3.65874 13.0392 3.85361 12.875 4.01777L4.4375 12.4553L1 13.3928L1.9375 9.95527L10.375 1.51777Z" stroke="#5909D7" stroke-linecap="round" stroke-linejoin="round"/>
</svg>
