<svg width="179" height="60" viewBox="0 0 179 60" fill="none" xmlns="http://www.w3.org/2000/svg">
<path d="M178.235 7.68635L169.541 0V3.94705H77.9224C73.2406 3.94772 68.6422 5.14067 64.5939 7.40485C60.5457 9.66903 57.1915 12.9239 54.8719 16.8391L48.7666 27.1405L41.3031 18.3299H33.6873L45.3014 32.9939L41.8869 38.8228C40.019 41.9849 37.3142 44.6142 34.0479 46.443C30.7815 48.2718 27.0702 49.2349 23.2917 49.2342H8.69471V43.9919L0 52.3136L8.69471 60V55.5031H24.1167C28.7905 55.4963 33.3793 54.3003 37.4184 52.0363C41.4574 49.7723 44.8031 46.5207 47.1165 42.611L60.1395 20.6151C62.0085 17.4637 64.7089 14.8436 67.9675 13.0196C71.2262 11.1957 74.9274 10.2327 78.6967 10.2281H169.503V16.057L178.235 7.68635Z" fill="url(#paint0_linear_340_603)"/>
<path d="M71.6264 39.996V23.4502H64.7214V18.3789H85.2714V23.4502H78.3664V39.996H71.6264Z" fill="url(#paint1_linear_340_603)"/>
<path d="M104.629 39.996V31.2954H96.5815V39.996H89.8035V18.3789H96.5815V25.9797H104.629V18.3789H111.42V39.996H104.629Z" fill="url(#paint2_linear_340_603)"/>
<path d="M131.107 39.997C130.923 39.1077 130.834 38.2029 130.84 37.2964V35.6345C130.865 34.9585 130.717 34.287 130.408 33.6793C130.119 33.182 129.675 32.7845 129.139 32.5428C128.383 32.2613 127.575 32.1364 126.766 32.1762H123.3V39.997H116.776V18.331H127.743C129.063 18.3168 130.383 18.3985 131.69 18.5754C132.572 18.6807 133.429 18.9243 134.229 19.2964C134.856 19.6033 135.419 20.0174 135.892 20.5184C136.321 20.9937 136.664 21.5348 136.907 22.1192C137.145 22.8039 137.257 23.5236 137.237 24.2455C137.267 25.1554 137.09 26.0606 136.717 26.8972C136.436 27.5076 136.011 28.0464 135.475 28.4706C134.94 28.8949 134.309 29.193 133.632 29.3412L132.363 29.6711L133.632 30.1355C134.724 30.4493 135.712 31.0304 136.501 31.8218C137.073 32.7643 137.342 33.8485 137.275 34.9379L137.39 38.4817C137.39 39.2516 137.517 39.5082 137.643 39.7037C137.732 39.8045 137.839 39.8875 137.961 39.9481L131.107 39.997ZM123.3 28.107H127.387C128.364 28.1939 129.342 27.9521 130.155 27.4226C130.425 27.1792 130.64 26.8849 130.787 26.558C130.935 26.2312 131.011 25.8787 131.011 25.5224C131.011 25.1662 130.935 24.8137 130.787 24.4868C130.64 24.16 130.425 23.8657 130.155 23.6222C129.357 23.1034 128.397 22.866 127.438 22.9501H123.3V28.107Z" fill="url(#paint3_linear_340_603)"/>
<path d="M153.802 40.6308C152.394 40.6459 150.989 40.5106 149.613 40.2276C148.543 39.9825 147.523 39.5696 146.592 39.0056C145.789 38.5216 145.076 37.9101 144.485 37.197C143.876 36.3668 143.444 35.4279 143.216 34.4353C142.973 33.2941 142.87 32.1292 142.911 30.9648V18.3294H149.664V31.7714C149.623 32.5435 149.757 33.315 150.057 34.032C150.332 34.6386 150.817 35.135 151.428 35.4373C152.129 35.7736 152.904 35.9413 153.687 35.9261C154.218 35.9555 154.749 35.8832 155.25 35.7133C155.751 35.5433 156.213 35.2792 156.607 34.9363C156.992 34.5167 157.285 34.0266 157.468 33.4953C157.651 32.964 157.721 32.4026 157.673 31.8447V18.3294H164.426V31.0626C164.464 32.3444 164.332 33.6257 164.032 34.8752C163.788 35.7652 163.356 36.5972 162.763 37.3192C162.164 38.0229 161.448 38.6258 160.643 39.1033C159.711 39.6399 158.696 40.0278 157.635 40.252C156.377 40.5207 155.09 40.6478 153.802 40.6308Z" fill="url(#paint4_linear_340_603)"/>
<path d="M15.0027 38.945V18.3299H23.6593C25.234 18.296 26.8089 18.3859 28.3684 18.5987C29.2469 18.7306 30.1016 18.9816 30.907 19.3441C32.3055 20.0611 33.3809 21.2486 33.928 22.6802C34.2106 23.4661 34.3522 24.2925 34.3468 25.1242C34.3815 26.1415 34.2045 27.1553 33.8264 28.1059C33.5511 28.8374 33.1428 29.516 32.6206 30.1099C32.1947 30.5592 31.703 30.9462 31.1609 31.2586C30.6436 31.5176 30.0989 31.7225 29.5362 31.8696C28.3557 32.1935 27.1334 32.354 25.906 32.3462H21.3238V38.9938L15.0027 38.945ZM21.2096 28.0325H24.2686C25.0358 28.0652 25.8041 27.9995 26.5533 27.837C27.0741 27.6825 27.5228 27.3585 27.8226 26.9205C28.1364 26.4469 28.2956 25.8935 28.2796 25.3319C28.3218 24.9109 28.2364 24.4872 28.0337 24.112C27.8309 23.7368 27.5195 23.4262 27.1372 23.2179C26.1421 22.8032 25.0586 22.623 23.9766 22.6924H21.2096V28.0325Z" fill="url(#paint5_linear_340_603)"/>
<defs>
<linearGradient id="paint0_linear_340_603" x1="244.533" y1="11.6916" x2="36.0459" y2="113.46" gradientUnits="userSpaceOnUse">
<stop stop-color="white"/>
<stop offset="0.23" stop-color="#ffffff"/>
<stop offset="0.52" stop-color="#ffffff"/>
<stop offset="0.86" stop-color="#ffffff"/>
<stop offset="1" stop-color="#ffffff"/>
</linearGradient>
<linearGradient id="paint1_linear_340_603" x1="74.666" y1="11.2786" x2="74.666" y2="46.798" gradientUnits="userSpaceOnUse">
<stop stop-color="#ffffff"/>
<stop offset="1" stop-color="#ffffff"/>
</linearGradient>
<linearGradient id="paint2_linear_340_603" x1="100.264" y1="11.2786" x2="100.264" y2="46.798" gradientUnits="userSpaceOnUse">
<stop stop-color="#ffffff"/>
<stop offset="1" stop-color="#ffffff"/>
</linearGradient>
<linearGradient id="paint3_linear_340_603" x1="127.028" y1="11.2125" x2="127.028" y2="46.8148" gradientUnits="userSpaceOnUse">
<stop stop-color="#ffffff"/>
<stop offset="1" stop-color="#ffffff"/>
</linearGradient>
<linearGradient id="paint4_linear_340_603" x1="153.321" y1="11.0038" x2="153.321" y2="47.6501" gradientUnits="userSpaceOnUse">
<stop stop-color="#ffffff"/>
<stop offset="1" stop-color="#ffffff"/>
</linearGradient>
<linearGradient id="paint5_linear_340_603" x1="24.3658" y1="11.5334" x2="24.3658" y2="45.4981" gradientUnits="userSpaceOnUse">
<stop stop-color="#ffffff"/>
<stop offset="1" stop-color="#ffffff"/>
</linearGradient>
</defs>
</svg>
