<svg width="18" height="18" viewBox="0 0 18 18" fill="none" xmlns="http://www.w3.org/2000/svg">
<path d="M17.9999 6.04686V8.85937C17.9999 9.24773 17.6851 9.56249 17.2968 9.56249H16.8344L16.5381 12.1988C16.4978 12.5581 16.1935 12.8234 15.8402 12.8235C15.814 12.8235 15.7876 12.822 15.7609 12.819C15.375 12.7757 15.0973 12.4276 15.1407 12.0418L15.5071 8.78095C15.547 8.42527 15.8478 8.15624 16.2058 8.15624H16.5938V6.74999H1.40625V8.15624H13.3945C13.7829 8.15624 14.0977 8.47114 14.0977 8.85937C14.0977 9.24773 13.7829 9.56249 13.3945 9.56249H2.5936L3.28794 15.3549C3.37253 16.0612 3.9728 16.5938 4.68416 16.5938H13.3722C14.0887 16.5938 14.6896 16.0567 14.7696 15.3445C14.8129 14.9586 15.1609 14.681 15.5468 14.7243C15.9327 14.7677 16.2103 15.1157 16.1671 15.5016C16.007 16.9258 14.8055 18 13.3722 18H4.68416C3.26143 18 2.0609 16.9347 1.89157 15.5222L1.17732 9.56249H0.703126C0.314759 9.56249 0 9.24773 0 8.85937V6.04686C0 5.6585 0.314759 5.34374 0.703126 5.34374H3.19702L6.91247 0.286863C7.14236 -0.0259734 7.58236 -0.0934021 7.89533 0.136624C8.20831 0.366514 8.2756 0.806516 8.04571 1.11949L4.94207 5.34374H13.0839L9.98013 1.11949C9.75024 0.806516 9.81753 0.366514 10.1305 0.136624C10.4435 -0.0934021 10.8835 -0.0261107 11.1135 0.286863L14.8288 5.34374H17.2968C17.6851 5.34374 17.9999 5.65863 17.9999 6.04686ZM8.29688 11.6719V14.4844C8.29688 14.8727 8.61164 15.1875 9.00001 15.1875C9.38824 15.1875 9.70313 14.8727 9.70313 14.4844V11.6719C9.70313 11.2835 9.38824 10.9687 9.00001 10.9687C8.61164 10.9687 8.29688 11.2835 8.29688 11.6719ZM11.1094 11.6719V14.4844C11.1094 14.8727 11.4241 15.1875 11.8125 15.1875C12.2007 15.1875 12.5156 14.8727 12.5156 14.4844V11.6719C12.5156 11.2835 12.2007 10.9687 11.8125 10.9687C11.4241 10.9687 11.1094 11.2835 11.1094 11.6719ZM5.48438 11.6719V14.4844C5.48438 14.8727 5.79914 15.1875 6.18751 15.1875C6.57574 15.1875 6.89063 14.8727 6.89063 14.4844V11.6719C6.89063 11.2835 6.57574 10.9687 6.18751 10.9687C5.79914 10.9687 5.48438 11.2835 5.48438 11.6719Z" fill="url(#paint0_linear_6463_415)"/>
<defs>
<linearGradient id="paint0_linear_6463_415" x1="0.0352157" y1="9.10185" x2="18.1154" y2="9.10185" gradientUnits="userSpaceOnUse">
<stop stop-color="#8A2BE2"/>
<stop offset="0.23" stop-color="#8427E1"/>
<stop offset="0.52" stop-color="#741CDD"/>
<stop offset="0.86" stop-color="#5909D7"/>
<stop offset="1" stop-color="#4B00D4"/>
</linearGradient>
</defs>
</svg>
