<svg width="19" height="18" viewBox="0 0 19 18" fill="none" xmlns="http://www.w3.org/2000/svg">
<path d="M17.8048 10.4307L17.0559 9.81425C16.543 9.39199 16.5439 8.60716 17.056 8.18575L17.8048 7.56932C18.3376 7.1306 18.4739 6.37833 18.1288 5.7805L16.6502 3.2195C16.3051 2.62171 15.5853 2.36366 14.939 2.60575L14.0308 2.94602C13.4086 3.17904 12.7294 2.78603 12.6204 2.13177L12.461 1.17503C12.3475 0.494191 11.7641 0 11.0739 0H8.11672C7.42642 0 6.84304 0.494191 6.72959 1.17506L6.57012 2.13177C6.46089 2.78719 5.78076 3.17865 5.1598 2.94606L4.25153 2.60575C3.60526 2.36366 2.88554 2.62174 2.54034 3.2195L1.06177 5.78046C0.716644 6.37822 0.852909 7.13053 1.38584 7.56928L2.13464 8.18571C2.64764 8.60801 2.64662 9.39277 2.13464 9.81422L1.38581 10.4306C0.85291 10.8694 0.716609 11.6217 1.06174 12.2195L2.54034 14.7805C2.8855 15.3782 3.60508 15.6363 4.25153 15.3942L5.15976 15.0539C5.78199 14.8208 6.46107 15.2141 6.57009 15.8682L6.72956 16.8249C6.84304 17.5058 7.42643 18 8.11668 18H11.0739C11.7641 18 12.3475 17.5058 12.4609 16.8249L12.6204 15.8683C12.7296 15.213 13.4097 14.8213 14.0307 15.054L14.939 15.3943C15.5855 15.6364 16.3051 15.3783 16.6502 14.7805L18.1289 12.2195C18.4739 11.6217 18.3376 10.8694 17.8048 10.4307ZM15.4324 14.0774L14.5241 13.7371C13.0722 13.1932 11.4877 14.1108 11.2333 15.637L11.0739 16.5938H8.11672L7.95725 15.637C7.7024 14.1079 6.11555 13.1942 4.66645 13.7371L3.75819 14.0774L2.27962 11.5164L3.02841 10.8999C4.22545 9.91452 4.22295 8.08344 3.02841 7.10005L2.27962 6.48362L3.75822 3.92263L4.66645 4.26291C6.1184 4.80677 7.70289 3.8892 7.95725 2.36296L8.11668 1.40625H11.0739L11.2333 2.36296C11.4882 3.89232 13.0751 4.80565 14.5241 4.26291L15.4323 3.92263L16.9113 6.48327C16.9113 6.48327 16.9112 6.48338 16.9109 6.48359L16.1621 7.10002C14.9651 8.08537 14.9675 9.91649 16.1621 10.8999L16.9109 11.5163L15.4324 14.0774ZM9.59528 5.53124C7.68261 5.53124 6.12652 7.08732 6.12652 9C6.12652 10.9127 7.68261 12.4688 9.59528 12.4688C11.508 12.4688 13.064 10.9127 13.064 9C13.064 7.08732 11.508 5.53124 9.59528 5.53124ZM9.59528 11.0625C8.45801 11.0625 7.53277 10.1373 7.53277 9C7.53277 7.86273 8.45801 6.93749 9.59528 6.93749C10.7326 6.93749 11.6578 7.86273 11.6578 9C11.6578 10.1373 10.7326 11.0625 9.59528 11.0625Z" fill="url(#paint0_linear_6463_928)"/>
<defs>
<linearGradient id="paint0_linear_6463_928" x1="0.906203" y1="9.10185" x2="18.4305" y2="9.10185" gradientUnits="userSpaceOnUse">
<stop stop-color="#8A2BE2"/>
<stop offset="0.23" stop-color="#8427E1"/>
<stop offset="0.52" stop-color="#741CDD"/>
<stop offset="0.86" stop-color="#5909D7"/>
<stop offset="1" stop-color="#4B00D4"/>
</linearGradient>
</defs>
</svg>
