<svg width="38" height="20" viewBox="0 0 38 20" fill="none" xmlns="http://www.w3.org/2000/svg">
<path d="M18.7535 -0.0161698C15.0165 -0.27815 11.2814 0.515155 7.9734 2.27313C4.66538 4.03111 1.91755 6.68311 0.0436401 9.92687C1.9454 13.1453 4.69837 15.7765 7.99951 17.5308C11.3006 19.2852 15.0219 20.0945 18.7535 19.8697C30.0863 19.8697 37.5704 12.8135 37.5704 9.92687C35.7281 6.63035 32.971 3.93744 29.6321 2.17313C26.2932 0.408814 22.515 -0.351596 18.7535 -0.0161698ZM18.7535 2.54981C19.8853 2.59176 20.9799 2.96571 21.9007 3.62505C22.8216 4.28439 23.5284 5.19998 23.9328 6.25792C24.3371 7.31585 24.4212 8.46935 24.1749 9.57482C23.9285 10.6803 23.3627 11.6889 22.5474 12.4751C21.7321 13.2612 20.7031 13.7902 19.5894 13.9962C18.4757 14.2021 17.3261 14.0761 16.2836 13.6335C15.2411 13.1909 14.3517 12.4516 13.7263 11.5073C13.1008 10.5631 12.7671 9.45565 12.7664 8.32307C12.7803 7.55083 12.946 6.78902 13.2545 6.08091C13.5629 5.3728 14.0082 4.73232 14.5641 4.19619C15.1201 3.66006 15.7762 3.23868 16.495 2.95619C17.2139 2.67369 17.9813 2.53564 18.7535 2.54981ZM18.7535 17.6247C15.6023 17.6917 12.4783 17.0323 9.62304 15.6974C6.7678 14.3624 4.25828 12.3879 2.28906 9.92687C4.94662 6.46989 8.72817 4.04971 12.9804 3.08441C11.6581 4.50655 10.9311 6.38127 10.949 8.32307C11.1806 10.3584 12.1531 12.2374 13.6812 13.6015C15.2094 14.9657 17.186 15.7197 19.2344 15.7197C21.2829 15.7197 23.2601 14.9657 24.7883 13.6015C26.3164 12.2374 27.2889 10.3584 27.5205 8.32307C27.5384 6.38127 26.8114 4.50655 25.4891 3.08441C29.8111 3.87786 33.6497 6.33453 36.1804 9.92687C34.2235 12.6447 31.5765 14.791 28.513 16.1442C25.4495 17.4974 22.0805 18.0085 18.7535 17.6247Z" fill="url(#paint0_linear_58_777)"/>
<defs>
<linearGradient id="paint0_linear_58_777" x1="22.6024" y1="20.1905" x2="15.1185" y2="-0.230003" gradientUnits="userSpaceOnUse">
<stop stop-color="#3C00F2"/>
<stop offset="0.25" stop-color="#5910EC"/>
<stop offset="0.54" stop-color="#741FE7"/>
<stop offset="0.8" stop-color="#8428E3"/>
<stop offset="1" stop-color="#8A2BE2"/>
</linearGradient>
</defs>
</svg>
