<svg width="19" height="17" viewBox="0 0 19 17" fill="none" xmlns="http://www.w3.org/2000/svg">
<path d="M7.99312 10.6744C8.68669 10.6744 9.24893 10.1122 9.24893 9.41863C9.24893 8.72507 8.68669 8.16282 7.99312 8.16282C7.29955 8.16282 6.7373 8.72507 6.7373 9.41863C6.7373 10.1122 7.29955 10.6744 7.99312 10.6744Z" fill="#8A2BE2"/>
<path d="M11.7605 13.1861C12.454 13.1861 13.0163 12.6238 13.0163 11.9303C13.0163 11.2367 12.454 10.6744 11.7605 10.6744C11.0669 10.6744 10.5046 11.2367 10.5046 11.9303C10.5046 12.6238 11.0669 13.1861 11.7605 13.1861Z" fill="#8A2BE2"/>
<path d="M4.22554 13.1861C4.91911 13.1861 5.48135 12.6238 5.48135 11.9303C5.48135 11.2367 4.91911 10.6744 4.22554 10.6744C3.53197 10.6744 2.96973 11.2367 2.96973 11.9303C2.96973 12.6238 3.53197 13.1861 4.22554 13.1861Z" fill="#8A2BE2"/>
<path d="M15.1093 9.41864C15.8029 9.41864 16.3651 8.85639 16.3651 8.16282C16.3651 7.46925 15.8029 6.90701 15.1093 6.90701C14.4158 6.90701 13.8535 7.46925 13.8535 8.16282C13.8535 8.85639 14.4158 9.41864 15.1093 9.41864Z" fill="#8A2BE2"/>
<path fill-rule="evenodd" clip-rule="evenodd" d="M16.3652 16.3256C16.9755 16.3256 17.5615 16.0828 17.9935 15.6517C18.4247 15.2197 18.6675 14.6336 18.6675 14.0233C18.6675 11.124 18.6675 5.20161 18.6675 2.30236C18.6675 1.69203 18.4247 1.10598 17.9935 0.673984C17.5615 0.242821 16.9755 3.05176e-05 16.3652 3.05176e-05C13.157 3.05176e-05 6.17799 3.05176e-05 2.96981 3.05176e-05C2.35948 3.05176e-05 1.77343 0.242821 1.34143 0.673984C0.910271 1.10598 0.66748 1.69203 0.66748 2.30236V14.0233C0.66748 14.6336 0.910271 15.2197 1.34143 15.6517C1.77343 16.0828 2.35948 16.3256 2.96981 16.3256H16.3652ZM16.3652 15.0698H2.96981C2.69185 15.0698 2.42646 14.9593 2.22971 14.7634C2.03381 14.5666 1.92329 14.3012 1.92329 14.0233V2.30236C1.92329 2.0244 2.03381 1.75901 2.22971 1.56226C2.42646 1.36636 2.69185 1.25584 2.96981 1.25584H16.3652C16.6431 1.25584 16.9085 1.36636 17.1052 1.56226C17.3012 1.75901 17.4117 2.0244 17.4117 2.30236V14.0233C17.4117 14.3012 17.3012 14.5666 17.1052 14.7634C16.9085 14.9593 16.6431 15.0698 16.3652 15.0698Z" fill="#8A2BE2"/>
<path fill-rule="evenodd" clip-rule="evenodd" d="M1.29539 5.44189H18.0396C18.3862 5.44189 18.6675 5.16059 18.6675 4.81399C18.6675 4.46738 18.3862 4.18608 18.0396 4.18608H1.29539C0.948783 4.18608 0.66748 4.46738 0.66748 4.81399C0.66748 5.16059 0.948783 5.44189 1.29539 5.44189Z" fill="#8A2BE2"/>
<path fill-rule="evenodd" clip-rule="evenodd" d="M6.73728 3.34886H7.57449C7.9211 3.34886 8.2024 3.06756 8.2024 2.72096C8.2024 2.37435 7.9211 2.09305 7.57449 2.09305H6.73728C6.39068 2.09305 6.10938 2.37435 6.10938 2.72096C6.10938 3.06756 6.39068 3.34886 6.73728 3.34886Z" fill="#8A2BE2"/>
<path fill-rule="evenodd" clip-rule="evenodd" d="M3.80711 3.34886H4.64432C4.99092 3.34886 5.27222 3.06756 5.27222 2.72096C5.27222 2.37435 4.99092 2.09305 4.64432 2.09305H3.80711C3.4605 2.09305 3.1792 2.37435 3.1792 2.72096C3.1792 3.06756 3.4605 3.34886 3.80711 3.34886Z" fill="#8A2BE2"/>
<path fill-rule="evenodd" clip-rule="evenodd" d="M4.57383 12.4527L7.99299 10.173L11.4122 12.4527C11.6725 12.6268 12.0216 12.5816 12.2301 12.3472L15.5789 8.57975C15.8092 8.32105 15.7857 7.92337 15.5262 7.69314C15.2675 7.46291 14.8698 7.48635 14.6396 7.74589L11.6541 11.1048L8.34127 8.89621C8.13029 8.75556 7.85569 8.75556 7.64471 8.89621L3.87727 11.4078C3.58927 11.6004 3.51057 11.9905 3.70313 12.2785C3.89569 12.5665 4.28583 12.6452 4.57383 12.4527Z" fill="#8A2BE2"/>
</svg>
