<svg width="100" height="100" viewBox="0 0 100 100" fill="none" xmlns="http://www.w3.org/2000/svg">
<g clip-path="url(#clip0_95_8095)">
<path d="M69.1189 96.1306C94.6311 85.5631 106.746 56.3146 96.1788 30.8023C85.6113 5.29011 56.3627 -6.82488 30.8505 3.74263C5.33827 14.3101 -6.77661 43.5584 3.7909 69.0707C14.3584 94.5829 43.6066 106.698 69.1189 96.1306Z" fill="url(#paint0_linear_95_8095)"/>
<path d="M40.2587 38.8283C40.2587 40.1756 39.8593 41.4927 39.1108 42.6129C38.3623 43.7331 37.2983 44.6063 36.0536 45.1219C34.8089 45.6375 33.4393 45.7723 32.1179 45.5095C30.7965 45.2466 29.5827 44.5978 28.63 43.6452C27.6773 42.6925 27.0285 41.4788 26.7657 40.1574C26.5029 38.836 26.6376 37.4663 27.1532 36.2216C27.6688 34.9768 28.5421 33.9129 29.6624 33.1644C30.7826 32.4159 32.0994 32.0164 33.4467 32.0164C35.2534 32.0164 36.9863 32.734 38.2638 34.0115C39.5413 35.289 40.2587 37.0217 40.2587 38.8283Z" fill="white"/>
<path d="M75.4086 38.8283C75.4086 40.1756 75.0092 41.4927 74.2607 42.6129C73.5121 43.7331 72.4482 44.6063 71.2035 45.1219C69.9588 45.6375 68.5888 45.7723 67.2674 45.5095C65.946 45.2466 64.7322 44.5978 63.7795 43.6452C62.8268 42.6925 62.1784 41.4788 61.9156 40.1574C61.6528 38.836 61.7875 37.4663 62.3031 36.2216C62.8187 34.9768 63.6916 33.9129 64.8119 33.1644C65.9321 32.4159 67.2493 32.0164 68.5966 32.0164C70.4033 32.0164 72.1358 32.734 73.4133 34.0115C74.6908 35.289 75.4086 37.0217 75.4086 38.8283Z" fill="white"/>
<path d="M49.9999 80.1091C43.7439 80.1012 37.619 78.3174 32.3371 74.9649C27.0552 71.6125 22.8334 66.8293 20.1633 61.1717L23.7739 59.4688C26.0938 64.4602 29.7914 68.6848 34.4318 71.6451C39.0721 74.6054 44.4616 76.1782 49.9658 76.1782C55.47 76.1782 60.8599 74.6054 65.5002 71.6451C70.1405 68.6848 73.8382 64.4602 76.1581 59.4688L79.7682 61.1717C77.1031 66.8189 72.8922 71.5951 67.6236 74.9468C62.3549 78.2984 56.2443 80.0884 49.9999 80.1091Z" fill="white"/>
</g>
<defs>
<linearGradient id="paint0_linear_95_8095" x1="61.0386" y1="80.4412" x2="37.946" y2="16.8853" gradientUnits="userSpaceOnUse">
<stop stop-color="#3C00F2"/>
<stop offset="0.25" stop-color="#5910EC"/>
<stop offset="0.54" stop-color="#741FE7"/>
<stop offset="0.8" stop-color="#8428E3"/>
<stop offset="1" stop-color="#8A2BE2"/>
</linearGradient>
<clipPath id="clip0_95_8095">
<rect width="100" height="100" fill="white"/>
</clipPath>
</defs>
</svg>
