<svg width="55" height="55" viewBox="0 0 55 55" fill="none" xmlns="http://www.w3.org/2000/svg">
<rect width="55" height="55" rx="27.5" fill="#19D1AF"/>
<path d="M10 38.7793H45V16.2207H10V38.7793ZM12.0508 18.2715H42.9492V36.7285H12.0508V18.2715Z" fill="white"/>
<path d="M14.1016 32.627H18.2715V34.6777H14.1016V32.627Z" fill="white"/>
<path d="M36.7285 20.3223H40.8984V22.373H36.7285V20.3223Z" fill="white"/>
<path d="M22.373 20.3223V22.373H25.4492C26.786 22.373 27.9257 23.2304 28.349 24.4238H22.373V26.4739H28.349C27.9257 27.6673 26.786 28.5254 25.4492 28.5254H22.373V30.1984L28.9065 35.4754L30.1951 33.88L26.0599 30.54C28.2597 30.2779 30.0354 28.6168 30.4721 26.4746H32.627V24.4238H30.473C30.3187 23.6665 29.9968 22.9695 29.548 22.373H32.627V20.3223C31.4069 20.3223 23.6053 20.3223 22.373 20.3223Z" fill="white"/>
</svg>
