<svg width="60" height="60" viewBox="0 0 60 60" fill="none" xmlns="http://www.w3.org/2000/svg">
<rect width="60" height="60" rx="10" fill="#01BC82" fill-opacity="0.1"/>
<path d="M37.5 36.0001C37.5 36.3316 37.6317 36.6495 37.8661 36.8839C38.1005 37.1184 38.4185 37.2501 38.75 37.2501H45V34.7501H38.75C38.4185 34.7501 38.1005 34.8818 37.8661 35.1162C37.6317 35.3506 37.5 35.6685 37.5 36.0001Z" fill="#01BC82"/>
<path d="M42.5 26.2374V24.7499C42.5 23.7554 42.1049 22.8015 41.4017 22.0983C40.6984 21.395 39.7446 20.9999 38.75 20.9999H35.3L32.8 23.4999H38.75C39.0815 23.4999 39.3995 23.6316 39.6339 23.8661C39.8683 24.1005 40 24.4184 40 24.7499V25.9999H18.75C18.4185 25.9999 18.1005 25.8682 17.8661 25.6338C17.6317 25.3994 17.5 25.0815 17.5 24.7499C17.5 24.4184 17.6317 24.1005 17.8661 23.8661C18.1005 23.6316 18.4185 23.4999 18.75 23.4999H24.7L22.2 20.9999H18.75C17.7554 20.9999 16.8016 21.395 16.0983 22.0983C15.3951 22.8015 15 23.7554 15 24.7499V42.2499C15 43.2445 15.3951 44.1983 16.0983 44.9016C16.8016 45.6049 17.7554 45.9999 18.75 45.9999H41.25C42.2446 45.9999 43.1984 45.6049 43.9017 44.9016C44.6049 44.1983 45 43.2445 45 42.2499V39.7499H38.75C37.7554 39.7499 36.8016 39.3549 36.0983 38.6516C35.3951 37.9483 35 36.9945 35 35.9999C35 35.0054 35.3951 34.0516 36.0983 33.3483C36.8016 32.645 37.7554 32.2499 38.75 32.2499H45V29.7499C44.9953 28.9784 44.7526 28.2271 44.3052 27.5985C43.8578 26.9699 43.2274 26.4946 42.5 26.2374Z" fill="#01BC82"/>
<path d="M27.8622 23.1375C27.9784 23.2547 28.1166 23.3477 28.269 23.4111C28.4213 23.4746 28.5847 23.5072 28.7497 23.5072C28.9147 23.5072 29.0781 23.4746 29.2304 23.4111C29.3827 23.3477 29.521 23.2547 29.6372 23.1375L33.3872 19.3875C33.5606 19.2117 33.6781 18.9885 33.7248 18.746C33.7716 18.5035 33.7454 18.2526 33.6497 18.025C33.5559 17.7967 33.3967 17.6013 33.192 17.4634C32.9874 17.3255 32.7465 17.2512 32.4997 17.25H29.9997V12.25C29.9997 11.9185 29.868 11.6005 29.6336 11.3661C29.3991 11.1317 29.0812 11 28.7497 11C28.4182 11 28.1002 11.1317 27.8658 11.3661C27.6314 11.6005 27.4997 11.9185 27.4997 12.25V17.25H24.9997C24.7529 17.2512 24.512 17.3255 24.3074 17.4634C24.1027 17.6013 23.9435 17.7967 23.8497 18.025C23.754 18.2526 23.7278 18.5035 23.7745 18.746C23.8212 18.9885 23.9387 19.2117 24.1122 19.3875L27.8622 23.1375Z" fill="#01BC82"/>
</svg>
