<svg width="55" height="55" viewBox="0 0 55 55" fill="none" xmlns="http://www.w3.org/2000/svg">
<rect width="55" height="55" rx="27.5" fill="#F0142F"/>
<path d="M41.3475 26.3443H33.2696C30.7378 26.3443 28.6537 28.4283 28.6537 30.9602C28.6537 33.492 30.7378 35.5761 33.2696 35.5761H37.8855V39.038C37.8855 39.6715 37.3651 40.192 36.7316 40.192H18.2679C16.3685 40.192 14.806 38.6295 14.806 36.73V19.4204C14.806 17.521 16.3685 15.9585 18.2679 15.9585H20.5759C21.2094 15.9585 21.7299 15.438 21.7299 14.8045C21.7299 14.171 21.2094 13.6505 20.5759 13.6505H18.2679C15.1026 13.6505 12.498 16.255 12.498 19.4204V36.73C12.498 39.8954 15.1026 42.4999 18.2679 42.4999H36.7316C38.631 42.4999 40.1935 40.9374 40.1935 39.038V35.5761H41.3475C41.981 35.5761 42.5014 35.0556 42.5014 34.4221V27.4982C42.5014 26.8647 41.981 26.3443 41.3475 26.3443ZM40.1935 33.2681H33.2696C32.0037 33.2681 30.9617 32.2261 30.9617 30.9602C30.9617 29.6943 32.0037 28.6522 33.2696 28.6522H40.1935V33.2681Z" fill="white"/>
<path d="M17.8529 18.3473C16.5651 18.9093 16.9909 20.5744 18.2683 20.5744H36.732C37.3655 20.5744 37.886 21.0949 37.886 21.7284V22.8824C37.886 23.5159 38.4064 24.0364 39.0399 24.0364C39.6735 24.0364 40.1939 23.5159 40.1939 22.8824V21.7284C40.1928 20.811 39.8281 19.9305 39.1784 19.282C38.5299 18.6323 37.6494 18.2676 36.732 18.2665H36.3627L34.3432 13.2236C34.109 12.6409 33.4397 12.3501 32.8546 12.5774L17.8529 18.3473ZM33.8701 18.2665H24.4883L32.6238 15.1392L33.8701 18.2665Z" fill="white"/>
</svg>
