<svg width="55" height="55" viewBox="0 0 55 55" fill="none" xmlns="http://www.w3.org/2000/svg">
<rect width="55" height="55" rx="27.5" fill="#FF9913"/>
<path d="M41.0625 14.6875H40.75V12.8125C40.75 11.2617 39.4883 10 37.9375 10H25.4375C23.8867 10 22.625 11.2617 22.625 12.8125V22.1875C22.625 23.7383 23.8867 25 25.4375 25H37.9375C39.4883 25 40.75 23.7383 40.75 22.1875V20.3125H41.0625C41.5802 20.3125 42 19.8927 42 19.375V15.625C42 15.1073 41.5802 14.6875 41.0625 14.6875ZM38.875 22.1875C38.875 22.7044 38.4544 23.125 37.9375 23.125H25.4375C24.9206 23.125 24.5 22.7044 24.5 22.1875V12.8125C24.5 12.2956 24.9206 11.875 25.4375 11.875H37.9375C38.4544 11.875 38.875 12.2956 38.875 12.8125V14.6875H37.9375C36.3867 14.6875 35.125 15.9492 35.125 17.5C35.125 19.0508 36.3867 20.3125 37.9375 20.3125H38.875V22.1875ZM40.125 18.4375H37.9375C37.4206 18.4375 37 18.0169 37 17.5C37 16.9831 37.4206 16.5625 37.9375 16.5625H40.125V18.4375Z" fill="white"/>
<path d="M28.4375 31.6875H28.125V29.8125C28.125 28.2617 26.8633 27 25.3125 27H12.8125C11.2617 27 10 28.2617 10 29.8125V39.1875C10 40.7383 11.2617 42 12.8125 42H25.3125C26.8633 42 28.125 40.7383 28.125 39.1875V37.3125H28.4375C28.9552 37.3125 29.375 36.8927 29.375 36.375V32.625C29.375 32.1073 28.9552 31.6875 28.4375 31.6875ZM26.25 39.1875C26.25 39.7044 25.8294 40.125 25.3125 40.125H12.8125C12.2956 40.125 11.875 39.7044 11.875 39.1875V29.8125C11.875 29.2956 12.2956 28.875 12.8125 28.875H25.3125C25.8294 28.875 26.25 29.2956 26.25 29.8125V31.6875H25.3125C23.7617 31.6875 22.5 32.9492 22.5 34.5C22.5 36.0508 23.7617 37.3125 25.3125 37.3125H26.25V39.1875ZM27.5 35.4375H25.3125C24.7956 35.4375 24.375 35.0169 24.375 34.5C24.375 33.9831 24.7956 33.5625 25.3125 33.5625H27.5V35.4375Z" fill="white"/>
<path d="M36 27.3125C35.4823 27.3125 35.0625 27.7322 35.0625 28.25V33.5625H32.25C31.7322 33.5625 31.3125 33.9823 31.3125 34.5C31.3125 35.0177 31.7322 35.4375 32.25 35.4375H36C36.5177 35.4375 36.9375 35.0177 36.9375 34.5V28.25C36.9375 27.7322 36.5177 27.3125 36 27.3125Z" fill="white"/>
<path d="M16 24.6875C16.5178 24.6875 16.9375 24.2677 16.9375 23.75V18.4375H19.75C20.2677 18.4375 20.6875 18.0178 20.6875 17.5C20.6875 16.9822 20.2677 16.5625 19.75 16.5625H16C15.4822 16.5625 15.0625 16.9822 15.0625 17.5V23.75C15.0625 24.2677 15.4822 24.6875 16 24.6875Z" fill="white"/>
</svg>
