<svg width="130" height="130" viewBox="0 0 130 130" fill="none" xmlns="http://www.w3.org/2000/svg">
<rect width="130" height="130" rx="10" fill="#D9D9D9"/>
<path d="M60.7145 53.9185C64.2649 53.9185 67.143 51.0266 67.143 47.4592C67.143 43.8919 64.2649 41 60.7145 41C57.1641 41 54.286 43.8919 54.286 47.4592C54.286 51.0266 57.1641 53.9185 60.7145 53.9185Z" fill="white"/>
<path opacity="0.67" d="M64.4839 84.8134L51.6269 69.7418C50.8129 68.7872 49.1869 68.7872 48.3729 69.7418L35.5159 84.8134C34.9718 85.4516 34.8462 86.3504 35.1957 87.1147C35.5462 87.878 36.3058 88.3679 37.1429 88.3679H62.8569C63.6939 88.3679 64.4536 87.878 64.8041 87.1147C65.1535 86.3504 65.028 85.4516 64.4839 84.8134Z" fill="white"/>
<path d="M94.5897 84.948L77.447 61.264C76.6414 60.1517 74.7873 60.1517 73.9817 61.264L54.286 88.3679H92.857C93.6627 88.3679 94.4003 87.9137 94.7665 87.1915C95.1327 86.4703 95.0637 85.603 94.5897 84.948Z" fill="white"/>
<rect x="99" y="95" width="25" height="25" rx="5" fill="white"/>
<path d="M119.319 109.3H113.499V115.48H110.484V109.3H104.694V106.555H110.484V100.405H113.499V106.555H119.319V109.3Z" fill="url(#paint0_linear_1_10)"/>
<defs>
<linearGradient id="paint0_linear_1_10" x1="103.035" y1="106.204" x2="121.116" y2="106.204" gradientUnits="userSpaceOnUse">
<stop stop-color="#8A2BE2"/>
<stop offset="0.23" stop-color="#8427E1"/>
<stop offset="0.52" stop-color="#741CDD"/>
<stop offset="0.86" stop-color="#5909D7"/>
<stop offset="1" stop-color="#4B00D4"/>
</linearGradient>
</defs>
</svg>
