<svg width="1245" height="260" viewBox="0 0 1245 260" fill="none" xmlns="http://www.w3.org/2000/svg">
<path d="M1240.32 4C1236.86 7.13 1205.6 42.05 1204.46 43.45C1203.16 44.81 1205.95 42.54 1203.36 44.1C1193.45 44.88 1161.36 36.52 1119.18 55.64C1070 78 1061.3 110.11 1061.3 110.11C1060.05 110.29 1058.79 110.29 1057.54 110.11C1026.66 101.11 1010.8 93.64 961.85 104.53C945.883 109.091 931.165 117.229 918.812 128.327C906.46 139.424 896.798 153.191 890.56 168.58C876.31 130.79 834.29 149.13 834.29 149.13C825.683 133.045 813.853 118.906 799.538 107.597C785.223 96.2877 768.731 88.0507 751.09 83.4C651.31 58.18 587.73 106.28 583.52 108.55C513.33 94.94 462.05 141.68 460.52 175.84C434.62 149.91 379.58 126.18 292.17 131.44C166.67 139 101.34 248.51 99 253.37V253.76C73.74 235.48 33.4 227.83 4.46 256.23L0 259.94V0H1244.6L1240.32 4Z" fill="url(#paint0_linear_56_665)"/>
<defs>
<linearGradient id="paint0_linear_56_665" x1="1245" y1="-17.5" x2="-1.152e-07" y2="-8.19563e-06" gradientUnits="userSpaceOnUse">
<stop stop-color="#7D23E0"/>
<stop offset="1" stop-color="#4201D3"/>
</linearGradient>
</defs>
</svg>
