<svg width="24" height="24" viewBox="0 0 24 24" fill="none" xmlns="http://www.w3.org/2000/svg">
<g clip-path="url(#clip0_3_2553)">
<path d="M0.72876 12.0227C0.72876 14.2565 1.39121 16.4401 2.63222 18.2974C3.87324 20.1547 5.63707 21.6023 7.7008 22.4571C9.76453 23.3119 12.0353 23.5356 14.2262 23.0998C16.417 22.664 18.4296 21.5884 20.0091 20.0088C21.5886 18.4293 22.6642 16.417 23.1 14.2261C23.5358 12.0353 23.3122 9.76441 22.4574 7.70068C21.6025 5.63695 20.1547 3.87304 18.2974 2.63203C16.4401 1.39102 14.2566 0.728638 12.0228 0.728638C9.0274 0.728638 6.15481 1.9185 4.03675 4.03656C1.91869 6.15462 0.72876 9.02735 0.72876 12.0227Z" fill="white"/>
<path d="M12.0228 24.0456C9.64304 24.0546 7.31409 23.3571 5.33098 22.0416C3.34786 20.726 1.79976 18.8514 0.882798 16.6553C-0.0341644 14.4593 -0.278628 12.0405 0.180118 9.70533C0.638863 7.37015 1.78017 5.2236 3.45976 3.53763C5.13934 1.85165 7.28173 0.702106 9.61516 0.234501C11.9486 -0.233103 14.3682 0.00229288 16.5677 0.910914C18.7673 1.81954 20.6476 3.36048 21.9707 5.33859C23.2938 7.3167 24.0001 9.64299 24.0001 12.0228C24.0001 15.2036 22.7396 18.2547 20.4947 20.5081C18.2499 22.7615 15.2036 24.0335 12.0228 24.0456ZM12.0228 1.27518C9.93127 1.26616 7.88413 1.87816 6.14067 3.03362C4.39721 4.18907 3.03589 5.83596 2.22923 7.76573C1.42257 9.6955 1.20687 11.8213 1.60938 13.8738C2.0119 15.9263 3.01465 17.8132 4.49043 19.2953C5.9662 20.7775 7.8485 21.7883 9.89923 22.1996C11.95 22.611 14.0769 22.4045 16.0102 21.6061C17.9434 20.8078 19.5961 19.4537 20.7591 17.7152C21.9221 15.9767 22.5427 13.9322 22.5427 11.8406C22.4951 9.07803 21.3674 6.44404 19.401 4.50312C17.4345 2.5622 14.7858 1.46881 12.0228 1.45731V1.27518Z" fill="url(#paint0_linear_3_2553)"/>
<path d="M15.165 14.6185C14.7629 14.5057 14.3377 14.5057 13.9356 14.6185C13.3492 14.8857 12.7126 15.0254 12.0683 15.0284C11.4288 15.022 10.7961 14.8985 10.2012 14.6641C10.0141 14.5839 9.81269 14.5426 9.60916 14.5426C9.40562 14.5426 9.20418 14.5839 9.0171 14.6641C7.67018 14.8977 6.45816 15.6237 5.61655 16.701C4.77494 17.7782 4.36382 19.1299 4.46302 20.4933C6.51239 22.3399 9.17322 23.3618 11.9318 23.3618C14.6903 23.3618 17.3509 22.3399 19.4003 20.4933C19.4442 19.1834 19.0524 17.896 18.2859 16.8328C17.5195 15.7696 16.4217 14.9908 15.165 14.6185Z" fill="url(#paint1_linear_3_2553)"/>
<path d="M15.5293 10.2012C15.5383 10.9075 15.3366 11.6005 14.9498 12.1916C14.5629 12.7826 14.0085 13.245 13.3576 13.5194C12.7067 13.7939 11.9887 13.8681 11.2954 13.7325C10.6022 13.5969 9.96515 13.2577 9.46564 12.7582C8.96613 12.2587 8.627 11.6216 8.49139 10.9283C8.35579 10.235 8.42983 9.51703 8.70431 8.86613C8.97879 8.21522 9.44104 7.66095 10.0321 7.27412C10.6232 6.88729 11.3162 6.6855 12.0226 6.6945C12.9526 6.6945 13.8446 7.06394 14.5023 7.72156C15.1599 8.37918 15.5293 9.27114 15.5293 10.2012Z" fill="url(#paint2_linear_3_2553)"/>
</g>
<defs>
<linearGradient id="paint0_linear_3_2553" x1="16.1215" y1="23.3169" x2="7.87865" y2="0.728703" gradientUnits="userSpaceOnUse">
<stop stop-color="#3C00F2"/>
<stop offset="0.25" stop-color="#5910EC"/>
<stop offset="0.54" stop-color="#741FE7"/>
<stop offset="0.8" stop-color="#8428E3"/>
<stop offset="1" stop-color="#8A2BE2"/>
</linearGradient>
<linearGradient id="paint1_linear_3_2553" x1="14.5035" y1="23.0942" x2="12.5691" y2="14.1138" gradientUnits="userSpaceOnUse">
<stop stop-color="#3C00F2"/>
<stop offset="0.25" stop-color="#5910EC"/>
<stop offset="0.54" stop-color="#741FE7"/>
<stop offset="0.8" stop-color="#8428E3"/>
<stop offset="1" stop-color="#8A2BE2"/>
</linearGradient>
<linearGradient id="paint2_linear_3_2553" x1="13.2019" y1="13.5833" x2="10.7665" y2="6.90948" gradientUnits="userSpaceOnUse">
<stop stop-color="#3C00F2"/>
<stop offset="0.25" stop-color="#5910EC"/>
<stop offset="0.54" stop-color="#741FE7"/>
<stop offset="0.8" stop-color="#8428E3"/>
<stop offset="1" stop-color="#8A2BE2"/>
</linearGradient>
<clipPath id="clip0_3_2553">
<rect width="24" height="24" fill="white"/>
</clipPath>
</defs>
</svg>
