<svg width="24" height="24" viewBox="0 0 24 24" fill="none" xmlns="http://www.w3.org/2000/svg">
<path d="M10.9642 23.9999C10.726 24.0085 10.4894 23.9572 10.2761 23.8506C10.0629 23.744 9.87965 23.5855 9.74358 23.3898L0.387822 10.5761C0.130276 10.28 -0.0115967 9.90095 -0.0115967 9.5085C-0.0115967 9.11605 0.130276 8.73672 0.387822 8.4406C0.683942 8.18305 1.06297 8.04118 1.45542 8.04118C1.84787 8.04118 2.22721 8.18305 2.52333 8.4406L10.4555 19.322L20.625 0.40661C20.8476 0.126357 21.1617 -0.066585 21.5123 -0.138672C21.8629 -0.210758 22.2275 -0.157214 22.5427 0.0124679C22.8578 0.18215 23.1032 0.457223 23.236 0.78958C23.3688 1.12194 23.3806 1.49038 23.2692 1.83049L11.6758 22.7796C11.5503 23.0013 11.3745 23.1904 11.1625 23.3317C10.9505 23.473 10.7084 23.5624 10.4555 23.593L10.9642 23.9999Z" fill="url(#paint0_linear_3_2454)"/>
<defs>
<linearGradient id="paint0_linear_3_2454" x1="17.8793" y1="21.5592" x2="11.4725" y2="3.96605" gradientUnits="userSpaceOnUse">
<stop stop-color="#1EB889"/>
<stop offset="0.6" stop-color="#7ED262"/>
<stop offset="1" stop-color="#BBE249"/>
</linearGradient>
</defs>
</svg>
