<svg width="22" height="22" viewBox="0 0 22 22" fill="none" xmlns="http://www.w3.org/2000/svg">
<path d="M11 21C16.5228 21 21 16.5228 21 11C21 5.47715 16.5228 1 11 1C5.47715 1 1 5.47715 1 11C1 16.5228 5.47715 21 11 21Z" stroke="white" stroke-linecap="round" stroke-linejoin="round"/>
<path d="M10.7751 12.8316C9.42145 12.8316 8.06779 12.8322 6.71413 12.8333C6.48634 12.8333 6.29499 12.7562 6.14806 12.5408C6.05249 12.4048 5.99998 12.2319 6 12.0532C6 10.4647 6 8.87643 6 7.28842C6 7.0996 6.0877 7.00035 6.25029 7C6.68025 7 7.1102 7 7.53988 7C9.8421 7 12.1443 7 14.4466 7C14.6726 7 14.866 7.07504 15.0143 7.28842C15.1115 7.42298 15.1653 7.59567 15.1658 7.77464C15.167 9.36704 15.167 10.9596 15.1658 12.5522C15.1658 12.7413 15.0755 12.8333 14.8996 12.8333C13.9332 12.8333 12.9668 12.8333 12.0003 12.8333L10.7751 12.8316ZM14.7247 12.306C14.7276 12.2517 14.7313 12.2136 14.7313 12.1759C14.7313 10.7431 14.7313 9.31044 14.7313 7.87804C14.7313 7.61868 14.6578 7.53222 14.4406 7.53222H6.55496C6.51737 7.53222 6.47979 7.53672 6.43452 7.53983V11.9124C6.43452 12.2271 6.49744 12.3042 6.75286 12.3042H14.7256L14.7247 12.306Z" fill="white"/>
<path d="M10.4055 16.2837V16.1479C10.4055 15.4163 10.4055 14.6848 10.4055 13.9532C10.4043 13.916 10.4053 13.8787 10.4083 13.8416C10.4146 13.7933 10.4354 13.7492 10.4671 13.7172C10.4988 13.6852 10.5392 13.6674 10.5812 13.667C10.6232 13.6666 10.6639 13.6836 10.6961 13.7149C10.7282 13.7463 10.7497 13.7899 10.7567 13.8381C10.7604 13.8785 10.7616 13.9191 10.7602 13.9597V16.2801C10.7966 16.2419 10.8195 16.2199 10.8405 16.1957C11.0633 15.9378 11.2839 15.6766 11.5105 15.4239C11.5522 15.3772 11.6213 15.3364 11.6766 15.3389C11.8141 15.3446 11.8806 15.5376 11.7956 15.6647C11.7619 15.7113 11.7256 15.7553 11.6871 15.7966C11.3722 16.1633 11.0574 16.5297 10.7425 16.8959C10.6228 17.0351 10.5436 17.0351 10.4235 16.8959C10.0877 16.506 9.75224 16.1157 9.41698 15.7249L9.39854 15.7035C9.3171 15.6022 9.3115 15.4806 9.38454 15.3959C9.45758 15.3112 9.56166 15.3125 9.64777 15.4114C9.87156 15.6682 10.0937 15.9272 10.3166 16.1848C10.3392 16.2112 10.3626 16.2362 10.4055 16.2837Z" fill="white"/>
<path d="M11.8334 9.91699C11.8334 10.1641 11.7601 10.4057 11.6229 10.6112C11.4857 10.8167 11.2906 10.9769 11.0623 11.0716C10.8341 11.1663 10.5829 11.1912 10.3405 11.1432C10.0981 11.0951 9.87533 10.9764 9.70042 10.8018C9.5255 10.6272 9.40624 10.4048 9.35771 10.1625C9.30919 9.92015 9.33357 9.6689 9.42778 9.44045C9.52199 9.21199 9.68179 9.01659 9.88701 8.87892C10.0922 8.74126 10.3336 8.66751 10.5808 8.66699C10.9125 8.66708 11.2307 8.79872 11.4655 9.03305C11.7003 9.26737 11.8326 9.58526 11.8334 9.91699ZM10.5824 10.6682C10.7304 10.6678 10.875 10.6236 10.9979 10.5411C11.1209 10.4587 11.2166 10.3416 11.2731 10.2048C11.3295 10.068 11.3442 9.91746 11.3152 9.7723C11.2862 9.62713 11.2149 9.4938 11.1103 9.38913C11.0056 9.28446 10.8723 9.21314 10.7271 9.18417C10.5819 9.15519 10.4314 9.16987 10.2946 9.22633C10.1578 9.2828 10.0407 9.37854 9.95825 9.50145C9.87577 9.62437 9.83154 9.76897 9.83115 9.91699C9.83115 10.1162 9.9103 10.3073 10.0512 10.4482C10.1921 10.5891 10.3832 10.6682 10.5824 10.6682Z" fill="white"/>
</svg>
