<svg width="40" height="40" viewBox="0 0 40 40" fill="none" xmlns="http://www.w3.org/2000/svg">
<path d="M39.9741 31.2991C39.0521 36.2955 34.6903 39.9219 29.6026 39.9219C23.787 39.9219 19.0557 35.1905 19.0557 29.375C19.0557 23.5595 23.787 18.8281 29.6026 18.8281C30.567 18.8281 31.5232 18.9586 32.4447 19.2159C33.2759 19.448 33.7615 20.3098 33.5294 21.141C33.2973 21.9721 32.4353 22.4577 31.6042 22.2257C30.9564 22.0448 30.2829 21.953 29.6026 21.953C25.5102 21.953 22.1807 25.2825 22.1807 29.3749C22.1807 33.4673 25.5102 36.7968 29.6026 36.7968C33.1831 36.7968 36.2525 34.2462 36.9009 30.732C37.0575 29.8834 37.8725 29.3225 38.721 29.479C39.5697 29.6356 40.1306 30.4505 39.9741 31.2991ZM27.5824 27.567C26.9722 26.9568 25.9829 26.9568 25.3727 27.567C24.7626 28.1773 24.7625 29.1666 25.3727 29.7767L27.6734 32.0773C28.2055 32.6095 28.9062 32.8758 29.607 32.8758C30.303 32.8758 30.9991 32.613 31.5304 32.0873L38.358 25.3293C38.9714 24.7223 38.9765 23.733 38.3694 23.1196C37.7623 22.5063 36.773 22.5012 36.1597 23.1083L29.6083 29.5928L27.5824 27.567ZM40 4.6875V9.375C40 10.238 39.3005 10.9375 38.4375 10.9375V17.1875C38.4375 18.0505 37.738 18.75 36.875 18.75C36.012 18.75 35.3125 18.0505 35.3125 17.1875V10.9375H4.6875V33.75C4.6875 35.4731 6.08938 36.875 7.8125 36.875H17.7344C18.5973 36.875 19.2969 37.5745 19.2969 38.4375C19.2969 39.3005 18.5973 40 17.7344 40H7.8125C4.36625 40 1.5625 37.1963 1.5625 33.75V10.9375C0.699531 10.9375 0 10.238 0 9.375V4.6875C0 2.10281 2.10281 0 4.6875 0H35.3125C37.8972 0 40 2.10281 40 4.6875ZM3.125 7.8125H36.875V4.6875C36.875 3.82594 36.1741 3.125 35.3125 3.125H4.6875C3.82594 3.125 3.125 3.82594 3.125 4.6875V7.8125ZM25 15.625C25 14.762 24.3005 14.0625 23.4375 14.0625H16.4062C15.5433 14.0625 14.8438 14.762 14.8438 15.625C14.8438 16.488 15.5433 17.1875 16.4062 17.1875H23.4375C24.3005 17.1875 25 16.488 25 15.625Z" fill="#3C00F2"/>
<path d="M39.9741 31.2991C39.0521 36.2955 34.6903 39.9219 29.6026 39.9219C23.787 39.9219 19.0557 35.1905 19.0557 29.375C19.0557 23.5595 23.787 18.8281 29.6026 18.8281C30.567 18.8281 31.5232 18.9586 32.4447 19.2159C33.2759 19.448 33.7615 20.3098 33.5294 21.141C33.2973 21.9721 32.4353 22.4577 31.6042 22.2257C30.9564 22.0448 30.2829 21.953 29.6026 21.953C25.5102 21.953 22.1807 25.2825 22.1807 29.3749C22.1807 33.4673 25.5102 36.7968 29.6026 36.7968C33.1831 36.7968 36.2525 34.2462 36.9009 30.732C37.0575 29.8834 37.8725 29.3225 38.721 29.479C39.5697 29.6356 40.1306 30.4505 39.9741 31.2991ZM27.5824 27.567C26.9722 26.9568 25.9829 26.9568 25.3727 27.567C24.7626 28.1773 24.7625 29.1666 25.3727 29.7767L27.6734 32.0773C28.2055 32.6095 28.9062 32.8758 29.607 32.8758C30.303 32.8758 30.9991 32.613 31.5304 32.0873L38.358 25.3293C38.9714 24.7223 38.9765 23.733 38.3694 23.1196C37.7623 22.5063 36.773 22.5012 36.1597 23.1083L29.6083 29.5928L27.5824 27.567ZM40 4.6875V9.375C40 10.238 39.3005 10.9375 38.4375 10.9375V17.1875C38.4375 18.0505 37.738 18.75 36.875 18.75C36.012 18.75 35.3125 18.0505 35.3125 17.1875V10.9375H4.6875V33.75C4.6875 35.4731 6.08938 36.875 7.8125 36.875H17.7344C18.5973 36.875 19.2969 37.5745 19.2969 38.4375C19.2969 39.3005 18.5973 40 17.7344 40H7.8125C4.36625 40 1.5625 37.1963 1.5625 33.75V10.9375C0.699531 10.9375 0 10.238 0 9.375V4.6875C0 2.10281 2.10281 0 4.6875 0H35.3125C37.8972 0 40 2.10281 40 4.6875ZM3.125 7.8125H36.875V4.6875C36.875 3.82594 36.1741 3.125 35.3125 3.125H4.6875C3.82594 3.125 3.125 3.82594 3.125 4.6875V7.8125ZM25 15.625C25 14.762 24.3005 14.0625 23.4375 14.0625H16.4062C15.5433 14.0625 14.8438 14.762 14.8438 15.625C14.8438 16.488 15.5433 17.1875 16.4062 17.1875H23.4375C24.3005 17.1875 25 16.488 25 15.625Z" fill="black" fill-opacity="0.2"/>
</svg>
