<svg width="39" height="40" viewBox="0 0 39 40" fill="none" xmlns="http://www.w3.org/2000/svg">
<path d="M25.7048 12.8672C25.7073 10.6945 25.1589 8.55659 24.111 6.65331C23.063 4.75004 21.5496 3.1435 19.7123 1.98382C17.8749 0.824149 15.7736 0.149195 13.6046 0.0220335C11.4356 -0.105128 9.26978 0.319654 7.30951 1.25669C5.34925 2.19372 3.65852 3.61241 2.39533 5.38019C1.13215 7.14797 0.337738 9.20713 0.0863358 11.3653C-0.165066 13.5234 0.134747 15.71 0.957761 17.7208C1.78077 19.7316 3.10012 21.5009 4.79251 22.8635H4.28413C3.14791 22.8635 2.05822 23.3148 1.25479 24.1183C0.451362 24.9217 0 26.0114 0 27.1476V28.5757C0.00317008 29.6331 0.400303 30.6514 1.11387 31.4317C0.400303 32.2121 0.00317008 33.2304 0 34.2878V35.7159C0 36.8521 0.451362 37.9418 1.25479 38.7452C2.05822 39.5486 3.14791 40 4.28413 40H21.4206C22.5569 40 23.6465 39.5486 24.45 38.7452C25.2534 37.9418 25.7048 36.8521 25.7048 35.7159V34.2878C25.7016 33.2304 25.3045 32.2121 24.5909 31.4317C25.3045 30.6514 25.7016 29.6331 25.7048 28.5757V27.1476C25.7048 26.0114 25.2534 24.9217 24.45 24.1183C23.6465 23.3148 22.5569 22.8635 21.4206 22.8635H20.9123C22.4078 21.6617 23.6147 20.1398 24.4441 18.4098C25.2735 16.6798 25.7043 14.7857 25.7048 12.8672ZM22.8487 35.7159C22.8487 36.0946 22.6982 36.4578 22.4304 36.7256C22.1626 36.9935 21.7994 37.1439 21.4206 37.1439H4.28413C3.90539 37.1439 3.54216 36.9935 3.27435 36.7256C3.00654 36.4578 2.85609 36.0946 2.85609 35.7159V34.2878C2.85609 33.9091 3.00654 33.5459 3.27435 33.278C3.54216 33.0102 3.90539 32.8598 4.28413 32.8598H21.4206C21.7994 32.8598 22.1626 33.0102 22.4304 33.278C22.6982 33.5459 22.8487 33.9091 22.8487 34.2878V35.7159ZM21.4206 25.7196C21.7994 25.7196 22.1626 25.87 22.4304 26.1378C22.6982 26.4056 22.8487 26.7689 22.8487 27.1476V28.5757C22.8487 28.9544 22.6982 29.3176 22.4304 29.5854C22.1626 29.8532 21.7994 30.0037 21.4206 30.0037H4.28413C3.90539 30.0037 3.54216 29.8532 3.27435 29.5854C3.00654 29.3176 2.85609 28.9544 2.85609 28.5757V27.1476C2.85609 26.7689 3.00654 26.4056 3.27435 26.1378C3.54216 25.87 3.90539 25.7196 4.28413 25.7196H21.4206ZM2.85609 12.8672C2.85609 10.8901 3.44236 8.95742 4.54077 7.31354C5.63917 5.66966 7.20038 4.38841 9.02697 3.63181C10.8535 2.87521 12.8635 2.67725 14.8026 3.06296C16.7417 3.44867 18.5228 4.40073 19.9208 5.79874C21.3188 7.19674 22.2709 8.97791 22.6566 10.917C23.0423 12.8561 22.8444 14.866 22.0878 16.6926C21.3312 18.5192 20.0499 20.0804 18.406 21.1788C16.7621 22.2772 14.8295 22.8635 12.8524 22.8635C10.2021 22.8605 7.66129 21.8063 5.78727 19.9323C3.91326 18.0583 2.85911 15.5174 2.85609 12.8672Z" fill="#3C00F2"/>
<path d="M25.7048 12.8672C25.7073 10.6945 25.1589 8.55659 24.111 6.65331C23.063 4.75004 21.5496 3.1435 19.7123 1.98382C17.8749 0.824149 15.7736 0.149195 13.6046 0.0220335C11.4356 -0.105128 9.26978 0.319654 7.30951 1.25669C5.34925 2.19372 3.65852 3.61241 2.39533 5.38019C1.13215 7.14797 0.337738 9.20713 0.0863358 11.3653C-0.165066 13.5234 0.134747 15.71 0.957761 17.7208C1.78077 19.7316 3.10012 21.5009 4.79251 22.8635H4.28413C3.14791 22.8635 2.05822 23.3148 1.25479 24.1183C0.451362 24.9217 0 26.0114 0 27.1476V28.5757C0.00317008 29.6331 0.400303 30.6514 1.11387 31.4317C0.400303 32.2121 0.00317008 33.2304 0 34.2878V35.7159C0 36.8521 0.451362 37.9418 1.25479 38.7452C2.05822 39.5486 3.14791 40 4.28413 40H21.4206C22.5569 40 23.6465 39.5486 24.45 38.7452C25.2534 37.9418 25.7048 36.8521 25.7048 35.7159V34.2878C25.7016 33.2304 25.3045 32.2121 24.5909 31.4317C25.3045 30.6514 25.7016 29.6331 25.7048 28.5757V27.1476C25.7048 26.0114 25.2534 24.9217 24.45 24.1183C23.6465 23.3148 22.5569 22.8635 21.4206 22.8635H20.9123C22.4078 21.6617 23.6147 20.1398 24.4441 18.4098C25.2735 16.6798 25.7043 14.7857 25.7048 12.8672ZM22.8487 35.7159C22.8487 36.0946 22.6982 36.4578 22.4304 36.7256C22.1626 36.9935 21.7994 37.1439 21.4206 37.1439H4.28413C3.90539 37.1439 3.54216 36.9935 3.27435 36.7256C3.00654 36.4578 2.85609 36.0946 2.85609 35.7159V34.2878C2.85609 33.9091 3.00654 33.5459 3.27435 33.278C3.54216 33.0102 3.90539 32.8598 4.28413 32.8598H21.4206C21.7994 32.8598 22.1626 33.0102 22.4304 33.278C22.6982 33.5459 22.8487 33.9091 22.8487 34.2878V35.7159ZM21.4206 25.7196C21.7994 25.7196 22.1626 25.87 22.4304 26.1378C22.6982 26.4056 22.8487 26.7689 22.8487 27.1476V28.5757C22.8487 28.9544 22.6982 29.3176 22.4304 29.5854C22.1626 29.8532 21.7994 30.0037 21.4206 30.0037H4.28413C3.90539 30.0037 3.54216 29.8532 3.27435 29.5854C3.00654 29.3176 2.85609 28.9544 2.85609 28.5757V27.1476C2.85609 26.7689 3.00654 26.4056 3.27435 26.1378C3.54216 25.87 3.90539 25.7196 4.28413 25.7196H21.4206ZM2.85609 12.8672C2.85609 10.8901 3.44236 8.95742 4.54077 7.31354C5.63917 5.66966 7.20038 4.38841 9.02697 3.63181C10.8535 2.87521 12.8635 2.67725 14.8026 3.06296C16.7417 3.44867 18.5228 4.40073 19.9208 5.79874C21.3188 7.19674 22.2709 8.97791 22.6566 10.917C23.0423 12.8561 22.8444 14.866 22.0878 16.6926C21.3312 18.5192 20.0499 20.0804 18.406 21.1788C16.7621 22.2772 14.8295 22.8635 12.8524 22.8635C10.2021 22.8605 7.66129 21.8063 5.78727 19.9323C3.91326 18.0583 2.85911 15.5174 2.85609 12.8672Z" fill="black" fill-opacity="0.2"/>
<path d="M16.8872 9.944H14.1672C14.4339 10.1147 14.6419 10.312 14.7912 10.536C14.9405 10.7547 15.0472 10.9947 15.1112 11.256H16.8872V12.776H15.1032C14.9805 13.272 14.7352 13.712 14.3672 14.096C13.9992 14.48 13.5165 14.7787 12.9192 14.992C13.0845 15.0667 13.2365 15.1653 13.3752 15.288C13.5192 15.4107 13.6472 15.5573 13.7592 15.728L16.6552 20H14.7112C14.3485 20 14.0819 19.856 13.9112 19.568L11.4792 15.864C11.3885 15.7253 11.2872 15.6267 11.1752 15.568C11.0685 15.5093 10.9085 15.48 10.6952 15.48H9.19119V14.024H10.7752C11.3832 14.024 11.8685 13.9093 12.2312 13.68C12.5992 13.4507 12.8579 13.1493 13.0072 12.776H9.18319V11.256H13.0552C12.9272 10.8667 12.6765 10.5627 12.3032 10.344C11.9352 10.12 11.4365 10.008 10.8072 10.008H9.19119V8.432H16.8872V9.944Z" fill="#3C00F2"/>
<path d="M16.8872 9.944H14.1672C14.4339 10.1147 14.6419 10.312 14.7912 10.536C14.9405 10.7547 15.0472 10.9947 15.1112 11.256H16.8872V12.776H15.1032C14.9805 13.272 14.7352 13.712 14.3672 14.096C13.9992 14.48 13.5165 14.7787 12.9192 14.992C13.0845 15.0667 13.2365 15.1653 13.3752 15.288C13.5192 15.4107 13.6472 15.5573 13.7592 15.728L16.6552 20H14.7112C14.3485 20 14.0819 19.856 13.9112 19.568L11.4792 15.864C11.3885 15.7253 11.2872 15.6267 11.1752 15.568C11.0685 15.5093 10.9085 15.48 10.6952 15.48H9.19119V14.024H10.7752C11.3832 14.024 11.8685 13.9093 12.2312 13.68C12.5992 13.4507 12.8579 13.1493 13.0072 12.776H9.18319V11.256H13.0552C12.9272 10.8667 12.6765 10.5627 12.3032 10.344C11.9352 10.12 11.4365 10.008 10.8072 10.008H9.19119V8.432H16.8872V9.944Z" fill="black" fill-opacity="0.2"/>
<path d="M31.8354 14.7136L27.5513 18.9978L29.5705 21.017L31.417 19.1706V30.0037H34.2731V19.1706L36.1195 21.017L38.1388 18.9978L33.8547 14.7136C33.5869 14.4459 33.2237 14.2955 32.845 14.2955C32.4664 14.2955 32.1032 14.4459 31.8354 14.7136Z" fill="#3C00F2"/>
<path d="M31.8354 14.7136L27.5513 18.9978L29.5705 21.017L31.417 19.1706V30.0037H34.2731V19.1706L36.1195 21.017L38.1388 18.9978L33.8547 14.7136C33.5869 14.4459 33.2237 14.2955 32.845 14.2955C32.4664 14.2955 32.1032 14.4459 31.8354 14.7136Z" fill="black" fill-opacity="0.2"/>
<path d="M31.8354 7.57339L27.5513 11.8575L29.5705 13.8768L32.845 10.6023L36.1195 13.8768L38.1388 11.8575L33.8547 7.57339C33.5869 7.30567 33.2237 7.15527 32.845 7.15527C32.4664 7.15527 32.1032 7.30567 31.8354 7.57339Z" fill="#3C00F2"/>
<path d="M31.8354 7.57339L27.5513 11.8575L29.5705 13.8768L32.845 10.6023L36.1195 13.8768L38.1388 11.8575L33.8547 7.57339C33.5869 7.30567 33.2237 7.15527 32.845 7.15527C32.4664 7.15527 32.1032 7.30567 31.8354 7.57339Z" fill="black" fill-opacity="0.2"/>
<path d="M32.845 3.46213L36.1195 6.73663L38.1388 4.71738L33.8547 0.433248C33.5869 0.165531 33.2237 0.0151367 32.845 0.0151367C32.4664 0.0151367 32.1032 0.165531 31.8354 0.433248L27.5513 4.71738L29.5705 6.73663L32.845 3.46213Z" fill="#3C00F2"/>
<path d="M32.845 3.46213L36.1195 6.73663L38.1388 4.71738L33.8547 0.433248C33.5869 0.165531 33.2237 0.0151367 32.845 0.0151367C32.4664 0.0151367 32.1032 0.165531 31.8354 0.433248L27.5513 4.71738L29.5705 6.73663L32.845 3.46213Z" fill="black" fill-opacity="0.2"/>
<path d="M28.5608 32.8597H37.129V35.7158H28.5608V32.8597Z" fill="#3C00F2"/>
<path d="M28.5608 32.8597H37.129V35.7158H28.5608V32.8597Z" fill="black" fill-opacity="0.2"/>
<path d="M28.5608 37.1439H37.129V40H28.5608V37.1439Z" fill="#3C00F2"/>
<path d="M28.5608 37.1439H37.129V40H28.5608V37.1439Z" fill="black" fill-opacity="0.2"/>
</svg>
