<svg width="40" height="40" viewBox="0 0 40 40" fill="none" xmlns="http://www.w3.org/2000/svg">
<path d="M37.3334 37.4333H37.4334V37.3333V2.66667V2.56667H37.3334H23.3334H23.2334V2.66667V37.3333V37.4333H23.3334H37.3334ZM22 0.1H38.6667C38.9938 0.1 39.3075 0.22994 39.5388 0.461235C39.7701 0.69253 39.9 1.00623 39.9 1.33333V38.6667C39.9 38.9938 39.7701 39.3075 39.5388 39.5388C39.3075 39.7701 38.9938 39.9 38.6667 39.9H22C21.6729 39.9 21.3592 39.7701 21.1279 39.5388C20.8966 39.3075 20.7667 38.9938 20.7667 38.6667V1.33333C20.7667 1.00623 20.8966 0.69253 21.1279 0.461235C21.3592 0.22994 21.6729 0.1 22 0.1Z" fill="#3C00F2"/>
<path d="M37.3334 37.4333H37.4334V37.3333V2.66667V2.56667H37.3334H23.3334H23.2334V2.66667V37.3333V37.4333H23.3334H37.3334ZM22 0.1H38.6667C38.9938 0.1 39.3075 0.22994 39.5388 0.461235C39.7701 0.69253 39.9 1.00623 39.9 1.33333V38.6667C39.9 38.9938 39.7701 39.3075 39.5388 39.5388C39.3075 39.7701 38.9938 39.9 38.6667 39.9H22C21.6729 39.9 21.3592 39.7701 21.1279 39.5388C20.8966 39.3075 20.7667 38.9938 20.7667 38.6667V1.33333C20.7667 1.00623 20.8966 0.69253 21.1279 0.461235C21.3592 0.22994 21.6729 0.1 22 0.1Z" fill="black" fill-opacity="0.2"/>
<path d="M37.3334 37.4333H37.4334V37.3333V2.66667V2.56667H37.3334H23.3334H23.2334V2.66667V37.3333V37.4333H23.3334H37.3334ZM22 0.1H38.6667C38.9938 0.1 39.3075 0.22994 39.5388 0.461235C39.7701 0.69253 39.9 1.00623 39.9 1.33333V38.6667C39.9 38.9938 39.7701 39.3075 39.5388 39.5388C39.3075 39.7701 38.9938 39.9 38.6667 39.9H22C21.6729 39.9 21.3592 39.7701 21.1279 39.5388C20.8966 39.3075 20.7667 38.9938 20.7667 38.6667V1.33333C20.7667 1.00623 20.8966 0.69253 21.1279 0.461235C21.3592 0.22994 21.6729 0.1 22 0.1Z" stroke="white" stroke-width="0.2"/>
<path d="M2.66667 23.2333H2.56667V23.3333V37.3333V37.4333H2.66667H16.6667H16.7667V37.3333V23.3333V23.2333H16.6667H2.66667ZM18.8721 39.5387C18.6408 39.77 18.3271 39.9 18 39.9H1.33333C1.00623 39.9 0.69253 39.77 0.461235 39.5387C0.22994 39.3074 0.1 38.9937 0.1 38.6666V22C0.1 21.6729 0.22994 21.3592 0.461235 21.1279C0.69253 20.8966 1.00623 20.7666 1.33333 20.7666H18C18.3271 20.7666 18.6408 20.8966 18.8721 21.1279C19.1034 21.3592 19.2333 21.6729 19.2333 22V38.6666C19.2333 38.9937 19.1034 39.3074 18.8721 39.5387Z" fill="#3C00F2"/>
<path d="M2.66667 23.2333H2.56667V23.3333V37.3333V37.4333H2.66667H16.6667H16.7667V37.3333V23.3333V23.2333H16.6667H2.66667ZM18.8721 39.5387C18.6408 39.77 18.3271 39.9 18 39.9H1.33333C1.00623 39.9 0.69253 39.77 0.461235 39.5387C0.22994 39.3074 0.1 38.9937 0.1 38.6666V22C0.1 21.6729 0.22994 21.3592 0.461235 21.1279C0.69253 20.8966 1.00623 20.7666 1.33333 20.7666H18C18.3271 20.7666 18.6408 20.8966 18.8721 21.1279C19.1034 21.3592 19.2333 21.6729 19.2333 22V38.6666C19.2333 38.9937 19.1034 39.3074 18.8721 39.5387Z" fill="black" fill-opacity="0.2"/>
<path d="M2.66667 23.2333H2.56667V23.3333V37.3333V37.4333H2.66667H16.6667H16.7667V37.3333V23.3333V23.2333H16.6667H2.66667ZM18.8721 39.5387C18.6408 39.77 18.3271 39.9 18 39.9H1.33333C1.00623 39.9 0.69253 39.77 0.461235 39.5387C0.22994 39.3074 0.1 38.9937 0.1 38.6666V22C0.1 21.6729 0.22994 21.3592 0.461235 21.1279C0.69253 20.8966 1.00623 20.7666 1.33333 20.7666H18C18.3271 20.7666 18.6408 20.8966 18.8721 21.1279C19.1034 21.3592 19.2333 21.6729 19.2333 22V38.6666C19.2333 38.9937 19.1034 39.3074 18.8721 39.5387Z" stroke="white" stroke-width="0.2"/>
<path d="M2.66667 2.56667H2.56667V2.66667V16.6667V16.7667H2.66667H16.6667H16.7667V16.6667V2.66667V2.56667H16.6667H2.66667ZM18 19.2333H1.33333C1.00623 19.2333 0.69253 19.1034 0.461235 18.8721C0.22994 18.6408 0.1 18.3271 0.1 18V1.33333C0.1 1.00623 0.22994 0.69253 0.461235 0.461235C0.69253 0.22994 1.00623 0.1 1.33333 0.1H18C18.3271 0.1 18.6408 0.22994 18.8721 0.461235C19.1034 0.69253 19.2333 1.00623 19.2333 1.33333V18C19.2333 18.3271 19.1034 18.6408 18.8721 18.8721C18.6408 19.1034 18.3271 19.2333 18 19.2333Z" fill="#3C00F2"/>
<path d="M2.66667 2.56667H2.56667V2.66667V16.6667V16.7667H2.66667H16.6667H16.7667V16.6667V2.66667V2.56667H16.6667H2.66667ZM18 19.2333H1.33333C1.00623 19.2333 0.69253 19.1034 0.461235 18.8721C0.22994 18.6408 0.1 18.3271 0.1 18V1.33333C0.1 1.00623 0.22994 0.69253 0.461235 0.461235C0.69253 0.22994 1.00623 0.1 1.33333 0.1H18C18.3271 0.1 18.6408 0.22994 18.8721 0.461235C19.1034 0.69253 19.2333 1.00623 19.2333 1.33333V18C19.2333 18.3271 19.1034 18.6408 18.8721 18.8721C18.6408 19.1034 18.3271 19.2333 18 19.2333Z" fill="black" fill-opacity="0.2"/>
<path d="M2.66667 2.56667H2.56667V2.66667V16.6667V16.7667H2.66667H16.6667H16.7667V16.6667V2.66667V2.56667H16.6667H2.66667ZM18 19.2333H1.33333C1.00623 19.2333 0.69253 19.1034 0.461235 18.8721C0.22994 18.6408 0.1 18.3271 0.1 18V1.33333C0.1 1.00623 0.22994 0.69253 0.461235 0.461235C0.69253 0.22994 1.00623 0.1 1.33333 0.1H18C18.3271 0.1 18.6408 0.22994 18.8721 0.461235C19.1034 0.69253 19.2333 1.00623 19.2333 1.33333V18C19.2333 18.3271 19.1034 18.6408 18.8721 18.8721C18.6408 19.1034 18.3271 19.2333 18 19.2333Z" stroke="white" stroke-width="0.2"/>
<path d="M34 19.2333H26.6666C26.3395 19.2333 26.0258 19.1034 25.7945 18.8721C25.5633 18.6408 25.4333 18.3271 25.4333 18C25.4333 17.6729 25.5633 17.3592 25.7945 17.1279C26.0258 16.8966 26.3395 16.7666 26.6666 16.7666H34C34.3271 16.7666 34.6408 16.8966 34.8721 17.1279C35.1034 17.3592 35.2333 17.6729 35.2333 18C35.2333 18.3271 35.1034 18.6408 34.8721 18.8721C34.6408 19.1034 34.3271 19.2333 34 19.2333Z" fill="#3C00F2"/>
<path d="M34 19.2333H26.6666C26.3395 19.2333 26.0258 19.1034 25.7945 18.8721C25.5633 18.6408 25.4333 18.3271 25.4333 18C25.4333 17.6729 25.5633 17.3592 25.7945 17.1279C26.0258 16.8966 26.3395 16.7666 26.6666 16.7666H34C34.3271 16.7666 34.6408 16.8966 34.8721 17.1279C35.1034 17.3592 35.2333 17.6729 35.2333 18C35.2333 18.3271 35.1034 18.6408 34.8721 18.8721C34.6408 19.1034 34.3271 19.2333 34 19.2333Z" fill="black" fill-opacity="0.2"/>
<path d="M34 19.2333H26.6666C26.3395 19.2333 26.0258 19.1034 25.7945 18.8721C25.5633 18.6408 25.4333 18.3271 25.4333 18C25.4333 17.6729 25.5633 17.3592 25.7945 17.1279C26.0258 16.8966 26.3395 16.7666 26.6666 16.7666H34C34.3271 16.7666 34.6408 16.8966 34.8721 17.1279C35.1034 17.3592 35.2333 17.6729 35.2333 18C35.2333 18.3271 35.1034 18.6408 34.8721 18.8721C34.6408 19.1034 34.3271 19.2333 34 19.2333Z" stroke="white" stroke-width="0.2"/>
<path d="M34 23.9H26.6666C26.3395 23.9 26.0258 23.7701 25.7945 23.5388C25.5633 23.3075 25.4333 22.9938 25.4333 22.6667C25.4333 22.3396 25.5633 22.0259 25.7945 21.7946C26.0258 21.5633 26.3395 21.4334 26.6666 21.4334H34C34.3271 21.4334 34.6408 21.5633 34.8721 21.7946C35.1034 22.0259 35.2333 22.3396 35.2333 22.6667C35.2333 22.9938 35.1034 23.3075 34.8721 23.5388C34.6408 23.7701 34.3271 23.9 34 23.9Z" fill="#3C00F2"/>
<path d="M34 23.9H26.6666C26.3395 23.9 26.0258 23.7701 25.7945 23.5388C25.5633 23.3075 25.4333 22.9938 25.4333 22.6667C25.4333 22.3396 25.5633 22.0259 25.7945 21.7946C26.0258 21.5633 26.3395 21.4334 26.6666 21.4334H34C34.3271 21.4334 34.6408 21.5633 34.8721 21.7946C35.1034 22.0259 35.2333 22.3396 35.2333 22.6667C35.2333 22.9938 35.1034 23.3075 34.8721 23.5388C34.6408 23.7701 34.3271 23.9 34 23.9Z" fill="black" fill-opacity="0.2"/>
<path d="M34 23.9H26.6666C26.3395 23.9 26.0258 23.7701 25.7945 23.5388C25.5633 23.3075 25.4333 22.9938 25.4333 22.6667C25.4333 22.3396 25.5633 22.0259 25.7945 21.7946C26.0258 21.5633 26.3395 21.4334 26.6666 21.4334H34C34.3271 21.4334 34.6408 21.5633 34.8721 21.7946C35.1034 22.0259 35.2333 22.3396 35.2333 22.6667C35.2333 22.9938 35.1034 23.3075 34.8721 23.5388C34.6408 23.7701 34.3271 23.9 34 23.9Z" stroke="white" stroke-width="0.2"/>
<path d="M10.9 8.33329V8.43329H11H13.3334C13.6605 8.43329 13.9742 8.56323 14.2055 8.79453C14.4367 9.02582 14.5667 9.33953 14.5667 9.66663C14.5667 9.99373 14.4367 10.3074 14.2055 10.5387C13.9742 10.77 13.6605 10.9 13.3334 10.9H11H10.9V11V13.3333C10.9 13.6604 10.7701 13.9741 10.5388 14.2054C10.3075 14.4367 9.99379 14.5666 9.66669 14.5666C9.33959 14.5666 9.02588 14.4367 8.79459 14.2054C8.56329 13.9741 8.43335 13.6604 8.43335 13.3333V11V10.9H8.33335H6.00002C5.67292 10.9 5.35922 10.77 5.12792 10.5387C4.89663 10.3074 4.76669 9.99373 4.76669 9.66663C4.76669 9.33953 4.89663 9.02582 5.12792 8.79453C5.35922 8.56323 5.67292 8.43329 6.00002 8.43329H8.33335H8.43335V8.33329V5.99996C8.43335 5.67286 8.56329 5.35916 8.79459 5.12786C9.02588 4.89657 9.33959 4.76663 9.66669 4.76663C9.99379 4.76663 10.3075 4.89657 10.5388 5.12786C10.7701 5.35916 10.9 5.67286 10.9 5.99996V8.33329Z" fill="#3C00F2"/>
<path d="M10.9 8.33329V8.43329H11H13.3334C13.6605 8.43329 13.9742 8.56323 14.2055 8.79453C14.4367 9.02582 14.5667 9.33953 14.5667 9.66663C14.5667 9.99373 14.4367 10.3074 14.2055 10.5387C13.9742 10.77 13.6605 10.9 13.3334 10.9H11H10.9V11V13.3333C10.9 13.6604 10.7701 13.9741 10.5388 14.2054C10.3075 14.4367 9.99379 14.5666 9.66669 14.5666C9.33959 14.5666 9.02588 14.4367 8.79459 14.2054C8.56329 13.9741 8.43335 13.6604 8.43335 13.3333V11V10.9H8.33335H6.00002C5.67292 10.9 5.35922 10.77 5.12792 10.5387C4.89663 10.3074 4.76669 9.99373 4.76669 9.66663C4.76669 9.33953 4.89663 9.02582 5.12792 8.79453C5.35922 8.56323 5.67292 8.43329 6.00002 8.43329H8.33335H8.43335V8.33329V5.99996C8.43335 5.67286 8.56329 5.35916 8.79459 5.12786C9.02588 4.89657 9.33959 4.76663 9.66669 4.76663C9.99379 4.76663 10.3075 4.89657 10.5388 5.12786C10.7701 5.35916 10.9 5.67286 10.9 5.99996V8.33329Z" fill="black" fill-opacity="0.2"/>
<path d="M10.9 8.33329V8.43329H11H13.3334C13.6605 8.43329 13.9742 8.56323 14.2055 8.79453C14.4367 9.02582 14.5667 9.33953 14.5667 9.66663C14.5667 9.99373 14.4367 10.3074 14.2055 10.5387C13.9742 10.77 13.6605 10.9 13.3334 10.9H11H10.9V11V13.3333C10.9 13.6604 10.7701 13.9741 10.5388 14.2054C10.3075 14.4367 9.99379 14.5666 9.66669 14.5666C9.33959 14.5666 9.02588 14.4367 8.79459 14.2054C8.56329 13.9741 8.43335 13.6604 8.43335 13.3333V11V10.9H8.33335H6.00002C5.67292 10.9 5.35922 10.77 5.12792 10.5387C4.89663 10.3074 4.76669 9.99373 4.76669 9.66663C4.76669 9.33953 4.89663 9.02582 5.12792 8.79453C5.35922 8.56323 5.67292 8.43329 6.00002 8.43329H8.33335H8.43335V8.33329V5.99996C8.43335 5.67286 8.56329 5.35916 8.79459 5.12786C9.02588 4.89657 9.33959 4.76663 9.66669 4.76663C9.99379 4.76663 10.3075 4.89657 10.5388 5.12786C10.7701 5.35916 10.9 5.67286 10.9 5.99996V8.33329Z" stroke="white" stroke-width="0.2"/>
<path d="M6.00002 29.1H13.3334C13.6605 29.1 13.9742 29.2299 14.2055 29.4612C14.4367 29.6925 14.5667 30.0062 14.5667 30.3333C14.5667 30.6604 14.4367 30.9741 14.2055 31.2054C13.9742 31.4367 13.6605 31.5667 13.3334 31.5667H6.00002C5.67292 31.5667 5.35922 31.4367 5.12792 31.2054C4.89663 30.9741 4.76669 30.6604 4.76669 30.3333C4.76669 30.0062 4.89663 29.6925 5.12792 29.4612C5.35922 29.2299 5.67292 29.1 6.00002 29.1Z" fill="#3C00F2"/>
<path d="M6.00002 29.1H13.3334C13.6605 29.1 13.9742 29.2299 14.2055 29.4612C14.4367 29.6925 14.5667 30.0062 14.5667 30.3333C14.5667 30.6604 14.4367 30.9741 14.2055 31.2054C13.9742 31.4367 13.6605 31.5667 13.3334 31.5667H6.00002C5.67292 31.5667 5.35922 31.4367 5.12792 31.2054C4.89663 30.9741 4.76669 30.6604 4.76669 30.3333C4.76669 30.0062 4.89663 29.6925 5.12792 29.4612C5.35922 29.2299 5.67292 29.1 6.00002 29.1Z" fill="black" fill-opacity="0.2"/>
<path d="M6.00002 29.1H13.3334C13.6605 29.1 13.9742 29.2299 14.2055 29.4612C14.4367 29.6925 14.5667 30.0062 14.5667 30.3333C14.5667 30.6604 14.4367 30.9741 14.2055 31.2054C13.9742 31.4367 13.6605 31.5667 13.3334 31.5667H6.00002C5.67292 31.5667 5.35922 31.4367 5.12792 31.2054C4.89663 30.9741 4.76669 30.6604 4.76669 30.3333C4.76669 30.0062 4.89663 29.6925 5.12792 29.4612C5.35922 29.2299 5.67292 29.1 6.00002 29.1Z" stroke="white" stroke-width="0.2"/>
</svg>
