<svg width="40" height="40" viewBox="0 0 40 40" fill="none" xmlns="http://www.w3.org/2000/svg">
<path d="M30.7136 40C27.9565 40 25.7137 37.7572 25.7137 35.0001V16.2392C23.0495 14.5406 21.4281 11.6193 21.4281 8.42078C21.4281 4.92086 23.3681 1.75523 26.4908 0.156695C26.9351 -0.0690136 27.4637 -0.0504427 27.8879 0.209551C28.3122 0.470973 28.5708 0.930962 28.5708 1.42952V7.60508L30.7136 8.4622L32.8564 7.60508V1.42952C32.8564 0.930962 33.115 0.470973 33.5392 0.209551C33.9635 -0.0504427 34.4921 -0.0690136 34.9363 0.156695C38.0591 1.75666 39.9991 4.92086 39.9991 8.42221C39.9991 11.6193 38.3777 14.5406 35.7135 16.2406V35.0001C35.7135 37.7572 33.4707 40 30.7136 40ZM25.7137 4.38088C24.8037 5.50228 24.2852 6.91653 24.2852 8.42078C24.2852 10.8407 25.6294 13.0335 27.7937 14.1421C28.2708 14.3863 28.5708 14.8778 28.5708 15.4135V35.0001C28.5708 36.1815 29.5322 37.1429 30.7136 37.1429C31.895 37.1429 32.8564 36.1815 32.8564 35.0001V15.4135C32.8564 14.8778 33.1564 14.3863 33.6335 14.1421C35.7977 13.0335 37.142 10.8421 37.142 8.42221C37.142 6.91796 36.6234 5.50371 35.7135 4.38231V8.5722C35.7135 9.15647 35.3578 9.68075 34.8163 9.89931L31.245 11.3278C30.9036 11.465 30.525 11.465 30.1836 11.3278L26.6123 9.89931C26.0694 9.68075 25.7137 9.15647 25.7137 8.5722V4.38088Z" fill="#3C00F2"/>
<path d="M30.7136 40C27.9565 40 25.7137 37.7572 25.7137 35.0001V16.2392C23.0495 14.5406 21.4281 11.6193 21.4281 8.42078C21.4281 4.92086 23.3681 1.75523 26.4908 0.156695C26.9351 -0.0690136 27.4637 -0.0504427 27.8879 0.209551C28.3122 0.470973 28.5708 0.930962 28.5708 1.42952V7.60508L30.7136 8.4622L32.8564 7.60508V1.42952C32.8564 0.930962 33.115 0.470973 33.5392 0.209551C33.9635 -0.0504427 34.4921 -0.0690136 34.9363 0.156695C38.0591 1.75666 39.9991 4.92086 39.9991 8.42221C39.9991 11.6193 38.3777 14.5406 35.7135 16.2406V35.0001C35.7135 37.7572 33.4707 40 30.7136 40ZM25.7137 4.38088C24.8037 5.50228 24.2852 6.91653 24.2852 8.42078C24.2852 10.8407 25.6294 13.0335 27.7937 14.1421C28.2708 14.3863 28.5708 14.8778 28.5708 15.4135V35.0001C28.5708 36.1815 29.5322 37.1429 30.7136 37.1429C31.895 37.1429 32.8564 36.1815 32.8564 35.0001V15.4135C32.8564 14.8778 33.1564 14.3863 33.6335 14.1421C35.7977 13.0335 37.142 10.8421 37.142 8.42221C37.142 6.91796 36.6234 5.50371 35.7135 4.38231V8.5722C35.7135 9.15647 35.3578 9.68075 34.8163 9.89931L31.245 11.3278C30.9036 11.465 30.525 11.465 30.1836 11.3278L26.6123 9.89931C26.0694 9.68075 25.7137 9.15647 25.7137 8.5722V4.38088Z" fill="black" fill-opacity="0.2"/>
<path d="M21.5338 40H18.4667C16.9824 40 15.731 38.8414 15.6182 37.3629L15.4382 35.0273C14.4582 34.7301 13.5097 34.3358 12.6025 33.8501L10.8226 35.3744C9.69548 36.3415 7.99266 36.2744 6.94412 35.2273L4.77274 33.0545C3.72419 32.0059 3.65848 30.3017 4.62417 29.1745L6.14842 27.396C5.66272 26.4889 5.26844 25.5403 4.97131 24.5604L2.63708 24.3818C1.15854 24.2704 0 23.019 0 21.5347V18.4662C0 16.982 1.15854 15.7306 2.63851 15.6177L4.97273 15.4392C5.26987 14.4578 5.66415 13.5092 6.14985 12.6035L4.62417 10.8221C3.65848 9.69645 3.72419 7.99364 4.77417 6.94223L6.94269 4.77229C7.99266 3.72231 9.69691 3.65803 10.8226 4.62372L12.6025 6.14797C13.5097 5.66227 14.4582 5.26799 15.4382 4.97085L15.6182 2.6352C15.731 1.15952 16.9824 0.000976562 18.4653 0.000976562H19.9995C20.7881 0.000976562 21.428 0.639532 21.428 1.42951C21.428 2.21949 20.7881 2.85805 19.9995 2.85805H18.4653L18.2081 6.20225C18.1596 6.82509 17.7124 7.34365 17.1053 7.48365C15.7239 7.80221 14.4096 8.34649 13.1997 9.10504C12.6725 9.43789 11.9883 9.38789 11.5126 8.9779L8.96264 6.79367L6.79412 8.96504L8.97835 11.5136C9.38548 11.9878 9.43548 12.6721 9.10406 13.2007C8.34694 14.4121 7.80124 15.7263 7.48267 17.1063C7.34268 17.7148 6.82269 18.162 6.19985 18.2091L2.85707 18.4662V21.5347L6.19985 21.7919C6.82269 21.839 7.34268 22.2876 7.48267 22.8947C7.80124 24.2761 8.34551 25.5903 9.10406 26.8003C9.43548 27.3289 9.38406 28.0131 8.97835 28.4874L6.79412 31.0359L8.96406 33.2073L11.5126 31.0231C11.9883 30.6145 12.6725 30.5645 13.1997 30.8959C14.4111 31.6531 15.7253 32.1988 17.1053 32.5173C17.7139 32.6587 18.161 33.1773 18.2081 33.7987L18.4653 37.1429H21.5323C21.5923 36.3572 22.2766 35.7701 23.0666 35.8287C23.8537 35.8887 24.4423 36.5758 24.3808 37.3629C24.268 38.8414 23.0166 40 21.5338 40Z" fill="#3C00F2"/>
<path d="M21.5338 40H18.4667C16.9824 40 15.731 38.8414 15.6182 37.3629L15.4382 35.0273C14.4582 34.7301 13.5097 34.3358 12.6025 33.8501L10.8226 35.3744C9.69548 36.3415 7.99266 36.2744 6.94412 35.2273L4.77274 33.0545C3.72419 32.0059 3.65848 30.3017 4.62417 29.1745L6.14842 27.396C5.66272 26.4889 5.26844 25.5403 4.97131 24.5604L2.63708 24.3818C1.15854 24.2704 0 23.019 0 21.5347V18.4662C0 16.982 1.15854 15.7306 2.63851 15.6177L4.97273 15.4392C5.26987 14.4578 5.66415 13.5092 6.14985 12.6035L4.62417 10.8221C3.65848 9.69645 3.72419 7.99364 4.77417 6.94223L6.94269 4.77229C7.99266 3.72231 9.69691 3.65803 10.8226 4.62372L12.6025 6.14797C13.5097 5.66227 14.4582 5.26799 15.4382 4.97085L15.6182 2.6352C15.731 1.15952 16.9824 0.000976562 18.4653 0.000976562H19.9995C20.7881 0.000976562 21.428 0.639532 21.428 1.42951C21.428 2.21949 20.7881 2.85805 19.9995 2.85805H18.4653L18.2081 6.20225C18.1596 6.82509 17.7124 7.34365 17.1053 7.48365C15.7239 7.80221 14.4096 8.34649 13.1997 9.10504C12.6725 9.43789 11.9883 9.38789 11.5126 8.9779L8.96264 6.79367L6.79412 8.96504L8.97835 11.5136C9.38548 11.9878 9.43548 12.6721 9.10406 13.2007C8.34694 14.4121 7.80124 15.7263 7.48267 17.1063C7.34268 17.7148 6.82269 18.162 6.19985 18.2091L2.85707 18.4662V21.5347L6.19985 21.7919C6.82269 21.839 7.34268 22.2876 7.48267 22.8947C7.80124 24.2761 8.34551 25.5903 9.10406 26.8003C9.43548 27.3289 9.38406 28.0131 8.97835 28.4874L6.79412 31.0359L8.96406 33.2073L11.5126 31.0231C11.9883 30.6145 12.6725 30.5645 13.1997 30.8959C14.4111 31.6531 15.7253 32.1988 17.1053 32.5173C17.7139 32.6587 18.161 33.1773 18.2081 33.7987L18.4653 37.1429H21.5323C21.5923 36.3572 22.2766 35.7701 23.0666 35.8287C23.8537 35.8887 24.4423 36.5758 24.3808 37.3629C24.268 38.8414 23.0166 40 21.5338 40Z" fill="black" fill-opacity="0.2"/>
<path d="M9.99976 20.0004C9.99976 15.0948 13.5054 10.9478 18.3353 10.1393C19.111 10.0007 19.8509 10.5335 19.9795 11.3121C20.1095 12.0906 19.5852 12.8263 18.8067 12.9563C15.3596 13.5349 12.8568 16.4977 12.8568 20.0004C12.8568 24.9332 17.7567 28.3731 22.3809 26.7374C23.1209 26.4731 23.9408 26.8617 24.2051 27.606C24.468 28.3502 24.0794 29.1659 23.3351 29.4288C16.831 31.7301 9.99976 26.8803 9.99976 20.0004Z" fill="#3C00F2"/>
<path d="M9.99976 20.0004C9.99976 15.0948 13.5054 10.9478 18.3353 10.1393C19.111 10.0007 19.8509 10.5335 19.9795 11.3121C20.1095 12.0906 19.5852 12.8263 18.8067 12.9563C15.3596 13.5349 12.8568 16.4977 12.8568 20.0004C12.8568 24.9332 17.7567 28.3731 22.3809 26.7374C23.1209 26.4731 23.9408 26.8617 24.2051 27.606C24.468 28.3502 24.0794 29.1659 23.3351 29.4288C16.831 31.7301 9.99976 26.8803 9.99976 20.0004Z" fill="black" fill-opacity="0.2"/>
</svg>
