<svg width="36" height="40" viewBox="0 0 36 40" fill="none" xmlns="http://www.w3.org/2000/svg">
<path d="M16.5844 18.832C16.5844 18.1848 16.0597 17.6602 15.4126 17.6602H5.95935C5.31216 17.6602 4.78748 18.1848 4.78748 18.832C4.78748 19.4792 5.31216 20.0039 5.95935 20.0039H15.4126C16.0597 20.0039 16.5844 19.4792 16.5844 18.832Z" fill="#3C00F2"/>
<path d="M16.5844 18.832C16.5844 18.1848 16.0597 17.6602 15.4126 17.6602H5.95935C5.31216 17.6602 4.78748 18.1848 4.78748 18.832C4.78748 19.4792 5.31216 20.0039 5.95935 20.0039H15.4126C16.0597 20.0039 16.5844 19.4792 16.5844 18.832Z" fill="black" fill-opacity="0.2"/>
<path d="M10.6508 22.3477H5.95532C5.30813 22.3477 4.78345 22.8723 4.78345 23.5195C4.78345 24.1667 5.30813 24.6914 5.95532 24.6914H10.6508C11.298 24.6914 11.8227 24.1667 11.8227 23.5195C11.8227 22.8723 11.298 22.3477 10.6508 22.3477Z" fill="#3C00F2"/>
<path d="M10.6508 22.3477H5.95532C5.30813 22.3477 4.78345 22.8723 4.78345 23.5195C4.78345 24.1667 5.30813 24.6914 5.95532 24.6914H10.6508C11.298 24.6914 11.8227 24.1667 11.8227 23.5195C11.8227 22.8723 11.298 22.3477 10.6508 22.3477Z" fill="black" fill-opacity="0.2"/>
<path d="M10.6508 27.0273H5.95154C5.30435 27.0273 4.77966 27.552 4.77966 28.1992C4.77966 28.8464 5.30435 29.3711 5.95154 29.3711H10.6508C11.2979 29.3711 11.8226 28.8464 11.8226 28.1992C11.8226 27.552 11.2979 27.0273 10.6508 27.0273Z" fill="#3C00F2"/>
<path d="M10.6508 27.0273H5.95154C5.30435 27.0273 4.77966 27.552 4.77966 28.1992C4.77966 28.8464 5.30435 29.3711 5.95154 29.3711H10.6508C11.2979 29.3711 11.8226 28.8464 11.8226 28.1992C11.8226 27.552 11.2979 27.0273 10.6508 27.0273Z" fill="black" fill-opacity="0.2"/>
<path d="M9.5061 11.7968H11.8189V14.1096C11.8189 14.7568 12.3436 15.2815 12.9908 15.2815C13.638 15.2815 14.1627 14.7568 14.1627 14.1096V11.7968H16.4755C17.1227 11.7968 17.6474 11.2721 17.6474 10.6249C17.6474 9.97776 17.1227 9.45307 16.4755 9.45307H14.1627V7.14026C14.1627 6.49307 13.638 5.96838 12.9908 5.96838C12.3436 5.96838 11.8189 6.49307 11.8189 7.14026V9.45307H9.5061C8.85892 9.45307 8.33423 9.97776 8.33423 10.6249C8.33423 11.2721 8.85884 11.7968 9.5061 11.7968Z" fill="#3C00F2"/>
<path d="M9.5061 11.7968H11.8189V14.1096C11.8189 14.7568 12.3436 15.2815 12.9908 15.2815C13.638 15.2815 14.1627 14.7568 14.1627 14.1096V11.7968H16.4755C17.1227 11.7968 17.6474 11.2721 17.6474 10.6249C17.6474 9.97776 17.1227 9.45307 16.4755 9.45307H14.1627V7.14026C14.1627 6.49307 13.638 5.96838 12.9908 5.96838C12.3436 5.96838 11.8189 6.49307 11.8189 7.14026V9.45307H9.5061C8.85892 9.45307 8.33423 9.97776 8.33423 10.6249C8.33423 11.2721 8.85884 11.7968 9.5061 11.7968Z" fill="black" fill-opacity="0.2"/>
<path d="M25.8734 18.9618V16.4844H34.1586C34.8058 16.4844 35.3305 15.9597 35.3305 15.3125V5.90039C35.3305 2.65836 32.6962 7.8125e-05 29.4271 7.8125e-05C28.598 7.8125e-05 6.70858 0 5.88397 0C2.65389 0 0.026001 2.62797 0.026001 5.85805V38.807C0.026001 39.8641 1.31881 40.3751 2.04428 39.6175L3.54342 38.0519L5.12709 39.6356C5.58475 40.0931 6.32655 40.0933 6.78436 39.6358L8.28506 38.1355L9.80116 39.6391C10.258 40.0922 10.9945 40.0921 11.4515 39.6392L12.9914 38.1123L14.532 39.6393C14.989 40.0923 15.7258 40.0921 16.1825 39.6388L18.1741 37.6622C19.9844 39.1235 22.2854 40 24.7876 40C30.6031 40 35.3344 35.2687 35.3344 29.4531C35.3344 24.0041 31.1808 19.5071 25.8734 18.9618ZM32.9866 5.90039V14.1406H25.8733V5.90039C25.8733 3.93922 27.4689 2.34375 29.43 2.34375C31.3911 2.34375 32.9866 3.9393 32.9866 5.90039ZM15.3564 37.1566L13.8162 35.63C13.3593 35.1771 12.623 35.1773 12.1661 35.6302L10.6264 37.1567L9.10686 35.6498C8.64874 35.1955 7.9096 35.1968 7.45311 35.653L5.95592 37.1498L4.35389 35.5477C3.87772 35.0716 3.12288 35.1021 2.67889 35.5659L2.36975 35.8887V5.85805C2.36975 3.92031 3.94624 2.34375 5.88397 2.34375H24.7258C23.9757 3.33344 23.5296 4.56563 23.5296 5.90039V18.9816C18.305 19.6054 14.2407 24.0632 14.2407 29.4531C14.2407 31.9239 15.0951 34.1987 16.5234 35.9984L15.3564 37.1566ZM24.7876 37.6562C20.2644 37.6562 16.5844 33.9763 16.5844 29.4531C16.5844 24.9299 20.2644 21.25 24.7876 21.25C29.3108 21.25 32.9907 24.9299 32.9907 29.4531C32.9907 33.9763 29.3108 37.6562 24.7876 37.6562Z" fill="#3C00F2"/>
<path d="M25.8734 18.9618V16.4844H34.1586C34.8058 16.4844 35.3305 15.9597 35.3305 15.3125V5.90039C35.3305 2.65836 32.6962 7.8125e-05 29.4271 7.8125e-05C28.598 7.8125e-05 6.70858 0 5.88397 0C2.65389 0 0.026001 2.62797 0.026001 5.85805V38.807C0.026001 39.8641 1.31881 40.3751 2.04428 39.6175L3.54342 38.0519L5.12709 39.6356C5.58475 40.0931 6.32655 40.0933 6.78436 39.6358L8.28506 38.1355L9.80116 39.6391C10.258 40.0922 10.9945 40.0921 11.4515 39.6392L12.9914 38.1123L14.532 39.6393C14.989 40.0923 15.7258 40.0921 16.1825 39.6388L18.1741 37.6622C19.9844 39.1235 22.2854 40 24.7876 40C30.6031 40 35.3344 35.2687 35.3344 29.4531C35.3344 24.0041 31.1808 19.5071 25.8734 18.9618ZM32.9866 5.90039V14.1406H25.8733V5.90039C25.8733 3.93922 27.4689 2.34375 29.43 2.34375C31.3911 2.34375 32.9866 3.9393 32.9866 5.90039ZM15.3564 37.1566L13.8162 35.63C13.3593 35.1771 12.623 35.1773 12.1661 35.6302L10.6264 37.1567L9.10686 35.6498C8.64874 35.1955 7.9096 35.1968 7.45311 35.653L5.95592 37.1498L4.35389 35.5477C3.87772 35.0716 3.12288 35.1021 2.67889 35.5659L2.36975 35.8887V5.85805C2.36975 3.92031 3.94624 2.34375 5.88397 2.34375H24.7258C23.9757 3.33344 23.5296 4.56563 23.5296 5.90039V18.9816C18.305 19.6054 14.2407 24.0632 14.2407 29.4531C14.2407 31.9239 15.0951 34.1987 16.5234 35.9984L15.3564 37.1566ZM24.7876 37.6562C20.2644 37.6562 16.5844 33.9763 16.5844 29.4531C16.5844 24.9299 20.2644 21.25 24.7876 21.25C29.3108 21.25 32.9907 24.9299 32.9907 29.4531C32.9907 33.9763 29.3108 37.6562 24.7876 37.6562Z" fill="black" fill-opacity="0.2"/>
<path d="M27.4154 26.458H25.3754C25.5754 26.586 25.7314 26.734 25.8434 26.902C25.9554 27.066 26.0354 27.246 26.0834 27.442H27.4154V28.582H26.0774C25.9854 28.954 25.8014 29.284 25.5254 29.572C25.2494 29.86 24.8874 30.084 24.4394 30.244C24.5634 30.3 24.6774 30.374 24.7814 30.466C24.8894 30.558 24.9854 30.668 25.0694 30.796L27.2414 34H25.7834C25.5114 34 25.3114 33.892 25.1834 33.676L23.3594 30.898C23.2914 30.794 23.2154 30.72 23.1314 30.676C23.0514 30.632 22.9314 30.61 22.7714 30.61H21.6434V29.518H22.8314C23.2874 29.518 23.6514 29.432 23.9234 29.26C24.1994 29.088 24.3934 28.862 24.5054 28.582H21.6374V27.442H24.5414C24.4454 27.15 24.2574 26.922 23.9774 26.758C23.7014 26.59 23.3274 26.506 22.8554 26.506H21.6434V25.324H27.4154V26.458Z" fill="#3C00F2"/>
<path d="M27.4154 26.458H25.3754C25.5754 26.586 25.7314 26.734 25.8434 26.902C25.9554 27.066 26.0354 27.246 26.0834 27.442H27.4154V28.582H26.0774C25.9854 28.954 25.8014 29.284 25.5254 29.572C25.2494 29.86 24.8874 30.084 24.4394 30.244C24.5634 30.3 24.6774 30.374 24.7814 30.466C24.8894 30.558 24.9854 30.668 25.0694 30.796L27.2414 34H25.7834C25.5114 34 25.3114 33.892 25.1834 33.676L23.3594 30.898C23.2914 30.794 23.2154 30.72 23.1314 30.676C23.0514 30.632 22.9314 30.61 22.7714 30.61H21.6434V29.518H22.8314C23.2874 29.518 23.6514 29.432 23.9234 29.26C24.1994 29.088 24.3934 28.862 24.5054 28.582H21.6374V27.442H24.5414C24.4454 27.15 24.2574 26.922 23.9774 26.758C23.7014 26.59 23.3274 26.506 22.8554 26.506H21.6434V25.324H27.4154V26.458Z" fill="black" fill-opacity="0.2"/>
</svg>
