<svg width="41" height="40" viewBox="0 0 41 40" fill="none" xmlns="http://www.w3.org/2000/svg">
<path d="M38.7507 19.7334C37.4132 18.6311 35.2992 18.5365 33.9117 20.0256L30.4672 23.7232C30.0219 22.292 28.6852 21.2498 27.1095 21.2498H20.9627C20.4963 21.2498 20.3401 21.0717 19.5299 20.4475C16.4408 17.7545 11.8011 17.7631 8.72138 20.4733L6.46205 22.4623C5.44645 21.9248 4.26053 21.9115 3.23938 22.4217L0.648002 23.717C0.0690666 24.0068 -0.165242 24.7107 0.123757 25.2896L7.15497 39.352C7.44483 39.9309 8.14869 40.1652 8.72763 39.8762L11.319 38.5801C12.5963 37.9419 13.3072 36.6387 13.2611 35.3122H27.1094C29.6774 35.3122 32.1312 34.0857 33.6719 32.031L39.2976 24.5296C40.389 23.0756 40.2163 20.9435 38.7507 19.7334ZM10.2705 36.484L8.72755 37.2558L2.74405 25.2896L4.2878 24.5178C4.86673 24.2287 5.56981 24.4623 5.85967 25.042L10.7948 34.9122C11.0838 35.4911 10.8495 36.1941 10.2705 36.484ZM37.4226 23.1233L31.7969 30.6247C30.6962 32.0927 28.9438 32.9684 27.1095 32.9684H12.4432L8.05181 24.1849L10.2697 22.2327C12.4767 20.2912 15.8049 20.2912 18.0118 22.2327C19.3118 23.3772 20.1204 23.5936 20.9626 23.5936H27.1094C27.7555 23.5936 28.2813 24.1194 28.2813 24.7654C28.2813 25.4115 27.7555 25.9373 27.1094 25.9373H21.1243C20.4774 25.9373 19.9525 26.4623 19.9525 27.1092C19.9525 27.756 20.4775 28.281 21.1243 28.281H27.8946C28.8672 28.281 29.8048 27.8732 30.4672 27.1615L35.6266 21.6233C36.0985 21.117 36.8219 21.1592 37.2656 21.5475C37.7296 21.9537 37.7797 22.6482 37.4226 23.1233Z" fill="#3C00F2"/>
<path d="M38.7507 19.7334C37.4132 18.6311 35.2992 18.5365 33.9117 20.0256L30.4672 23.7232C30.0219 22.292 28.6852 21.2498 27.1095 21.2498H20.9627C20.4963 21.2498 20.3401 21.0717 19.5299 20.4475C16.4408 17.7545 11.8011 17.7631 8.72138 20.4733L6.46205 22.4623C5.44645 21.9248 4.26053 21.9115 3.23938 22.4217L0.648002 23.717C0.0690666 24.0068 -0.165242 24.7107 0.123757 25.2896L7.15497 39.352C7.44483 39.9309 8.14869 40.1652 8.72763 39.8762L11.319 38.5801C12.5963 37.9419 13.3072 36.6387 13.2611 35.3122H27.1094C29.6774 35.3122 32.1312 34.0857 33.6719 32.031L39.2976 24.5296C40.389 23.0756 40.2163 20.9435 38.7507 19.7334ZM10.2705 36.484L8.72755 37.2558L2.74405 25.2896L4.2878 24.5178C4.86673 24.2287 5.56981 24.4623 5.85967 25.042L10.7948 34.9122C11.0838 35.4911 10.8495 36.1941 10.2705 36.484ZM37.4226 23.1233L31.7969 30.6247C30.6962 32.0927 28.9438 32.9684 27.1095 32.9684H12.4432L8.05181 24.1849L10.2697 22.2327C12.4767 20.2912 15.8049 20.2912 18.0118 22.2327C19.3118 23.3772 20.1204 23.5936 20.9626 23.5936H27.1094C27.7555 23.5936 28.2813 24.1194 28.2813 24.7654C28.2813 25.4115 27.7555 25.9373 27.1094 25.9373H21.1243C20.4774 25.9373 19.9525 26.4623 19.9525 27.1092C19.9525 27.756 20.4775 28.281 21.1243 28.281H27.8946C28.8672 28.281 29.8048 27.8732 30.4672 27.1615L35.6266 21.6233C36.0985 21.117 36.8219 21.1592 37.2656 21.5475C37.7296 21.9537 37.7797 22.6482 37.4226 23.1233Z" fill="black" fill-opacity="0.2"/>
<path d="M24.6407 7.99681C25.443 7.15544 25.9376 6.01796 25.9376 4.76555C25.9376 2.18589 23.8532 0 21.2501 0C18.6666 0 16.4846 2.18199 16.4846 4.76555C16.4846 5.9796 16.9604 7.12567 17.8244 8.00619C15.6815 9.20773 14.1409 11.5139 14.1409 14.2186V15.3905C14.1409 16.0373 14.6659 16.5623 15.3127 16.5623H27.1095C27.7563 16.5623 28.2814 16.0373 28.2814 15.3905V14.2186C28.2813 11.5671 26.8228 9.22492 24.6407 7.99681ZM21.2501 2.34379C22.5204 2.34379 23.5938 3.45314 23.5938 4.76563C23.5938 6.05781 22.5423 7.10934 21.2501 7.10934C19.9376 7.10934 18.8283 6.03593 18.8283 4.76563C18.8283 3.4758 19.9603 2.34379 21.2501 2.34379ZM16.4846 14.2186C16.4846 11.635 18.6666 9.45306 21.2501 9.45306C23.8345 9.45306 25.9376 11.5905 25.9376 14.2186H16.4846Z" fill="#3C00F2"/>
<path d="M24.6407 7.99681C25.443 7.15544 25.9376 6.01796 25.9376 4.76555C25.9376 2.18589 23.8532 0 21.2501 0C18.6666 0 16.4846 2.18199 16.4846 4.76555C16.4846 5.9796 16.9604 7.12567 17.8244 8.00619C15.6815 9.20773 14.1409 11.5139 14.1409 14.2186V15.3905C14.1409 16.0373 14.6659 16.5623 15.3127 16.5623H27.1095C27.7563 16.5623 28.2814 16.0373 28.2814 15.3905V14.2186C28.2813 11.5671 26.8228 9.22492 24.6407 7.99681ZM21.2501 2.34379C22.5204 2.34379 23.5938 3.45314 23.5938 4.76563C23.5938 6.05781 22.5423 7.10934 21.2501 7.10934C19.9376 7.10934 18.8283 6.03593 18.8283 4.76563C18.8283 3.4758 19.9603 2.34379 21.2501 2.34379ZM16.4846 14.2186C16.4846 11.635 18.6666 9.45306 21.2501 9.45306C23.8345 9.45306 25.9376 11.5905 25.9376 14.2186H16.4846Z" fill="black" fill-opacity="0.2"/>
</svg>
