<svg width="37" height="41" viewBox="0 0 37 41" fill="none" xmlns="http://www.w3.org/2000/svg">
<path d="M8.3125 19.9156H9.09375C9.87388 19.9156 10.5062 20.548 10.5062 21.3281C10.5062 22.1083 9.87388 22.7406 9.09375 22.7406H8.3125C7.53237 22.7406 6.9 22.1083 6.9 21.3281C6.9 20.548 7.53237 19.9156 8.3125 19.9156Z" fill="#3C00F2"/>
<path d="M8.3125 19.9156H9.09375C9.87388 19.9156 10.5062 20.548 10.5062 21.3281C10.5062 22.1083 9.87388 22.7406 9.09375 22.7406H8.3125C7.53237 22.7406 6.9 22.1083 6.9 21.3281C6.9 20.548 7.53237 19.9156 8.3125 19.9156Z" fill="black" fill-opacity="0.2"/>
<path d="M8.3125 19.9156H9.09375C9.87388 19.9156 10.5062 20.548 10.5062 21.3281C10.5062 22.1083 9.87388 22.7406 9.09375 22.7406H8.3125C7.53237 22.7406 6.9 22.1083 6.9 21.3281C6.9 20.548 7.53237 19.9156 8.3125 19.9156Z" stroke="white" stroke-width="0.3"/>
<path d="M14.5625 13.6656H24.4844C25.2645 13.6656 25.8969 14.298 25.8969 15.0781C25.8969 15.8583 25.2645 16.4906 24.4844 16.4906H14.5625C13.7824 16.4906 13.15 15.8583 13.15 15.0781C13.15 14.298 13.7824 13.6656 14.5625 13.6656Z" fill="#3C00F2"/>
<path d="M14.5625 13.6656H24.4844C25.2645 13.6656 25.8969 14.298 25.8969 15.0781C25.8969 15.8583 25.2645 16.4906 24.4844 16.4906H14.5625C13.7824 16.4906 13.15 15.8583 13.15 15.0781C13.15 14.298 13.7824 13.6656 14.5625 13.6656Z" fill="black" fill-opacity="0.2"/>
<path d="M14.5625 13.6656H24.4844C25.2645 13.6656 25.8969 14.298 25.8969 15.0781C25.8969 15.8583 25.2645 16.4906 24.4844 16.4906H14.5625C13.7824 16.4906 13.15 15.8583 13.15 15.0781C13.15 14.298 13.7824 13.6656 14.5625 13.6656Z" stroke="white" stroke-width="0.3"/>
<path d="M6.75 37.025H21.9757C22.7558 37.025 23.3882 37.6574 23.3882 38.4375C23.3882 39.2176 22.7558 39.85 21.9757 39.85H6.75C3.38659 39.85 0.65 37.1134 0.65 33.75V6.25C0.65 2.88659 3.38659 0.15 6.75 0.15H25.9601C29.3235 0.15 32.0601 2.88659 32.0601 6.25V15.0781C32.0601 15.8583 31.4277 16.4906 30.6476 16.4906C29.8675 16.4906 29.2351 15.8583 29.2351 15.0781V6.25C29.2351 4.44403 27.766 2.975 25.9601 2.975H6.75C4.94403 2.975 3.475 4.44403 3.475 6.25V33.75C3.475 35.556 4.94403 37.025 6.75 37.025Z" fill="#3C00F2"/>
<path d="M6.75 37.025H21.9757C22.7558 37.025 23.3882 37.6574 23.3882 38.4375C23.3882 39.2176 22.7558 39.85 21.9757 39.85H6.75C3.38659 39.85 0.65 37.1134 0.65 33.75V6.25C0.65 2.88659 3.38659 0.15 6.75 0.15H25.9601C29.3235 0.15 32.0601 2.88659 32.0601 6.25V15.0781C32.0601 15.8583 31.4277 16.4906 30.6476 16.4906C29.8675 16.4906 29.2351 15.8583 29.2351 15.0781V6.25C29.2351 4.44403 27.766 2.975 25.9601 2.975H6.75C4.94403 2.975 3.475 4.44403 3.475 6.25V33.75C3.475 35.556 4.94403 37.025 6.75 37.025Z" fill="black" fill-opacity="0.2"/>
<path d="M6.75 37.025H21.9757C22.7558 37.025 23.3882 37.6574 23.3882 38.4375C23.3882 39.2176 22.7558 39.85 21.9757 39.85H6.75C3.38659 39.85 0.65 37.1134 0.65 33.75V6.25C0.65 2.88659 3.38659 0.15 6.75 0.15H25.9601C29.3235 0.15 32.0601 2.88659 32.0601 6.25V15.0781C32.0601 15.8583 31.4277 16.4906 30.6476 16.4906C29.8675 16.4906 29.2351 15.8583 29.2351 15.0781V6.25C29.2351 4.44403 27.766 2.975 25.9601 2.975H6.75C4.94403 2.975 3.475 4.44403 3.475 6.25V33.75C3.475 35.556 4.94403 37.025 6.75 37.025Z" stroke="white" stroke-width="0.3"/>
<path d="M35.859 24.43H32.459C32.7923 24.6433 33.0523 24.89 33.239 25.17C33.4257 25.4433 33.559 25.7433 33.639 26.07H35.859V27.97H33.629C33.4757 28.59 33.169 29.14 32.709 29.62C32.249 30.1 31.6457 30.4733 30.899 30.74C31.1057 30.8333 31.2957 30.9567 31.469 31.11C31.649 31.2633 31.809 31.4467 31.949 31.66L35.569 37H33.139C32.6857 37 32.3523 36.82 32.139 36.46L29.099 31.83C28.9857 31.6567 28.859 31.5333 28.719 31.46C28.5857 31.3867 28.3857 31.35 28.119 31.35H26.239V29.53H28.219C28.979 29.53 29.5857 29.3867 30.039 29.1C30.499 28.8133 30.8223 28.4367 31.009 27.97H26.229V26.07H31.069C30.909 25.5833 30.5957 25.2033 30.129 24.93C29.669 24.65 29.0457 24.51 28.259 24.51H26.239V22.54H35.859V24.43Z" fill="#3C00F2"/>
<path d="M35.859 24.43H32.459C32.7923 24.6433 33.0523 24.89 33.239 25.17C33.4257 25.4433 33.559 25.7433 33.639 26.07H35.859V27.97H33.629C33.4757 28.59 33.169 29.14 32.709 29.62C32.249 30.1 31.6457 30.4733 30.899 30.74C31.1057 30.8333 31.2957 30.9567 31.469 31.11C31.649 31.2633 31.809 31.4467 31.949 31.66L35.569 37H33.139C32.6857 37 32.3523 36.82 32.139 36.46L29.099 31.83C28.9857 31.6567 28.859 31.5333 28.719 31.46C28.5857 31.3867 28.3857 31.35 28.119 31.35H26.239V29.53H28.219C28.979 29.53 29.5857 29.3867 30.039 29.1C30.499 28.8133 30.8223 28.4367 31.009 27.97H26.229V26.07H31.069C30.909 25.5833 30.5957 25.2033 30.129 24.93C29.669 24.65 29.0457 24.51 28.259 24.51H26.239V22.54H35.859V24.43Z" fill="black" fill-opacity="0.2"/>
<path d="M8.3125 26.1656H9.09375C9.87388 26.1656 10.5062 26.798 10.5062 27.5781C10.5062 28.3583 9.87388 28.9906 9.09375 28.9906H8.3125C7.53237 28.9906 6.9 28.3583 6.9 27.5781C6.9 26.798 7.53237 26.1656 8.3125 26.1656Z" fill="#3C00F2"/>
<path d="M8.3125 26.1656H9.09375C9.87388 26.1656 10.5062 26.798 10.5062 27.5781C10.5062 28.3583 9.87388 28.9906 9.09375 28.9906H8.3125C7.53237 28.9906 6.9 28.3583 6.9 27.5781C6.9 26.798 7.53237 26.1656 8.3125 26.1656Z" fill="black" fill-opacity="0.2"/>
<path d="M8.3125 26.1656H9.09375C9.87388 26.1656 10.5062 26.798 10.5062 27.5781C10.5062 28.3583 9.87388 28.9906 9.09375 28.9906H8.3125C7.53237 28.9906 6.9 28.3583 6.9 27.5781C6.9 26.798 7.53237 26.1656 8.3125 26.1656Z" stroke="white" stroke-width="0.3"/>
<path d="M14.5625 7.41563H24.4844C25.2645 7.41563 25.8969 8.048 25.8969 8.82812C25.8969 9.60825 25.2645 10.2406 24.4844 10.2406H14.5625C13.7824 10.2406 13.15 9.60825 13.15 8.82812C13.15 8.048 13.7824 7.41563 14.5625 7.41563Z" fill="#3C00F2"/>
<path d="M14.5625 7.41563H24.4844C25.2645 7.41563 25.8969 8.048 25.8969 8.82812C25.8969 9.60825 25.2645 10.2406 24.4844 10.2406H14.5625C13.7824 10.2406 13.15 9.60825 13.15 8.82812C13.15 8.048 13.7824 7.41563 14.5625 7.41563Z" fill="black" fill-opacity="0.2"/>
<path d="M14.5625 7.41563H24.4844C25.2645 7.41563 25.8969 8.048 25.8969 8.82812C25.8969 9.60825 25.2645 10.2406 24.4844 10.2406H14.5625C13.7824 10.2406 13.15 9.60825 13.15 8.82812C13.15 8.048 13.7824 7.41563 14.5625 7.41563Z" stroke="white" stroke-width="0.3"/>
<path d="M22.7719 27.5781C22.7719 28.3583 22.1395 28.9906 21.3594 28.9906H14.5625C13.7824 28.9906 13.15 28.3583 13.15 27.5781C13.15 26.798 13.7824 26.1656 14.5625 26.1656H21.3594C22.1395 26.1656 22.7719 26.798 22.7719 27.5781Z" fill="#3C00F2"/>
<path d="M22.7719 27.5781C22.7719 28.3583 22.1395 28.9906 21.3594 28.9906H14.5625C13.7824 28.9906 13.15 28.3583 13.15 27.5781C13.15 26.798 13.7824 26.1656 14.5625 26.1656H21.3594C22.1395 26.1656 22.7719 26.798 22.7719 27.5781Z" fill="black" fill-opacity="0.2"/>
<path d="M22.7719 27.5781C22.7719 28.3583 22.1395 28.9906 21.3594 28.9906H14.5625C13.7824 28.9906 13.15 28.3583 13.15 27.5781C13.15 26.798 13.7824 26.1656 14.5625 26.1656H21.3594C22.1395 26.1656 22.7719 26.798 22.7719 27.5781Z" stroke="white" stroke-width="0.3"/>
<path d="M8.3125 13.6656H9.09375C9.87388 13.6656 10.5062 14.298 10.5062 15.0781C10.5062 15.8583 9.87388 16.4906 9.09375 16.4906H8.3125C7.53237 16.4906 6.9 15.8583 6.9 15.0781C6.9 14.298 7.53237 13.6656 8.3125 13.6656Z" fill="#3C00F2"/>
<path d="M8.3125 13.6656H9.09375C9.87388 13.6656 10.5062 14.298 10.5062 15.0781C10.5062 15.8583 9.87388 16.4906 9.09375 16.4906H8.3125C7.53237 16.4906 6.9 15.8583 6.9 15.0781C6.9 14.298 7.53237 13.6656 8.3125 13.6656Z" fill="black" fill-opacity="0.2"/>
<path d="M8.3125 13.6656H9.09375C9.87388 13.6656 10.5062 14.298 10.5062 15.0781C10.5062 15.8583 9.87388 16.4906 9.09375 16.4906H8.3125C7.53237 16.4906 6.9 15.8583 6.9 15.0781C6.9 14.298 7.53237 13.6656 8.3125 13.6656Z" stroke="white" stroke-width="0.3"/>
<path d="M24.4844 19.9156C25.2645 19.9156 25.8969 20.548 25.8969 21.3281C25.8969 22.1083 25.2645 22.7406 24.4844 22.7406H14.5625C13.7824 22.7406 13.15 22.1083 13.15 21.3281C13.15 20.548 13.7824 19.9156 14.5625 19.9156H24.4844Z" fill="#3C00F2"/>
<path d="M24.4844 19.9156C25.2645 19.9156 25.8969 20.548 25.8969 21.3281C25.8969 22.1083 25.2645 22.7406 24.4844 22.7406H14.5625C13.7824 22.7406 13.15 22.1083 13.15 21.3281C13.15 20.548 13.7824 19.9156 14.5625 19.9156H24.4844Z" fill="black" fill-opacity="0.2"/>
<path d="M24.4844 19.9156C25.2645 19.9156 25.8969 20.548 25.8969 21.3281C25.8969 22.1083 25.2645 22.7406 24.4844 22.7406H14.5625C13.7824 22.7406 13.15 22.1083 13.15 21.3281C13.15 20.548 13.7824 19.9156 14.5625 19.9156H24.4844Z" stroke="white" stroke-width="0.3"/>
<path d="M8.3125 7.41563H9.09375C9.87388 7.41563 10.5062 8.048 10.5062 8.82812C10.5062 9.60825 9.87388 10.2406 9.09375 10.2406H8.3125C7.53237 10.2406 6.9 9.60825 6.9 8.82812C6.9 8.048 7.53237 7.41563 8.3125 7.41563Z" fill="#3C00F2"/>
<path d="M8.3125 7.41563H9.09375C9.87388 7.41563 10.5062 8.048 10.5062 8.82812C10.5062 9.60825 9.87388 10.2406 9.09375 10.2406H8.3125C7.53237 10.2406 6.9 9.60825 6.9 8.82812C6.9 8.048 7.53237 7.41563 8.3125 7.41563Z" fill="black" fill-opacity="0.2"/>
<path d="M8.3125 7.41563H9.09375C9.87388 7.41563 10.5062 8.048 10.5062 8.82812C10.5062 9.60825 9.87388 10.2406 9.09375 10.2406H8.3125C7.53237 10.2406 6.9 9.60825 6.9 8.82812C6.9 8.048 7.53237 7.41563 8.3125 7.41563Z" stroke="white" stroke-width="0.3"/>
</svg>
