<svg width="40" height="40" viewBox="0 0 40 40" fill="none" xmlns="http://www.w3.org/2000/svg">
<path d="M38.8281 0H1.17188C0.524687 0 0 0.524687 0 1.17188V38.8281C0 39.4753 0.524687 40 1.17188 40H38.8281C39.4753 40 40 39.4753 40 38.8281V1.17188C40 0.524687 39.4753 0 38.8281 0ZM37.6562 37.6562H2.34375V35.3125H37.6562V37.6562ZM37.6562 32.9688H2.34375V25.9375H37.6562V32.9688ZM11.3916 21.25H14.3898L15.171 23.5938H10.6103L11.3916 21.25ZM7.03125 18.9062V11.875H18.75V18.9062H7.03125ZM28.6719 18.9062C31.0412 18.9062 32.9688 20.8338 32.9688 23.2031V23.5938H24.375V23.2031C24.375 20.8338 26.3026 18.9062 28.6719 18.9062ZM26.3281 14.2188C26.3281 12.9264 27.3795 11.875 28.6719 11.875C29.9642 11.875 31.0156 12.9264 31.0156 14.2188C31.0156 15.5111 29.9642 16.5625 28.6719 16.5625C27.3795 16.5625 26.3281 15.5111 26.3281 14.2188ZM37.6562 23.5938H35.3125V23.2031C35.3125 20.7679 33.994 18.6359 32.0342 17.4801C32.8535 16.6356 33.3594 15.4855 33.3594 14.2188C33.3594 11.6341 31.2566 9.53125 28.6719 9.53125C26.0872 9.53125 23.9844 11.6341 23.9844 14.2188C23.9844 15.4855 24.4902 16.6356 25.3095 17.4801C23.3498 18.6359 22.0312 20.7679 22.0312 23.2031V23.5938H17.6416L16.8603 21.25H19.9219C20.5691 21.25 21.0938 20.7253 21.0938 20.0781V10.7031C21.0938 10.0559 20.5691 9.53125 19.9219 9.53125H5.85938C5.21219 9.53125 4.6875 10.0559 4.6875 10.7031V20.0781C4.6875 20.7253 5.21219 21.25 5.85938 21.25H8.92094L8.13969 23.5938H2.34375V7.03125H37.6562V23.5938ZM37.6562 4.6875H2.34375V2.34375H37.6562V4.6875Z" fill="#3C00F2"/>
<path d="M38.8281 0H1.17188C0.524687 0 0 0.524687 0 1.17188V38.8281C0 39.4753 0.524687 40 1.17188 40H38.8281C39.4753 40 40 39.4753 40 38.8281V1.17188C40 0.524687 39.4753 0 38.8281 0ZM37.6562 37.6562H2.34375V35.3125H37.6562V37.6562ZM37.6562 32.9688H2.34375V25.9375H37.6562V32.9688ZM11.3916 21.25H14.3898L15.171 23.5938H10.6103L11.3916 21.25ZM7.03125 18.9062V11.875H18.75V18.9062H7.03125ZM28.6719 18.9062C31.0412 18.9062 32.9688 20.8338 32.9688 23.2031V23.5938H24.375V23.2031C24.375 20.8338 26.3026 18.9062 28.6719 18.9062ZM26.3281 14.2188C26.3281 12.9264 27.3795 11.875 28.6719 11.875C29.9642 11.875 31.0156 12.9264 31.0156 14.2188C31.0156 15.5111 29.9642 16.5625 28.6719 16.5625C27.3795 16.5625 26.3281 15.5111 26.3281 14.2188ZM37.6562 23.5938H35.3125V23.2031C35.3125 20.7679 33.994 18.6359 32.0342 17.4801C32.8535 16.6356 33.3594 15.4855 33.3594 14.2188C33.3594 11.6341 31.2566 9.53125 28.6719 9.53125C26.0872 9.53125 23.9844 11.6341 23.9844 14.2188C23.9844 15.4855 24.4902 16.6356 25.3095 17.4801C23.3498 18.6359 22.0312 20.7679 22.0312 23.2031V23.5938H17.6416L16.8603 21.25H19.9219C20.5691 21.25 21.0938 20.7253 21.0938 20.0781V10.7031C21.0938 10.0559 20.5691 9.53125 19.9219 9.53125H5.85938C5.21219 9.53125 4.6875 10.0559 4.6875 10.7031V20.0781C4.6875 20.7253 5.21219 21.25 5.85938 21.25H8.92094L8.13969 23.5938H2.34375V7.03125H37.6562V23.5938ZM37.6562 4.6875H2.34375V2.34375H37.6562V4.6875Z" fill="black" fill-opacity="0.2"/>
</svg>
