<svg width="40" height="40" viewBox="0 0 40 40" fill="none" xmlns="http://www.w3.org/2000/svg">
<path d="M39.5005 8.15594L31.6884 0.343281C31.4686 0.123438 31.1705 0 30.8597 0H12.8906C10.9521 0 9.375 1.57711 9.375 3.51562V18.9717C4.10891 19.5566 0 24.0337 0 29.4531C0 35.2687 4.73133 40 10.5469 40H36.3281C38.2666 40 39.8438 38.4229 39.8438 36.4844V8.98461C39.8438 8.67375 39.7203 8.37578 39.5005 8.15594ZM32.0312 4.00102L33.9371 5.90688L35.8427 7.8125H32.0312V4.00102ZM2.34375 29.4531C2.34375 24.9299 6.02367 21.25 10.5469 21.25C15.0701 21.25 18.75 24.9299 18.75 29.4531C18.75 33.9763 15.0701 37.6562 10.5469 37.6562C6.02367 37.6562 2.34375 33.9763 2.34375 29.4531ZM36.3281 37.6562H17.1679C19.2744 35.9527 20.7139 33.4563 21.0284 30.625H33.2031C33.8503 30.625 34.375 30.1003 34.375 29.4531C34.375 28.8059 33.8503 28.2812 33.2031 28.2812H21.0283C20.8372 26.5609 20.2311 24.9641 19.312 23.5938H33.2031C33.8503 23.5938 34.375 23.0691 34.375 22.4219C34.375 21.7747 33.8503 21.25 33.2031 21.25H17.1679C15.6428 20.0167 13.7686 19.1994 11.7188 18.9717V3.51562C11.7188 2.86945 12.2445 2.34375 12.8906 2.34375H29.6875V8.98438C29.6875 9.63156 30.2122 10.1562 30.8594 10.1562H37.5V36.4844C37.5 37.1305 36.9743 37.6562 36.3281 37.6562Z" fill="#3C00F2"/>
<path d="M39.5005 8.15594L31.6884 0.343281C31.4686 0.123438 31.1705 0 30.8597 0H12.8906C10.9521 0 9.375 1.57711 9.375 3.51562V18.9717C4.10891 19.5566 0 24.0337 0 29.4531C0 35.2687 4.73133 40 10.5469 40H36.3281C38.2666 40 39.8438 38.4229 39.8438 36.4844V8.98461C39.8438 8.67375 39.7203 8.37578 39.5005 8.15594ZM32.0312 4.00102L33.9371 5.90688L35.8427 7.8125H32.0312V4.00102ZM2.34375 29.4531C2.34375 24.9299 6.02367 21.25 10.5469 21.25C15.0701 21.25 18.75 24.9299 18.75 29.4531C18.75 33.9763 15.0701 37.6562 10.5469 37.6562C6.02367 37.6562 2.34375 33.9763 2.34375 29.4531ZM36.3281 37.6562H17.1679C19.2744 35.9527 20.7139 33.4563 21.0284 30.625H33.2031C33.8503 30.625 34.375 30.1003 34.375 29.4531C34.375 28.8059 33.8503 28.2812 33.2031 28.2812H21.0283C20.8372 26.5609 20.2311 24.9641 19.312 23.5938H33.2031C33.8503 23.5938 34.375 23.0691 34.375 22.4219C34.375 21.7747 33.8503 21.25 33.2031 21.25H17.1679C15.6428 20.0167 13.7686 19.1994 11.7188 18.9717V3.51562C11.7188 2.86945 12.2445 2.34375 12.8906 2.34375H29.6875V8.98438C29.6875 9.63156 30.2122 10.1562 30.8594 10.1562H37.5V36.4844C37.5 37.1305 36.9743 37.6562 36.3281 37.6562Z" fill="black" fill-opacity="0.2"/>
<path d="M13.4154 26.458H11.3754C11.5754 26.586 11.7314 26.734 11.8434 26.902C11.9554 27.066 12.0354 27.246 12.0834 27.442H13.4154V28.582H12.0774C11.9854 28.954 11.8014 29.284 11.5254 29.572C11.2494 29.86 10.8874 30.084 10.4394 30.244C10.5634 30.3 10.6774 30.374 10.7814 30.466C10.8894 30.558 10.9854 30.668 11.0694 30.796L13.2414 34H11.7834C11.5114 34 11.3114 33.892 11.1834 33.676L9.35939 30.898C9.29139 30.794 9.21539 30.72 9.13139 30.676C9.05139 30.632 8.93139 30.61 8.77139 30.61H7.64339V29.518H8.83139C9.28739 29.518 9.65139 29.432 9.92339 29.26C10.1994 29.088 10.3934 28.862 10.5054 28.582H7.63739V27.442H10.5414C10.4454 27.15 10.2574 26.922 9.97739 26.758C9.70139 26.59 9.32739 26.506 8.85539 26.506H7.64339V25.324H13.4154V26.458Z" fill="#3C00F2"/>
<path d="M13.4154 26.458H11.3754C11.5754 26.586 11.7314 26.734 11.8434 26.902C11.9554 27.066 12.0354 27.246 12.0834 27.442H13.4154V28.582H12.0774C11.9854 28.954 11.8014 29.284 11.5254 29.572C11.2494 29.86 10.8874 30.084 10.4394 30.244C10.5634 30.3 10.6774 30.374 10.7814 30.466C10.8894 30.558 10.9854 30.668 11.0694 30.796L13.2414 34H11.7834C11.5114 34 11.3114 33.892 11.1834 33.676L9.35939 30.898C9.29139 30.794 9.21539 30.72 9.13139 30.676C9.05139 30.632 8.93139 30.61 8.77139 30.61H7.64339V29.518H8.83139C9.28739 29.518 9.65139 29.432 9.92339 29.26C10.1994 29.088 10.3934 28.862 10.5054 28.582H7.63739V27.442H10.5414C10.4454 27.15 10.2574 26.922 9.97739 26.758C9.70139 26.59 9.32739 26.506 8.85539 26.506H7.64339V25.324H13.4154V26.458Z" fill="black" fill-opacity="0.2"/>
<path d="M33.2031 14.2188H16.0156C15.3684 14.2188 14.8438 14.7434 14.8438 15.3906C14.8438 16.0378 15.3684 16.5625 16.0156 16.5625H33.2031C33.8503 16.5625 34.375 16.0378 34.375 15.3906C34.375 14.7434 33.8503 14.2188 33.2031 14.2188Z" fill="#3C00F2"/>
<path d="M33.2031 14.2188H16.0156C15.3684 14.2188 14.8438 14.7434 14.8438 15.3906C14.8438 16.0378 15.3684 16.5625 16.0156 16.5625H33.2031C33.8503 16.5625 34.375 16.0378 34.375 15.3906C34.375 14.7434 33.8503 14.2188 33.2031 14.2188Z" fill="black" fill-opacity="0.2"/>
</svg>
