<svg width="64" height="64" viewBox="0 0 64 64" fill="none" xmlns="http://www.w3.org/2000/svg">
<rect y="0.00012207" width="64" height="64" rx="10" fill="#FFEEC3"/>
<path d="M32.257 20C30.6413 20 29.2785 21.3627 29.2785 22.9785C29.2785 24.5943 30.6413 25.957 32.257 25.957C33.8728 25.957 35.1867 24.5943 35.1867 22.9785C35.1867 21.3627 33.8728 20 32.257 20Z" fill="#FF9912"/>
<path d="M35.5086 25.957C34.7037 26.8496 33.5508 27.4219 32.257 27.4219C30.9633 27.4219 29.7616 26.8496 28.9567 25.957C28.2539 26.7363 27.8137 27.7571 27.8137 28.8867V29.6191C27.8137 30.024 28.1413 30.3516 28.5461 30.3516H35.9191C36.324 30.3516 36.6516 30.024 36.6516 29.6191V28.8867C36.6516 27.7571 36.2113 26.7363 35.5086 25.957Z" fill="#FF9912"/>
<path d="M26.1006 42.4806L22.3682 34.9974C22.0078 34.2748 21.1306 33.9801 20.4072 34.3386L19.4316 34.8218C19.0684 35.002 18.9206 35.4434 19.1019 35.806L23.4964 44.5951C23.6771 44.9575 24.1167 45.1018 24.477 44.9241L25.44 44.447C26.1663 44.0872 26.4624 43.2059 26.1006 42.4806Z" fill="#FF9912"/>
<path d="M43.424 32.0947C42.8234 31.6552 41.9884 31.7431 41.4904 32.2851L37.4866 37.207C37.2082 37.4999 36.6809 37.6757 36.4026 37.6757H32.9894C32.5792 37.6757 32.257 37.3535 32.257 36.9433C32.257 36.5331 32.5792 36.2109 32.9894 36.2109C33.9704 36.2109 35.0564 36.2109 35.9191 36.2109C36.7248 36.2109 37.384 35.5517 37.384 34.746C37.384 33.9404 36.7248 33.2812 35.9191 33.2812C32.4794 33.2812 35.7604 33.2812 32.0812 33.2812C31.7162 33.2812 31.5342 33.0497 31.2463 32.7977C30.113 31.778 28.4167 31.2867 26.6995 31.6847C25.746 31.9057 25.1029 32.2909 24.4508 32.8074L24.4291 32.7898L23.3697 33.7221L27.533 42.0702H28.7658H35.9191C37.2961 42.0702 38.6145 41.4111 39.4348 40.3124L43.7316 34.1601C44.215 33.5155 44.0832 32.5781 43.424 32.0947Z" fill="#FF9912"/>
</svg>
