<svg width="183" height="140" viewBox="0 0 183 140" fill="none" xmlns="http://www.w3.org/2000/svg">
<path d="M126.055 106.13C126.055 112.829 124.079 119.378 120.377 124.948C116.674 130.518 111.411 134.859 105.254 137.422C99.0971 139.986 92.3221 140.656 85.7858 139.349C79.2496 138.042 73.2458 134.816 68.5337 130.078C63.8216 125.341 60.6129 119.306 59.3132 112.735C58.0136 106.165 58.6814 99.3549 61.2323 93.1661C63.7832 86.9773 68.1025 81.6879 73.6441 77.9668C79.1857 74.2456 85.7006 72.2599 92.3649 72.2607C101.301 72.2618 109.87 75.8306 116.188 82.1823C122.506 88.534 126.055 97.1483 126.055 106.13V106.13Z" fill="#CFD1D2"/>
<path d="M34.287 73.9661C31.8656 72.6248 28.798 73.4998 27.6384 76.0133C23.9886 83.9241 21.8126 92.4415 21.2189 101.141C21.0311 103.894 23.2866 106.13 26.0451 106.13L43.9938 106.13C46.7579 106.13 48.9681 103.88 49.281 101.134C49.7327 97.1681 50.727 93.2837 52.2355 89.5912C53.2774 87.041 52.4308 84.0164 50.021 82.6815L34.287 73.9661Z" fill="#CFD1D2"/>
<path d="M150.093 73.9661C152.514 72.6248 155.582 73.4998 156.741 76.0133C160.391 83.9241 162.567 92.4415 163.161 101.141C163.349 103.894 161.093 106.13 158.335 106.13L140.386 106.13C137.622 106.13 135.412 103.88 135.099 101.134C134.647 97.1681 133.653 93.2837 132.144 89.5912C131.102 87.041 131.949 84.0164 134.359 82.6815L150.093 73.9661Z" fill="#CFD1D2"/>
<path d="M81.3342 36.2019C80.7808 33.4898 78.1227 31.7261 75.4586 32.4774C67.0734 34.842 59.1845 38.7211 52.1849 43.9216C49.9706 45.5668 49.7354 48.7346 51.5275 50.8318L63.1878 64.4769C64.9836 66.5783 68.1301 66.7967 70.4212 65.2504C73.7296 63.0175 77.3286 61.2499 81.1158 59.9979C83.7313 59.1332 85.4808 56.5246 84.93 53.8254L81.3342 36.2019Z" fill="#CFD1D2"/>
<path d="M138.262 51.2644C140.218 49.306 140.222 46.1161 138.125 44.3092C131.525 38.622 123.936 34.1846 115.736 31.218C113.142 30.2796 110.371 31.832 109.611 34.4838L104.668 51.7385C103.907 54.3958 105.462 57.1401 108.016 58.1972C111.704 59.7236 115.164 61.7491 118.298 64.2162C120.463 65.92 123.604 65.9391 125.551 63.9901L138.262 51.2644Z" fill="#CFD1D2"/>
</svg>
