<svg width="64" height="64" viewBox="0 0 64 64" fill="none" xmlns="http://www.w3.org/2000/svg">
<rect x="0.00012207" width="64" height="64" rx="10" fill="#00C3FF" fill-opacity="0.1"/>
<path d="M29.4397 31.3243C29.7866 31.4695 30.1465 31.5816 30.5144 31.6593V44.946C30.2887 44.8879 30.0691 44.8084 29.8584 44.7088L21.4844 40.9823C20.745 40.6532 20.1169 40.1168 19.676 39.4382C19.2351 38.7595 19.0003 37.9675 19.0001 37.1582V27.863C19.0012 27.4903 19.0529 27.1193 19.1536 26.7604L29.4397 31.3243ZM35.497 28.2119L24.1222 22.8665L21.4844 24.0389C21.0087 24.248 20.5775 24.5465 20.2144 24.9182L30.2771 29.3983C30.6814 29.5777 31.1188 29.6704 31.5612 29.6704C32.0035 29.6704 32.4409 29.5777 32.8452 29.3983L35.497 28.2119ZM42.908 24.9182C42.5448 24.5465 42.1136 24.248 41.6379 24.0389L33.2639 20.3124C32.7287 20.0709 32.1483 19.946 31.5612 19.946C30.974 19.946 30.3936 20.0709 29.8584 20.3124L26.6624 21.736L38.0371 27.0815L42.908 24.9182ZM43.9687 26.7604L39.0699 28.9377V32.3571C39.0699 32.6347 38.9596 32.901 38.7633 33.0973C38.567 33.2936 38.3007 33.4038 38.0231 33.4038C37.7455 33.4038 37.4793 33.2936 37.283 33.0973C37.0866 32.901 36.9764 32.6347 36.9764 32.3571V29.8588L33.6826 31.3243C33.3334 31.4632 32.9742 31.5752 32.6079 31.6593V44.946C32.8336 44.8879 33.0532 44.8084 33.2639 44.7088L41.6379 40.9823C42.3773 40.6532 43.0054 40.1168 43.4464 39.4382C43.8873 38.7595 44.122 37.9675 44.1222 37.1582V27.863C44.1211 27.4903 44.0694 27.1193 43.9687 26.7604Z" fill="#00C3FF"/>
</svg>
