<svg width="64" height="64" viewBox="0 0 64 64" fill="none" xmlns="http://www.w3.org/2000/svg">
<rect x="0.00012207" width="64" height="64" rx="10" fill="#5D008F" fill-opacity="0.1"/>
<path d="M41.2462 22.374H35.1262C35.7262 22.758 36.1942 23.202 36.5302 23.706C36.8662 24.198 37.1062 24.738 37.2502 25.326H41.2462V28.746H37.2322C36.9562 29.862 36.4042 30.852 35.5762 31.716C34.7482 32.58 33.6622 33.252 32.3182 33.732C32.6902 33.9 33.0322 34.122 33.3442 34.398C33.6682 34.674 33.9562 35.004 34.2082 35.388L40.7242 45H36.3502C35.5342 45 34.9342 44.676 34.5502 44.028L29.0782 35.694C28.8742 35.382 28.6462 35.16 28.3942 35.028C28.1542 34.896 27.7942 34.83 27.3142 34.83H23.9302V31.554H27.4942C28.8622 31.554 29.9542 31.296 30.7702 30.78C31.5982 30.264 32.1802 29.586 32.5162 28.746H23.9122V25.326H32.6242C32.3362 24.45 31.7722 23.766 30.9322 23.274C30.1042 22.77 28.9822 22.518 27.5662 22.518H23.9302V18.972H41.2462V22.374Z" fill="#5D008F"/>
</svg>
