<svg width="64" height="64" viewBox="0 0 64 64" fill="none" xmlns="http://www.w3.org/2000/svg">
<rect x="0.00012207" width="64" height="64" rx="10" fill="#19D1AF" fill-opacity="0.1"/>
<path d="M41.2463 22.374H35.1263C35.7263 22.758 36.1943 23.202 36.5303 23.706C36.8663 24.198 37.1063 24.738 37.2503 25.326H41.2463V28.746H37.2323C36.9563 29.862 36.4043 30.852 35.5763 31.716C34.7483 32.58 33.6623 33.252 32.3183 33.732C32.6903 33.9 33.0323 34.122 33.3443 34.398C33.6683 34.674 33.9563 35.004 34.2083 35.388L40.7243 45H36.3503C35.5343 45 34.9343 44.676 34.5503 44.028L29.0783 35.694C28.8743 35.382 28.6463 35.16 28.3943 35.028C28.1543 34.896 27.7943 34.83 27.3143 34.83H23.9303V31.554H27.4943C28.8623 31.554 29.9543 31.296 30.7703 30.78C31.5983 30.264 32.1803 29.586 32.5163 28.746H23.9123V25.326H32.6243C32.3363 24.45 31.7723 23.766 30.9323 23.274C30.1043 22.77 28.9823 22.518 27.5663 22.518H23.9303V18.972H41.2463V22.374Z" fill="#19D1AF"/>
</svg>
