<svg width="40" height="38" viewBox="0 0 40 38" fill="none" xmlns="http://www.w3.org/2000/svg">
<path d="M36.4844 15H33.0469V3.51562C33.0469 1.57711 31.4698 0 29.5312 0C28.887 0 9.67742 0 8.59375 0C6.65523 0 5.07812 1.57711 5.07812 3.51562V5H3.75C1.72531 5 0 6.64719 0 8.67188C0 10.6966 1.72531 12.3438 3.75 12.3438H5.07812V31.1719C5.07812 31.8191 5.60281 32.3438 6.25 32.3438H10.0781V33.8281C10.0781 35.7666 11.6552 37.3438 13.5938 37.3438H36.4844C38.4229 37.3438 40 35.7666 40 33.8281V18.5156C40 16.5771 38.4229 15 36.4844 15ZM12.4219 22.3438H37.6562V25H12.4219V22.3438ZM37.6562 18.5156V20H12.4219V18.5156C12.4219 17.8695 12.9476 17.3438 13.5938 17.3438H36.4844C37.1305 17.3438 37.6562 17.8695 37.6562 18.5156ZM30.7031 3.51562V15H28.0469V2.34375H29.5312C30.1774 2.34375 30.7031 2.86945 30.7031 3.51562ZM20.3508 2.34375C20.9841 3.17141 21.3281 4.18117 21.3281 5.23438C21.3281 7.86219 19.1903 10 16.5625 10C14.7648 10 13.1092 9.00461 12.2893 7.34375H18.125C18.7722 7.34375 19.2969 6.81906 19.2969 6.17188C19.2969 5.52469 18.7722 5 18.125 5H11.8035C11.8511 4.0018 12.207 3.08398 12.7738 2.34375H20.3508ZM7.42188 3.51562C7.42188 2.86945 7.94758 2.34375 8.59375 2.34375H10.0673C9.69164 3.18352 9.48672 4.07461 9.45719 5H7.42188V3.51562ZM3.75 10C3.01766 10 2.34375 9.40422 2.34375 8.67188C2.34375 7.93953 3.01766 7.34375 3.75 7.34375H5.07812V10H3.75ZM7.42188 30V7.34375H9.77164C10.6771 10.2491 13.3515 12.3438 16.5625 12.3438C21.7145 12.3438 25.141 7.01734 23.0585 2.34375H25.7031V15H13.5938C11.659 15 10.0843 16.5709 10.0781 18.5042V30H7.42188ZM36.4844 35H13.5938C12.9476 35 12.4219 34.4743 12.4219 33.8281V27.3438H37.6562V33.8281C37.6562 34.4743 37.1305 35 36.4844 35Z" fill="#3C00F2"/>
<path d="M36.4844 15H33.0469V3.51562C33.0469 1.57711 31.4698 0 29.5312 0C28.887 0 9.67742 0 8.59375 0C6.65523 0 5.07812 1.57711 5.07812 3.51562V5H3.75C1.72531 5 0 6.64719 0 8.67188C0 10.6966 1.72531 12.3438 3.75 12.3438H5.07812V31.1719C5.07812 31.8191 5.60281 32.3438 6.25 32.3438H10.0781V33.8281C10.0781 35.7666 11.6552 37.3438 13.5938 37.3438H36.4844C38.4229 37.3438 40 35.7666 40 33.8281V18.5156C40 16.5771 38.4229 15 36.4844 15ZM12.4219 22.3438H37.6562V25H12.4219V22.3438ZM37.6562 18.5156V20H12.4219V18.5156C12.4219 17.8695 12.9476 17.3438 13.5938 17.3438H36.4844C37.1305 17.3438 37.6562 17.8695 37.6562 18.5156ZM30.7031 3.51562V15H28.0469V2.34375H29.5312C30.1774 2.34375 30.7031 2.86945 30.7031 3.51562ZM20.3508 2.34375C20.9841 3.17141 21.3281 4.18117 21.3281 5.23438C21.3281 7.86219 19.1903 10 16.5625 10C14.7648 10 13.1092 9.00461 12.2893 7.34375H18.125C18.7722 7.34375 19.2969 6.81906 19.2969 6.17188C19.2969 5.52469 18.7722 5 18.125 5H11.8035C11.8511 4.0018 12.207 3.08398 12.7738 2.34375H20.3508ZM7.42188 3.51562C7.42188 2.86945 7.94758 2.34375 8.59375 2.34375H10.0673C9.69164 3.18352 9.48672 4.07461 9.45719 5H7.42188V3.51562ZM3.75 10C3.01766 10 2.34375 9.40422 2.34375 8.67188C2.34375 7.93953 3.01766 7.34375 3.75 7.34375H5.07812V10H3.75ZM7.42188 30V7.34375H9.77164C10.6771 10.2491 13.3515 12.3438 16.5625 12.3438C21.7145 12.3438 25.141 7.01734 23.0585 2.34375H25.7031V15H13.5938C11.659 15 10.0843 16.5709 10.0781 18.5042V30H7.42188ZM36.4844 35H13.5938C12.9476 35 12.4219 34.4743 12.4219 33.8281V27.3438H37.6562V33.8281C37.6562 34.4743 37.1305 35 36.4844 35Z" fill="black" fill-opacity="0.2"/>
<path d="M33.75 30H32.5C31.8528 30 31.3281 30.5247 31.3281 31.1719C31.3281 31.8191 31.8528 32.3438 32.5 32.3438H33.75C34.3972 32.3438 34.9219 31.8191 34.9219 31.1719C34.9219 30.5247 34.3972 30 33.75 30Z" fill="#3C00F2"/>
<path d="M33.75 30H32.5C31.8528 30 31.3281 30.5247 31.3281 31.1719C31.3281 31.8191 31.8528 32.3438 32.5 32.3438H33.75C34.3972 32.3438 34.9219 31.8191 34.9219 31.1719C34.9219 30.5247 34.3972 30 33.75 30Z" fill="black" fill-opacity="0.2"/>
<path d="M22.5 30H16.25C15.6028 30 15.0781 30.5247 15.0781 31.1719C15.0781 31.8191 15.6028 32.3438 16.25 32.3438H22.5C23.1472 32.3438 23.6719 31.8191 23.6719 31.1719C23.6719 30.5247 23.1472 30 22.5 30Z" fill="#3C00F2"/>
<path d="M22.5 30H16.25C15.6028 30 15.0781 30.5247 15.0781 31.1719C15.0781 31.8191 15.6028 32.3438 16.25 32.3438H22.5C23.1472 32.3438 23.6719 31.8191 23.6719 31.1719C23.6719 30.5247 23.1472 30 22.5 30Z" fill="black" fill-opacity="0.2"/>
</svg>
