<svg width="64" height="64" viewBox="0 0 64 64" fill="none" xmlns="http://www.w3.org/2000/svg">
<rect x="0.00012207" width="64" height="64" rx="10" fill="#56AB2F" fill-opacity="0.1"/>
<path d="M36.0716 40.4152C35.618 40.5973 35.1492 40.75 34.6644 40.8616L34.468 43.4205C34.443 43.7473 34.1698 44 33.8421 44H31.1573C30.8296 44 30.5573 43.7473 30.5323 43.4214L30.3358 40.8625C29.2841 40.6205 28.301 40.2054 27.4126 39.6491L25.4617 41.3214C25.2126 41.5348 24.8421 41.5205 24.6099 41.2884L22.7117 39.3902C22.4796 39.158 22.4662 38.7875 22.6787 38.5384L24.351 36.5875C23.7957 35.6991 23.3805 34.7161 23.1376 33.6643L20.5787 33.4679C20.2528 33.4429 20.0001 33.1696 20.0001 32.842V30.1571C20.0001 29.8295 20.2528 29.5571 20.5787 29.5321L23.1376 29.3357C23.3796 28.2839 23.7948 27.3009 24.351 26.4125L22.6796 24.4616C22.4662 24.2134 22.4805 23.842 22.7117 23.6107L24.6099 21.7125C24.8412 21.4812 25.2126 21.467 25.4617 21.6795L27.4126 23.3518C28.301 22.7964 29.2841 22.3812 30.3358 22.1384L30.5323 19.5795C30.5573 19.2527 30.8305 19 31.1582 19H33.843C34.1707 19 34.443 19.2527 34.468 19.5786L34.4796 19.7277C33.7867 20.7911 33.393 22.0446 33.393 23.3705C33.393 24.4437 33.6466 25.4723 34.1099 26.3902C33.6019 26.2295 33.0608 26.1429 32.5001 26.1429C29.5412 26.1429 27.143 28.5411 27.143 31.5C27.143 34.4589 29.5412 36.8571 32.5001 36.8571C33.8742 36.8571 35.1233 36.3357 36.0716 35.4848V40.4152Z" fill="#56AB2F"/>
<path d="M42.3216 27.7402V41.7679C42.3216 43.0009 41.3225 44 40.0894 44C38.8564 44 37.8573 43.0009 37.8573 41.7679V27.7402C36.268 26.9268 35.1787 25.2777 35.1787 23.3696C35.1787 21.5259 36.1966 19.9223 37.7001 19.083C37.7689 19.0455 37.8573 19.0991 37.8573 19.1777V24.3571L40.0894 25.25L42.3216 24.3571V19.1777C42.3216 19.0991 42.41 19.0455 42.4787 19.0839C43.9823 19.9232 45.0001 21.5259 45.0001 23.3705C45.0001 25.2777 43.9109 26.9277 42.3216 27.7402Z" fill="#56AB2F"/>
</svg>
