<svg width="64" height="64" viewBox="0 0 64 64" fill="none" xmlns="http://www.w3.org/2000/svg">
<rect width="64" height="64" rx="10" fill="#191BA2" fill-opacity="0.1"/>
<path d="M23.75 31.25C25.1289 31.25 26.25 30.1289 26.25 28.75C26.25 27.3711 25.1289 26.25 23.75 26.25C22.3711 26.25 21.25 27.3711 21.25 28.75C21.25 30.1289 22.3711 31.25 23.75 31.25ZM41.25 31.25C42.6289 31.25 43.75 30.1289 43.75 28.75C43.75 27.3711 42.6289 26.25 41.25 26.25C39.8711 26.25 38.75 27.3711 38.75 28.75C38.75 30.1289 39.8711 31.25 41.25 31.25ZM42.5 32.5H40C39.3125 32.5 38.6914 32.7773 38.2383 33.2266C39.8125 34.0898 40.9297 35.6484 41.1719 37.5H43.75C44.4414 37.5 45 36.9414 45 36.25V35C45 33.6211 43.8789 32.5 42.5 32.5ZM32.5 32.5C34.918 32.5 36.875 30.543 36.875 28.125C36.875 25.707 34.918 23.75 32.5 23.75C30.082 23.75 28.125 25.707 28.125 28.125C28.125 30.543 30.082 32.5 32.5 32.5ZM35.5 33.75H35.1758C34.3633 34.1406 33.4609 34.375 32.5 34.375C31.5391 34.375 30.6406 34.1406 29.8242 33.75H29.5C27.0156 33.75 25 35.7656 25 38.25V39.375C25 40.4102 25.8398 41.25 26.875 41.25H38.125C39.1602 41.25 40 40.4102 40 39.375V38.25C40 35.7656 37.9844 33.75 35.5 33.75ZM26.7617 33.2266C26.3086 32.7773 25.6875 32.5 25 32.5H22.5C21.1211 32.5 20 33.6211 20 35V36.25C20 36.9414 20.5586 37.5 21.25 37.5H23.8242C24.0703 35.6484 25.1875 34.0898 26.7617 33.2266Z" fill="#191BA2"/>
</svg>
