<svg width="32" height="32" viewBox="0 0 32 32" fill="none" xmlns="http://www.w3.org/2000/svg">
<rect width="32" height="32" rx="16" fill="url(#paint0_linear_555_15731)"/>
<path d="M27.8247 10.8857L25.6916 9V9.96834H22.645C21.4963 9.96851 20.3682 10.2612 19.375 10.8167C18.3819 11.3721 17.559 12.1707 16.9899 13.1312L15.4921 15.6585L13.661 13.4969H11.7926L14.6419 17.0945L13.8043 18.5245C13.346 19.3003 12.6824 19.9453 11.8811 20.394C11.0797 20.8427 10.1692 21.079 9.24223 21.0788H7.1331V19.7927L5 21.8343L7.1331 23.72V22.6167H9.44464C10.5913 22.6151 11.7171 22.3217 12.708 21.7662C13.6989 21.2108 14.5197 20.4131 15.0872 19.4539L18.2822 14.0576C18.7408 13.2844 19.4033 12.6416 20.2027 12.1941C21.0021 11.7467 21.9102 11.5104 22.8349 11.5093H25.6822V12.9393L27.8247 10.8857Z" fill="white"/>
<defs>
<linearGradient id="paint0_linear_555_15731" x1="0.062606" y1="16.1811" x2="32.2054" y2="16.1811" gradientUnits="userSpaceOnUse">
<stop stop-color="#8A2BE2"/>
<stop offset="0.23" stop-color="#8427E1"/>
<stop offset="0.52" stop-color="#741CDD"/>
<stop offset="0.86" stop-color="#5909D7"/>
<stop offset="1" stop-color="#4B00D4"/>
</linearGradient>
</defs>
</svg>
